<?xml version="1.0" encoding="UTF-8" standalone="no"?>
<svg xmlns:ffdec="https://www.free-decompiler.com/flash" xmlns:xlink="http://www.w3.org/1999/xlink" ffdec:objectType="frame" height="58.35px" width="324.65px" xmlns="http://www.w3.org/2000/svg">
  <g transform="matrix(1.0, 0.0, 0.0, 1.0, 0.0, 0.0)">
    <use ffdec:characterId="329" filter="url(#filter0)" height="58.35" transform="matrix(1.0, 0.0, 0.0, 1.0, 0.0, 0.0)" width="324.45" xlink:href="#sprite0"/>
    <use ffdec:characterId="331" height="19.5" transform="matrix(1.0, 0.0, 0.0, 1.0, 5.45, 5.0)" width="312.35" xlink:href="#sprite1"/>
    <use ffdec:characterId="332" height="25.95" transform="matrix(1.0, 0.0, 0.0, 1.0, 0.2, 32.4)" width="324.45" xlink:href="#shape2"/>
  </g>
  <defs>
    <g id="sprite0" transform="matrix(1.0, 0.0, 0.0, 1.0, 0.0, 0.0)">
      <use ffdec:characterId="328" height="58.35" transform="matrix(1.0, 0.0, 0.0, 1.0, 0.0, 0.0)" width="324.45" xlink:href="#shape0"/>
    </g>
    <g id="shape0" transform="matrix(1.0, 0.0, 0.0, 1.0, 0.0, 0.0)">
      <path d="M315.9 8.55 Q324.45 17.15 324.45 29.2 324.45 41.25 315.9 49.8 307.3 58.35 295.25 58.35 L29.2 58.35 Q17.15 58.35 8.55 49.8 0.0 41.25 0.0 29.2 0.0 17.15 8.55 8.55 17.15 0.0 29.2 0.0 L295.25 0.0 Q307.35 0.0 315.9 8.55" fill="#7cbe31" fill-rule="evenodd" stroke="none"/>
    </g>
    <g id="sprite1" transform="matrix(1.0, 0.0, 0.0, 1.0, 0.0, 0.0)">
      <use ffdec:characterId="330" height="19.5" transform="matrix(1.0, 0.0, 0.0, 1.0, 0.0, 0.0)" width="312.35" xlink:href="#shape1"/>
    </g>
    <g id="shape1" transform="matrix(1.0, 0.0, 0.0, 1.0, 0.0, 0.0)">
      <path d="M288.6 0.0 Q297.35 0.0 304.05 5.6 310.7 11.1 312.35 19.5 308.25 14.7 302.6 12.05 296.8 9.3 290.3 9.3 L22.05 9.3 Q15.55 9.3 9.75 12.05 4.1 14.7 0.0 19.5 1.65 11.1 8.3 5.6 15.0 0.0 23.75 0.0 L288.6 0.0" fill="#a3d16e" fill-rule="evenodd" stroke="none"/>
    </g>
    <g id="shape2" transform="matrix(1.0, 0.0, 0.0, 1.0, -0.2, -32.4)">
      <path d="M324.65 32.4 Q323.45 43.4 315.2 50.85 306.85 58.35 295.65 58.35 L29.2 58.35 Q18.0 58.35 9.7 50.85 1.4 43.4 0.2 32.4 4.75 39.3 12.0 43.3 19.45 47.45 28.0 47.45 L296.85 47.45 Q305.4 47.45 312.85 43.3 320.1 39.3 324.65 32.4" fill="#559f08" fill-rule="evenodd" stroke="none"/>
    </g>
  </defs>
</svg>
