<?xml version="1.0" encoding="UTF-8" standalone="no"?>
<svg
   ffdec:objectType="frame"
   height="58"
   width="10"
   version="1.1"
   id="svg6"
   sodipodi:docname="loadingbarmiddle.svg"
   inkscape:version="1.3.2 (091e20e, 2023-11-25, custom)"
   xmlns:inkscape="http://www.inkscape.org/namespaces/inkscape"
   xmlns:sodipodi="http://sodipodi.sourceforge.net/DTD/sodipodi-0.dtd"
   xmlns:xlink="http://www.w3.org/1999/xlink"
   xmlns="http://www.w3.org/2000/svg"
   xmlns:svg="http://www.w3.org/2000/svg"
   xmlns:ffdec="https://www.free-decompiler.com/flash">
  <sodipodi:namedview
     id="namedview6"
     pagecolor="#ffffff"
     bordercolor="#000000"
     borderopacity="0.25"
     inkscape:showpageshadow="2"
     inkscape:pageopacity="0.0"
     inkscape:pagecheckerboard="0"
     inkscape:deskcolor="#d1d1d1"
     inkscape:zoom="11.313709"
     inkscape:cx="-6.8942911"
     inkscape:cy="23.467106"
     inkscape:window-width="1920"
     inkscape:window-height="1094"
     inkscape:window-x="-11"
     inkscape:window-y="-11"
     inkscape:window-maximized="1"
     inkscape:current-layer="svg6" />
  <g
     id="g3"
     clip-path="url(#clipPath8)"
     transform="translate(-40)">
    <use
       ffdec:characterId="329"
       filter="url(#filter0)"
       height="58.349998"
       width="324.45001"
       xlink:href="#sprite0"
       id="use1" />
    <use
       ffdec:characterId="331"
       height="19.5"
       transform="translate(5.45,5)"
       width="312.35001"
       xlink:href="#sprite1"
       id="use2" />
    <use
       ffdec:characterId="332"
       height="25.950001"
       transform="translate(0.2,32.4)"
       width="324.45001"
       xlink:href="#shape2"
       id="use3" />
  </g>
  <defs
     id="defs6">
    <g
       id="sprite0">
      <use
         ffdec:characterId="328"
         height="58.349998"
         width="324.45001"
         xlink:href="#shape0"
         id="use4" />
    </g>
    <g
       id="shape0">
      <path
         d="m 315.9,8.55 q 8.55,8.6 8.55,20.65 0,12.05 -8.55,20.6 -8.6,8.55 -20.65,8.55 H 29.2 Q 17.15,58.35 8.55,49.8 0,41.25 0,29.2 0,17.15 8.55,8.55 17.15,0 29.2,0 h 266.05 q 12.1,0 20.65,8.55"
         fill="#7cbe31"
         fill-rule="evenodd"
         stroke="none"
         id="path4" />
    </g>
    <g
       id="sprite1">
      <use
         ffdec:characterId="330"
         height="19.5"
         width="312.35001"
         xlink:href="#shape1"
         id="use5" />
    </g>
    <g
       id="shape1">
      <path
         d="m 288.6,0 q 8.75,0 15.45,5.6 6.65,5.5 8.3,13.9 -4.1,-4.8 -9.75,-7.45 Q 296.8,9.3 290.3,9.3 H 22.05 q -6.5,0 -12.3,2.75 Q 4.1,14.7 0,19.5 1.65,11.1 8.3,5.6 15,0 23.75,0 H 288.6"
         fill="#a3d16e"
         fill-rule="evenodd"
         stroke="none"
         id="path5" />
    </g>
    <g
       id="shape2"
       transform="translate(-0.2,-32.4)">
      <path
         d="m 324.65,32.4 q -1.2,11 -9.45,18.45 -8.35,7.5 -19.55,7.5 H 29.2 Q 18,58.35 9.7,50.85 1.4,43.4 0.2,32.4 4.75,39.3 12,43.3 q 7.45,4.15 16,4.15 h 268.85 q 8.55,0 16,-4.15 7.25,-4 11.8,-10.9"
         fill="#559f08"
         fill-rule="evenodd"
         stroke="none"
         id="path6" />
    </g>
    <clipPath
       clipPathUnits="userSpaceOnUse"
       id="clipPath8">
      <rect
         style="fill:#ff1212;fill-opacity:0.33125;stroke-width:0.58722"
         id="rect8"
         width="10"
         height="58"
         x="40"
         y="0" />
    </clipPath>
  </defs>
</svg>
