<?xml version="1.0" encoding="UTF-8" standalone="no"?>
<svg xmlns:ffdec="https://www.free-decompiler.com/flash" xmlns:xlink="http://www.w3.org/1999/xlink" ffdec:objectType="frame" height="77.55px" width="347.55px" xmlns="http://www.w3.org/2000/svg">
  <g transform="matrix(1.0, 0.0, 0.0, 1.0, 0.0, 0.0)">
    <use ffdec:characterId="324" height="77.55" transform="matrix(1.0, 0.0, 0.0, 1.0, 0.0, 0.0)" width="347.55" xlink:href="#sprite0"/>
    <use ffdec:characterId="325" height="69.4" transform="matrix(1.0, 0.0, 0.0, 1.0, 3.3, 0.65)" width="339.2" xlink:href="#shape1"/>
    <use ffdec:characterId="334" filter="url(#filter1)" height="58.7" id="mcBar" transform="matrix(1.0, 0.0, 0.0, 1.0, 10.4, 4.5)" width="325.05" xlink:href="#sprite1"/>
    <use ffdec:characterId="335" height="15.7" transform="matrix(1.0, 0.0, 0.0, 1.0, 22.05, 10.85)" width="18.8" xlink:href="#shape6"/>
  </g>
  <defs>
    <g id="sprite0" transform="matrix(1.0, 0.0, 0.0, 1.0, 0.0, 0.0)">
      <use ffdec:characterId="323" height="77.55" transform="matrix(1.0, 0.0, 0.0, 1.0, 0.0, 0.0)" width="347.55" xlink:href="#shape0"/>
    </g>
    <g id="shape0" transform="matrix(1.0, 0.0, 0.0, 1.0, 0.0, 0.0)">
      <path d="M337.15 11.35 Q347.55 22.7 347.55 38.75 347.55 54.85 337.15 66.2 326.75 77.55 312.0 77.55 L35.55 77.55 Q20.8 77.55 10.4 66.2 0.0 54.85 0.0 38.75 0.0 22.7 10.4 11.35 20.8 0.0 35.55 0.0 L312.0 0.0 Q326.75 0.0 337.15 11.35" fill="#000000" fill-opacity="0.4" fill-rule="evenodd" stroke="none"/>
    </g>
    <g id="shape1" transform="matrix(1.0, 0.0, 0.0, 1.0, -3.3, -0.65)">
      <path d="M332.35 10.8 Q342.5 21.0 342.5 35.35 342.5 49.7 332.35 59.9 322.2 70.05 307.85 70.05 L38.0 70.05 Q23.65 70.05 13.45 59.9 3.3 49.7 3.3 35.35 3.3 21.0 13.45 10.8 23.65 0.65 38.0 0.65 L307.85 0.65 Q322.2 0.65 332.35 10.8" fill="#ffffff" fill-rule="evenodd" stroke="none"/>
      <path d="M338.35 34.5 Q338.35 47.4 329.25 56.55 320.1 65.65 307.2 65.65 L38.65 65.65 Q25.75 65.65 16.6 56.55 7.45 47.4 7.45 34.5 7.45 21.65 16.6 12.5 25.75 3.35 38.65 3.35 L307.2 3.35 Q320.1 3.35 329.25 12.5 338.35 21.65 338.35 34.5" fill="#5a6761" fill-rule="evenodd" stroke="none"/>
      <path d="M335.0 33.7 Q335.0 45.75 326.45 54.3 317.9 62.85 305.85 62.85 L40.0 62.85 Q27.95 62.85 19.35 54.3 10.8 45.75 10.8 33.7 10.8 21.65 19.35 13.05 27.95 4.5 40.0 4.5 L305.85 4.5 Q317.9 4.5 326.45 13.05 335.0 21.6 335.0 33.7" fill="#91a79a" fill-rule="evenodd" stroke="none"/>
      <path d="M324.1 15.45 Q331.7 23.0 331.7 33.7 331.7 35.9 331.2 38.65 329.45 29.65 322.35 23.75 315.2 17.75 305.85 17.75 L40.0 17.75 Q30.65 17.75 23.45 23.75 16.4 29.65 14.6 38.65 14.15 36.2 14.15 33.7 14.15 23.0 21.75 15.45 29.3 7.85 40.0 7.85 L305.85 7.85 Q316.55 7.85 324.1 15.45" fill="#7f9387" fill-rule="evenodd" stroke="none"/>
    </g>
    <g id="sprite1" transform="matrix(1.0, 0.0, 0.0, 1.0, -10.8, -4.5)">
      <clipPath id="clipPath0" transform="matrix(1.0, 0.0, 0.0, 1.0, 10.8, 4.5)">
        <use ffdec:characterId="326" height="58.35" transform="matrix(1.0, 0.0, 0.0, 1.0, 0.0, 0.0)" width="324.6" xlink:href="#shape2"/>
      </clipPath>
      <g clip-path="url(#clipPath0)">
        <use ffdec:characterId="333" height="58.35" id="loadingbar_greenfiller" transform="matrix(1.0, 0.0, 0.0, 1.0, 11.2, 4.85)" width="324.65" xlink:href="#sprite3"/>
      </g>
    </g>
    <g id="shape2" transform="matrix(1.0, 0.0, 0.0, 1.0, 0.0, 0.0)">
      <path d="M301.6 0.0 Q312.6 3.85 318.7 11.75 324.6 19.45 324.6 29.2 324.6 39.0 318.85 46.6 312.8 54.5 301.6 58.35 L29.2 58.35 Q17.15 58.35 8.55 49.8 0.0 41.25 0.0 29.2 0.0 17.15 8.55 8.55 17.15 0.0 29.2 0.0 L301.6 0.0" fill="#5a6761" fill-rule="evenodd" stroke="none"/>
    </g>
    <g id="sprite3" transform="matrix(1.0, 0.0, 0.0, 1.0, 0.0, 0.0)">
      <use ffdec:characterId="329" filter="url(#filter0)" height="58.35" transform="matrix(1.0, 0.0, 0.0, 1.0, 0.0, 0.0)" width="324.45" xlink:href="#sprite4"/>
      <use ffdec:characterId="331" height="19.5" transform="matrix(1.0, 0.0, 0.0, 1.0, 5.45, 5.0)" width="312.35" xlink:href="#sprite5"/>
      <use ffdec:characterId="332" height="25.95" transform="matrix(1.0, 0.0, 0.0, 1.0, 0.2, 32.4)" width="324.45" xlink:href="#shape5"/>
    </g>
    <g id="sprite4" transform="matrix(1.0, 0.0, 0.0, 1.0, 0.0, 0.0)">
      <use ffdec:characterId="328" height="58.35" transform="matrix(1.0, 0.0, 0.0, 1.0, 0.0, 0.0)" width="324.45" xlink:href="#shape3"/>
    </g>
    <g id="shape3" transform="matrix(1.0, 0.0, 0.0, 1.0, 0.0, 0.0)">
      <path d="M315.9 8.55 Q324.45 17.15 324.45 29.2 324.45 41.25 315.9 49.8 307.3 58.35 295.25 58.35 L29.2 58.35 Q17.15 58.35 8.55 49.8 0.0 41.25 0.0 29.2 0.0 17.15 8.55 8.55 17.15 0.0 29.2 0.0 L295.25 0.0 Q307.35 0.0 315.9 8.55" fill="#7cbe31" fill-rule="evenodd" stroke="none"/>
    </g>
    <g id="sprite5" transform="matrix(1.0, 0.0, 0.0, 1.0, 0.0, 0.0)">
      <use ffdec:characterId="330" height="19.5" transform="matrix(1.0, 0.0, 0.0, 1.0, 0.0, 0.0)" width="312.35" xlink:href="#shape4"/>
    </g>
    <g id="shape4" transform="matrix(1.0, 0.0, 0.0, 1.0, 0.0, 0.0)">
      <path d="M288.6 0.0 Q297.35 0.0 304.05 5.6 310.7 11.1 312.35 19.5 308.25 14.7 302.6 12.05 296.8 9.3 290.3 9.3 L22.05 9.3 Q15.55 9.3 9.75 12.05 4.1 14.7 0.0 19.5 1.65 11.1 8.3 5.6 15.0 0.0 23.75 0.0 L288.6 0.0" fill="#ffffff" fill-rule="evenodd" stroke="none"/>
    </g>
    <g id="shape5" transform="matrix(1.0, 0.0, 0.0, 1.0, -0.2, -32.4)">
      <path d="M324.65 32.4 Q323.45 43.4 315.2 50.85 306.85 58.35 295.65 58.35 L29.2 58.35 Q18.0 58.35 9.7 50.85 1.4 43.4 0.2 32.4 4.75 39.3 12.0 43.3 19.45 47.45 28.0 47.45 L296.85 47.45 Q305.4 47.45 312.85 43.3 320.1 39.3 324.65 32.4" fill="#559f08" fill-rule="evenodd" stroke="none"/>
    </g>
    <g id="shape6" transform="matrix(1.0, 0.0, 0.0, 1.0, -22.05, -10.85)">
      <path d="M36.65 11.8 Q39.9 13.35 40.65 16.45 41.4 19.55 39.25 22.4 37.1 25.25 33.3 26.2 29.5 27.1 26.25 25.55 23.05 24.05 22.25 20.95 21.5 17.85 23.65 15.0 25.85 12.15 29.65 11.2 33.45 10.25 36.65 11.8" fill="#ffffff" fill-rule="evenodd" stroke="none"/>
    </g>
  </defs>
</svg>
