<?xml version="1.0" encoding="UTF-8" standalone="no"?>
<svg
   ffdec:objectType="frame"
   height="272.0px"
   width="152.8px"
   version="1.1"
   id="svg175"
   sodipodi:docname="resourcepanelbackground.svg"
   inkscape:version="1.3.2 (091e20e, 2023-11-25, custom)"
   xmlns:inkscape="http://www.inkscape.org/namespaces/inkscape"
   xmlns:sodipodi="http://sodipodi.sourceforge.net/DTD/sodipodi-0.dtd"
   xmlns:xlink="http://www.w3.org/1999/xlink"
   xmlns="http://www.w3.org/2000/svg"
   xmlns:svg="http://www.w3.org/2000/svg"
   xmlns:ffdec="https://www.free-decompiler.com/flash">
  <sodipodi:namedview
     id="namedview175"
     pagecolor="#ffffff"
     bordercolor="#000000"
     borderopacity="0.25"
     inkscape:showpageshadow="2"
     inkscape:pageopacity="0.0"
     inkscape:pagecheckerboard="0"
     inkscape:deskcolor="#d1d1d1"
     inkscape:zoom="4.24784"
     inkscape:cx="38.13703"
     inkscape:cy="204.92768"
     inkscape:window-width="1920"
     inkscape:window-height="1094"
     inkscape:window-x="-11"
     inkscape:window-y="-11"
     inkscape:window-maximized="1"
     inkscape:current-layer="svg175" />
  <g
     transform="matrix(1.0, 0.0, 0.0, 1.0, -20.65, 0.0)"
     id="g5">
    <use
       ffdec:characterId="1440"
       height="272.0"
       transform="matrix(1.0, 0.0, 0.0, 1.0, 23.0, 0.0)"
       width="150.0"
       xlink:href="#shape0"
       id="use1" />
    <use
       ffdec:characterId="1446"
       height="4.0"
       transform="matrix(1.0, 0.0, 0.0, 1.0, 22.45, 190.6)"
       width="151.0"
       xlink:href="#shape2"
       id="use2" />
    <use
       ffdec:characterId="1447"
       height="25.95"
       id="txtTitle"
       transform="matrix(1.0, 0.0, 0.0, 1.0, 32.0, 9.0)"
       width="134.0"
       xlink:href="#text1" />
    <use
       ffdec:characterId="1448"
       height="17.35"
       id="txtWood"
       transform="matrix(1.0, 0.0, 0.0, 1.0, 57.0, 49.25)"
       width="111.0"
       xlink:href="#text2" />
    <use
       ffdec:characterId="1448"
       height="17.35"
       id="txtMud"
       transform="matrix(1.0, 0.0, 0.0, 1.0, 57.0, 70.25)"
       width="111.0"
       xlink:href="#text2" />
    <use
       ffdec:characterId="1448"
       height="17.35"
       id="txtStone"
       transform="matrix(1.0, 0.0, 0.0, 1.0, 57.0, 91.25)"
       width="111.0"
       xlink:href="#text2" />
    <use
       ffdec:characterId="1448"
       height="17.35"
       id="txtPollen"
       transform="matrix(1.0, 0.0, 0.0, 1.0, 57.0, 124.25)"
       width="111.0"
       xlink:href="#text2" />
    <use
       ffdec:characterId="1448"
       height="17.35"
       id="txtWater"
       transform="matrix(1.0, 0.0, 0.0, 1.0, 57.0, 145.25)"
       width="111.0"
       xlink:href="#text2" />
    <use
       ffdec:characterId="1448"
       height="17.35"
       id="txtGrass"
       transform="matrix(1.0, 0.0, 0.0, 1.0, 57.0, 166.25)"
       width="111.0"
       xlink:href="#text2" />
    <use
       ffdec:characterId="1448"
       height="17.35"
       id="txtNeocash"
       transform="matrix(1.0, 0.0, 0.0, 1.0, 57.0, 225.05)"
       width="111.0"
       xlink:href="#text2" />
    <use
       ffdec:characterId="1449"
       height="20.8"
       id="txtNeocashTitle"
       transform="matrix(1.0, 0.0, 0.0, 1.0, 32.0, 200.25)"
       width="134.0"
       xlink:href="#text3" />
    <use
       ffdec:characterId="1180"
       height="34.95"
       transform="matrix(0.5831, 0.0, 0.0, 0.572, 36.0, 44.25)"
       width="25.7"
       xlink:href="#sprite1"
       id="use3" />
    <use
       ffdec:characterId="1182"
       height="33.05"
       id="resourceMud"
       transform="matrix(0.491, 0.0, 0.0, 0.4843, 34.0, 68.25)"
       width="36.65"
       xlink:href="#sprite2" />
    <use
       ffdec:characterId="1184"
       height="33.65"
       id="resourceStone"
       transform="matrix(0.5024, 0.0, 0.0, 0.5052, 34.0, 90.25)"
       width="35.8"
       xlink:href="#sprite3" />
    <use
       ffdec:characterId="1320"
       height="33.6"
       transform="matrix(0.5378, 0.0, 0.0, 0.5357, 32.0, 121.25)"
       width="39.05"
       xlink:href="#sprite4"
       id="use4" />
    <use
       ffdec:characterId="1188"
       height="31.35"
       id="resourceWater"
       transform="matrix(0.5832, 0.0, 0.0, 0.5421, 32.9708, 143.25)"
       width="30.8"
       xlink:href="#sprite5" />
    <use
       ffdec:characterId="1322"
       height="36.45"
       id="resourceGrass"
       transform="matrix(0.5052, 0.0, 0.0, 0.494, 35.0, 162.25)"
       width="33.65"
       xlink:href="#sprite6" />
    <use
       ffdec:characterId="1329"
       height="384.65"
       transform="matrix(0.1065, 0.0, 0.0, 0.1066, 20.65, 211.5053)"
       width="408.0"
       xlink:href="#sprite7"
       id="use5" />
    <use
       ffdec:characterId="1454"
       ffdec:characterName="Shop_fla.HideShow_22"
       height="35.45"
       id="btnHideShow"
       transform="matrix(1.0, 0.0, 0.0, 1.0, 157.4, 115.2)"
       width="16.05"
       xlink:href="#sprite19" />
  </g>
  <defs
     id="defs175">
    <g
       id="shape0"
       transform="matrix(1.0, 0.0, 0.0, 1.0, -23.0, 0.0)">
      <path
         d="M168.05 5.0 Q173.0 10.0 173.0 17.0 L173.0 255.0 Q173.0 262.05 168.05 267.05 163.05 272.0 156.0 272.0 L23.0 272.0 23.0 0.0 156.0 0.0 Q163.05 0.0 168.05 5.0"
         fill="#d9f0a5"
         fill-rule="evenodd"
         stroke="none"
         id="path5" />
    </g>
    <linearGradient
       gradientTransform="matrix(0.0, 0.015, -0.0116, 0.0, -0.5, -3.5)"
       gradientUnits="userSpaceOnUse"
       id="gradient0"
       spreadMethod="pad"
       x1="-819.2"
       x2="819.2">
      <stop
         offset="0.0"
         stop-color="#ffff00"
         id="stop5" />
      <stop
         offset="1.0"
         stop-color="#ff9900"
         id="stop6" />
    </linearGradient>
    <g
       id="shape2"
       transform="matrix(1.0, 0.0, 0.0, 1.0, -22.45, -190.6)">
      <path
         d="M24.45 192.6 L171.45 192.6"
         fill="none"
         stroke="#ffffff"
         stroke-linecap="square"
         stroke-linejoin="round"
         stroke-opacity="0.69411767"
         stroke-width="3.0"
         id="path6" />
    </g>
    <g
       id="sprite1"
       transform="matrix(1.0, 0.0, 0.0, 1.0, 0.0, 0.0)">
      <use
         ffdec:characterId="1179"
         height="34.95"
         transform="matrix(1.0, 0.0, 0.0, 1.0, 0.0, 0.0)"
         width="25.7"
         xlink:href="#shape3"
         id="use6" />
    </g>
    <g
       id="shape3"
       transform="matrix(1.0, 0.0, 0.0, 1.0, 0.0, 0.0)">
      <path
         d="M19.3 9.3 L15.6 5.25 Q12.9 1.55 12.3 1.55 L8.4 1.3 Q8.35 2.95 7.25 5.7 L5.45 9.95 1.3 21.65 Q2.55 22.8 4.45 25.65 6.4 28.7 7.45 29.8 L9.2 31.45 10.75 33.25 Q11.2 34.0 12.25 33.75 L14.05 33.35 Q14.65 33.4 16.95 28.25 L19.6 22.4 23.3 15.95 24.0 14.4 Q24.0 14.0 23.05 13.15 L19.3 9.3 M25.35 13.4 Q25.8 13.7 25.65 14.1 24.65 17.2 21.6 22.05 18.1 27.7 17.1 29.85 L15.1 33.9 Q14.2 34.8 10.9 34.9 L10.5 34.7 Q9.75 33.35 7.75 31.3 L4.85 28.0 0.8 22.2 0.75 22.25 0.55 22.4 0.3 22.25 0.2 21.8 Q-0.15 21.6 0.15 21.3 L0.25 21.05 0.35 20.75 0.7 20.35 1.15 19.55 1.75 17.85 Q2.3 15.55 4.0 11.05 L5.65 6.85 7.15 2.5 7.05 2.35 Q7.05 2.15 7.2 2.15 L7.25 2.15 7.55 0.7 Q7.6 0.45 7.85 0.55 9.45 -0.25 11.45 0.1 13.6 0.45 14.45 1.95 15.15 3.1 16.9 4.75 L19.5 7.5 Q21.7 10.9 25.35 13.4"
         fill="#4c2a10"
         fill-rule="evenodd"
         stroke="none"
         id="path7" />
      <path
         d="M20.25 15.55 L18.4 19.2 15.3 25.15 Q13.65 28.55 11.9 33.85 11.15 33.9 10.75 33.25 L9.2 31.45 7.45 29.8 Q6.4 28.7 4.45 25.65 2.55 22.8 1.3 21.65 L5.45 9.95 7.25 5.7 Q8.35 2.95 8.4 1.3 L8.5 1.25 9.9 2.45 12.3 5.3 16.0 9.55 19.5 13.3 Q20.55 14.65 20.25 15.55"
         fill="#c18c53"
         fill-rule="evenodd"
         stroke="none"
         id="path8" />
      <path
         d="M23.05 13.15 Q23.9 13.9 23.95 14.2 L20.3 15.1 Q20.35 14.25 19.25 13.0 L16.0 9.55 12.3 5.3 9.9 2.45 8.5 1.25 12.3 1.55 Q12.9 1.55 15.6 5.25 L19.3 9.3 23.05 13.15"
         fill="#e3ad74"
         fill-rule="evenodd"
         stroke="none"
         id="path9" />
      <path
         d="M20.3 15.1 L23.95 14.2 Q24.1 14.6 23.3 15.95 L19.6 22.4 16.95 28.25 Q14.65 33.4 14.05 33.35 L12.95 33.5 11.9 33.85 Q13.65 28.55 15.3 25.15 L18.4 19.2 20.25 15.55 20.3 15.1"
         fill="#c28d58"
         fill-rule="evenodd"
         stroke="none"
         id="path10" />
      <path
         d="M18.35 7.7 L18.65 7.85 18.75 8.2 18.55 8.55 16.65 8.95 15.6 8.95 Q16.9 10.8 17.8 11.5 L19.05 12.45 20.1 12.25 Q20.4 12.2 20.4 12.5 L20.1 12.8 19.55 12.9 20.8 14.3 20.85 14.45 23.55 13.9 Q23.9 13.85 24.0 14.2 24.1 14.65 23.75 14.65 L20.85 15.2 Q20.65 16.5 19.05 19.15 L17.1 22.3 Q15.6 24.9 14.25 28.4 13.4 30.45 12.05 34.75 11.95 35.05 11.65 34.95 11.3 34.85 11.4 34.55 14.3 25.2 19.25 16.65 L19.8 15.4 19.55 15.1 Q19.55 14.75 19.85 14.7 L19.9 14.7 Q19.8 14.1 18.65 13.15 L18.15 14.05 17.0 15.6 16.7 15.7 16.5 15.4 Q16.65 14.85 17.45 14.05 L18.3 12.9 17.3 12.0 16.15 10.55 14.95 9.05 14.9 9.05 14.9 9.15 14.85 9.2 14.35 10.85 13.8 12.5 12.9 13.05 Q12.2 13.35 12.05 13.75 L11.6 15.5 11.0 17.15 9.4 19.8 9.3 19.75 Q9.45 18.55 10.15 17.25 L10.75 15.6 11.2 13.9 11.9 12.9 12.85 12.3 Q13.4 11.95 13.8 10.6 L14.3 8.6 14.45 8.5 14.2 8.25 11.8 5.2 Q11.0 8.8 9.6 10.75 L8.3 12.35 Q7.45 13.35 7.3 13.95 L6.8 16.1 Q6.25 17.25 6.45 18.3 L6.75 20.35 5.5 22.8 4.05 24.7 Q4.3 24.85 4.2 25.15 L3.85 25.45 3.7 25.45 Q3.35 25.55 3.3 25.15 3.1 24.3 5.0 21.9 6.55 19.9 5.0 18.45 4.8 18.35 4.9 18.1 L5.7 16.5 6.45 14.75 6.7 13.7 Q6.9 12.95 7.2 12.7 8.6 11.3 9.85 9.0 11.0 6.8 11.45 4.7 9.75 2.3 8.15 1.6 7.9 1.55 7.95 1.25 8.05 1.05 8.25 1.1 9.45 1.55 10.45 2.65 L12.1 4.8 13.85 5.0 Q14.15 5.05 14.7 4.6 15.2 4.15 15.6 4.15 L15.95 4.5 15.7 4.8 14.8 5.35 Q14.3 5.7 13.85 5.55 L12.2 5.05 13.85 7.0 15.15 8.45 16.45 8.25 18.05 7.9 18.1 7.85 18.35 7.7"
         fill="#936841"
         fill-rule="evenodd"
         stroke="none"
         id="path11" />
      <path
         d="M10.75 21.45 Q11.05 21.25 11.25 21.45 11.75 21.7 12.05 22.55 L12.3 23.9 Q12.65 26.0 12.2 27.6 11.65 29.25 10.9 29.2 9.85 29.1 9.9 28.0 L9.85 27.2 9.95 26.45 Q10.5 26.15 10.55 25.6 10.6 25.3 10.9 25.3 L11.25 25.6 11.3 26.2 11.15 26.6 Q10.6 26.9 10.7 28.0 11.1 28.5 11.2 27.75 L11.65 26.0 11.45 23.65 11.25 22.85 Q11.1 22.15 10.9 22.45 L10.1 24.45 9.45 26.55 8.6 28.4 7.8 30.2 7.55 30.4 Q7.3 30.3 7.35 30.05 L8.15 28.0 9.05 25.95 10.4 21.9 10.75 21.45"
         fill="#936841"
         fill-rule="evenodd"
         stroke="none"
         id="path12" />
      <path
         d="M10.85 5.45 L10.95 5.45 10.35 7.3 9.4 9.45 8.2 11.5 7.3 12.3 Q6.85 12.7 6.75 13.5 6.7 14.3 5.85 16.3 5.15 17.8 5.55 19.3 5.85 20.35 4.9 21.65 L3.25 23.6 2.95 23.65 2.9 23.4 4.3 21.0 Q5.0 19.5 4.2 18.35 4.0 18.15 4.15 17.65 4.6 16.35 5.2 15.5 L5.8 13.95 6.2 12.55 7.3 11.5 8.65 9.85 9.55 7.9 10.85 5.45"
         fill="#eac193"
         fill-rule="evenodd"
         stroke="none"
         id="path13" />
      <path
         d="M13.65 8.95 L13.7 9.0 13.15 10.85 12.95 12.05 12.05 12.8 Q11.4 13.1 11.2 13.75 L10.6 16.1 Q10.1 17.65 9.3 18.05 L8.95 18.0 Q8.8 17.8 9.0 17.65 L9.75 16.2 10.25 14.6 Q10.7 13.0 11.05 12.7 L12.05 11.9 12.7 10.75 13.65 8.95"
         fill="#eac193"
         fill-rule="evenodd"
         stroke="none"
         id="path14" />
      <path
         d="M17.3 12.9 L17.75 12.85 Q18.1 13.0 17.85 13.3 L16.9 14.35 16.25 15.05 Q16.0 15.1 16.0 14.8 L16.05 14.4 16.45 13.85 17.3 12.9"
         fill="#eac193"
         fill-rule="evenodd"
         stroke="none"
         id="path15" />
      <path
         d="M10.15 22.2 L10.25 22.35 9.75 24.6 8.8 26.7 8.25 28.3 7.4 29.75 Q7.25 29.95 7.0 29.75 6.8 29.55 6.95 29.4 L7.8 27.8 8.5 26.05 10.0 22.3 10.15 22.2"
         fill="#eac193"
         fill-rule="evenodd"
         stroke="none"
         id="path16" />
      <path
         d="M10.15 27.1 L9.9 27.75 9.95 28.3 10.35 29.3 10.25 29.55 9.9 29.5 Q9.05 28.4 9.35 27.5 L9.75 26.45 9.9 25.3 Q9.85 25.1 10.05 25.0 10.35 24.95 10.35 25.15 10.55 25.95 10.15 27.1"
         fill="#eac193"
         fill-rule="evenodd"
         stroke="none"
         id="path17" />
      <path
         d="M11.6 23.4 L11.8 24.45 Q11.8 26.65 11.3 27.5 11.2 27.65 11.05 27.6 10.85 27.6 10.9 27.4 L11.2 25.05 11.05 23.45 10.9 23.4 10.9 23.25 11.05 22.7 11.15 22.6 11.2 22.7 11.4 23.1 11.6 23.4"
         fill="#eac193"
         fill-rule="evenodd"
         stroke="none"
         id="path18" />
      <path
         d="M14.45 4.2 L14.7 4.5 14.45 4.75 12.8 4.7 Q12.2 4.75 11.85 4.35 L11.95 4.2 12.55 4.3 13.2 4.25 14.45 4.2"
         fill="#eac193"
         fill-rule="evenodd"
         stroke="none"
         id="path19" />
      <path
         d="M16.95 7.55 Q17.2 7.6 17.25 7.8 17.3 8.05 17.05 8.1 L15.5 8.25 14.85 8.4 14.3 8.2 14.25 7.9 Q14.35 7.7 14.55 7.8 L15.2 7.75 15.75 7.75 16.95 7.55"
         fill="#eac193"
         fill-rule="evenodd"
         stroke="none"
         id="path20" />
      <path
         d="M19.9 11.6 L19.9 11.85 19.5 12.05 18.7 12.45 Q18.4 12.6 18.25 12.3 18.1 12.0 18.35 11.85 L19.5 11.45 Q19.75 11.35 19.8 11.55 L19.9 11.6"
         fill="#eac193"
         fill-rule="evenodd"
         stroke="none"
         id="path21" />
    </g>
    <g
       id="sprite2"
       transform="matrix(1.0, 0.0, 0.0, 1.0, 0.0, 0.0)">
      <use
         ffdec:characterId="1181"
         height="33.05"
         transform="matrix(1.0, 0.0, 0.0, 1.0, 0.0, 0.0)"
         width="36.65"
         xlink:href="#shape4"
         id="use21" />
    </g>
    <g
       id="shape4"
       transform="matrix(1.0, 0.0, 0.0, 1.0, 0.0, 0.0)">
      <path
         d="M10.15 23.2 L7.65 21.05 Q6.15 19.65 4.7 19.7 L6.45 17.4 8.4 14.1 Q9.55 16.15 9.95 18.65 L10.15 23.2"
         fill="#a77243"
         fill-rule="evenodd"
         stroke="none"
         id="path22" />
      <path
         d="M27.7 24.3 L31.0 24.3 Q31.0 25.2 31.75 26.7 32.5 28.05 32.35 28.9 L27.55 29.9 22.85 31.15 Q19.95 31.85 18.15 30.75 15.9 29.45 13.6 28.75 12.65 28.5 10.2 28.7 8.15 28.85 6.9 28.1 5.8 27.45 2.85 26.7 L2.55 26.55 Q-0.05 26.05 4.7 19.7 6.15 19.65 7.65 21.05 L10.15 23.2 9.95 18.65 Q9.55 16.15 8.4 14.1 9.25 12.35 9.9 10.0 L10.6 7.1 Q12.45 8.45 12.35 10.2 12.3 11.25 11.25 13.35 L12.9 12.4 Q13.9 11.6 14.55 12.25 15.2 13.55 14.95 16.2 L14.55 21.0 Q15.4 21.0 16.05 20.3 16.75 19.65 16.75 18.8 18.6 20.05 17.6 21.55 16.3 23.45 16.75 24.3 L19.75 22.4 Q21.1 21.0 21.1 18.8 L26.05 20.75 Q29.0 21.7 27.7 24.3"
         fill="#603b1c"
         fill-rule="evenodd"
         stroke="none"
         id="path23" />
      <path
         d="M22.25 10.05 Q23.0 9.45 24.15 12.15 25.45 15.35 26.0 15.7 L27.4 15.5 Q28.35 15.25 28.2 15.75 27.8 17.5 30.2 20.9 30.55 21.35 30.9 21.15 32.95 20.35 34.75 23.9 36.5 27.4 33.6 28.5 L32.35 28.9 Q32.5 28.05 31.75 26.7 31.0 25.2 31.0 24.3 L27.7 24.3 Q29.0 21.7 26.05 20.75 L21.1 18.8 Q21.1 21.0 19.75 22.4 L16.75 24.3 Q16.3 23.45 17.6 21.55 18.6 20.05 16.75 18.8 16.75 19.65 16.05 20.3 15.4 21.0 14.55 21.0 L14.95 16.2 Q15.2 13.55 14.55 12.25 13.9 11.6 12.9 12.4 L11.25 13.35 Q12.3 11.25 12.35 10.2 12.45 8.45 10.6 7.1 L10.8 6.0 Q11.6 1.85 15.75 1.45 15.55 2.1 15.7 2.55 15.95 3.55 17.6 6.1 18.95 8.2 18.9 9.85 18.9 10.25 19.3 10.35 21.0 11.0 22.25 10.05"
         fill="#a77243"
         fill-rule="evenodd"
         stroke="none"
         id="path24" />
      <path
         d="M25.1 9.0 Q25.35 9.25 26.2 12.25 26.85 14.5 27.95 14.0 L28.7 14.1 Q29.35 14.75 29.55 15.7 L29.95 17.65 Q30.55 19.3 32.35 19.4 34.25 19.5 34.85 20.8 36.7 24.7 36.65 26.65 36.55 29.6 32.65 30.1 L25.95 31.7 Q21.8 32.8 19.2 32.75 17.75 32.75 15.15 31.4 12.55 30.05 11.05 30.0 L9.4 30.3 7.75 30.45 6.95 29.7 6.4 29.0 Q5.2 28.45 2.8 27.65 L2.25 27.8 Q0.85 27.45 0.3 26.65 0.15 26.6 0.15 26.35 -0.65 24.5 2.35 20.5 L6.35 15.65 Q7.2 14.45 8.1 11.45 L9.65 6.15 Q11.85 -0.3 16.15 0.0 16.65 0.0 16.65 0.5 16.9 2.6 18.4 5.9 20.2 9.9 21.65 9.1 L25.1 9.0 M23.95 11.7 Q23.0 9.45 22.25 10.05 21.0 11.0 19.3 10.35 18.9 10.25 18.9 9.85 18.95 8.2 17.6 6.1 15.95 3.55 15.7 2.55 15.55 2.1 15.75 1.45 11.6 1.85 10.8 6.0 L9.9 10.0 8.55 13.85 6.45 17.4 3.0 22.2 Q0.5 26.15 2.55 26.55 L2.85 26.7 Q5.8 27.45 6.9 28.1 8.15 28.85 10.2 28.7 12.65 28.5 13.6 28.75 15.9 29.45 18.15 30.75 19.95 31.85 22.85 31.15 L27.55 29.9 33.6 28.5 Q36.5 27.4 34.75 23.9 32.95 20.35 30.9 21.15 30.55 21.35 30.2 20.9 27.8 17.5 28.2 15.75 28.3 15.3 27.6 15.45 L26.3 15.75 Q24.2 16.6 23.25 17.45 L22.1 18.5 Q21.75 18.7 21.8 19.25 L21.85 20.15 Q21.8 21.55 20.35 22.3 18.7 23.2 18.35 24.0 18.15 24.5 17.6 24.35 17.1 24.25 17.3 23.75 18.0 21.95 19.1 21.75 20.35 21.55 20.7 20.45 L20.95 18.25 Q21.0 17.65 23.25 16.4 L25.55 15.25 23.95 11.7"
         fill="#32180b"
         fill-rule="evenodd"
         stroke="none"
         id="path25" />
      <path
         d="M13.95 12.95 L14.5 13.5 Q14.95 14.6 14.95 15.85 L14.95 17.15 14.65 18.35 Q14.0 19.3 12.75 19.5 11.4 19.7 10.8 18.7 10.6 18.35 10.85 17.8 L11.25 16.9 12.25 15.05 12.15 14.8 Q12.3 13.6 13.15 13.0 L13.95 12.95 M13.9 14.55 L13.7 13.95 13.4 14.2 13.25 14.65 12.8 15.15 11.65 17.6 Q11.4 18.1 11.7 18.5 11.95 18.95 12.5 18.75 14.1 18.3 14.1 17.55 14.2 15.5 13.9 14.55"
         fill="#32180b"
         fill-rule="evenodd"
         stroke="none"
         id="path26" />
      <path
         d="M25.9 26.6 L26.85 26.4 Q27.15 26.05 26.7 25.6 26.05 24.9 24.55 25.25 L24.5 25.25 24.2 25.95 Q24.15 26.4 25.9 26.6 M24.25 24.15 L24.4 24.1 24.65 23.7 Q24.8 23.4 25.1 23.55 25.4 23.7 25.3 23.95 27.0 23.95 27.65 25.2 28.05 26.0 27.75 26.65 27.4 27.4 26.55 27.45 L24.75 27.2 Q23.75 26.9 23.55 26.55 23.15 25.9 23.9 24.8 23.8 24.3 24.25 24.15"
         fill="#32180b"
         fill-rule="evenodd"
         stroke="none"
         id="path27" />
      <path
         d="M13.75 28.85 Q15.75 29.95 16.35 31.2 L16.1 31.3 Q14.75 31.9 13.25 31.9 11.9 31.9 11.95 30.7 12.0 29.55 13.0 28.95 L13.75 28.85"
         fill="#603b1c"
         fill-rule="evenodd"
         stroke="none"
         id="path28" />
      <path
         d="M16.65 28.55 Q17.8 28.95 17.8 30.55 17.8 31.05 16.35 31.2 15.75 29.95 13.75 28.85 L13.95 28.8 14.05 28.75 14.35 28.85 14.65 28.8 14.8 28.5 16.65 28.55"
         fill="#a77243"
         fill-rule="evenodd"
         stroke="none"
         id="path29" />
      <path
         d="M15.65 27.1 Q18.1 27.45 18.6 28.7 19.45 30.5 18.7 31.55 18.35 32.0 17.55 32.25 L16.2 32.6 13.2 33.05 Q11.35 32.9 10.95 31.4 10.6 30.05 11.85 28.8 11.65 28.4 11.9 28.15 12.2 27.8 12.75 27.7 L13.75 27.5 Q14.95 27.0 15.65 27.1 M17.8 30.55 Q17.8 28.95 16.65 28.55 L14.8 28.5 14.65 28.8 14.35 28.85 14.05 28.75 13.95 28.8 13.0 28.95 Q12.0 29.55 11.95 30.7 11.9 31.9 13.25 31.9 L15.6 31.5 16.1 31.3 17.1 31.1 17.8 30.55"
         fill="#32180b"
         fill-rule="evenodd"
         stroke="none"
         id="path30" />
      <path
         d="M13.3 14.65 L13.35 14.25 Q13.5 13.9 13.8 14.05 L13.95 14.15 Q14.15 14.25 14.15 14.5 L14.3 16.3 14.2 17.5 13.85 17.9 Q13.55 18.0 13.4 17.7 13.0 17.0 13.1 16.1 L13.3 14.65"
         fill="#a77243"
         fill-rule="evenodd"
         stroke="none"
         id="path31" />
      <path
         d="M24.9 24.9 L26.4 25.05 Q27.45 25.5 27.15 26.2 26.85 26.8 26.35 26.4 L25.8 25.95 25.15 25.5 Q24.9 25.55 24.75 25.3 24.65 25.05 24.9 24.9"
         fill="#a77243"
         fill-rule="evenodd"
         stroke="none"
         id="path32" />
    </g>
    <g
       id="sprite3"
       transform="matrix(1.0, 0.0, 0.0, 1.0, 0.0, 0.0)">
      <use
         ffdec:characterId="1183"
         height="33.65"
         transform="matrix(1.0, 0.0, 0.0, 1.0, 0.0, 0.0)"
         width="35.8"
         xlink:href="#shape5"
         id="use32" />
    </g>
    <g
       id="shape5"
       transform="matrix(1.0, 0.0, 0.0, 1.0, 0.0, 0.0)">
      <path
         d="M7.45 8.0 Q7.45 9.1 8.25 9.1 17.75 10.45 18.35 17.25 18.6 19.7 17.8 24.0 L16.3 31.65 Q13.3 31.75 10.25 28.7 L4.85 25.8 Q1.05 23.85 1.1 21.4 2.15 20.2 2.9 18.2 L4.1 14.6 5.9 9.9 6.45 9.0 Q7.0 9.0 7.2 8.55 L7.45 8.0"
         fill="#8a8f84"
         fill-rule="evenodd"
         stroke="none"
         id="path33" />
      <path
         d="M32.65 17.55 Q32.75 18.55 33.4 20.7 34.05 22.75 34.1 23.9 34.15 25.45 29.75 27.0 L23.85 28.9 19.85 30.8 Q17.85 31.6 16.3 31.65 L17.8 24.0 Q18.6 19.7 18.35 17.25 17.75 10.45 8.25 9.1 7.45 9.1 7.45 8.0 8.3 6.45 10.35 5.65 11.5 5.15 14.0 4.35 18.05 2.6 19.2 2.35 22.15 1.6 24.7 2.7 L27.1 3.45 Q28.6 3.85 29.35 4.45 30.45 5.3 31.15 7.25 L32.0 10.5 Q32.55 12.9 32.65 17.55"
         fill="#92978b"
         fill-rule="evenodd"
         stroke="none"
         id="path34" />
      <path
         d="M31.15 7.25 Q30.45 5.3 29.35 4.45 28.6 3.85 27.1 3.45 L24.7 2.7 Q22.15 1.6 19.2 2.35 18.05 2.6 14.0 4.35 L10.1 5.7 Q7.95 6.65 7.2 8.55 7.0 9.0 6.45 9.0 L5.9 9.9 4.1 14.6 2.9 18.2 Q2.15 20.2 1.1 21.4 1.05 23.85 4.85 25.8 L10.25 28.7 Q13.55 32.0 16.95 31.6 18.7 31.4 23.85 28.9 L29.75 27.0 Q34.15 25.45 34.1 23.9 34.05 22.75 33.4 20.7 32.75 18.55 32.65 17.55 32.55 12.9 32.0 10.5 L31.15 7.25 M33.7 11.65 L35.55 21.45 Q36.2 24.25 35.15 26.05 34.65 26.85 33.05 27.4 L30.6 28.1 Q24.8 30.05 20.45 32.4 16.95 34.25 14.35 33.35 13.0 32.85 9.15 29.8 L3.5 26.7 Q-0.2 24.5 0.0 21.7 0.15 20.15 1.0 18.4 L2.65 15.4 3.7 12.7 4.35 10.95 5.2 9.25 5.85 8.3 5.85 8.2 6.5 6.85 6.55 6.65 Q6.5 6.2 6.95 6.2 7.95 4.85 10.25 4.35 13.05 3.7 14.45 2.65 L16.65 0.8 Q17.65 0.05 19.3 0.0 L22.0 0.45 24.55 1.1 28.4 2.55 Q30.15 3.25 31.85 4.7 32.75 5.45 33.7 11.65"
         fill="#262626"
         fill-rule="evenodd"
         stroke="none"
         id="path35" />
      <path
         d="M12.9 7.2 L14.5 7.9 15.95 8.6 Q16.8 9.0 17.25 9.4 L17.45 9.9 17.15 10.35 15.45 10.45 13.9 9.65 Q12.75 8.9 11.7 8.65 10.9 8.5 10.45 8.1 10.05 7.75 10.4 7.25 10.8 6.75 11.25 7.05 L12.05 7.15 12.9 7.2"
         fill="#bcbfb7"
         fill-rule="evenodd"
         stroke="none"
         id="path36" />
      <path
         d="M26.15 5.35 L27.2 5.85 Q27.55 6.2 27.75 7.45 27.85 7.95 27.45 8.15 L26.7 8.05 25.95 7.35 Q25.55 7.0 25.0 6.85 L24.25 6.35 Q21.95 6.15 19.4 5.15 L18.7 4.5 Q18.5 4.05 18.9 3.75 L19.15 3.75 19.45 4.15 19.95 4.1 20.5 4.4 21.15 4.4 22.75 4.85 24.7 4.9 Q25.25 4.9 25.45 5.45 25.35 5.1 26.15 5.35"
         fill="#bcbfb7"
         fill-rule="evenodd"
         stroke="none"
         id="path37" />
      <path
         d="M4.4 17.0 L4.9 17.1 5.15 17.45 4.9 17.8 Q5.2 17.75 5.85 18.15 L6.9 18.6 7.75 18.9 Q8.3 19.2 8.65 19.7 10.1 19.7 10.8 20.45 L12.35 21.55 13.95 22.55 Q14.95 23.3 14.5 24.3 14.1 25.35 12.85 25.15 11.25 24.9 10.15 23.8 L9.25 22.7 Q8.85 22.2 8.0 22.1 6.75 21.9 6.8 20.9 6.85 20.65 5.9 20.15 L4.7 19.5 Q4.05 18.85 4.05 17.45 4.05 17.15 4.4 17.0"
         fill="#78766e"
         fill-rule="evenodd"
         stroke="none"
         id="path38" />
      <path
         d="M8.75 11.15 L9.8 11.5 10.4 11.5 Q11.2 11.5 11.75 12.85 11.95 13.4 11.45 13.4 10.85 13.45 10.5 12.9 L10.3 12.65 10.35 12.6 10.1 12.6 Q9.35 12.6 8.25 12.0 7.8 11.8 8.05 11.35 8.3 10.95 8.75 11.15"
         fill="#78766e"
         fill-rule="evenodd"
         stroke="none"
         id="path39" />
      <path
         d="M23.25 21.05 L23.3 21.05 23.4 21.1 Q23.9 21.2 24.2 21.65 24.75 22.3 24.4 22.9 L23.2 23.8 22.3 24.1 22.3 24.15 Q21.7 24.75 21.0 24.3 20.3 23.85 20.45 23.05 L20.7 22.4 Q20.8 21.7 21.35 21.4 L22.15 21.1 22.65 21.0 22.85 21.0 22.8 21.05 23.25 21.05"
         fill="#bcbfb7"
         fill-rule="evenodd"
         stroke="none"
         id="path40" />
      <path
         d="M28.7 16.05 Q29.15 15.35 30.1 15.4 31.05 15.45 31.15 16.35 31.4 18.05 29.65 18.65 L29.2 18.7 29.3 19.65 Q29.3 20.2 28.8 20.35 L28.6 20.55 27.75 21.05 26.85 21.55 Q26.25 21.95 26.2 22.2 L25.95 22.4 25.7 22.2 Q25.55 21.85 25.7 21.65 L26.2 21.25 26.95 20.55 27.85 20.15 27.95 19.9 27.65 18.9 27.5 17.9 Q27.55 17.35 27.95 16.9 L28.7 16.05"
         fill="#bcbfb7"
         fill-rule="evenodd"
         stroke="none"
         id="path41" />
      <path
         d="M12.85 16.65 L12.75 16.5 Q11.8 16.7 11.7 17.3 11.5 18.25 11.75 18.85 12.05 19.65 12.65 19.95 13.85 20.45 14.0 19.8 14.4 18.45 14.0 17.35 13.8 16.8 13.1 16.55 L13.0 16.6 12.85 16.65 M12.3 16.05 Q12.2 15.7 12.55 15.6 13.5 15.3 14.25 16.0 14.95 16.65 15.05 17.6 15.2 18.85 14.95 19.8 14.6 21.1 13.5 21.1 12.5 21.05 11.75 20.25 11.0 19.5 10.9 18.5 10.75 16.5 12.3 16.05"
         fill="#262626"
         fill-rule="evenodd"
         stroke="none"
         id="path42" />
      <path
         d="M30.4 21.25 Q30.75 20.6 31.45 20.85 32.1 21.05 32.35 21.75 L32.35 22.95 31.8 24.0 30.7 24.2 Q30.05 24.0 29.9 23.4 29.65 22.45 30.4 21.5 L30.4 21.25 M31.4 21.55 L30.65 21.65 30.6 21.65 30.3 22.7 Q30.2 23.35 30.6 23.55 31.15 23.8 31.4 23.55 31.75 23.2 31.75 22.25 31.75 21.75 31.4 21.55"
         fill="#262626"
         fill-rule="evenodd"
         stroke="none"
         id="path43" />
      <path
         d="M12.6 17.65 L12.4 17.2 12.2 16.7 12.35 16.4 12.65 16.3 12.7 16.3 Q13.05 16.3 13.05 16.6 L13.1 16.6 13.15 16.75 13.45 16.9 13.6 17.15 Q13.9 17.3 14.0 17.7 14.2 19.0 13.85 19.7 L13.4 19.95 12.95 19.7 Q12.65 19.2 12.75 17.95 L12.6 17.65"
         fill="#bcbfb7"
         fill-rule="evenodd"
         stroke="none"
         id="path44" />
      <path
         d="M30.35 22.35 Q30.0 22.4 29.95 21.95 29.9 21.55 30.25 21.45 L30.65 21.25 31.1 21.15 Q31.3 21.15 31.7 21.45 32.1 21.7 31.85 22.15 31.6 22.55 31.2 22.3 L30.8 22.25 30.35 22.35"
         fill="#bcbfb7"
         fill-rule="evenodd"
         stroke="none"
         id="path45" />
    </g>
    <g
       id="sprite4"
       transform="matrix(1.0, 0.0, 0.0, 1.0, 0.0, 0.0)">
      <use
         ffdec:characterId="1319"
         height="33.6"
         transform="matrix(1.0, 0.0, 0.0, 1.0, 0.0, 0.0)"
         width="39.05"
         xlink:href="#shape6"
         id="use45" />
    </g>
    <g
       id="shape6"
       transform="matrix(1.0, 0.0, 0.0, 1.0, 0.0, 0.0)">
      <path
         d="M14.2 17.65 L13.75 17.65 Q12.8 17.65 11.6 17.05 10.25 16.35 9.75 16.25 L10.45 14.8 Q11.0 13.9 11.95 14.35 L13.2 14.75 Q14.8 14.95 16.35 14.2 15.6 16.2 14.2 17.65"
         fill="#fde07b"
         fill-rule="evenodd"
         stroke="none"
         id="path46" />
      <path
         d="M24.05 6.25 Q24.05 11.95 21.45 17.1 18.55 22.95 13.75 24.5 13.05 25.2 13.9 26.65 L14.9 27.95 Q16.9 28.45 21.6 25.95 25.6 23.8 27.45 25.65 L28.35 27.55 29.45 29.55 Q26.1 30.05 25.5 30.3 19.45 33.0 15.0 31.9 L14.9 31.85 13.6 31.45 Q11.7 30.6 10.25 29.25 7.6 26.8 3.75 25.35 L2.25 25.0 Q2.2 24.35 2.95 24.25 3.75 24.0 4.65 22.25 L9.75 16.25 Q10.25 16.35 11.6 17.05 12.8 17.65 13.75 17.65 L14.2 17.65 13.05 18.65 Q12.65 18.95 12.9 19.4 13.15 19.85 13.6 19.6 15.55 18.6 16.6 16.35 L18.05 12.0 Q18.8 8.95 19.3 7.55 20.05 5.15 21.25 3.75 21.9 3.65 22.45 4.95 22.95 6.25 24.05 6.25"
         fill="#e3b72b"
         fill-rule="evenodd"
         stroke="none"
         id="path47" />
      <path
         d="M29.75 6.7 Q30.9 9.95 32.0 14.9 33.25 19.05 37.1 25.05 38.4 27.05 35.6 28.2 33.9 28.9 29.45 29.55 L28.35 27.55 27.45 25.65 Q25.6 23.8 21.6 25.95 16.9 28.45 14.9 27.95 L13.9 26.65 Q13.05 25.2 13.75 24.5 18.55 22.95 21.45 17.1 24.05 11.95 24.05 6.25 22.95 6.25 22.45 4.95 21.9 3.65 21.25 3.75 22.5 2.2 24.75 1.4 27.5 0.45 29.75 6.7"
         fill="#fde07b"
         fill-rule="evenodd"
         stroke="none"
         id="path48" />
      <path
         d="M31.1 7.65 Q33.25 16.7 37.3 23.1 38.8 25.45 39.0 26.4 39.3 28.1 37.3 29.35 36.25 30.0 35.15 30.1 L32.75 30.1 Q30.45 30.25 27.7 31.1 L22.85 32.8 Q17.65 34.45 13.5 32.6 12.25 32.4 10.75 31.35 L8.15 29.55 5.95 27.85 5.05 27.5 Q4.5 27.15 4.15 27.15 L2.15 26.85 0.75 26.75 Q-0.05 26.55 0.0 25.75 0.2 23.95 3.15 22.1 L5.5 19.05 9.1 14.45 Q10.35 12.75 12.45 13.35 L16.35 13.55 16.6 13.55 Q17.65 10.6 19.1 4.65 21.1 0.15 26.65 0.0 28.65 -0.05 29.85 3.0 L31.1 7.65 M24.75 1.4 Q21.5 2.5 20.0 5.65 19.55 6.65 18.05 12.0 L16.6 16.35 Q15.55 18.6 13.6 19.6 13.15 19.85 12.9 19.4 12.65 18.95 13.05 18.65 15.15 17.2 16.35 14.2 14.8 14.95 13.2 14.75 L11.95 14.35 Q11.0 13.9 10.45 14.8 L9.75 16.25 4.65 22.25 Q3.75 24.0 2.95 24.25 2.2 24.35 2.25 25.0 L3.75 25.35 Q7.6 26.8 10.25 29.25 11.7 30.6 13.6 31.45 L14.9 31.85 15.0 31.9 Q19.45 33.0 25.5 30.3 L33.25 28.9 Q38.8 27.7 37.1 25.05 33.25 19.05 32.0 14.9 30.9 9.95 29.75 6.7 27.5 0.45 24.75 1.4"
         fill="#ac6725"
         fill-rule="evenodd"
         stroke="none"
         id="path49" />
      <path
         d="M31.75 23.2 L32.05 23.55 31.75 23.9 31.75 23.95 31.7 23.95 31.35 24.05 31.15 23.75 31.35 23.35 Q31.55 23.15 31.75 23.2"
         fill="#ac6725"
         fill-rule="evenodd"
         stroke="none"
         id="path50" />
      <path
         d="M28.05 18.95 Q28.55 19.1 28.3 19.65 L27.9 19.95 Q27.5 20.2 27.3 19.8 27.05 19.35 27.45 19.15 27.6 18.8 28.0 18.9 L28.05 18.95"
         fill="#ac6725"
         fill-rule="evenodd"
         stroke="none"
         id="path51" />
      <path
         d="M28.6 13.1 Q30.25 13.1 30.25 14.8 30.25 16.5 28.6 16.5 26.95 16.5 26.95 14.8 26.95 13.1 28.6 13.1"
         fill="#ac6725"
         fill-rule="evenodd"
         stroke="none"
         id="path52" />
      <path
         d="M24.6 12.2 L25.4 12.35 25.55 12.55 25.4 12.7 24.6 12.85 Q24.3 12.85 24.3 12.5 24.3 12.2 24.6 12.2"
         fill="#ac6725"
         fill-rule="evenodd"
         stroke="none"
         id="path53" />
      <path
         d="M26.1 6.45 L26.25 6.35 Q26.6 6.35 26.6 6.7 L26.45 6.95 26.25 7.3 25.85 7.25 25.7 7.05 Q25.5 6.9 25.6 6.7 25.7 6.45 25.95 6.45 L26.1 6.45"
         fill="#ac6725"
         fill-rule="evenodd"
         stroke="none"
         id="path54" />
      <path
         d="M21.75 7.35 Q22.3 7.4 22.35 7.95 22.35 8.35 21.95 8.35 L21.15 8.1 Q20.95 7.95 21.0 7.65 21.05 7.35 21.35 7.35 L21.55 7.4 21.75 7.35"
         fill="#ac6725"
         fill-rule="evenodd"
         stroke="none"
         id="path55" />
      <path
         d="M21.25 21.2 L21.35 21.5 21.35 21.85 Q21.35 22.2 20.95 22.4 20.35 22.65 19.6 21.9 19.3 21.6 19.45 21.25 19.65 20.9 20.05 20.85 L20.3 20.95 20.8 20.85 21.25 21.2"
         fill="#ac6725"
         fill-rule="evenodd"
         stroke="none"
         id="path56" />
      <path
         d="M21.65 12.8 Q21.9 12.7 22.0 12.95 22.15 13.25 21.9 13.35 L21.85 13.4 21.85 13.5 21.65 13.75 Q21.15 13.9 20.9 13.35 20.8 13.1 21.15 13.0 L21.1 13.0 Q21.05 12.75 21.25 12.65 21.45 12.55 21.6 12.75 L21.65 12.8"
         fill="#ac6725"
         fill-rule="evenodd"
         stroke="none"
         id="path57" />
      <path
         d="M11.15 22.65 Q11.35 23.1 11.0 23.45 L10.25 23.6 Q9.95 23.5 9.95 23.15 9.75 22.9 9.85 22.65 9.95 22.3 10.3 22.25 L10.85 22.35 11.15 22.65"
         fill="#ac6725"
         fill-rule="evenodd"
         stroke="none"
         id="path58" />
      <path
         d="M14.9 21.85 L15.1 21.95 15.05 22.2 14.2 22.55 13.95 22.5 13.8 22.25 Q13.9 21.65 14.4 21.5 14.8 21.35 14.9 21.85"
         fill="#ac6725"
         fill-rule="evenodd"
         stroke="none"
         id="path59" />
      <path
         d="M11.2 27.3 L10.8 27.0 Q10.4 26.45 11.2 26.25 L11.5 26.35 11.65 26.7 12.0 27.05 12.05 27.3 11.75 27.4 11.2 27.3"
         fill="#ac6725"
         fill-rule="evenodd"
         stroke="none"
         id="path60" />
      <path
         d="M22.75 26.75 Q22.95 27.3 22.7 27.55 L22.25 27.75 21.5 27.7 21.35 27.4 21.35 27.35 21.6 26.95 22.2 26.55 Q22.55 26.45 22.75 26.75"
         fill="#ac6725"
         fill-rule="evenodd"
         stroke="none"
         id="path61" />
      <path
         d="M9.8 18.65 L9.75 18.6 9.75 18.3 Q9.8 18.15 10.15 18.05 L10.3 17.95 10.5 17.95 10.65 18.0 10.85 17.8 10.95 17.85 10.8 18.2 10.65 18.5 10.15 18.75 9.8 18.65"
         fill="#ac6725"
         fill-rule="evenodd"
         stroke="none"
         id="path62" />
      <path
         d="M7.55 21.7 L7.5 22.1 7.35 22.2 7.4 22.25 Q7.35 22.6 6.95 22.5 L6.8 22.55 Q6.45 22.65 6.35 22.3 6.25 22.0 6.6 21.9 L6.9 21.75 7.2 21.55 7.55 21.7"
         fill="#ac6725"
         fill-rule="evenodd"
         stroke="none"
         id="path63" />
      <path
         d="M23.35 20.65 L23.55 20.85 23.4 21.1 23.3 21.2 Q23.15 21.2 23.15 21.35 L22.8 21.4 22.55 21.1 22.55 20.9 Q22.5 20.65 22.75 20.55 L23.15 20.65 23.35 20.65"
         fill="#ac6725"
         fill-rule="evenodd"
         stroke="none"
         id="path64" />
    </g>
    <g
       id="sprite5"
       transform="matrix(1.0, 0.0, 0.0, 1.0, 0.05, 0.0)">
      <use
         ffdec:characterId="1187"
         height="31.35"
         transform="matrix(1.0, 0.0, 0.0, 1.0, -0.05, 0.0)"
         width="30.8"
         xlink:href="#shape7"
         id="use64" />
    </g>
    <g
       id="shape7"
       transform="matrix(1.0, 0.0, 0.0, 1.0, 0.05, 0.0)">
      <path
         d="M25.1 6.6 Q27.4 8.75 28.25 11.75 29.05 14.55 28.4 17.6 L26.95 18.3 Q19.15 20.25 12.15 16.6 4.3 12.55 6.6 4.75 L6.85 4.3 11.25 2.45 Q14.05 1.45 15.85 2.0 19.25 3.0 20.8 3.7 23.15 4.75 25.1 6.6"
         fill="#91d1ee"
         fill-rule="evenodd"
         stroke="none"
         id="path65" />
      <path
         d="M1.3 17.45 Q7.35 21.7 16.8 22.8 L21.25 23.0 25.85 23.25 Q23.5 26.45 19.95 28.0 16.2 29.6 11.05 27.05 7.1 25.1 3.6 21.5 1.95 19.85 1.3 17.45"
         fill="#c8eff8"
         fill-rule="evenodd"
         stroke="none"
         id="path66" />
      <path
         d="M26.95 18.3 L28.4 17.6 Q27.7 20.75 25.85 23.25 L21.25 23.0 16.8 22.8 Q7.35 21.7 1.3 17.45 0.5 14.2 2.05 10.45 3.5 7.0 6.45 4.45 L6.55 4.45 6.85 4.3 6.6 4.75 Q4.3 12.55 12.15 16.6 19.15 20.25 26.95 18.3"
         fill="#b3e2f5"
         fill-rule="evenodd"
         stroke="none"
         id="path67" />
      <path
         d="M29.85 19.7 Q27.55 26.8 21.8 29.2 16.4 31.45 9.65 28.4 2.95 25.35 0.8 19.75 -0.8 15.6 0.7 11.0 2.15 6.5 5.8 3.9 L6.0 3.45 Q11.95 -1.25 17.85 0.45 25.2 2.55 28.7 7.55 32.15 12.6 29.85 19.7 M20.8 3.7 Q19.25 3.0 15.85 2.0 14.0 1.45 11.1 2.55 L6.55 4.45 6.45 4.45 Q2.45 7.95 1.35 12.65 0.1 17.9 3.6 21.5 7.1 25.1 11.05 27.05 16.2 29.6 19.95 28.0 26.4 25.25 28.25 18.35 30.1 11.25 25.1 6.6 23.15 4.75 20.8 3.7"
         fill="#155cae"
         fill-rule="evenodd"
         stroke="none"
         id="path68" />
      <path
         d="M23.55 7.05 Q24.05 9.4 23.75 10.6 23.2 13.05 21.2 13.5 L19.4 13.65 Q16.8 13.9 15.85 11.8 L15.75 11.9 Q15.45 12.5 14.8 12.55 L13.65 12.2 13.6 12.15 Q13.05 11.7 13.25 10.8 13.3 10.3 13.75 9.95 14.15 9.35 15.0 9.5 14.7 8.1 15.5 6.95 16.25 5.85 17.6 5.5 L19.25 4.5 21.1 4.45 Q23.05 5.15 23.55 7.05"
         fill="#ffffff"
         fill-rule="evenodd"
         stroke="none"
         id="path69" />
      <path
         d="M17.15 24.3 Q17.75 24.25 18.2 24.65 18.7 25.1 18.65 25.7 18.55 27.3 17.05 27.65 L17.0 27.65 16.9 27.7 15.35 28.0 Q13.9 27.8 13.1 27.4 12.4 27.25 12.1 26.65 L12.1 26.6 Q10.3 25.35 11.2 23.85 11.75 22.9 13.4 22.9 14.7 22.9 15.95 23.4 16.7 23.75 17.15 24.3"
         fill="#91d1ee"
         fill-rule="evenodd"
         stroke="none"
         id="path70" />
      <path
         d="M24.2 25.6 Q25.6 25.6 26.45 26.3 28.1 27.75 24.15 29.4 21.4 30.6 17.65 29.4 15.85 29.15 16.05 27.15 17.0 26.2 18.55 25.75 20.45 25.3 22.95 25.8 23.25 25.95 23.35 25.55 L24.2 25.6"
         fill="#b3e2f5"
         fill-rule="evenodd"
         stroke="none"
         id="path71" />
      <path
         d="M14.7 27.65 Q14.85 24.95 19.6 24.85 19.7 24.5 20.0 24.45 26.6 23.35 27.8 25.75 29.0 28.1 27.05 29.55 25.95 30.35 22.95 31.15 L17.85 30.9 Q14.6 29.95 14.7 27.65 M16.05 27.15 Q15.85 29.15 17.65 29.4 21.4 30.6 24.15 29.4 28.1 27.75 26.45 26.3 25.6 25.6 24.2 25.6 L23.35 25.55 Q23.25 25.95 22.95 25.8 20.45 25.3 18.55 25.75 17.0 26.2 16.05 27.15"
         fill="#155cae"
         fill-rule="evenodd"
         stroke="none"
         id="path72" />
      <path
         d="M19.55 26.5 Q19.5 25.8 20.15 25.55 L21.55 25.3 21.75 25.2 Q24.1 24.55 25.85 25.6 26.3 25.8 26.4 26.3 27.0 27.0 26.35 27.8 26.1 28.1 25.65 28.15 L24.95 28.0 24.5 27.7 24.5 27.8 23.65 27.8 22.1 27.6 Q21.6 27.55 21.2 27.15 L20.4 27.2 Q19.65 27.25 19.55 26.5"
         fill="#ffffff"
         fill-rule="evenodd"
         stroke="none"
         id="path73" />
      <path
         d="M18.3 28.2 L19.9 28.2 21.3 28.1 Q22.05 28.15 22.5 28.6 L22.7 29.3 22.3 29.9 18.7 29.7 Q17.65 29.6 17.3 29.25 L16.5 28.3 Q16.3 28.0 16.6 27.75 L17.15 27.7 17.7 28.05 18.3 28.2"
         fill="#91d1ee"
         fill-rule="evenodd"
         stroke="none"
         id="path74" />
    </g>
    <g
       id="sprite6"
       transform="matrix(1.0, 0.0, 0.0, 1.0, 0.0, 0.0)">
      <use
         ffdec:characterId="1321"
         height="36.45"
         transform="matrix(1.0, 0.0, 0.0, 1.0, 0.0, 0.0)"
         width="33.65"
         xlink:href="#shape8"
         id="use74" />
    </g>
    <g
       id="shape8"
       transform="matrix(1.0, 0.0, 0.0, 1.0, 0.0, 0.0)">
      <path
         d="M6.85 18.9 Q6.8 15.2 4.2 13.5 5.65 14.15 6.9 15.4 L8.35 17.15 Q9.0 18.3 9.35 20.05 L9.95 22.95 10.2 23.0 Q8.8 24.1 8.5 25.15 L7.0 29.35 Q6.1 31.8 5.95 33.5 L3.25 33.15 Q2.95 32.85 4.3 31.85 4.8 31.5 5.7 29.05 6.3 28.0 6.35 26.7 L6.35 24.35 6.85 18.9"
         fill="#64a03d"
         fill-rule="evenodd"
         stroke="none"
         id="path75" />
      <path
         d="M7.9 3.25 Q8.1 4.8 10.2 6.8 13.1 9.6 14.05 12.85 14.7 15.2 14.55 19.1 14.55 19.3 15.05 19.3 L14.55 19.65 Q14.4 19.8 14.6 19.9 L15.1 20.0 10.5 22.75 10.6 22.55 10.75 22.5 10.7 22.4 Q11.7 20.3 10.8 18.0 L11.5 12.45 Q11.5 11.05 9.35 7.8 7.4 4.9 7.9 3.25"
         fill="#64a03d"
         fill-rule="evenodd"
         stroke="none"
         id="path76" />
      <path
         d="M20.95 22.25 Q21.5 23.45 20.4 25.05 19.0 27.05 18.9 27.65 18.8 28.5 19.4 29.75 L20.55 31.8 21.9 33.6 Q22.5 34.7 20.5 34.9 L16.15 35.0 Q16.3 31.85 17.7 28.25 18.6 25.85 20.7 21.7 L20.95 22.25"
         fill="#64a03d"
         fill-rule="evenodd"
         stroke="none"
         id="path77" />
      <path
         d="M22.45 13.15 Q22.0 15.2 20.2 18.3 17.25 23.45 15.9 26.85 14.15 31.4 14.1 35.55 L11.35 35.25 9.75 35.1 8.0 35.05 7.3 34.9 7.25 34.05 7.25 33.8 Q7.15 28.9 9.4 25.8 L10.35 24.1 Q10.85 23.1 11.85 22.45 L14.6 20.75 17.15 19.0 16.9 18.95 Q18.6 17.55 19.35 16.0 L20.4 12.65 Q20.85 10.8 19.4 7.85 17.55 4.15 17.35 3.15 18.1 4.5 21.25 8.0 23.15 10.05 22.45 13.15"
         fill="#64a03d"
         fill-rule="evenodd"
         stroke="none"
         id="path78" />
      <path
         d="M32.15 11.55 Q32.15 12.65 31.0 14.7 29.75 16.95 28.4 17.85 26.0 19.55 25.3 22.75 24.65 25.45 25.45 27.8 L26.2 30.35 Q26.6 31.9 27.1 32.9 27.25 33.1 26.05 33.4 L24.0 33.9 21.5 30.35 Q20.25 28.25 21.3 26.5 22.3 24.85 22.3 23.35 22.3 21.9 21.5 20.2 L22.8 17.55 Q24.35 16.65 27.85 14.9 30.85 13.25 31.65 11.9 L32.2 10.9 32.15 11.55"
         fill="#64a03d"
         fill-rule="evenodd"
         stroke="none"
         id="path79" />
      <path
         d="M32.3 8.45 Q33.0 8.4 33.15 8.7 34.2 10.95 33.15 13.55 32.2 15.9 29.75 18.2 26.45 21.3 26.75 25.85 26.9 27.6 28.7 33.6 28.8 33.85 28.1 33.85 L24.1 34.1 24.5 35.05 24.15 35.3 20.25 35.6 16.1 35.45 16.05 36.05 Q16.05 36.35 15.35 36.4 L14.3 36.25 12.1 36.1 9.75 35.9 Q7.15 36.0 6.45 35.5 6.2 35.35 6.35 35.2 5.9 35.2 5.9 34.95 L5.9 34.15 0.75 34.05 0.1 33.9 Q-0.1 33.75 0.1 33.6 3.05 31.65 4.1 29.1 4.85 27.3 4.85 24.35 5.5 20.6 5.45 18.5 5.45 14.65 2.45 12.95 L2.4 12.95 1.95 12.85 1.75 12.75 1.95 12.65 2.3 12.55 3.0 12.55 Q8.0 13.5 10.05 16.6 10.6 14.1 10.55 12.85 10.5 10.8 9.2 9.25 6.85 6.5 6.5 4.95 6.0 2.65 8.65 0.7 L9.5 0.6 Q10.05 0.75 9.75 0.95 L9.35 1.25 Q8.25 3.3 11.05 6.15 L15.65 10.85 Q16.75 12.45 16.7 14.75 16.65 16.85 15.75 18.75 18.3 16.7 18.75 14.05 L18.75 8.95 Q18.75 7.75 17.05 4.65 15.6 2.0 16.35 0.2 16.5 -0.05 17.15 0.0 17.8 0.1 17.65 0.35 L17.5 0.8 Q18.15 2.55 20.5 5.2 L24.2 9.5 Q25.1 10.8 24.75 12.65 L23.65 15.8 25.3 14.85 29.45 12.05 Q31.15 10.55 31.5 8.8 31.6 8.55 32.3 8.45 M32.2 10.9 L31.65 11.9 Q30.85 13.25 27.85 14.9 24.35 16.65 22.8 17.55 L21.5 20.2 Q22.3 21.9 22.3 23.35 22.3 24.85 21.3 26.5 20.25 28.25 21.5 30.35 L24.0 33.9 26.05 33.4 Q27.25 33.1 27.1 32.9 26.6 31.9 26.2 30.35 L25.45 27.8 Q24.65 25.45 25.3 22.75 26.0 19.55 28.4 17.85 29.75 16.95 31.0 14.7 32.15 12.65 32.15 11.55 L32.2 10.9 M20.7 21.7 Q18.6 25.85 17.7 28.25 16.3 31.85 16.15 35.0 L20.5 34.9 Q22.5 34.7 21.9 33.6 L20.55 31.8 19.4 29.75 Q18.8 28.5 18.9 27.65 19.0 27.05 20.4 25.05 21.5 23.45 20.95 22.25 L20.7 21.7 M21.25 8.0 Q18.1 4.5 17.35 3.15 17.55 4.15 19.4 7.85 20.85 10.8 20.4 12.65 L19.35 16.0 Q18.6 17.55 16.9 18.95 L17.15 19.0 14.6 20.75 11.85 22.45 Q10.85 23.1 10.35 24.1 L9.4 25.8 Q7.15 28.9 7.25 33.8 L7.25 34.05 7.3 34.9 8.0 35.05 9.75 35.1 11.35 35.25 14.1 35.55 Q14.15 31.4 15.9 26.85 17.25 23.45 20.2 18.3 22.0 15.2 22.45 13.15 23.15 10.05 21.25 8.0 M9.35 7.8 Q11.5 11.05 11.5 12.45 L10.8 18.0 Q11.7 20.3 10.7 22.4 L10.75 22.5 10.6 22.55 10.5 22.75 15.1 20.0 14.6 19.9 Q14.4 19.8 14.55 19.65 L15.05 19.3 Q14.55 19.3 14.55 19.1 14.7 15.2 14.05 12.85 13.1 9.6 10.2 6.8 8.1 4.8 7.9 3.25 7.4 4.9 9.35 7.8 M6.9 15.4 Q5.65 14.15 4.2 13.5 6.8 15.2 6.85 18.9 L6.35 24.35 6.35 26.7 Q6.3 28.0 5.7 29.05 4.8 31.5 4.3 31.85 2.95 32.85 3.25 33.15 L5.95 33.5 Q6.1 31.8 7.0 29.35 L8.5 25.15 Q8.8 24.1 10.2 23.0 L9.95 22.95 9.35 20.05 Q9.0 18.3 8.35 17.15 L6.9 15.4"
         fill="#0f5729"
         fill-rule="evenodd"
         stroke="none"
         id="path80" />
      <path
         d="M28.0 19.25 Q25.8 22.5 25.45 24.5 24.75 29.05 27.45 32.15 27.6 32.35 27.2 32.45 L26.5 32.4 Q23.85 31.2 23.65 28.6 L24.0 24.5 Q24.05 22.25 26.65 19.2 L30.7 14.05 30.85 14.0 30.95 14.05 Q30.45 15.65 28.0 19.25"
         fill="#88db51"
         fill-rule="evenodd"
         stroke="none"
         id="path81" />
      <path
         d="M21.1 8.55 Q23.9 10.5 21.4 14.8 L21.15 14.75 21.15 11.2 21.15 9.9 20.95 8.6 Q20.95 8.4 21.1 8.55"
         fill="#88db51"
         fill-rule="evenodd"
         stroke="none"
         id="path82" />
      <path
         d="M19.8 17.3 L19.85 17.3 Q17.5 20.8 16.05 25.7 L13.7 34.15 Q13.6 34.45 13.0 34.45 12.35 34.45 12.25 34.15 11.7 32.35 12.6 29.75 L14.4 25.35 Q16.3 20.3 19.8 17.3"
         fill="#88db51"
         fill-rule="evenodd"
         stroke="none"
         id="path83" />
      <path
         d="M20.6 32.9 L21.2 33.75 21.5 34.65 Q21.6 34.95 20.9 34.95 20.2 34.95 20.1 34.65 L18.6 32.3 Q17.55 30.8 18.55 29.95 L19.2 30.05 Q18.4 30.95 20.6 32.9"
         fill="#88db51"
         fill-rule="evenodd"
         stroke="none"
         id="path84" />
      <path
         d="M12.15 10.15 Q11.7 8.65 10.7 7.95 L10.85 7.95 Q12.6 8.85 13.75 10.35 14.7 11.65 14.95 13.0 L15.5 16.75 Q15.45 19.0 13.85 20.4 L13.65 20.4 13.55 20.35 Q14.7 16.55 12.8 12.45 L12.15 10.15"
         fill="#88db51"
         fill-rule="evenodd"
         stroke="none"
         id="path85" />
      <path
         d="M6.85 15.9 L7.0 15.95 9.0 19.7 Q9.85 21.8 9.5 23.5 L8.8 23.75 Q8.15 23.75 8.15 23.5 L7.8 19.8 6.9 17.9 Q6.3 16.75 6.75 15.95 L6.85 15.9"
         fill="#88db51"
         fill-rule="evenodd"
         stroke="none"
         id="path86" />
    </g>
    <g
       id="sprite8"
       transform="matrix(1.0, 0.0, 0.0, 1.0, 9.15, 7.0)">
      <use
         ffdec:characterId="856"
         height="181.95"
         transform="matrix(1.0, 0.0, 0.0, 1.0, 0.0, 0.85)"
         width="268.75"
         xlink:href="#sprite9"
         id="use86" />
      <use
         ffdec:characterId="858"
         height="76.5"
         transform="matrix(0.9662, -0.2546, 0.2546, 0.9662, -9.145, 56.946)"
         width="251.1"
         xlink:href="#sprite11"
         id="use87" />
      <use
         ffdec:characterId="1324"
         height="143.2"
         transform="matrix(0.9649, 0.0, 0.0, 1.0, 21.8123, 15.8)"
         width="228.75"
         xlink:href="#sprite12"
         id="use88" />
      <use
         ffdec:characterId="1326"
         height="184.25"
         transform="matrix(1.0, 0.0, 0.0, 1.0, -0.8, -0.75)"
         width="270.0"
         xlink:href="#sprite13"
         id="use89" />
    </g>
    <g
       id="sprite9"
       transform="matrix(1.0, 0.0, 0.0, 1.0, 0.0, -0.85)">
      <use
         ffdec:characterId="853"
         height="181.95"
         transform="matrix(1.0, 0.0, 0.0, 1.0, 0.8, 0.85)"
         width="267.15"
         xlink:href="#shape9"
         id="use90" />
      <use
         ffdec:characterId="855"
         height="167.2"
         transform="matrix(1.0, 0.0, 0.0, 1.0, 0.0, 5.35)"
         width="268.75"
         xlink:href="#sprite10"
         id="use91" />
    </g>
    <g
       id="shape9"
       transform="matrix(1.0, 0.0, 0.0, 1.0, -0.8, -0.85)">
      <path
         d="M267.95 110.55 Q137.6 142.6 23.0 182.8 L22.9 182.4 22.9 182.5 22.85 182.3 22.8 182.1 22.5 180.95 22.5 180.9 Q15.8 157.55 11.0 134.4 L9.7 127.65 Q3.6 98.4 0.8 69.15 106.2 19.85 226.15 0.85 239.9 29.8 251.6 61.35 260.4 85.05 267.95 110.25 L267.95 110.55"
         fill="url(#gradient1)"
         fill-rule="evenodd"
         stroke="none"
         id="path91" />
    </g>
    <linearGradient
       gradientTransform="matrix(0.0131, -0.0629, 0.1623, 0.0338, 123.1, 143.55)"
       gradientUnits="userSpaceOnUse"
       id="gradient1"
       spreadMethod="pad"
       x1="-819.2"
       x2="819.2">
      <stop
         offset="0.00784313725490196"
         stop-color="#54a530"
         id="stop91" />
      <stop
         offset="1.0"
         stop-color="#3ed717"
         id="stop92" />
    </linearGradient>
    <g
       id="sprite10"
       transform="matrix(1.0, 0.0, 0.0, 1.0, 0.0, -5.35)">
      <use
         ffdec:characterId="854"
         height="167.2"
         transform="matrix(1.0, 0.0, 0.0, 1.0, 0.0, 5.35)"
         width="268.75"
         xlink:href="#shape10"
         id="use92" />
    </g>
    <g
       id="shape10"
       transform="matrix(1.0, 0.0, 0.0, 1.0, 0.0, -5.35)">
      <path
         d="M239.5 28.85 Q243.5 38.25 247.3 48.0 231.3 50.8 215.45 54.1 L209.0 35.0 Q224.15 31.75 239.5 28.85 M222.5 81.8 L224.7 81.4 Q241.1 78.25 257.55 75.75 263.45 92.7 268.75 110.35 L268.65 110.35 240.3 117.5 212.75 101.3 Q211.1 90.6 222.5 81.8 M188.1 23.4 L162.85 31.2 156.4 14.0 Q176.05 9.2 196.15 5.35 L188.1 23.4 M188.55 131.25 Q167.05 137.15 146.1 143.3 L139.55 125.85 182.4 113.1 188.55 131.25 M109.25 47.7 L64.35 61.55 60.0 43.5 Q81.35 35.5 103.3 28.65 L109.25 47.7 M36.3 85.5 Q19.85 91.7 3.65 98.4 1.4 83.55 0.0 68.7 12.2 63.0 24.65 57.7 L34.55 74.55 36.3 85.5 M44.05 134.0 Q28.45 140.15 12.95 146.85 L10.25 134.55 8.95 127.8 7.0 117.9 Q23.1 111.2 39.5 105.0 L44.2 133.95 44.05 134.0 M53.0 172.55 L57.95 150.05 89.7 140.65 96.15 158.5 Q74.3 165.35 53.0 172.55"
         fill="#000000"
         fill-opacity="0.29803923"
         fill-rule="evenodd"
         stroke="none"
         id="path92" />
    </g>
    <g
       id="sprite11"
       transform="matrix(1.0, 0.0, 0.0, 1.0, 19.75, 10.85)">
      <use
         ffdec:characterId="857"
         height="76.5"
         transform="matrix(1.0, 0.0, 0.0, 1.0, -19.75, -10.85)"
         width="251.1"
         xlink:href="#shape11"
         id="use93" />
    </g>
    <g
       id="shape11"
       transform="matrix(1.0, 0.0, 0.0, 1.0, 19.75, 10.85)">
      <path
         d="M-10.0 2.15 Q105.8 -18.95 222.65 -5.85 228.85 21.8 231.35 57.1 L-19.75 65.65 Q-19.75 36.2 -14.25 3.0 L-10.0 2.15"
         fill="url(#gradient2)"
         fill-rule="evenodd"
         stroke="none"
         id="path93" />
    </g>
    <linearGradient
       gradientTransform="matrix(0.0, -0.0317, 0.1257, 0.0, 102.95, 19.5)"
       gradientUnits="userSpaceOnUse"
       id="gradient2"
       spreadMethod="pad"
       x1="-819.2"
       x2="819.2">
      <stop
         offset="0.0"
         stop-color="#ffffff"
         stop-opacity="0.0"
         id="stop93" />
      <stop
         offset="1.0"
         stop-color="#ffffff"
         stop-opacity="0.7490196"
         id="stop94" />
    </linearGradient>
    <g
       id="sprite12"
       transform="matrix(1.0, 0.0, 0.0, 1.0, 0.35, 0.25)">
      <use
         ffdec:characterId="1323"
         height="143.2"
         transform="matrix(1.0, 0.0, 0.0, 1.0, -0.35, -0.25)"
         width="228.75"
         xlink:href="#shape12"
         id="use94" />
    </g>
    <g
       id="shape12"
       transform="matrix(1.0, 0.0, 0.0, 1.0, 0.35, 0.25)">
      <path
         d="M181.15 12.5 L180.75 12.6 180.55 12.75 Q180.45 12.9 180.5 13.05 L180.65 13.3 180.95 13.35 201.55 8.2 201.6 8.15 201.75 8.2 201.95 8.45 202.05 8.6 202.1 8.65 Q207.0 17.9 211.45 27.85 L214.55 35.1 219.15 47.1 219.2 47.3 Q222.4 56.05 225.15 65.3 L226.85 71.2 227.65 74.3 227.8 74.55 227.95 74.6 227.7 74.95 227.3 75.1 200.95 77.3 200.6 77.05 200.3 77.0 200.05 77.15 Q199.95 77.25 200.0 77.4 L200.15 77.65 213.85 87.9 214.1 88.0 214.3 87.9 214.35 88.1 214.25 88.65 213.75 88.95 195.65 93.05 Q179.7 96.7 163.8 100.85 L138.8 107.55 134.25 108.85 132.1 109.45 131.8 109.55 Q117.25 113.7 102.8 118.2 85.15 123.6 67.6 129.6 L64.95 130.5 Q47.6 136.45 30.35 142.9 L29.8 142.9 29.4 142.6 29.35 142.5 29.55 142.4 29.7 142.15 31.5 129.45 31.4 129.2 31.15 129.05 30.9 129.1 30.75 129.35 30.7 129.6 12.45 138.65 12.0 138.7 11.6 138.5 11.55 138.45 11.75 138.3 11.8 138.05 11.1 134.65 10.25 130.45 Q8.3 121.0 6.7 111.65 L6.65 111.55 6.65 111.5 5.55 104.9 Q2.95 89.35 1.15 74.25 L0.4 68.0 0.45 67.8 0.5 67.75 0.65 67.6 12.0 63.45 12.2 63.25 12.2 63.0 12.0 62.75 11.75 62.75 11.6 62.8 5.75 55.4 5.6 54.95 5.75 54.5 5.8 54.45 5.95 54.55 6.25 54.55 Q16.45 50.35 26.95 46.35 40.75 41.1 54.9 36.2 71.15 30.55 87.95 25.45 L88.0 25.45 89.9 24.85 Q102.8 20.9 115.95 17.35 135.0 12.05 154.65 7.55 L176.5 2.65 176.75 2.45 176.8 2.25 176.8 2.2 186.95 0.1 187.05 0.05 187.6 0.15 187.95 0.6 187.85 1.15 181.15 12.5 M213.45 35.4 L210.45 28.3 210.4 28.25 Q206.1 18.5 201.25 9.4 L200.7 9.55 179.5 14.85 178.95 14.75 178.6 14.3 Q178.5 14.0 178.65 13.75 L185.7 1.85 185.65 1.9 183.8 2.25 Q169.2 5.2 154.9 8.6 L154.05 8.8 Q134.9 13.3 116.25 18.45 L115.95 18.5 95.05 24.5 88.5 26.5 88.3 26.55 Q71.85 31.5 55.85 37.05 L55.25 37.25 Q41.6 42.0 28.3 47.05 L27.35 47.4 Q17.35 51.2 7.6 55.25 L7.65 55.3 13.65 63.0 13.8 63.45 13.7 63.9 13.3 64.15 1.6 68.45 2.25 74.1 2.25 74.2 Q4.05 89.15 6.65 104.55 L6.65 104.7 7.75 111.3 Q9.4 120.8 11.35 130.5 L12.1 134.1 12.15 134.4 12.55 136.3 12.65 136.85 31.75 127.45 32.25 127.4 32.7 127.7 32.8 128.2 31.0 141.05 Q45.65 135.6 60.4 130.5 L67.1 128.2 68.1 127.85 Q85.15 122.05 102.35 116.75 L102.7 116.65 Q117.15 112.1 131.65 108.0 L132.05 107.9 134.25 107.25 138.2 106.15 138.4 106.1 Q150.5 102.7 162.7 99.6 L163.45 99.4 Q178.65 95.4 193.95 91.9 L195.3 91.6 211.85 87.85 197.85 77.35 197.6 77.0 197.6 76.55 Q197.65 76.35 197.85 76.2 L198.25 76.0 226.3 73.7 226.1 72.9 225.75 71.5 225.7 71.3 223.95 65.2 Q221.2 56.15 218.1 47.5 L213.45 35.4"
         fill="#cc9900"
         fill-rule="evenodd"
         stroke="none"
         id="path94" />
      <path
         d="M213.45 35.4 L218.1 47.5 Q221.2 56.15 223.95 65.2 L154.85 66.55 155.65 71.0 117.95 65.6 213.45 35.4 M193.95 91.9 Q178.65 95.4 163.45 99.4 L162.7 99.6 117.65 73.2 134.5 100.25 130.35 103.35 131.65 108.0 Q117.15 112.1 102.7 116.65 L108.6 72.85 116.8 72.7 117.65 73.2 117.3 72.7 122.9 72.65 193.95 91.9 M68.1 127.85 L67.1 128.2 60.4 130.5 Q45.65 135.6 31.0 141.05 L32.8 128.2 32.7 127.7 32.25 127.4 31.75 127.45 12.65 136.85 12.55 136.3 12.15 134.4 12.1 134.1 104.8 72.9 106.85 72.9 107.85 72.85 68.1 127.85 M6.65 104.55 Q4.05 89.15 2.25 74.2 L90.65 73.05 6.65 104.55 M28.3 47.05 Q41.6 42.0 55.25 37.25 L55.85 37.05 106.95 66.95 104.85 67.75 28.3 47.05 M88.5 26.5 L95.05 24.5 115.95 18.5 110.15 61.25 88.5 26.5 M154.05 8.8 L154.9 8.6 Q169.2 5.2 183.8 2.25 L185.65 1.9 185.7 1.85 178.65 13.75 Q178.5 14.0 178.6 14.3 L178.95 14.75 179.5 14.85 200.7 9.55 122.55 61.15 113.95 64.35 154.05 8.8"
         fill="#ffff00"
         fill-rule="evenodd"
         stroke="none"
         id="path95" />
      <path
         d="M200.7 9.55 L201.25 9.4 Q206.1 18.5 210.4 28.25 L210.45 28.3 213.45 35.4 117.95 65.6 113.9 66.85 122.55 61.15 200.7 9.55"
         fill="url(#gradient3)"
         fill-rule="evenodd"
         stroke="none"
         id="path96" />
      <path
         d="M223.95 65.2 L225.7 71.3 225.75 71.5 226.1 72.9 226.3 73.7 198.25 76.0 197.85 76.2 Q197.65 76.35 197.6 76.55 L197.6 77.0 197.85 77.35 211.85 87.85 195.3 91.6 193.95 91.9 122.9 72.65 116.15 70.8 113.75 66.95 113.9 66.85 117.95 65.6 155.65 71.0 154.85 66.55 223.95 65.2"
         fill="url(#gradient4)"
         fill-rule="evenodd"
         stroke="none"
         id="path97" />
      <path
         d="M115.95 18.5 L116.25 18.45 Q134.9 13.3 154.05 8.8 L113.95 64.35 122.55 61.15 113.9 66.85 113.75 66.95 116.15 70.8 122.9 72.65 117.3 72.7 116.8 72.7 108.6 72.85 107.85 72.85 107.8 72.6 106.85 72.9 104.8 72.9 90.65 73.05 104.85 67.75 106.95 66.95 109.5 66.0 110.15 61.25 115.95 18.5"
         fill="url(#gradient5)"
         fill-rule="evenodd"
         stroke="none"
         id="path98" />
      <path
         d="M55.85 37.05 Q71.85 31.5 88.3 26.55 L88.5 26.5 110.15 61.25 109.5 66.0 106.95 66.95 55.85 37.05"
         fill="url(#gradient6)"
         fill-rule="evenodd"
         stroke="none"
         id="path99" />
      <path
         d="M106.85 72.9 L107.8 72.6 107.85 72.85 106.85 72.9 M116.8 72.7 L117.3 72.7 117.65 73.2 116.8 72.7"
         fill="url(#gradient7)"
         fill-rule="evenodd"
         stroke="none"
         id="path100" />
      <path
         d="M102.7 116.65 L102.35 116.75 Q85.15 122.05 68.1 127.85 L107.85 72.85 108.6 72.85 102.7 116.65"
         fill="url(#gradient8)"
         fill-rule="evenodd"
         stroke="none"
         id="path101" />
      <path
         d="M12.1 134.1 L11.35 130.5 Q9.4 120.8 7.75 111.3 L6.65 104.7 6.65 104.55 90.65 73.05 104.8 72.9 12.1 134.1"
         fill="url(#gradient9)"
         fill-rule="evenodd"
         stroke="none"
         id="path102" />
      <path
         d="M2.25 74.2 L2.25 74.1 1.6 68.45 13.3 64.15 13.7 63.9 13.8 63.45 13.65 63.0 7.65 55.3 7.6 55.25 Q17.35 51.2 27.35 47.4 L28.3 47.05 104.85 67.75 90.65 73.05 2.25 74.2"
         fill="url(#gradient10)"
         fill-rule="evenodd"
         stroke="none"
         id="path103" />
      <path
         d="M162.7 99.6 Q150.5 102.7 138.4 106.1 L138.2 106.15 134.25 107.25 132.05 107.9 131.65 108.0 130.35 103.35 134.5 100.25 117.65 73.2 162.7 99.6"
         fill="url(#gradient11)"
         fill-rule="evenodd"
         stroke="none"
         id="path104" />
      <path
         d="M181.15 12.5 L201.35 7.45 202.15 7.55 202.6 8.05 202.75 8.25 202.8 8.35 Q207.7 17.65 212.15 27.55 L215.25 34.8 219.85 46.9 219.9 47.0 219.9 47.05 Q223.1 55.85 225.85 65.1 L227.55 71.0 228.4 74.1 228.35 74.4 228.1 74.6 227.95 74.6 227.8 74.55 227.65 74.3 226.85 71.2 225.15 65.3 Q222.4 56.05 219.2 47.3 L219.15 47.1 214.55 35.1 211.45 27.85 Q207.0 17.9 202.1 8.65 L202.05 8.6 201.95 8.45 201.75 8.2 201.6 8.15 201.55 8.2 180.95 13.35 180.65 13.3 180.5 13.05 Q180.45 12.9 180.55 12.75 L180.75 12.6 181.15 12.5 M200.95 77.3 L214.3 87.3 214.45 87.55 214.35 87.85 214.3 87.9 214.1 88.0 213.85 87.9 200.15 77.65 200.0 77.4 Q199.95 77.25 200.05 77.15 L200.3 77.0 200.6 77.05 200.95 77.3 M29.35 142.5 L29.25 142.5 29.0 142.35 28.95 142.05 30.7 129.6 30.75 129.35 30.9 129.1 31.15 129.05 31.4 129.2 31.5 129.45 29.7 142.15 29.55 142.4 29.35 142.5 M11.55 138.45 L11.5 138.5 11.2 138.45 11.05 138.2 10.35 134.8 Q9.85 132.7 9.5 130.6 L5.95 111.8 5.9 111.6 4.8 105.05 4.8 105.0 Q2.15 89.45 0.4 74.35 L-0.35 68.1 -0.35 68.05 -0.15 67.35 0.35 66.9 0.4 66.9 11.6 62.8 11.75 62.75 12.0 62.75 12.2 63.0 12.2 63.25 12.0 63.45 0.65 67.6 0.5 67.75 0.45 67.8 0.4 68.0 1.15 74.25 Q2.95 89.35 5.55 104.9 L6.65 111.5 6.65 111.55 6.7 111.65 Q8.3 121.0 10.25 130.45 L11.1 134.65 11.8 138.05 11.75 138.3 11.55 138.45 M5.8 54.45 L5.75 54.35 5.75 54.05 5.95 53.85 Q16.15 49.65 26.7 45.65 40.45 40.4 54.65 35.5 70.95 29.85 87.75 24.75 L89.7 24.15 Q102.6 20.2 115.75 16.65 134.8 11.35 154.5 6.8 165.35 4.2 176.35 1.9 L176.6 1.95 176.8 2.2 176.8 2.25 176.75 2.45 176.5 2.65 154.65 7.55 Q135.0 12.05 115.95 17.35 102.8 20.9 89.9 24.85 L88.0 25.45 87.95 25.45 Q71.15 30.55 54.9 36.2 40.75 41.1 26.95 46.35 16.45 50.35 6.25 54.55 L5.95 54.55 5.8 54.45"
         fill="#006600"
         fill-rule="evenodd"
         stroke="none"
         id="path105" />
      <path
         d="M176.8 2.2 L186.95 0.1"
         fill="none"
         stroke="#006600"
         stroke-linecap="round"
         stroke-linejoin="round"
         stroke-width="0.75"
         id="path106" />
    </g>
    <linearGradient
       gradientTransform="matrix(0.0293, -0.0158, 0.0062, 0.0115, 159.35, 43.75)"
       gradientUnits="userSpaceOnUse"
       id="gradient3"
       spreadMethod="pad"
       x1="-819.2"
       x2="819.2">
      <stop
         offset="0.2901960784313726"
         stop-color="#f08417"
         id="stop106" />
      <stop
         offset="1.0"
         stop-color="#f8e332"
         id="stop107" />
    </linearGradient>
    <linearGradient
       gradientTransform="matrix(0.0275, 0.0012, -6.0E-4, 0.0136, 165.15, 79.8)"
       gradientUnits="userSpaceOnUse"
       id="gradient4"
       spreadMethod="pad"
       x1="-819.2"
       x2="819.2">
      <stop
         offset="0.2901960784313726"
         stop-color="#f08417"
         id="stop108" />
      <stop
         offset="1.0"
         stop-color="#f8e332"
         id="stop109" />
    </linearGradient>
    <linearGradient
       gradientTransform="matrix(0.0155, -0.0348, 0.0174, 0.0078, 131.15, 22.3)"
       gradientUnits="userSpaceOnUse"
       id="gradient5"
       spreadMethod="pad"
       x1="-819.2"
       x2="819.2">
      <stop
         offset="0.2901960784313726"
         stop-color="#f08417"
         id="stop110" />
      <stop
         offset="1.0"
         stop-color="#f8e332"
         id="stop111" />
    </linearGradient>
    <linearGradient
       gradientTransform="matrix(-0.0253, -0.0208, 0.0113, -0.0138, 80.2, 38.3)"
       gradientUnits="userSpaceOnUse"
       id="gradient6"
       spreadMethod="pad"
       x1="-819.2"
       x2="819.2">
      <stop
         offset="0.2901960784313726"
         stop-color="#f08417"
         id="stop112" />
      <stop
         offset="1.0"
         stop-color="#f8e332"
         id="stop113" />
    </linearGradient>
    <linearGradient
       gradientTransform="matrix(0.0274, 0.0955, -0.1501, 0.0455, 122.55, 113.85)"
       gradientUnits="userSpaceOnUse"
       id="gradient7"
       spreadMethod="pad"
       x1="-819.2"
       x2="819.2">
      <stop
         offset="0.00784313725490196"
         stop-color="#64aef9"
         id="stop114" />
      <stop
         offset="1.0"
         stop-color="#1e42d0"
         id="stop115" />
    </linearGradient>
    <linearGradient
       gradientTransform="matrix(-0.0113, 0.0229, -0.0145, -0.0072, 92.5, 107.9)"
       gradientUnits="userSpaceOnUse"
       id="gradient8"
       spreadMethod="pad"
       x1="-819.2"
       x2="819.2">
      <stop
         offset="0.2901960784313726"
         stop-color="#f08417"
         id="stop116" />
      <stop
         offset="1.0"
         stop-color="#f8e332"
         id="stop117" />
    </linearGradient>
    <linearGradient
       gradientTransform="matrix(-0.0345, 0.0216, -0.0091, -0.0145, 57.4, 89.1)"
       gradientUnits="userSpaceOnUse"
       id="gradient9"
       spreadMethod="pad"
       x1="-819.2"
       x2="819.2">
      <stop
         offset="0.2901960784313726"
         stop-color="#f08417"
         id="stop118" />
      <stop
         offset="1.0"
         stop-color="#f8e332"
         id="stop119" />
    </linearGradient>
    <linearGradient
       gradientTransform="matrix(-0.0437, -0.0048, 0.002, -0.0183, 59.5, 65.45)"
       gradientUnits="userSpaceOnUse"
       id="gradient10"
       spreadMethod="pad"
       x1="-819.2"
       x2="819.2">
      <stop
         offset="0.2901960784313726"
         stop-color="#f08417"
         id="stop120" />
      <stop
         offset="1.0"
         stop-color="#f8e332"
         id="stop121" />
    </linearGradient>
    <linearGradient
       gradientTransform="matrix(0.0146, 0.0122, -0.0083, 0.0099, 145.0, 98.35)"
       gradientUnits="userSpaceOnUse"
       id="gradient11"
       spreadMethod="pad"
       x1="-819.2"
       x2="819.2">
      <stop
         offset="0.2901960784313726"
         stop-color="#f08417"
         id="stop122" />
      <stop
         offset="1.0"
         stop-color="#f8e332"
         id="stop123" />
    </linearGradient>
    <g
       id="sprite13"
       transform="matrix(1.0, 0.0, 0.0, 1.0, 0.0, 0.0)">
      <use
         ffdec:characterId="1325"
         height="184.25"
         transform="matrix(1.0, 0.0, 0.0, 1.0, 0.0, 0.0)"
         width="270.0"
         xlink:href="#shape13"
         id="use123" />
    </g>
    <g
       id="shape13"
       transform="matrix(1.0, 0.0, 0.0, 1.0, 0.0, 0.0)">
      <path
         d="M22.55 183.35 L22.15 183.0 22.05 182.9 21.8 182.05 Q15.05 158.7 10.3 135.45 L9.0 128.7 Q2.8 99.1 0.0 69.55 L0.1 69.1 0.45 68.8 Q89.65 26.95 189.35 6.8 208.05 3.0 227.2 0.0 L227.65 0.1 228.0 0.45 229.55 3.7 Q242.6 31.45 253.75 61.6 262.45 85.1 270.0 110.05 L269.45 110.7 269.4 110.75 269.25 110.55 269.15 110.7 268.75 111.1 268.15 111.0 267.8 110.6 267.75 110.5 Q260.35 85.7 251.65 62.35 240.4 32.05 227.3 4.2 L227.25 4.15 226.5 2.45 202.9 6.55 Q96.75 26.25 2.35 70.35 5.15 99.3 11.2 128.25 L12.5 135.0 Q17.3 158.15 24.0 181.45 L24.0 181.65 24.2 182.4 24.25 182.45 24.15 183.0 23.75 183.4 23.15 183.3 22.8 182.95 Q22.6 183.05 22.55 183.3 L22.55 183.35"
         fill="url(#gradient12)"
         fill-rule="evenodd"
         stroke="none"
         id="path123" />
      <path
         d="M22.55 183.35 L22.55 183.3 Q22.6 183.05 22.8 182.95 L23.15 183.3 23.75 183.4 24.15 183.0 24.25 182.45 24.2 182.4 Q128.85 145.5 267.75 110.5 L267.8 110.6 268.15 111.0 268.75 111.1 269.15 110.7 269.25 110.55 269.4 110.75 269.45 110.9 269.35 111.45 268.9 111.8 Q129.1 146.9 24.05 184.0 L23.85 184.1 23.6 184.2 23.05 184.2 22.6 183.85 22.55 183.35"
         fill="url(#gradient13)"
         fill-rule="evenodd"
         stroke="none"
         id="path124" />
    </g>
    <linearGradient
       gradientTransform="matrix(0.0062, 0.0565, -0.1603, 0.0177, 136.6, 103.3)"
       gradientUnits="userSpaceOnUse"
       id="gradient12"
       spreadMethod="pad"
       x1="-819.2"
       x2="819.2">
      <stop
         offset="0.0"
         stop-color="#54dc45"
         id="stop124" />
      <stop
         offset="1.0"
         stop-color="#15401e"
         id="stop125" />
    </linearGradient>
    <linearGradient
       gradientTransform="matrix(0.1507, 0.0, 0.0, 0.0451, 145.95, 147.25)"
       gradientUnits="userSpaceOnUse"
       id="gradient13"
       spreadMethod="pad"
       x1="-819.2"
       x2="819.2">
      <stop
         offset="0.0"
         stop-color="#54dc45"
         id="stop126" />
      <stop
         offset="1.0"
         stop-color="#15401e"
         id="stop127" />
    </linearGradient>
    <g
       id="sprite14"
       transform="matrix(1.0, 0.0, 0.0, 1.0, 0.0, -0.05)">
      <use
         ffdec:characterId="1327"
         height="190.5"
         transform="matrix(0.9202, -0.2767, 0.325, 1.0325, 0.0046, 77.0542)"
         width="278.35"
         xlink:href="#sprite8"
         id="use127" />
      <filter
         id="filter1"
         x="0"
         y="0"
         width="1"
         height="1">
        <feConvolveMatrix
           divisor="25.0"
           in="SourceGraphic"
           kernelMatrix="1 1 1 1 1 1 1 1 1 1 1 1 1 1 1 1 1 1 1 1 1 1 1 1 1"
           order="5 5"
           result="filterResult4"
           id="feConvolveMatrix127" />
      </filter>
      <use
         ffdec:characterId="865"
         filter="url(#filter1)"
         height="69.6"
         transform="matrix(0.8108, -0.133, 0.3699, 0.9391, 47.25, 188.85)"
         width="197.85"
         xlink:href="#sprite15"
         id="use128" />
    </g>
    <g
       id="sprite15"
       transform="matrix(1.0, 0.0, 0.0, 1.0, 0.0, 0.0)">
      <use
         ffdec:characterId="864"
         height="69.6"
         transform="matrix(1.0, 0.0, 0.0, 1.0, 0.0, 0.0)"
         width="197.85"
         xlink:href="#shape14"
         id="use129" />
    </g>
    <g
       id="shape14"
       transform="matrix(1.0, 0.0, 0.0, 1.0, 0.0, 0.0)">
      <path
         d="M0.0 27.2 Q20.55 25.05 57.7 19.35 L135.4 7.0 176.0 2.3 197.85 0.0 Q156.0 14.2 123.1 25.85 44.85 53.5 13.65 69.6 11.55 65.15 8.75 55.5 L4.05 38.65 Q1.95 31.55 0.0 27.2"
         fill="#000000"
         fill-opacity="0.4862745"
         fill-rule="evenodd"
         stroke="none"
         id="path129" />
    </g>
    <g
       id="sprite16"
       transform="matrix(1.0, 0.0, 0.0, 1.0, 7.9, -0.1)">
      <use
         ffdec:characterId="867"
         height="92.2"
         transform="matrix(1.0, 0.0, 0.0, 1.0, -7.9, 0.1)"
         width="106.1"
         xlink:href="#shape15"
         id="use130" />
      <filter
         id="filter2"
         x="0"
         y="0"
         width="1"
         height="1">
        <feConvolveMatrix
           divisor="9.0"
           in="SourceGraphic"
           kernelMatrix="1 1 1 1 1 1 1 1 1"
           order="3 3"
           result="filterResult5"
           id="feConvolveMatrix130" />
      </filter>
      <use
         ffdec:characterId="869"
         filter="url(#filter2)"
         height="57.15"
         transform="matrix(1.2521, 0.0, 0.0, 1.0898, 3.5216, 9.2867)"
         width="38.3"
         xlink:href="#sprite17"
         id="use131" />
      <filter
         id="filter3"
         x="0"
         y="0"
         width="1"
         height="1">
        <feConvolveMatrix
           divisor="9.0"
           in="SourceGraphic"
           kernelMatrix="1 1 1 1 1 1 1 1 1"
           order="3 3"
           result="filterResult6"
           id="feConvolveMatrix131" />
      </filter>
      <use
         ffdec:characterId="871"
         filter="url(#filter3)"
         height="54.5"
         transform="matrix(1.2518, 0.0, 0.0, 1.0878, 37.0996, 24.2583)"
         width="41.7"
         xlink:href="#sprite18"
         id="use132" />
    </g>
    <g
       id="shape15"
       transform="matrix(1.0, 0.0, 0.0, 1.0, 7.9, -0.1)">
      <path
         d="M98.2 46.2 Q98.2 65.3 82.65 78.8 67.1 92.3 45.15 92.3 23.15 92.3 7.6 78.8 -7.9 65.3 -7.9 46.2 -7.9 27.1 7.6 13.6 23.15 0.1 45.15 0.1 67.1 0.1 82.65 13.6 98.2 27.1 98.2 46.2 M80.8 15.2 Q66.0 2.4 45.15 2.4 24.25 2.4 9.45 15.2 -5.25 28.05 -5.25 46.2 -5.25 64.35 9.45 77.2 24.25 90.0 45.15 90.0 66.0 90.0 80.8 77.2 95.55 64.35 95.55 46.2 95.55 28.05 80.8 15.2"
         fill="url(#gradient14)"
         fill-rule="evenodd"
         stroke="none"
         id="path132" />
      <path
         d="M75.5 19.9 Q88.0 30.8 88.0 46.25 88.0 61.65 75.5 72.6 62.95 83.45 45.2 83.45 27.45 83.45 14.85 72.6 2.35 61.65 2.35 46.25 2.35 30.8 14.85 19.9 27.45 9.0 45.2 9.0 62.95 9.0 75.5 19.9 M73.95 21.25 Q62.0 10.85 45.2 10.85 28.35 10.85 16.4 21.25 4.45 31.6 4.45 46.25 4.45 60.9 16.4 71.25 28.35 81.6 45.2 81.6 62.0 81.6 73.95 71.25 85.9 60.9 85.9 46.25 85.9 31.6 73.95 21.25"
         fill="url(#gradient15)"
         fill-rule="evenodd"
         stroke="none"
         id="path133" />
      <path
         d="M73.95 21.25 Q85.9 31.6 85.9 46.25 85.9 60.9 73.95 71.25 62.0 81.6 45.2 81.6 28.35 81.6 16.4 71.25 4.45 60.9 4.45 46.25 4.45 31.6 16.4 21.25 28.35 10.85 45.2 10.85 62.0 10.85 73.95 21.25"
         fill="url(#gradient16)"
         fill-rule="evenodd"
         stroke="none"
         id="path134" />
      <path
         d="M77.05 18.45 Q90.25 29.95 90.25 46.2 90.25 62.45 77.05 73.95 63.85 85.4 45.15 85.4 26.45 85.4 13.2 73.95 0.05 62.45 0.05 46.2 0.05 29.95 13.2 18.45 26.45 7.05 45.15 7.05 63.85 7.05 77.05 18.45 M75.5 19.9 Q62.95 9.0 45.2 9.0 27.45 9.0 14.85 19.9 2.35 30.8 2.35 46.25 2.35 61.65 14.85 72.6 27.45 83.45 45.2 83.45 62.95 83.45 75.5 72.6 88.0 61.65 88.0 46.25 88.0 30.8 75.5 19.9"
         fill="url(#gradient17)"
         fill-rule="evenodd"
         stroke="none"
         id="path135" />
      <path
         d="M80.8 15.2 Q95.55 28.05 95.55 46.2 95.55 64.35 80.8 77.2 66.0 90.0 45.15 90.0 24.25 90.0 9.45 77.2 -5.25 64.35 -5.25 46.2 -5.25 28.05 9.45 15.2 24.25 2.4 45.15 2.4 66.0 2.4 80.8 15.2 M77.05 18.45 Q63.85 7.05 45.15 7.05 26.45 7.05 13.2 18.45 0.05 29.95 0.05 46.2 0.05 62.45 13.2 73.95 26.45 85.4 45.15 85.4 63.85 85.4 77.05 73.95 90.25 62.45 90.25 46.2 90.25 29.95 77.05 18.45"
         fill="url(#gradient18)"
         fill-rule="evenodd"
         stroke="none"
         id="path136" />
      <path
         d="M35.3 18.0 L40.45 17.45 Q45.3 17.15 49.45 15.7 46.0 31.45 45.6 47.6 45.15 63.9 47.1 77.0 L45.05 76.8 43.0 76.55 38.65 75.85 34.35 74.75 Q33.75 67.7 30.9 58.85 28.05 49.95 24.95 44.75 24.85 51.0 25.35 58.45 25.8 65.95 27.25 71.6 22.9 69.7 19.55 66.85 L16.9 64.8 Q18.2 58.0 18.05 47.65 18.0 42.65 17.4 38.25 16.85 33.8 15.85 31.0 L19.5 27.3 27.4 20.45 Q27.55 27.8 30.3 36.85 33.2 46.3 36.95 54.2 37.55 44.65 36.95 35.05 36.45 25.4 35.3 18.0 M56.95 19.75 Q60.95 18.15 65.0 20.05 68.7 21.85 71.8 26.45 74.95 31.5 76.1 36.45 L77.6 44.05 74.8 43.85 Q71.65 43.8 67.7 45.35 67.6 42.0 66.35 38.05 65.05 34.0 61.85 34.4 59.1 35.5 58.2 41.75 57.2 48.05 57.8 53.45 59.5 65.8 63.75 64.8 65.75 64.35 66.95 62.15 68.1 59.9 68.35 57.5 L71.35 57.25 Q73.9 56.8 76.6 55.05 74.2 65.8 69.1 70.85 66.2 73.7 63.5 74.65 L58.45 74.5 Q54.8 73.15 51.75 67.55 48.75 61.9 47.75 50.85 46.65 35.3 50.0 28.15 53.3 20.85 56.95 19.75"
         fill="url(#gradient19)"
         fill-rule="evenodd"
         stroke="none"
         id="path137" />
      <path
         d="M39.5 16.25 Q44.35 15.9 48.5 14.5 45.05 30.2 44.65 46.35 44.2 62.65 46.15 75.75 L44.1 75.55 42.05 75.3 37.7 74.65 33.4 73.5 Q32.8 66.45 29.95 57.6 27.1 48.7 24.0 43.5 23.95 50.25 24.4 57.2 24.85 64.75 26.3 70.4 21.95 68.45 18.6 65.6 L15.95 63.55 Q17.25 56.75 17.1 46.4 17.05 41.45 16.45 37.05 15.9 32.55 14.9 29.8 16.55 27.8 18.55 26.05 L26.45 19.2 Q26.6 26.6 29.35 35.6 32.25 45.1 36.0 52.95 36.6 43.4 36.0 33.8 35.5 24.15 34.35 16.75 L39.5 16.25 M56.0 18.5 Q60.0 16.95 64.05 18.8 67.7 20.55 70.85 25.2 74.0 30.3 75.15 35.2 L76.65 42.85 73.85 42.6 Q70.7 42.55 66.75 44.1 66.65 40.8 65.4 36.8 64.1 32.8 60.9 33.15 58.15 34.25 57.25 40.5 56.25 46.8 56.85 52.2 58.55 64.6 62.8 63.55 64.8 63.15 66.0 60.9 67.15 58.65 67.4 56.3 L70.4 56.0 Q72.95 55.6 75.65 53.8 73.25 64.55 68.15 69.6 65.25 72.45 62.55 73.4 59.8 74.35 57.5 73.3 53.9 71.95 50.8 66.3 47.8 60.65 46.75 49.6 45.7 34.1 49.05 26.9 52.35 19.6 56.0 18.5"
         fill="url(#gradient20)"
         fill-rule="evenodd"
         stroke="none"
         id="path138" />
      <path
         d="M39.5 16.25 Q44.35 15.9 48.5 14.5 45.05 30.2 44.65 46.35 44.2 62.65 46.15 75.75 L44.1 75.55 42.05 75.3 37.7 74.65 33.4 73.5 Q32.8 66.45 29.95 57.6 27.1 48.7 24.0 43.5 23.95 50.25 24.4 57.2 24.85 64.75 26.3 70.4 21.95 68.45 18.6 65.6 L15.95 63.55 Q17.25 56.75 17.1 46.4 17.05 41.45 16.45 37.05 15.9 32.55 14.9 29.8 16.55 27.8 18.55 26.05 L26.45 19.2 Q26.6 26.6 29.35 35.6 32.25 45.1 36.0 52.95 36.6 43.4 36.0 33.8 35.5 24.15 34.35 16.75 L39.5 16.25 M56.0 18.5 Q60.0 16.95 64.05 18.8 67.7 20.55 70.85 25.2 74.0 30.3 75.15 35.2 L76.65 42.85 73.85 42.6 Q70.7 42.55 66.75 44.1 66.65 40.8 65.4 36.8 64.1 32.8 60.9 33.15 58.15 34.25 57.25 40.5 56.25 46.8 56.85 52.2 58.55 64.6 62.8 63.55 64.8 63.15 66.0 60.9 67.15 58.65 67.4 56.3 L70.4 56.0 Q72.95 55.6 75.65 53.8 73.25 64.55 68.15 69.6 65.25 72.45 62.55 73.4 59.8 74.35 57.5 73.3 53.9 71.95 50.8 66.3 47.8 60.65 46.75 49.6 45.7 34.1 49.05 26.9 52.35 19.6 56.0 18.5"
         fill="url(#gradient21)"
         fill-rule="evenodd"
         stroke="none"
         id="path139" />
    </g>
    <linearGradient
       gradientTransform="matrix(0.0458, -0.0398, 0.0458, 0.0398, 45.15, 46.2)"
       gradientUnits="userSpaceOnUse"
       id="gradient14"
       spreadMethod="pad"
       x1="-819.2"
       x2="819.2">
      <stop
         offset="0.0"
         stop-color="#4b2601"
         id="stop139" />
      <stop
         offset="1.0"
         stop-color="#df8100"
         id="stop140" />
    </linearGradient>
    <linearGradient
       gradientTransform="matrix(-0.037, 0.0322, -0.037, -0.0322, 45.15, 46.2)"
       gradientUnits="userSpaceOnUse"
       id="gradient15"
       spreadMethod="pad"
       x1="-819.2"
       x2="819.2">
      <stop
         offset="0.0"
         stop-color="#ffe6cc"
         id="stop141" />
      <stop
         offset="1.0"
         stop-color="#a05001"
         id="stop142" />
    </linearGradient>
    <linearGradient
       gradientTransform="matrix(-0.0351, 0.0305, -0.0351, -0.0305, 45.2, 46.25)"
       gradientUnits="userSpaceOnUse"
       id="gradient16"
       spreadMethod="pad"
       x1="-819.2"
       x2="819.2">
      <stop
         offset="0.0"
         stop-color="#fcee44"
         id="stop143" />
      <stop
         offset="1.0"
         stop-color="#fbc53b"
         id="stop144" />
    </linearGradient>
    <linearGradient
       gradientTransform="matrix(0.039, -0.0339, 0.039, 0.0339, 45.15, 46.2)"
       gradientUnits="userSpaceOnUse"
       id="gradient17"
       spreadMethod="pad"
       x1="-819.2"
       x2="819.2">
      <stop
         offset="0.0"
         stop-color="#ffe6cc"
         id="stop145" />
      <stop
         offset="1.0"
         stop-color="#a05001"
         id="stop146" />
    </linearGradient>
    <linearGradient
       gradientTransform="matrix(-0.0458, 0.0398, -0.0458, -0.0398, 45.15, 46.2)"
       gradientUnits="userSpaceOnUse"
       id="gradient18"
       spreadMethod="pad"
       x1="-819.2"
       x2="819.2">
      <stop
         offset="0.0"
         stop-color="#fbe241"
         id="stop147" />
      <stop
         offset="1.0"
         stop-color="#db7e00"
         id="stop148" />
    </linearGradient>
    <linearGradient
       gradientTransform="matrix(0.0, 0.0374, 0.043, 0.0, 46.75, 46.35)"
       gradientUnits="userSpaceOnUse"
       id="gradient19"
       spreadMethod="pad"
       x1="-819.2"
       x2="819.2">
      <stop
         offset="0.0"
         stop-color="#7f7f7f"
         id="stop149" />
      <stop
         offset="1.0"
         stop-color="#000000"
         id="stop150" />
    </linearGradient>
    <linearGradient
       gradientTransform="matrix(0.0, 0.0374, 0.043, 0.0, 45.8, 45.1)"
       gradientUnits="userSpaceOnUse"
       id="gradient20"
       spreadMethod="pad"
       x1="-819.2"
       x2="819.2">
      <stop
         offset="0.023529411764705882"
         stop-color="#f7e3e4"
         id="stop151" />
      <stop
         offset="0.03529411764705882"
         stop-color="#f5bcbf"
         id="stop152" />
      <stop
         offset="0.050980392156862744"
         stop-color="#f28488"
         id="stop153" />
      <stop
         offset="0.07058823529411765"
         stop-color="#ef575d"
         id="stop154" />
      <stop
         offset="0.08627450980392157"
         stop-color="#ed373e"
         id="stop155" />
      <stop
         offset="0.09803921568627451"
         stop-color="#ec232b"
         id="stop156" />
      <stop
         offset="0.10588235294117647"
         stop-color="#ec1c24"
         id="stop157" />
      <stop
         offset="0.20784313725490197"
         stop-color="#ee686d"
         id="stop158" />
      <stop
         offset="0.30196078431372547"
         stop-color="#efacaf"
         id="stop159" />
      <stop
         offset="0.34901960784313724"
         stop-color="#f0c7c9"
         id="stop160" />
      <stop
         offset="0.4117647058823529"
         stop-color="#e49194"
         id="stop161" />
      <stop
         offset="0.4823529411764706"
         stop-color="#d95d62"
         id="stop162" />
      <stop
         offset="0.5450980392156862"
         stop-color="#d1373e"
         id="stop163" />
      <stop
         offset="0.5450980392156862"
         stop-color="#d1373e"
         stop-opacity="0.0"
         id="stop164" />
      <stop
         offset="1.0"
         stop-color="#000000"
         stop-opacity="0.0"
         id="stop165" />
    </linearGradient>
    <linearGradient
       gradientTransform="matrix(0.0, 0.0374, 0.043, 0.0, 45.8, 45.1)"
       gradientUnits="userSpaceOnUse"
       id="gradient21"
       spreadMethod="pad"
       x1="-819.2"
       x2="819.2">
      <stop
         offset="0.0"
         stop-color="#000000"
         stop-opacity="0.0"
         id="stop166" />
      <stop
         offset="0.5450980392156862"
         stop-color="#d1373e"
         stop-opacity="0.0"
         id="stop167" />
      <stop
         offset="0.5450980392156862"
         stop-color="#d1373e"
         id="stop168" />
      <stop
         offset="0.592156862745098"
         stop-color="#cc2027"
         id="stop169" />
      <stop
         offset="0.6235294117647059"
         stop-color="#ca181f"
         id="stop170" />
      <stop
         offset="0.9333333333333333"
         stop-color="#a9141a"
         id="stop171" />
      <stop
         offset="1.0"
         stop-color="#ec1c24"
         id="stop172" />
    </linearGradient>
    <g
       id="sprite17"
       transform="matrix(1.0, 0.0, 0.0, 1.0, 19.15, 28.55)">
      <use
         ffdec:characterId="868"
         height="57.15"
         transform="matrix(1.0, 0.0, 0.0, 1.0, -19.15, -28.55)"
         width="38.3"
         xlink:href="#shape16"
         id="use172" />
    </g>
    <g
       id="shape16"
       transform="matrix(1.0, 0.0, 0.0, 1.0, 19.15, 28.55)">
      <path
         d="M-7.05 -20.8 Q2.55 -29.8 19.15 -28.35 -20.1 -15.9 -10.7 28.6 -29.3 1.5 -7.05 -20.8"
         fill="#ffffff"
         fill-opacity="0.6"
         fill-rule="evenodd"
         stroke="none"
         id="path172" />
    </g>
    <g
       id="sprite18"
       transform="matrix(1.0, 0.0, 0.0, 1.0, 20.85, 27.25)">
      <use
         ffdec:characterId="870"
         height="96.1"
         transform="matrix(0.5671, 0.0, 0.0, 0.5671, -20.85, -27.25)"
         width="73.5"
         xlink:href="#shape17"
         id="use173" />
    </g>
    <g
       id="shape17"
       transform="matrix(1.0, 0.0, 0.0, 1.0, 0.0, 0.0)">
      <path
         d="M72.25 46.65 Q57.75 100.3 0.0 95.75 75.7 78.3 60.65 0.0 77.55 24.1 72.25 46.65"
         fill="#5b3702"
         fill-opacity="0.14509805"
         fill-rule="evenodd"
         stroke="none"
         id="path173" />
    </g>
    <g
       id="sprite19"
       transform="matrix(1.0, 0.0, 0.0, 1.0, 16.05, 0.0)">
      <use
         ffdec:characterId="1450"
         height="35.45"
         transform="matrix(1.0, 0.0, 0.0, 1.0, -16.05, 0.0)"
         width="16.05"
         xlink:href="#shape18"
         id="use174" />
    </g>
    <g
       id="shape18"
       transform="matrix(1.0, 0.0, 0.0, 1.0, 16.05, 0.0)">
      <path
         d="M0.0 0.0 L0.0 35.45 -5.75 35.45 Q-10.0 35.45 -13.05 32.45 -16.05 29.45 -16.05 25.2 L-16.05 10.25 Q-16.05 6.0 -13.05 3.0 -10.0 0.0 -5.75 0.0 L0.0 0.0"
         fill="#aac37a"
         fill-rule="evenodd"
         stroke="none"
         id="path174" />
      <path
         d="M-4.05 23.1 L-9.4 17.75 -4.05 12.35 -4.05 23.1"
         fill="#606e46"
         fill-rule="evenodd"
         stroke="none"
         id="path175" />
    </g>
  </defs>
  <g
     id="use1-2"
     transform="matrix(0.3166364,0,0,0.3166364,22.633672,252.0156)">
    <path
       d="m -0.25,-54.9 0.35,-0.15 0.4,0.25 1.05,1.2 0.15,0.9 v 0.45 l -0.35,0.4 -0.6,-1.45 -1,-1.6 M -7.55,5.65 H -8.4 L -8.5,4.9 -8.8,2.1 -8.9,1.3 l 2.05,-1.8 0.2,0.25 0.95,1.1 L -3.75,3.2 -3,3.75 -0.45,5.9 0.3,6.55 0.2,8.9 -0.55,7.85 l 0.2,-0.5 v -0.1 l -0.75,-0.1 0.45,0.5 V 7.9 8.1 L -0.9,7.95 -1.85,7.3 Q -2.05,7.4 -1.9,7.6 L -1.75,8.4 -4.85,5.5 -6.6,3.6 -6.65,4.75 -7.2,5.65 H -7.55 M -9.4,2.6 l -0.1,-1 0.25,-0.1 0.3,0.95 0.1,0.25 -0.55,-0.1 m -0.25,-1.7 -0.1,-0.95 0.25,0.8 -0.15,0.15 m -6.3,-33.9 4.6,-8.05 1.1,11.3 0.6,-0.25 0.3,-3.2 -1.1,-9.35 1.9,-2.95 -0.2,6.1 -0.15,5.65 0.35,2.75 -1.1,1.5 -1.25,1.45 -0.25,-0.75 h -0.2 l 0.15,0.75 -2.35,-2.75 q -0.6,-1.05 -1.2,-1.15 l -1.2,-1.05 m 8.5,-14.2 5.7,-8.7 v 1.45 3.95 h 0.3 0.1 l 0.15,-2.6 -0.1,-3.35 0.75,1.25 -0.2,-0.15 -0.05,0.25 v 10.25 l 0.6,6.4 -0.6,-0.35 -0.15,0.05 -0.15,0.25 0.95,1 -0.05,0.1 -0.6,-0.45 -6.45,5.55 0.3,-11.65 -0.5,-3.25 m 8.5,7.2 1.8,3.55 -1.95,-1.25 0.05,-0.3 0.1,-0.15 -0.1,0.05 0.1,-1.9 m 8.7,12.55 1.3,0.7 -1.2,8.8 h 0.35 q 1.4,-2.15 1.8,-5.85 l 0.2,-2.9 h 0.4 l -1,12.65 Q 9.9,-0.75 9.9,2.1 L 10,4.1 7.9,1.15 H 7.7 l 0.35,-11.25 1.7,-17.35 m 2.85,0.7 h -0.05 l 0.05,-0.05 v 0.05 M 3.95,12.2 1.55,14.4 1.5,14.3 1.7,14 1.2,13.4 1.25,12.55 Q 2,12.5 2.05,12.1 L 2,11.35 1.45,10.55 1.5,8.85 1.3,6.95 1.8,6.55 2.85,6.15 H 3 l 1.35,-2 1.2,-4.1 0.15,1.05 -0.15,0.6 1,-0.1 0.7,-0.15 V 1.9 q 0,1.1 1.95,2.8 l 0.15,0.1 -2.75,3.15 -3,3.8 0.1,0.05 0.25,0.4 M -9.6,-19.15 -6.9,-0.9 Q -8,-1.15 -8.75,-0.3 L -9.1,0.25 -9.6,-2.25 -9.65,-2.3 v -0.25 l -0.25,-1.1 q -0.75,-3.4 -0.75,-7.7 l -0.85,-6.5 q -0.85,-4.55 -0.85,-6.15 l 0.2,-2.85 v -0.35 l 1.3,1.2 1.5,8.8 -0.25,-1.95 m 0.45,-8.25 -0.05,-0.5 h 0.25 l -0.2,0.5 m 6.5,-7 2.75,-2.8 0.9,0.85 -0.25,0.2 -0.35,-0.2 q -0.75,0 -1.9,0.85 l -1.15,1.1 M 7.15,4.65 6.05,4.4 Q 4.85,6.7 3.15,8.1 L 2.3,7.65 1.9,8.25 3.75,8.6 7.4,5 7.15,4.65 M 4.7,3.8 H 4.65 L 4.45,4.1 4.7,3.8 M -4,1.9 -3.8,1.3 -3.6,2.75 -4,1.9 M -6.6,0.95 -6.7,0.75 -6.65,1.5 h 0.05 l 1,0.5 -1,-1.05"
       fill="#cc00cc"
       fill-rule="evenodd"
       stroke="none"
       id="path45-3" />
    <path
       d="m 0.5,-54.8 -0.4,-0.25 -0.35,0.15 -0.1,0.05 -0.2,-0.35 -0.75,-1.25 0.1,3.35 -0.15,-1.35 h -0.4 v -1.45 l -5.7,8.7 -1.1,1.7 -1.9,2.95 -0.9,1.5 -4.6,8.05 -0.5,-0.4 -0.6,0.1 0.1,0.9 1,1.2 0.25,0.9 5.95,30.25 0.1,0.95 -0.9,1 1.05,-0.3 0.1,1 0.05,1.55 0.85,0.75 0.1,0.75 h 0.85 l 7.5,6.7 -0.1,1.5 L -6.3,9.2 -10.1,5.6 h -0.15 L -10.3,5.5 Q -12,3.55 -12.35,2.2 l 0.9,-0.2 0.3,0.35 q -1.6,-6.35 -3.9,-18.9 l -2.45,-14.1 -1.15,-0.15 q -0.35,-0.1 -0.35,-1.05 0,-2.3 7.25,-13.3 5.9,-8.9 9.85,-12.3 l 2.3,-1.55 -0.6,0.9 -1,1.45 1.7,1.85 m 1.2,2.55 v -0.45 l -0.15,-0.9 0.8,1.05 -2.55,-5.55 0.9,-0.25 12.85,22 h 0.3 l 0.4,1.35 0.75,1.45 v 0.15 q -0.15,4.95 -2.05,16.7 -1.6,12.1 -2.35,21.5 L 10,4.1 9.9,2.1 q 0,-2.85 1.7,-16.15 l 1,-12.65 q 0.25,0 0,-0.05 V -26.8 L 12.7,-32.6 1.55,-51.65 1.6,-51.7 1.7,-52.25 M 10.55,5.8 V 6.25 L 3.95,12.2 3.7,11.8 3.6,11.75 l 3,-3.8 2.75,-3.15 1.2,1 m -9,8.6 -0.35,0.3 -0.15,-0.05 0.1,-0.9 0.3,0.4 0.05,0.15 0.05,0.1 m -3,-64.9 h -0.3 v -3.95 l 0.3,3.95"
       fill="#540154"
       fill-rule="evenodd"
       stroke="none"
       id="path46-5" />
    <path
       d="m 1.35,-51.85 0.35,-0.4 -0.1,0.55 -0.05,0.05 11.15,19.05 -0.1,5.8 -0.05,0.05 h 0.05 q 0.25,0.05 0,0.05 H 12.2 L 12.25,-31.25 12,-31.5 h -0.35 l -0.6,4.75 -1.3,-0.7 0.45,-3.75 -1,-0.8 -0.1,-0.15 -0.15,0.05 -1.55,-0.85 -4.55,-3.5 -1.8,-3.55 0.55,-10.75 -0.25,-1.1 m -17.05,21.55 -0.25,-0.9 0.65,0.7 -0.1,0.2 h -0.3 m 4.35,-10.75 0.9,-1.5 1.1,9.35 -0.3,3.2 -0.6,0.25 -1.1,-11.3 m 2.8,-4.45 1.1,-1.7 0.5,3.25 -0.3,11.65 -1,0.95 -0.3,0.35 -0.35,-2.75 0.15,-5.65 0.2,-6.1 m 10.75,-2.95 -0.3,0.3 q 2.8,4.1 9.15,16.65 0.95,-0.05 1.2,-0.6 -1.4,-3.45 -4.5,-8.4 L 2.2,-48.45"
       fill="#dc7de8"
       fill-rule="evenodd"
       stroke="none"
       id="path47-4" />
    <path
       d="m -0.25,-54.9 1,1.6 0.6,1.45 0.25,1.1 -0.55,10.75 -0.1,1.9 -0.3,0.15 -0.05,0.05 -0.8,-0.55 -0.6,-6.4 V -55.1 l 0.05,-0.25 0.2,0.15 0.2,0.35 0.1,-0.05 m -9.5,54.85 -5.95,-30.25 h 0.3 l 0.1,-0.2 0.55,0.55 0.5,0.85 q 1.1,1.75 2.1,2.25 l -0.2,2.85 q 0,1.6 0.85,6.15 l 0.85,6.5 q 0,4.3 0.75,7.7 l 0.25,1.1 v 0.25 l 0.05,0.05 0.5,2.5 -0.4,0.5 -0.25,-0.8 m 8,-54.4 h 0.4 l 0.15,1.35 -0.15,2.6 h -0.1 l -0.3,-3.95 M 0.95,-38 0.9,-37.7 0.7,-37.85 0.95,-38 m -11.85,9.95 -0.2,0.15 -0.1,-0.15 -0.15,-0.75 h 0.2 l 0.25,0.75 m 0.35,2.35 v 0.05 l 0.95,6.5 0.25,1.95 -1.5,-8.8 0.3,0.3 m 12,36.25 0.55,0.8 0.05,0.75 Q 2,12.5 1.25,12.55 l 0.2,-2 M 7.15,4.65 7.4,5 3.75,8.6 1.9,8.25 2.3,7.65 3.15,8.1 q 1.7,-1.4 2.9,-3.7 l 1.1,0.25 M 4.7,3.8 4.45,4.1 4.65,3.8 H 4.7 M -8.9,1.3 -8.8,2.1 -8.95,2.45 -9.25,1.5 -8.9,1.3 m 8,6.65 0.25,0.15 V 7.9 l 0.1,-0.05 0.75,1.05 -0.25,3.1 -2.7,-2.65 1.4,1.1 Q -0.2,10.35 0.1,9.8 L -1.3,7.95 h 0.4"
       fill="#a51ea8"
       fill-rule="evenodd"
       stroke="none"
       id="path48-1" />
    <path
       d="m 11.05,-26.75 0.6,-4.75 H 12 l 0.25,0.25 -0.05,4.55 -0.2,2.9 q -0.4,3.7 -1.8,5.85 H 9.85 l 1.2,-8.8 m -8.85,-21.7 5.55,7.95 q 3.1,4.95 4.5,8.4 -0.25,0.55 -1.2,0.6 Q 4.7,-44.05 1.9,-48.15 l 0.3,-0.3 M 0.9,-37.5 1,-37.6 q 1.15,0.7 3.8,3.9 2.65,3.15 4.4,4.3 -2.15,-0.4 -4.1,-3.3 -2.2,-3.45 -4.4,-4.55 l 0.2,-0.25"
       fill="#ffffff"
       fill-rule="evenodd"
       stroke="none"
       id="path49-2" />
    <path
       d="m 2.85,-36.45 4.55,3.5 1.15,1.3 0.05,-0.45 H 8.95 L 9.1,-32.15 9.2,-32 H 9.15 l 0.05,0.55 -0.05,1.8 0.15,0.2 -0.15,0.4 -0.25,3.7 V -26.6 L 8.65,-28 8.2,-28.35 l 0.05,-0.9 v -0.1 L 7.1,-30.3 0.7,-36.1 0.75,-36.15 1,-36.35 0.1,-37.2 -2.65,-34.4 -4,-33 l -0.35,0.3 q -3.7,3.6 -4.4,4.8 h -0.2 -0.25 l 0.05,0.5 H -9.2 l 2.05,22.1 0.05,0.9 H -7 l 0.3,3.55 -0.2,-0.05 -2.7,-18.25 -0.95,-6.5 v -0.05 l 0.2,0.15 0.3,-0.55 -1.05,-1.8 0.2,-0.15 1.25,-1.45 1.1,-1.5 0.3,-0.35 1,-0.95 6.45,-5.55 0.6,0.45 0.05,-0.1 -0.95,-1 0.15,-0.25 0.15,-0.05 0.6,0.35 0.8,0.55 0.05,-0.05 0.3,-0.15 0.1,-0.05 -0.1,0.15 -0.25,0.15 0.2,0.15 1.95,1.25 M 0.9,-37.5 0.7,-37.25 q 2.2,1.1 4.4,4.55 1.95,2.9 4.1,3.3 -1.75,-1.15 -4.4,-4.3 -2.65,-3.2 -3.8,-3.9 l -0.1,0.1 M 7.7,1.15 H 7.4 L 7.35,0.95 7.25,1.45 6.55,1.6 5.55,1.7 5.7,1.1 5.75,1.3 H 6.8 L 8.05,-10.1 7.7,1.15 M 1.8,6.55 1.3,6.95 0.95,5.55 2.9,4.05 3.05,3.8 3.2,4.65 v 0.1 l -0.35,0.8 -1.1,1 H 1.8 M 0.3,6.55 -0.45,5.9 H 0.2 L 0.3,6.55 M -3,3.75 -3.75,3.2 -5.7,0.85 -6,-1.1 -5.6,-1.35 -4,1.9 -3.6,2.75 v 0.1 l 0.6,0.9 m -3.65,-4 -0.2,-0.25 0.15,-0.15 0.05,0.4 M -6.6,1.5 H -6.65 L -6.7,0.75 -6.6,0.95 V 1.5"
       fill="#750275"
       fill-rule="evenodd"
       stroke="none"
       id="path50-7" />
    <path
       d="m -0.15,13.85 0.1,-1.5 -7.5,-6.7 H -7.2 L -6.65,4.75 -6.6,3.6 -4.85,5.5 -1.75,8.4 -1.9,7.6 Q -2.05,7.4 -1.85,7.3 L -0.9,7.95 H -1.3 L 0.1,9.8 q -0.3,0.55 -1.45,0.65 L -2.75,9.35 -0.05,12 0.2,8.9 0.3,6.55 0.2,5.9 0.1,4.95 l 0.5,-0.2 0.35,0.8 0.35,1.4 0.2,1.9 -0.05,1.7 -0.2,2 L 1.2,13.4 1.7,14 1.5,14.3 1.45,14.15 1.15,13.75 1.05,14.65 1,14.95 -0.05,16 -0.2,14.15 -0.15,13.85 M -8.5,4.9 -9.35,4.15 -9.4,2.6 -8.85,2.7 -8.95,2.45 -8.8,2.1 -8.5,4.9 m -1,-3.3 -1.05,0.3 0.9,-1 0.15,-0.15 0.4,-0.5 0.35,-0.55 Q -8,-1.15 -6.9,-0.9 l 0.2,0.05 0.1,0.05 -0.1,0.15 -0.15,0.15 -2.05,1.8 -0.35,0.2 -0.25,0.1 m -6.45,-32.8 -1,-1.2 -0.1,-0.9 0.6,-0.1 0.5,0.4 1.2,1.05 q 0.6,0.1 1.2,1.15 l 2.35,2.75 0.1,0.15 1.05,1.8 -0.3,0.55 -0.2,-0.15 -0.3,-0.3 -1.3,-1.2 v 0.35 q -1,-0.5 -2.1,-2.25 l -0.5,-0.85 -0.55,-0.55 -0.65,-0.7 M 7.4,-32.95 8.95,-32.1 H 8.6 l -0.05,0.45 -1.15,-1.3 m 1.8,0.95 1,0.8 -0.45,3.75 L 8.05,-10.1 6.8,1.3 H 5.75 L 5.7,1.1 5.55,0.05 l 0.8,-23.3 1.45,-4.8 -0.1,-0.3 0.55,-0.9 -0.05,0.9 0.45,0.35 0.25,1.4 v 1.25 l 0.25,-3.7 0.15,-0.4 -0.15,-0.2 0.05,-1.8 L 9.15,-32 H 9.2 M 10.6,4.8 11.4,5.6 10.85,6 10.55,5.8 9.35,4.8 9.2,4.7 Q 7.25,3 7.25,1.9 V 1.45 l 0.1,-0.5 0.05,0.2 H 7.7 7.9 L 10,4.1 10.6,4.8 M -7.15,-5.3 -9.2,-27.4 h 0.05 l 0.2,-0.5 h 0.2 q 0.7,-1.2 4.4,-4.8 L -4,-33 l 1.35,-1.4 1.15,-1.1 q 1.15,-0.85 1.9,-0.85 l 0.35,0.2 -0.05,0.05 6.4,5.8 q -3.55,2.1 -8.6,8.5 -6,7.55 -6,8.75 0,1.5 0.3,0.85 l 0.9,0.25 8.45,-9.5 L 1.9,-20 q 0,1.55 0.4,0.85 h 0.9 l -0.6,0.5 q -1.9,1.55 -3.85,4.2 l -5.9,9.15 M -6.6,1.5 V 0.95 l 1,1.05 -1,-0.5 m 5.95,6.4 V 7.65 l -0.45,-0.5 0.75,0.1 v 0.1 l -0.2,0.5 -0.1,0.05"
       fill="#8e018f"
       fill-rule="evenodd"
       stroke="none"
       id="path51-6" />
    <path
       d="M -6.7,-0.85 -7,-4.4 h -0.1 l -0.05,-0.9 5.9,-9.15 q 1.95,-2.65 3.85,-4.2 l 0.6,-0.5 H 2.3 Q 1.9,-18.45 1.9,-20 l 0.25,-1.45 -8.45,9.5 -0.9,-0.25 q -0.3,0.65 -0.3,-0.85 0,-1.2 6,-8.75 5.05,-6.4 8.6,-8.5 l 1.15,0.95 v 0.1 l -0.55,0.9 0.1,0.3 -1.45,4.8 -0.8,23.3 -1.2,4.1 -1.35,2 H 2.85 L 1.8,6.55 H 1.75 l 1.1,-1 0.35,-0.8 V 4.65 L 3.05,3.8 2.9,4.05 0.95,5.55 0.6,4.75 0.1,4.95 0.2,5.9 H -0.45 L -3,3.75 -3.6,2.85 V 2.75 L -3.8,1.3 -4,1.9 -5.6,-1.35 -6,-1.1 l 0.3,1.95 -0.95,-1.1 -0.05,-0.4 0.1,-0.15 -0.1,-0.05"
       fill="#af03af"
       fill-rule="evenodd"
       stroke="none"
       id="path52-4" />
  </g>
</svg>
