<?xml version="1.0" encoding="UTF-8" standalone="no"?>
<svg xmlns:ffdec="https://www.free-decompiler.com/flash" xmlns:xlink="http://www.w3.org/1999/xlink" ffdec:objectType="frame" height="36.3px" width="36.3px" xmlns="http://www.w3.org/2000/svg">
  <g transform="matrix(1.0, 0.0, 0.0, 1.0, 18.15, 18.15)">
    <filter id="filter0">
      <feColorMatrix in="SourceGraphic" result="filterResult0" type="matrix" values="1.1450617 -0.2782119 -0.0374358 0.0 -0.13596931 -0.14088644 1.0077363 -0.0374358 0.0 -0.13596931 -0.14088644 -0.2782119 1.2485124 0.0 -0.13596931 0.0 0.0 0.0 1.0 0.0"/>
    </filter>
    <use ffdec:characterId="1500" ffdec:characterName="Shop_fla.ShopButton_56" filter="url(#filter0)" height="33.0" id="ShopButton" transform="matrix(0.92, 0.0, 0.0, 0.92, -15.1797, -15.1797)" width="33.0" xlink:href="#sprite0"/>
    <use ffdec:characterId="1502" height="14.35" transform="matrix(1.0, 0.0, 0.0, 1.0, -7.15, -7.15)" width="14.35" xlink:href="#shape1"/>
  </g>
  <defs>
    <g id="sprite0" transform="matrix(1.0, 0.0, 0.0, 1.0, 16.5, 16.5)">
      <use ffdec:characterId="1497" height="33.0" transform="matrix(1.0, 0.0, 0.0, 1.0, -16.5, -16.5)" width="33.0" xlink:href="#shape0"/>
    </g>
    <g id="shape0" transform="matrix(1.0, 0.0, 0.0, 1.0, 16.5, 16.5)">
      <path d="M11.65 -11.65 Q16.5 -6.8 16.5 0.0 16.5 6.85 11.65 11.65 6.85 16.5 0.0 16.5 -6.8 16.5 -11.65 11.65 -16.5 6.8 -16.5 0.0 -16.5 -6.8 -11.65 -11.65 -6.8 -16.5 0.0 -16.5 6.8 -16.5 11.65 -11.65" fill="#000000" fill-opacity="0.49803922" fill-rule="evenodd" stroke="none"/>
      <path d="M0.0 -13.5 Q5.6 -13.5 9.6 -9.55 13.55 -5.6 13.55 0.0 13.55 5.65 9.6 9.6 5.65 13.55 0.0 13.55 -5.6 13.55 -9.55 9.6 -13.5 5.6 -13.5 0.0 -13.5 -5.6 -9.55 -9.55 -5.6 -13.5 0.0 -13.5" fill="url(#gradient0)" fill-rule="evenodd" stroke="none"/>
    </g>
    <linearGradient gradientTransform="matrix(0.0, 0.0252, 0.0252, 0.0, 0.0, -3.7)" gradientUnits="userSpaceOnUse" id="gradient0" spreadMethod="pad" x1="-819.2" x2="819.2">
      <stop offset="0.0" stop-color="#ffffff"/>
      <stop offset="1.0" stop-color="#d9f0a5"/>
    </linearGradient>
    <g id="shape1" transform="matrix(1.0, 0.0, 0.0, 1.0, 7.15, 7.15)">
      <path d="M7.2 -3.15 L4.05 0.05 7.2 3.15 3.15 7.2 0.05 4.05 -3.15 7.2 -7.15 3.15 -3.95 0.05 -7.15 -3.15 -3.15 -7.15 0.05 -3.95 3.15 -7.15 7.2 -3.15" fill="#ffffff" fill-rule="evenodd" stroke="none"/>
    </g>
  </defs>
</svg>
