<?xml version="1.0" encoding="UTF-8" standalone="no"?>
<svg xmlns:ffdec="https://www.free-decompiler.com/flash" xmlns:xlink="http://www.w3.org/1999/xlink" ffdec:objectType="frame" height="45.3px" width="45.3px" xmlns="http://www.w3.org/2000/svg">
  <g transform="matrix(1.0, 0.0, 0.0, 1.0, 23.15, 23.15)">
    <filter id="filter0">
      <feColorMatrix in="SourceGraphic" result="filterResult0" type="matrix" values="0 0 0 0 1.0,0 0 0 0 1.0,0 0 0 0 1.0,0 0 0 1 0"/>
      <feConvolveMatrix divisor="100.0" in="filterResult0" kernelMatrix="1 1 1 1 1 1 1 1 1 1 1 1 1 1 1 1 1 1 1 1 1 1 1 1 1 1 1 1 1 1 1 1 1 1 1 1 1 1 1 1 1 1 1 1 1 1 1 1 1 1 1 1 1 1 1 1 1 1 1 1 1 1 1 1 1 1 1 1 1 1 1 1 1 1 1 1 1 1 1 1 1 1 1 1 1 1 1 1 1 1 1 1 1 1 1 1 1 1 1 1" order="10 10" result="filterResult1"/>
      <feComposite in="SourceGraphic" in2="filterResult1" operator="over" result="filterResult2"/>
    </filter>
    <use ffdec:characterId="1500" ffdec:characterName="Shop_fla.ShopButton_56" filter="url(#filter0)" height="33.0" id="ShopButton" transform="matrix(1.1, 0.0, 0.0, 1.1, -18.1496, -18.1496)" width="33.0" xlink:href="#sprite0"/>
    <use ffdec:characterId="1501" height="15.55" transform="matrix(1.0997, 0.0, 0.0, 1.0997, -8.5226, -8.5226)" width="15.55" xlink:href="#shape1"/>
  </g>
  <defs>
    <g id="sprite0" transform="matrix(1.0, 0.0, 0.0, 1.0, 16.5, 16.5)">
      <use ffdec:characterId="1497" height="33.0" transform="matrix(1.0, 0.0, 0.0, 1.0, -16.5, -16.5)" width="33.0" xlink:href="#shape0"/>
    </g>
    <g id="shape0" transform="matrix(1.0, 0.0, 0.0, 1.0, 16.5, 16.5)">
      <path d="M11.65 -11.65 Q16.5 -6.8 16.5 0.0 16.5 6.85 11.65 11.65 6.85 16.5 0.0 16.5 -6.8 16.5 -11.65 11.65 -16.5 6.8 -16.5 0.0 -16.5 -6.8 -11.65 -11.65 -6.8 -16.5 0.0 -16.5 6.8 -16.5 11.65 -11.65" fill="#000000" fill-opacity="0.49803922" fill-rule="evenodd" stroke="none"/>
      <path d="M0.0 -13.5 Q5.6 -13.5 9.6 -9.55 13.55 -5.6 13.55 0.0 13.55 5.65 9.6 9.6 5.65 13.55 0.0 13.55 -5.6 13.55 -9.55 9.6 -13.5 5.6 -13.5 0.0 -13.5 -5.6 -9.55 -9.55 -5.6 -13.5 0.0 -13.5" fill="url(#gradient0)" fill-rule="evenodd" stroke="none"/>
    </g>
    <linearGradient gradientTransform="matrix(0.0, 0.0252, 0.0252, 0.0, 0.0, -3.7)" gradientUnits="userSpaceOnUse" id="gradient0" spreadMethod="pad" x1="-819.2" x2="819.2">
      <stop offset="0.0" stop-color="#ffffff"/>
      <stop offset="1.0" stop-color="#d9f0a5"/>
    </linearGradient>
    <g id="shape1" transform="matrix(1.0, 0.0, 0.0, 1.0, 7.75, 7.75)">
      <path d="M7.8 -3.4 L4.4 0.05 7.8 3.45 3.45 7.8 0.05 4.4 -3.4 7.8 -7.75 3.45 -4.3 0.05 -7.75 -3.4 -3.4 -7.75 0.05 -4.3 3.45 -7.75 7.8 -3.4" fill="#000000" fill-opacity="0.69411767" fill-rule="evenodd" stroke="none"/>
    </g>
  </defs>
</svg>
