<?xml version="1.0" encoding="UTF-8" standalone="no"?>
<svg xmlns:ffdec="https://www.free-decompiler.com/flash" xmlns:xlink="http://www.w3.org/1999/xlink" ffdec:objectType="frame" height="37.6px" width="68.6px" xmlns="http://www.w3.org/2000/svg">
  <g transform="matrix(1.0, 0.0, 0.0, 1.0, 1.3, 1.3)">
    <use ffdec:characterId="916" height="37.6" transform="matrix(1.0, 0.0, 0.0, 1.0, -1.3, -1.3)" width="68.6" xlink:href="#shape0"/>
    <use ffdec:characterId="957" height="114.05" transform="matrix(0.2549, 0.0, 0.0, 0.2549, 9.5772, 2.9234)" width="148.5" xlink:href="#sprite0"/>
  </g>
  <defs>
    <g id="shape0" transform="matrix(1.0, 0.0, 0.0, 1.0, 1.3, 1.3)">
      <path d="M57.15 35.0 L8.9 35.0 Q5.25 35.0 2.6 32.4 0.0 29.8 0.0 26.1 L0.0 8.95 Q0.0 5.25 2.6 2.6 5.2 0.0 8.9 0.0 L57.15 0.0 Q60.85 0.0 63.4 2.6 66.0 5.25 66.0 8.95 L66.0 26.1 Q66.0 29.8 63.4 32.4 60.8 35.0 57.15 35.0" fill="#d9f0a5" fill-rule="evenodd" stroke="none"/>
      <path d="M57.15 35.0 L8.9 35.0 Q5.25 35.0 2.6 32.4 0.0 29.8 0.0 26.1 L0.0 8.95 Q0.0 5.25 2.6 2.6 5.2 0.0 8.9 0.0 L57.15 0.0 Q60.85 0.0 63.4 2.6 66.0 5.25 66.0 8.95 L66.0 26.1 Q66.0 29.8 63.4 32.4 60.8 35.0 57.15 35.0" fill="url(#gradient0)" fill-rule="evenodd" stroke="none"/>
      <path d="M57.15 35.0 L8.9 35.0 Q5.25 35.0 2.6 32.4 0.0 29.8 0.0 26.1 L0.0 8.95 Q0.0 5.25 2.6 2.6 5.2 0.0 8.9 0.0 L57.15 0.0 Q60.85 0.0 63.4 2.6 66.0 5.25 66.0 8.95 L66.0 26.1 Q66.0 29.8 63.4 32.4 60.8 35.0 57.15 35.0 Z" fill="none" stroke="url(#gradient1)" stroke-linecap="square" stroke-linejoin="miter-clip" stroke-miterlimit="3.0" stroke-width="2.0"/>
    </g>
    <linearGradient gradientTransform="matrix(0.0403, 0.0, 0.0, 0.0214, 33.0, 17.5)" gradientUnits="userSpaceOnUse" id="gradient0" spreadMethod="pad" x1="-819.2" x2="819.2">
      <stop offset="0.0" stop-color="#849b48"/>
      <stop offset="1.0" stop-color="#d9f0a5"/>
    </linearGradient>
    <linearGradient gradientTransform="matrix(0.0415, 0.0, 0.0, 0.0226, 33.0, 17.5)" gradientUnits="userSpaceOnUse" id="gradient1" spreadMethod="pad" x1="-819.2" x2="819.2">
      <stop offset="0.0" stop-color="#ffffff"/>
      <stop offset="1.0" stop-color="#ffffff" stop-opacity="0.0"/>
    </linearGradient>
    <g id="sprite0" transform="matrix(1.0, 0.0, 0.0, 1.0, 74.25, 57.0)">
      <use ffdec:characterId="954" height="9.55" transform="matrix(1.0, 0.0, 0.0, 1.0, -74.25, 37.4)" width="148.5" xlink:href="#sprite1"/>
      <use ffdec:characterId="955" height="4.9" transform="matrix(1.0, 0.0, 0.0, 1.0, -58.4, 39.7)" width="116.75" xlink:href="#sprite2"/>
      <use ffdec:characterId="956" height="114.05" transform="matrix(1.0, 0.0, 0.0, 1.0, -55.6, -57.0)" width="119.3" xlink:href="#shape2"/>
    </g>
    <g id="sprite1" transform="matrix(1.0, 0.0, 0.0, 1.0, 0.0, 0.0)">
      <use ffdec:characterId="909" height="9.5" transform="matrix(1.0, 0.0, 0.0, 1.0053, 0.0, 0.0)" width="148.5" xlink:href="#shape1"/>
    </g>
    <g id="shape1" transform="matrix(1.0, 0.0, 0.0, 1.0, 0.0, 0.0)">
      <path d="M148.5 4.7 Q148.5 6.7 126.75 8.1 105.0 9.5 74.25 9.5 43.5 9.5 21.75 8.1 0.0 6.7 0.0 4.7 0.0 2.8 21.75 1.4 43.6 0.0 74.25 0.0 104.9 0.0 126.75 1.4 148.5 2.8 148.5 4.7" fill="#000000" fill-rule="evenodd" stroke="none"/>
    </g>
    <g id="sprite2" transform="matrix(1.0, 0.0, 0.0, 1.0, 0.0, 0.0)">
      <use ffdec:characterId="909" height="9.5" transform="matrix(0.7862, 0.0, 0.0, 0.5158, 0.0, 0.0)" width="148.5" xlink:href="#shape1"/>
    </g>
    <g id="shape2" transform="matrix(1.0, 0.0, 0.0, 1.0, 55.6, 57.0)">
      <path d="M23.85 49.35 Q15.45 48.9 3.5 49.05 L-14.3 50.25 Q-6.05 40.6 6.55 34.25 17.95 28.5 32.35 25.75 30.9 32.65 27.25 41.7 L23.85 49.35" fill="#d9a56f" fill-rule="evenodd" stroke="none"/>
      <path d="M-9.45 16.9 Q0.25 9.25 15.1 2.85 17.7 3.95 22.2 6.4 L29.4 10.1 Q35.1 12.8 32.35 25.75 18.0 28.45 6.55 34.2 -6.05 40.55 -14.3 50.2 L-19.3 51.15 -21.25 47.7 Q-23.55 43.2 -25.25 38.0 -21.85 26.7 -9.45 16.9" fill="#ce9e6b" fill-rule="evenodd" stroke="none"/>
      <path d="M15.1 2.85 Q0.25 9.25 -9.45 16.9 -21.85 26.7 -25.25 38.0 -27.2 31.8 -28.1 25.35 -29.45 15.0 -21.2 9.4 -18.25 7.35 -12.95 5.25 L-3.7 1.7 Q1.05 -0.2 6.0 0.25 10.1 0.65 15.1 2.85" fill="#c49665" fill-rule="evenodd" stroke="none"/>
      <path d="M22.45 10.4 Q17.8 6.65 11.2 5.35 L3.5 4.65 Q-4.0 4.65 -10.45 7.15 -15.7 9.25 -18.85 11.35 -23.15 14.3 -24.95 18.2 L-25.7 20.15 Q-26.6 25.6 -26.05 29.6 -25.35 34.8 -22.95 39.95 L-19.1 46.8 -17.2 49.95 -16.7 50.6 Q-8.6 48.5 3.55 48.05 8.8 47.8 13.4 47.95 L17.15 48.0 20.9 48.5 21.1 47.65 23.35 42.35 Q26.45 35.0 27.4 31.35 29.05 25.1 27.95 20.0 26.6 13.85 22.45 10.4 M34.85 13.8 Q36.95 19.15 36.6 25.15 36.35 29.95 34.6 35.5 L30.9 45.1 28.6 50.55 Q28.15 51.75 27.15 52.45 26.15 53.15 24.85 53.15 22.65 53.15 21.45 51.4 20.95 50.65 20.85 49.75 L17.0 49.55 13.1 49.2 Q7.4 49.05 2.5 49.25 L-6.95 50.15 -16.35 51.35 -16.15 52.5 -16.15 52.7 Q-16.2 54.45 -17.55 55.75 -18.9 57.05 -20.7 57.05 -22.65 57.05 -23.75 55.45 -28.4 48.8 -31.2 42.2 -33.9 35.8 -34.15 30.4 L-34.45 27.35 Q-34.8 18.4 -30.7 12.35 -26.2 5.75 -17.35 1.55 -7.05 -3.4 4.5 -3.4 L6.3 -3.35 Q11.9 -3.15 16.85 -1.7 24.05 0.35 28.7 4.65 32.8 8.45 34.85 13.8" fill="#936841" fill-rule="evenodd" stroke="none"/>
      <path d="M33.3 13.8 Q35.1 18.65 34.85 24.15 34.55 29.8 31.9 36.85 L26.95 49.0 Q26.15 51.05 24.05 50.3 21.95 49.6 22.8 47.4 26.85 38.25 28.4 33.45 31.1 25.25 29.7 18.75 28.2 11.85 23.6 8.15 18.6 4.05 11.55 2.7 5.85 1.6 0.1 2.05 -5.9 2.55 -11.1 4.6 -16.7 6.8 -20.05 9.1 -24.6 12.25 -26.55 16.55 L-27.45 18.85 Q-28.45 24.45 -27.85 28.95 -27.1 34.4 -24.6 39.85 -22.85 43.45 -18.6 50.2 -17.95 50.7 -17.95 51.6 L-17.95 51.8 Q-18.0 53.35 -19.65 54.1 -21.3 54.9 -22.3 53.5 -26.85 47.0 -29.55 40.6 -32.2 34.25 -32.35 29.35 L-32.65 26.35 Q-33.0 18.05 -29.2 12.45 -25.1 6.4 -16.6 2.25 -5.65 -2.9 6.25 -2.45 12.35 -2.2 17.55 -0.5 23.55 1.45 27.45 5.05 31.4 8.7 33.3 13.8" fill="#b78a5b" fill-rule="evenodd" stroke="none"/>
      <path d="M13.9 17.5 L16.05 17.7 Q18.7 18.25 20.65 19.7 22.6 21.2 23.4 23.25 24.9 27.2 22.1 30.85 20.5 33.05 17.85 34.4 15.25 35.7 12.5 35.7 L10.15 35.4 Q7.45 34.7 5.65 32.8 3.9 30.95 3.65 28.55 3.3 25.1 5.45 22.05 7.6 19.0 11.15 17.9 L13.9 17.5" fill="#aa8862" fill-rule="evenodd" stroke="none"/>
      <path d="M10.25 18.25 L13.85 18.1 Q15.75 18.5 17.2 19.6 18.75 20.75 19.35 22.4 20.8 26.45 17.0 29.85 13.3 33.1 9.3 32.0 7.4 31.45 6.1 30.1 4.75 28.65 4.55 26.75 4.3 23.95 5.95 21.55 7.55 19.1 10.25 18.25" fill="#626f6f" fill-rule="evenodd" stroke="none"/>
      <path d="M5.35 25.6 Q5.15 23.4 6.45 21.5 7.7 19.6 9.8 18.9 L12.65 18.8 Q14.15 19.1 15.25 20.0 16.5 20.9 16.95 22.2 18.1 25.4 15.1 28.05 12.2 30.6 9.05 29.7 7.55 29.3 6.55 28.25 5.45 27.1 5.35 25.6" fill="#839292" fill-rule="evenodd" stroke="none"/>
      <path d="M8.8 25.75 L8.75 25.75 8.35 25.6 Q7.2 25.4 6.85 24.3 6.6 23.4 7.05 22.65 L7.6 21.95 7.9 21.5 8.1 21.3 Q8.85 20.65 9.75 20.5 L10.3 20.5 Q11.05 20.5 11.55 20.95 12.45 21.55 12.35 22.55 L12.4 22.85 Q12.45 23.85 11.65 24.85 L10.85 25.45 10.75 25.55 10.2 25.75 10.1 25.75 9.85 25.85 9.25 25.85 8.8 25.75" fill="#bad1d0" fill-rule="evenodd" stroke="none"/>
      <path d="M-8.4 45.3 Q-8.0 47.65 -8.7 49.15 L-9.0 49.35 -9.2 49.1 Q-9.4 46.95 -10.55 44.2 L-12.55 39.45 Q-14.5 33.8 -14.25 29.9 -14.05 26.65 -13.3 24.55 L-12.45 22.5 Q-11.95 21.25 -12.0 20.3 -12.1 18.2 -13.25 14.75 -14.65 10.65 -14.9 9.15 L-14.7 8.85 Q-14.45 8.75 -14.4 8.95 L-12.5 14.15 Q-11.25 17.35 -11.0 19.4 -10.8 21.3 -11.3 24.5 L-11.95 29.6 Q-12.0 32.25 -11.15 35.6 L-9.45 41.4 -8.4 45.3" fill="#a97c4c" fill-rule="evenodd" stroke="none"/>
      <path d="M-22.2 15.2 L-22.05 15.2 Q-21.85 17.15 -19.7 20.35 -17.55 23.55 -17.35 25.45 -17.2 27.05 -18.25 30.95 -19.15 34.25 -18.4 36.35 -18.3 36.6 -18.55 36.75 L-18.95 36.65 Q-20.4 34.85 -19.45 31.65 -18.25 27.6 -18.4 26.45 -18.6 24.75 -20.65 20.9 -22.45 17.5 -22.2 15.2" fill="#a97c4c" fill-rule="evenodd" stroke="none"/>
      <path d="M-3.05 30.25 L-4.15 29.15 Q-5.15 28.35 -5.5 28.75 -7.2 30.9 -5.25 36.05 -3.75 39.95 -3.05 42.55 -2.15 46.0 -1.9 49.35 -1.85 49.6 -2.15 49.65 -2.45 49.7 -2.5 49.4 -3.2 44.25 -4.15 41.55 L-5.4 38.6 -6.75 35.6 Q-8.65 30.55 -6.9 28.05 -5.45 26.0 -3.05 27.65 -1.4 28.75 0.0 30.95 4.6 38.2 1.75 40.65 -0.6 42.7 -2.3 39.4 -3.8 36.45 -3.35 34.05 L-3.0 33.7 Q-2.7 33.7 -2.55 33.95 L-1.85 36.1 -1.0 38.2 Q-0.05 39.55 0.45 38.95 0.85 38.35 0.55 37.1 -0.4 33.1 -3.05 30.25" fill="#a97c4c" fill-rule="evenodd" stroke="none"/>
      <path d="M3.4 15.95 L4.85 18.7 Q5.5 20.25 5.3 21.7 L5.0 21.95 4.7 21.75 2.75 17.35 1.3 14.25 Q0.35 10.6 0.55 4.75 0.55 4.55 0.75 4.5 1.0 4.45 1.05 4.65 1.35 5.7 1.85 10.4 2.2 13.9 3.4 15.95" fill="#a97c4c" fill-rule="evenodd" stroke="none"/>
      <path d="M8.5 42.65 L8.8 39.5 8.0 35.0 Q7.95 34.7 8.3 34.5 L8.8 34.55 Q10.65 37.4 10.45 42.0 10.4 43.0 11.2 44.7 12.05 46.55 12.15 47.4 12.25 48.45 11.1 48.65 9.95 48.85 9.85 47.75 L9.05 45.2 Q8.4 43.55 8.5 42.65" fill="#a97c4c" fill-rule="evenodd" stroke="none"/>
      <path d="M16.5 9.25 Q16.75 9.1 17.05 9.25 19.05 10.55 18.5 13.35 17.95 16.25 15.35 15.3 13.15 14.5 12.7 11.45 12.3 8.85 13.25 6.5 13.35 6.25 13.7 6.25 L14.05 6.6 14.0 9.65 Q14.0 11.6 14.7 12.5 16.35 14.35 16.5 13.35 L16.35 12.0 Q16.05 10.9 16.2 9.75 16.2 9.4 16.5 9.25" fill="#a97c4c" fill-rule="evenodd" stroke="none"/>
      <path d="M-10.45 18.2 Q-10.25 20.1 -10.9 23.3 -11.55 26.75 -11.5 28.35 -11.4 30.85 -10.35 34.25 L-8.55 40.05 -7.25 44.25 Q-6.55 46.7 -6.75 48.55 -6.8 49.0 -7.3 49.1 -7.85 49.2 -7.85 48.7 -7.85 45.6 -10.2 39.15 -12.45 33.0 -12.25 29.5 L-11.4 24.4 Q-10.75 21.25 -10.95 19.25 -11.15 16.95 -12.1 14.4 L-14.1 9.85 -14.05 9.75 -13.95 9.75 Q-10.9 13.6 -10.45 18.2" fill="#e4c9a9" fill-rule="evenodd" stroke="none"/>
      <path d="M-21.65 14.45 Q-21.4 14.3 -21.4 14.45 -21.2 16.6 -19.15 19.75 -16.95 23.15 -16.5 24.9 -16.0 27.0 -16.65 30.7 -17.45 34.85 -17.3 36.55 -17.25 36.95 -17.7 37.05 -18.15 37.2 -18.25 36.8 -18.55 34.95 -17.95 30.15 -17.45 25.9 -18.3 23.55 L-20.65 19.15 Q-22.1 16.5 -21.65 14.45" fill="#e4c9a9" fill-rule="evenodd" stroke="none"/>
      <path d="M-3.2 43.1 Q-3.75 40.2 -5.25 36.55 -6.3 33.75 -6.45 32.45 -6.75 29.85 -5.05 28.8 L-4.7 28.85 Q-4.55 29.05 -4.75 29.2 -6.45 30.4 -5.45 33.7 L-3.4 38.3 Q-2.75 39.75 -2.25 43.5 -1.8 46.9 -0.9 48.5 -0.7 48.85 -1.05 49.1 L-1.7 49.05 Q-2.4 48.05 -2.75 46.15 -3.0 44.05 -3.2 43.1" fill="#e4c9a9" fill-rule="evenodd" stroke="none"/>
      <path d="M-0.85 36.4 L-0.3 37.5 Q0.0 38.2 -0.15 38.6 -0.25 39.0 -0.6 38.8 L-1.15 37.8 -1.6 36.5 Q-2.35 35.15 -2.4 34.4 -2.4 34.25 -2.3 34.35 -1.75 34.65 -0.85 36.4" fill="#e4c9a9" fill-rule="evenodd" stroke="none"/>
      <path d="M2.45 33.35 Q4.9 38.2 2.55 39.75 2.25 39.95 2.25 39.6 3.0 36.3 0.9 32.45 -1.0 28.9 -4.1 26.85 -4.35 26.7 -4.1 26.45 -3.85 26.15 -3.6 26.35 0.1 28.5 2.45 33.35" fill="#e4c9a9" fill-rule="evenodd" stroke="none"/>
      <path d="M3.95 14.25 Q5.55 18.4 5.85 21.5 L5.6 21.55 2.6 13.55 Q0.75 8.6 1.35 5.3 1.4 5.15 1.55 5.15 L1.75 5.3 Q2.25 10.05 3.95 14.25" fill="#e4c9a9" fill-rule="evenodd" stroke="none"/>
      <path d="M10.6 42.8 L10.5 40.45 10.2 38.15 Q9.75 36.6 9.75 35.75 9.75 35.6 9.85 35.7 11.4 37.9 11.4 41.05 11.4 42.45 12.0 44.3 L12.9 47.45 12.75 47.8 12.4 47.75 Q10.7 45.65 10.6 42.8" fill="#e4c9a9" fill-rule="evenodd" stroke="none"/>
      <path d="M16.2 12.0 L16.45 12.05 Q16.8 12.6 16.45 13.1 16.25 13.5 15.9 13.3 14.15 12.6 13.85 10.6 13.7 9.4 14.05 6.95 14.15 6.6 14.5 6.6 14.85 6.65 14.8 7.0 14.55 9.15 14.65 10.0 14.8 11.7 15.9 12.4 L16.0 12.2 16.2 12.0" fill="#e4c9a9" fill-rule="evenodd" stroke="none"/>
      <path d="M17.9 9.6 Q18.9 11.1 19.25 12.5 19.7 14.55 18.05 14.85 L17.8 14.75 17.8 14.5 18.3 13.4 Q18.45 12.8 18.25 12.15 L17.3 10.0 Q17.1 9.75 17.4 9.55 L17.9 9.6" fill="#e4c9a9" fill-rule="evenodd" stroke="none"/>
      <path d="M1.55 -1.15 L1.65 -1.05 1.55 -0.9 Q-6.15 0.85 -9.85 1.9 -16.25 3.75 -20.6 6.6 -26.6 10.55 -28.55 14.1 -29.8 16.4 -30.5 19.45 L-31.55 25.0 -31.65 25.1 -31.75 25.0 Q-31.9 12.4 -22.45 6.15 -17.4 2.85 -10.95 0.95 -4.75 -0.9 1.55 -1.15" fill="#e9a968" fill-rule="evenodd" stroke="none"/>
      <path d="M-26.4 43.25 L-29.1 37.35 Q-30.5 33.9 -30.9 31.1 L-30.7 31.05 Q-27.5 39.2 -24.4 43.85 -20.8 49.25 -19.6 52.2 -19.4 52.65 -19.85 52.95 L-20.75 53.0 Q-22.65 51.8 -24.15 48.6 L-26.4 43.25" fill="#e9a968" fill-rule="evenodd" stroke="none"/>
      <path d="M9.7 -0.7 Q9.5 -0.9 9.8 -0.9 L11.55 -0.95 Q12.6 -0.9 13.0 -0.2 L13.0 -0.15 13.05 -0.15 13.35 -0.05 13.35 0.1 13.2 0.15 13.0 0.05 12.8 0.15 Q11.2 0.3 9.7 -0.7" fill="#e9a968" fill-rule="evenodd" stroke="none"/>
      <path d="M23.25 4.3 Q23.05 4.1 23.25 3.9 L23.65 3.85 25.9 5.7 26.85 6.6 Q27.4 7.2 27.4 7.7 L27.2 8.1 26.8 8.2 Q26.1 8.15 25.0 6.5 L23.25 4.3" fill="#e9a968" fill-rule="evenodd" stroke="none"/>
      <path d="M-42.65 11.25 Q-37.4 14.55 -36.7 23.2 -36.5 26.0 -37.35 39.45 -43.3 39.45 -50.05 41.75 -48.25 40.5 -47.35 38.0 -46.7 36.2 -46.35 32.95 L-45.45 21.7 Q-44.75 15.4 -42.65 11.25" fill="#7cbe31" fill-rule="evenodd" stroke="none"/>
      <path d="M-39.9 7.1 Q-37.65 7.4 -34.6 8.6 L-29.5 10.85 Q-34.6 16.15 -34.75 24.65 -34.8 29.75 -32.5 39.9 L-37.35 39.45 Q-36.5 26.0 -36.7 23.2 -37.4 14.55 -42.65 11.25 -41.65 9.2 -39.95 7.15 L-39.9 7.1" fill="#5b8a25" fill-rule="evenodd" stroke="none"/>
      <path d="M-33.15 -10.5 L-30.5 -12.05 Q-29.35 -12.75 -26.45 -14.95 L-22.25 -17.7 Q-20.2 -18.8 -16.25 -19.2 L-9.95 -19.95 -9.95 -19.9 Q-15.8 -17.95 -21.35 -14.15 L-25.3 -10.7 -28.75 -6.85 Q-31.55 -6.9 -34.2 -8.45 L-36.1 -9.45 Q-34.85 -9.7 -33.15 -10.5" fill="#7cbe31" fill-rule="evenodd" stroke="none"/>
      <path d="M-27.3 -6.1 Q-21.95 -12.95 -13.55 -17.15 -9.75 -19.05 -5.0 -20.4 0.45 -21.95 5.15 -22.15 9.0 -18.95 8.05 -12.2 7.2 -5.7 3.15 -2.2 -10.85 7.45 -32.05 7.0 -35.15 5.5 -36.8 5.15 -41.5 4.2 -47.15 5.65 L-43.15 2.85 Q-34.95 -2.85 -20.75 -0.6 L-20.65 -0.7 -20.7 -0.8 Q-27.0 -2.2 -31.7 -1.95 -30.5 -2.5 -29.35 -3.65 L-27.3 -6.1" fill="#7cbe31" fill-rule="evenodd" stroke="none"/>
      <path d="M6.95 -22.0 L7.05 -22.15 Q11.8 -22.05 14.95 -20.35 L15.05 -15.5 15.0 -15.5 14.8 -15.15 Q14.8 -14.9 15.05 -14.9 15.05 -8.6 13.85 -4.8 12.25 0.25 7.9 4.05 2.9 8.5 -3.2 10.45 -9.3 12.45 -15.9 11.8 L-22.25 10.6 -28.4 8.65 -32.05 7.0 Q-10.85 7.45 3.15 -2.2 7.2 -5.7 8.05 -12.2 9.0 -18.95 5.15 -22.15 L6.3 -22.2 6.55 -21.9 6.95 -22.0" fill="#8edb37" fill-rule="evenodd" stroke="none"/>
      <path d="M13.15 -25.7 L23.0 -25.4 Q29.25 -23.75 32.2 -14.6 26.95 -21.7 13.15 -25.7" fill="#96e73a" fill-rule="evenodd" stroke="none"/>
      <path d="M24.15 -16.85 Q19.65 -17.25 15.75 -15.75 L15.25 -20.25 15.45 -20.3 15.45 -20.5 Q12.95 -22.9 8.2 -23.25 10.4 -25.0 13.15 -25.7 26.95 -21.7 32.2 -14.6 L32.35 -14.2 Q28.7 -16.4 24.15 -16.85" fill="#7cbe31" fill-rule="evenodd" stroke="none"/>
      <path d="M52.2 32.25 Q51.9 35.25 53.9 39.15 56.0 43.35 58.85 44.35 55.65 45.2 52.75 45.0 L48.8 44.3 44.9 43.3 39.6 42.35 34.25 42.5 Q35.55 36.05 40.5 32.6 45.6 29.05 52.4 30.45 L52.2 32.25" fill="#7cbe31" fill-rule="evenodd" stroke="none"/>
      <path d="M44.55 3.15 Q42.75 8.25 46.0 15.15 47.5 18.4 53.05 26.5 L52.4 30.45 Q45.6 29.05 40.5 32.6 35.55 36.05 34.25 42.5 33.0 42.7 31.65 43.35 L35.25 32.6 Q37.15 26.25 36.95 21.55 L39.9 23.6 Q41.6 24.8 43.0 25.4 47.55 27.4 49.15 25.35 L49.25 25.0 49.95 24.45 Q50.1 23.95 49.6 23.7 43.65 20.95 41.9 14.1 L40.4 1.0 44.55 3.15" fill="#6ba42b" fill-rule="evenodd" stroke="none"/>
      <path d="M53.05 26.5 Q47.5 18.4 46.0 15.15 42.75 8.25 44.55 3.15 50.2 6.6 52.65 12.15 54.0 15.25 53.95 19.25 53.9 21.75 53.05 26.5" fill="#7cbe31" fill-rule="evenodd" stroke="none"/>
      <path d="M20.35 -7.65 Q19.55 -8.05 20.35 -10.7 21.5 -14.65 21.65 -16.1 27.7 -16.0 33.15 -11.7 36.7 -8.8 37.95 -3.15 38.55 -0.4 38.9 6.85 39.5 22.0 47.1 24.55 L46.7 24.6 Q45.4 24.6 43.1 23.7 40.8 22.8 37.0 20.9 L36.15 17.55 Q34.9 10.65 30.55 3.95 26.5 -2.35 20.35 -7.65" fill="#7cbe31" fill-rule="evenodd" stroke="none"/>
      <path d="M15.8 -15.15 Q18.65 -16.1 21.65 -16.1 21.5 -14.65 20.35 -10.7 19.55 -8.05 20.35 -7.65 26.5 -2.35 30.55 3.95 34.9 10.65 36.15 17.55 33.85 9.85 28.4 4.5 22.8 -0.95 15.0 -2.8 16.65 -7.15 15.8 -15.15" fill="#629527" fill-rule="evenodd" stroke="none"/>
      <path d="M-29.3 11.0 Q-33.9 16.85 -34.0 25.05 -34.1 30.5 -31.8 40.2 L-31.7 40.8 -31.55 41.35 Q-31.5 41.6 -31.8 41.7 -32.1 41.85 -32.15 41.55 L-32.2 41.45 -32.65 41.5 Q-42.35 39.6 -52.7 43.35 -53.0 43.45 -53.1 43.2 L-52.9 42.8 -53.05 42.4 -52.85 42.0 Q-48.65 39.65 -47.9 32.7 -47.75 24.55 -47.25 21.25 -46.5 16.45 -45.1 13.35 -43.35 9.35 -40.1 7.1 L-39.95 7.15 Q-44.0 12.0 -45.15 19.45 -45.8 23.75 -46.35 32.95 -46.7 36.2 -47.35 38.0 -48.25 40.5 -50.05 41.75 -40.3 38.45 -32.5 39.9 -34.8 29.75 -34.75 24.65 -34.6 16.15 -29.5 10.85 L-29.3 11.0" fill="#336800" fill-rule="evenodd" stroke="none"/>
      <path d="M-14.9 -41.0 Q-15.5 -42.55 -14.65 -44.15 -13.7 -46.05 -11.05 -48.7 -2.1 -51.4 3.55 -51.45 12.15 -51.5 14.5 -45.85 12.9 -48.05 9.45 -49.15 6.4 -50.1 3.0 -49.85 -12.0 -48.8 -11.6 -44.2 -11.45 -41.9 -8.65 -40.55 -6.35 -39.35 -3.1 -39.15 -11.6 -38.0 -14.9 -41.0" fill="#619327" fill-rule="evenodd" stroke="none"/>
      <path d="M-11.05 -48.7 Q-13.7 -46.05 -14.65 -44.15 -15.5 -42.55 -14.9 -41.0 -16.1 -42.1 -16.55 -43.5 -17.75 -46.75 -15.0 -49.85 -12.9 -52.25 -9.35 -53.8 -5.25 -55.55 0.9 -55.8 L6.5 -55.75 Q15.85 -53.25 17.95 -45.95 19.25 -41.75 17.45 -36.9 L14.25 -33.05 Q8.1 -26.1 4.15 -23.1 L2.1 -22.85 Q6.85 -25.55 10.45 -29.95 14.4 -34.65 15.55 -39.6 16.4 -43.2 14.5 -45.85 12.15 -51.5 3.55 -51.45 -2.1 -51.4 -11.05 -48.7" fill="#7cbe31" fill-rule="evenodd" stroke="none"/>
      <path d="M20.6 -48.7 Q22.55 -43.75 17.45 -36.9 19.25 -41.75 17.95 -45.95 15.85 -53.25 6.5 -55.75 18.1 -55.05 20.6 -48.7" fill="#96e73a" fill-rule="evenodd" stroke="none"/>
      <path d="M-12.45 -53.45 Q-7.35 -56.35 -0.9 -56.8 L12.05 -56.2 Q20.35 -54.45 21.65 -49.1 23.4 -42.4 17.65 -35.5 10.85 -27.15 5.4 -23.25 L7.15 -23.3 Q10.25 -26.35 14.7 -27.1 18.9 -27.8 23.1 -26.3 32.7 -22.85 33.2 -13.65 36.55 -11.3 38.15 -8.05 39.75 -4.85 40.35 0.15 52.3 5.25 54.55 14.65 55.2 17.4 55.0 20.8 L54.25 26.95 Q53.45 32.9 55.05 37.5 57.2 43.65 63.05 42.25 63.6 42.1 63.7 42.6 63.75 43.05 63.4 43.3 62.0 44.5 60.65 44.55 55.85 46.75 50.5 45.85 L41.05 44.35 31.5 44.1 31.4 44.1 31.35 44.35 31.05 44.55 Q30.8 44.55 30.85 44.3 31.35 41.15 34.05 32.95 36.4 25.95 36.5 21.4 L36.35 21.2 36.25 21.0 Q36.05 20.95 36.25 20.7 34.45 12.1 28.85 6.1 23.3 0.15 14.8 -2.3 L13.35 0.4 Q10.0 5.05 5.15 8.4 0.4 11.7 -5.15 13.35 -10.25 14.85 -16.6 14.05 -21.55 13.45 -27.9 11.4 L-29.25 10.9 -29.3 11.0 -29.5 10.85 -34.6 8.6 Q-37.65 7.4 -39.9 7.1 L-40.0 7.2 -40.1 7.1 -42.6 7.05 Q-46.5 7.35 -55.15 9.35 L-55.6 9.0 Q-55.65 8.6 -55.3 8.5 L-54.3 8.15 -54.5 7.7 -54.15 7.3 Q-51.3 6.3 -45.7 3.05 -40.45 -0.05 -37.25 -1.0 L-34.05 -1.7 Q-34.15 -2.05 -33.85 -2.2 -32.25 -3.25 -29.95 -5.55 -31.65 -5.3 -34.05 -6.8 L-37.85 -9.45 Q-38.7 -9.6 -39.55 -10.2 -39.8 -10.4 -39.6 -10.65 -39.45 -10.95 -39.15 -10.95 -35.2 -10.6 -31.1 -13.25 L-24.05 -17.9 Q-21.3 -19.2 -17.15 -19.6 L-10.0 -20.3 -9.8 -20.15 -9.95 -19.95 -16.25 -19.15 Q-20.2 -18.75 -22.25 -17.7 L-26.45 -14.95 Q-29.35 -12.75 -30.5 -12.05 L-33.15 -10.5 Q-34.85 -9.7 -36.1 -9.45 L-34.2 -8.45 Q-31.55 -6.9 -28.75 -6.85 L-25.3 -10.7 -21.35 -14.15 Q-16.05 -17.8 -9.95 -19.9 L-7.55 -20.6 Q-1.45 -22.3 1.9 -22.85 1.75 -22.85 1.7 -22.95 L1.8 -23.2 Q9.5 -28.35 13.0 -35.0 16.0 -40.75 14.55 -44.05 13.2 -46.95 10.25 -48.2 7.65 -49.4 4.25 -49.1 L-2.85 -48.4 Q-7.25 -47.7 -9.5 -46.05 -12.55 -43.8 -8.8 -41.9 -6.25 -40.6 -3.55 -40.3 L0.6 -40.05 0.85 -39.7 1.1 -39.35 0.8 -38.95 Q-4.15 -36.95 -10.0 -37.8 -16.85 -38.85 -17.85 -43.85 -19.1 -49.75 -12.45 -53.45 M-16.55 -43.5 Q-14.45 -37.6 -3.1 -39.15 -6.35 -39.35 -8.65 -40.55 -11.45 -41.9 -11.6 -44.2 -12.0 -48.8 3.0 -49.85 8.5 -50.25 12.3 -47.85 16.8 -45.0 15.55 -39.6 14.4 -34.65 10.45 -29.95 6.85 -25.55 2.1 -22.85 L4.15 -23.1 Q8.1 -26.1 14.25 -33.05 18.1 -37.4 19.6 -40.2 22.1 -44.9 20.6 -48.7 18.8 -53.3 12.15 -54.95 7.5 -56.1 0.9 -55.8 -5.25 -55.55 -9.35 -53.8 -12.9 -52.25 -15.0 -49.85 -17.75 -46.75 -16.55 -43.5 M-27.3 -6.1 L-29.35 -3.65 Q-30.5 -2.5 -31.7 -1.95 -26.9 -2.2 -20.7 -0.75 -20.65 -0.6 -20.75 -0.6 -34.95 -2.85 -43.15 2.85 L-47.15 5.65 Q-41.5 4.2 -36.85 5.15 -35.15 5.5 -32.55 6.75 L-28.4 8.65 -22.25 10.6 -15.9 11.8 Q-9.3 12.45 -3.2 10.45 2.9 8.5 7.9 4.05 12.25 0.25 13.85 -4.8 15.05 -8.6 15.05 -14.9 14.8 -14.9 14.8 -15.15 L15.0 -15.5 15.05 -15.5 14.95 -20.35 Q11.8 -22.05 7.05 -22.15 L6.95 -22.0 6.55 -21.9 Q6.3 -21.95 6.25 -22.15 L3.65 -22.05 3.5 -21.95 3.05 -22.0 Q-1.25 -21.55 -6.0 -20.1 -10.15 -18.85 -13.55 -17.15 -21.95 -12.95 -27.3 -6.1 M15.25 -20.25 L15.75 -15.75 Q19.65 -17.25 24.15 -16.85 28.7 -16.4 32.35 -14.2 29.45 -23.75 23.0 -25.4 18.85 -26.45 15.25 -26.1 11.1 -25.65 8.2 -23.25 12.95 -22.9 15.45 -20.5 L15.45 -20.3 15.25 -20.25 M15.8 -15.15 Q16.65 -7.15 15.0 -2.8 23.45 -0.8 29.25 5.4 34.9 11.4 36.8 20.0 L36.85 20.15 37.0 20.9 Q40.8 22.8 43.1 23.7 45.4 24.6 46.7 24.6 L47.1 24.6 Q39.6 22.0 38.85 6.85 38.55 -0.3 37.95 -3.15 36.75 -8.8 33.15 -11.65 29.3 -14.8 24.9 -15.7 20.35 -16.7 15.8 -15.15 M41.9 14.1 Q43.65 20.95 49.6 23.7 50.1 23.95 49.95 24.45 49.75 24.95 49.25 25.05 L49.15 25.35 Q47.55 27.4 43.0 25.4 41.6 24.8 39.9 23.6 L36.95 21.55 Q37.15 26.25 35.25 32.6 L31.65 43.35 Q34.35 42.05 38.2 42.25 L44.9 43.3 48.8 44.35 52.75 45.05 Q55.6 45.2 58.85 44.35 56.0 43.35 53.9 39.15 51.9 35.25 52.2 32.25 L53.7 22.15 Q54.4 16.15 52.65 12.15 50.9 8.2 47.65 5.4 44.8 2.95 40.4 1.0 L41.9 14.1" fill="#336800" fill-rule="evenodd" stroke="none"/>
      <path d="M15.65 -23.85 Q16.25 -22.15 15.95 -18.8 15.65 -15.6 14.85 -13.9 12.2 -8.6 5.4 -6.35 -0.9 -4.25 -7.2 -5.7 0.75 -7.35 5.4 -10.8 11.35 -15.25 10.4 -21.85 L10.15 -26.0 Q9.8 -28.5 8.7 -29.8 11.05 -28.7 12.9 -27.25 15.1 -25.5 15.65 -23.85" fill="#40afb7" fill-rule="evenodd" stroke="none"/>
      <path d="M-11.85 -7.45 Q-17.55 -10.5 -17.85 -15.4 L-16.65 -14.35 Q-14.5 -12.2 -11.4 -11.9 -8.6 -11.65 -6.15 -12.85 0.3 -15.4 2.7 -19.4 5.55 -24.15 1.35 -29.4 L-2.05 -31.15 Q2.85 -31.8 7.05 -30.45 7.9 -30.1 8.7 -29.8 9.8 -28.5 10.15 -26.0 L10.4 -21.85 Q11.35 -15.25 5.4 -10.8 0.75 -7.35 -7.2 -5.7 -10.0 -6.35 -11.85 -7.45" fill="#55c7d2" fill-rule="evenodd" stroke="none"/>
      <path d="M-11.4 -11.95 Q-14.5 -12.25 -16.65 -14.4 L-17.85 -15.45 Q-18.0 -18.0 -16.9 -20.95 -15.9 -23.8 -13.95 -25.6 -12.35 -27.1 -9.55 -28.3 -6.7 -30.65 -2.05 -31.2 L1.35 -29.45 Q5.55 -24.2 2.7 -19.45 0.3 -15.45 -6.15 -12.9 -8.6 -11.7 -11.4 -11.95" fill="#64ecf8" fill-rule="evenodd" stroke="none"/>
      <path d="M-12.2 -17.15 Q-14.0 -19.75 -12.6 -22.9 -11.3 -25.85 -8.35 -27.05 L-4.5 -27.4 -4.4 -27.4 -4.4 -27.35 -3.2 -27.1 -4.3 -27.4 -2.95 -27.1 Q-1.4 -26.5 -0.5 -25.0 0.4 -23.5 0.15 -21.9 L0.1 -21.3 1.55 -21.45 1.65 -21.4 Q3.5 -21.05 3.95 -19.65 4.35 -18.4 3.7 -17.35 L3.65 -17.3 Q2.3 -15.05 0.05 -15.3 -1.55 -15.55 -2.15 -16.9 -4.4 -14.85 -7.35 -14.8 -10.5 -14.7 -12.2 -17.15" fill="#96f3fe" fill-rule="evenodd" stroke="none"/>
      <path d="M-0.5 -14.75 Q0.8 -14.75 1.6 -13.55 2.3 -12.4 2.0 -11.15 1.7 -9.75 0.45 -8.95 -0.65 -8.25 -2.15 -8.25 -3.5 -8.25 -4.25 -9.45 -5.0 -10.6 -4.7 -11.85 -4.35 -13.25 -3.1 -14.05 -2.0 -14.75 -0.5 -14.75" fill="#96f3fe" fill-rule="evenodd" stroke="none"/>
      <path d="M-13.45 -26.2 Q-15.3 -24.65 -16.2 -22.1 -19.4 -13.35 -13.85 -9.6 -9.7 -6.85 -4.65 -6.15 0.45 -5.45 5.1 -7.1 12.55 -9.7 14.3 -14.1 15.6 -17.45 15.6 -20.45 15.55 -24.25 13.25 -26.2 8.35 -30.2 2.25 -30.55 -3.5 -30.9 -9.5 -28.05 -9.8 -27.9 -9.8 -28.15 L-9.8 -28.2 Q-12.15 -27.25 -13.45 -26.2 M-17.65 -12.35 Q-18.6 -15.15 -18.0 -18.4 -17.5 -21.4 -15.8 -24.2 -14.7 -26.05 -12.95 -27.1 -11.85 -27.75 -9.75 -28.4 L-9.65 -28.5 Q-5.75 -30.9 -1.4 -31.7 3.55 -32.6 7.35 -31.1 15.85 -27.7 16.35 -23.3 17.1 -16.85 14.25 -12.15 11.3 -7.25 5.1 -5.5 -1.25 -3.65 -7.8 -5.0 -15.7 -6.6 -17.65 -12.35" fill="#2a95a0" fill-rule="evenodd" stroke="none"/>
      <path d="M-11.1 -20.0 Q-11.9 -21.2 -11.6 -22.55 -11.2 -24.05 -9.9 -24.9 -8.75 -25.7 -7.15 -25.7 -6.0 -25.7 -5.2 -24.8 -4.45 -24.0 -4.35 -22.9 L-3.5 -22.15 Q-3.25 -21.55 -3.4 -20.95 -3.8 -19.35 -5.7 -19.35 L-6.1 -19.45 Q-7.3 -18.7 -8.85 -18.7 -10.3 -18.7 -11.1 -20.0" fill="#ffffff" fill-rule="evenodd" stroke="none"/>
      <path d="M-1.5 -10.85 Q-2.4 -10.05 -3.6 -10.2 -4.75 -10.3 -5.25 -11.3 -5.75 -12.35 -5.15 -13.35 L-5.2 -13.3 -5.05 -13.55 Q-3.95 -15.2 -2.4 -15.0 -0.8 -14.85 -0.55 -13.1 L-0.55 -12.85 Q-0.6 -11.65 -1.5 -10.85" fill="#ffffff" fill-rule="evenodd" stroke="none"/>
      <path d="M12.05 -18.35 Q12.9 -17.0 11.9 -15.65 10.9 -14.35 9.3 -14.5 8.1 -14.6 7.65 -15.7 7.15 -16.75 7.75 -17.8 8.3 -19.35 9.7 -19.35 11.4 -19.45 12.05 -18.35" fill="#3e98a0" fill-rule="evenodd" stroke="none"/>
      <path d="M0.6 -29.5 L0.8 -29.3 0.75 -29.2 0.6 -28.75 0.5 -28.7 0.35 -28.6 0.25 -28.5 0.2 -28.5 0.05 -28.45 -0.25 -28.4 -0.35 -28.4 -0.6 -28.35 Q-1.3 -28.35 -1.8 -28.65 -2.05 -28.9 -1.8 -29.25 L-1.65 -29.5 -1.35 -29.75 -1.15 -29.7 -1.05 -29.65 -1.05 -29.4 -1.0 -29.4 -0.45 -29.3 -0.3 -29.3 0.35 -29.35 0.6 -29.5" fill="#3e98a0" fill-rule="evenodd" stroke="none"/>
      <path d="M-2.2 -29.45 Q-2.3 -31.15 -2.0 -34.55 -1.7 -37.95 -1.85 -39.6 L-0.15 -39.8 Q1.0 -36.25 0.35 -29.8 0.25 -28.7 -0.9 -28.45 -2.1 -28.2 -2.2 -29.45" fill="#336800" fill-rule="evenodd" stroke="none"/>
    </g>
  </defs>
</svg>
