<?xml version="1.0" encoding="UTF-8" standalone="no"?>
<svg xmlns:ffdec="https://www.free-decompiler.com/flash" xmlns:xlink="http://www.w3.org/1999/xlink" ffdec:objectType="frame" height="37.6px" width="68.6px" xmlns="http://www.w3.org/2000/svg">
  <g transform="matrix(1.0, 0.0, 0.0, 1.0, 1.3, 1.3)">
    <use ffdec:characterId="915" height="37.6" transform="matrix(1.0, 0.0, 0.0, 1.0, -1.3, -1.3)" width="68.6" xlink:href="#shape0"/>
    <use ffdec:characterId="913" height="104.5" transform="matrix(0.2794, 0.0, 0.0, 0.2794, 5.2876, 2.8504)" width="164.0" xlink:href="#sprite0"/>
  </g>
  <defs>
    <g id="shape0" transform="matrix(1.0, 0.0, 0.0, 1.0, 1.3, 1.3)">
      <path d="M57.15 35.0 L8.9 35.0 Q5.25 35.0 2.6 32.4 0.0 29.8 0.0 26.1 L0.0 8.95 Q0.0 5.25 2.6 2.6 5.2 0.0 8.9 0.0 L57.15 0.0 Q60.85 0.0 63.4 2.6 66.0 5.25 66.0 8.95 L66.0 26.1 Q66.0 29.8 63.4 32.4 60.8 35.0 57.15 35.0" fill="#d9f0a5" fill-rule="evenodd" stroke="none"/>
      <path d="M57.15 35.0 L8.9 35.0 Q5.25 35.0 2.6 32.4 0.0 29.8 0.0 26.1 L0.0 8.95 Q0.0 5.25 2.6 2.6 5.2 0.0 8.9 0.0 L57.15 0.0 Q60.85 0.0 63.4 2.6 66.0 5.25 66.0 8.95 L66.0 26.1 Q66.0 29.8 63.4 32.4 60.8 35.0 57.15 35.0" fill="#d9f0a5" fill-rule="evenodd" stroke="none"/>
      <path d="M57.15 35.0 L8.9 35.0 Q5.25 35.0 2.6 32.4 0.0 29.8 0.0 26.1 L0.0 8.95 Q0.0 5.25 2.6 2.6 5.2 0.0 8.9 0.0 L57.15 0.0 Q60.85 0.0 63.4 2.6 66.0 5.25 66.0 8.95 L66.0 26.1 Q66.0 29.8 63.4 32.4 60.8 35.0 57.15 35.0" fill="url(#gradient0)" fill-rule="evenodd" stroke="none"/>
      <path d="M57.15 35.0 L8.9 35.0 Q5.25 35.0 2.6 32.4 0.0 29.8 0.0 26.1 L0.0 8.95 Q0.0 5.25 2.6 2.6 5.2 0.0 8.9 0.0 L57.15 0.0 Q60.85 0.0 63.4 2.6 66.0 5.25 66.0 8.95 L66.0 26.1 Q66.0 29.8 63.4 32.4 60.8 35.0 57.15 35.0 Z" fill="none" stroke="url(#gradient1)" stroke-linecap="square" stroke-linejoin="miter-clip" stroke-miterlimit="3.0" stroke-width="2.0"/>
    </g>
    <linearGradient gradientTransform="matrix(0.0403, 0.0, 0.0, 0.0214, 33.0, 17.5)" gradientUnits="userSpaceOnUse" id="gradient0" spreadMethod="pad" x1="-819.2" x2="819.2">
      <stop offset="0.0" stop-color="#55740f"/>
      <stop offset="1.0" stop-color="#d9f0a5"/>
    </linearGradient>
    <linearGradient gradientTransform="matrix(0.0415, 0.0, 0.0, 0.0226, 33.0, 17.5)" gradientUnits="userSpaceOnUse" id="gradient1" spreadMethod="pad" x1="-819.2" x2="819.2">
      <stop offset="0.0" stop-color="#ffffff"/>
      <stop offset="1.0" stop-color="#ffffff" stop-opacity="0.0"/>
    </linearGradient>
    <g id="sprite0" transform="matrix(1.0, 0.0, 0.0, 1.0, 82.0, 52.25)">
      <use ffdec:characterId="910" height="10.5" transform="matrix(1.0, 0.0, 0.0, 1.0, -82.0, 41.75)" width="164.0" xlink:href="#sprite1"/>
      <use ffdec:characterId="911" height="5.4" transform="matrix(1.0, 0.0, 0.0, 1.0, -64.5, 44.3)" width="128.95" xlink:href="#sprite2"/>
      <use ffdec:characterId="912" height="99.25" transform="matrix(1.0, 0.0, 0.0, 1.0, -52.0, -52.25)" width="115.45" xlink:href="#shape2"/>
    </g>
    <g id="sprite1" transform="matrix(1.0, 0.0, 0.0, 1.0, 0.0, 0.0)">
      <use ffdec:characterId="909" height="9.5" transform="matrix(1.1044, 0.0, 0.0, 1.1053, 0.0, 0.0)" width="148.5" xlink:href="#shape1"/>
    </g>
    <g id="shape1" transform="matrix(1.0, 0.0, 0.0, 1.0, 0.0, 0.0)">
      <path d="M148.5 4.7 Q148.5 6.7 126.75 8.1 105.0 9.5 74.25 9.5 43.5 9.5 21.75 8.1 0.0 6.7 0.0 4.7 0.0 2.8 21.75 1.4 43.6 0.0 74.25 0.0 104.9 0.0 126.75 1.4 148.5 2.8 148.5 4.7" fill="#000000" fill-rule="evenodd" stroke="none"/>
    </g>
    <g id="sprite2" transform="matrix(1.0, 0.0, 0.0, 1.0, 0.0, 0.0)">
      <use ffdec:characterId="909" height="9.5" transform="matrix(0.8683, 0.0, 0.0, 0.5684, 0.0, 0.0)" width="148.5" xlink:href="#shape1"/>
    </g>
    <g id="shape2" transform="matrix(1.0, 0.0, 0.0, 1.0, 52.0, 52.25)">
      <path d="M-34.75 -29.35 L-15.2 -40.1 Q4.9 -50.85 7.8 -50.75 10.7 -50.65 27.3 -40.5 L43.35 -30.35" fill="none" stroke="#8ca5bb" stroke-linecap="butt" stroke-linejoin="miter-clip" stroke-miterlimit="10.0" stroke-width="0.8"/>
      <path d="M53.45 37.8 L-41.9 37.8 -41.9 -20.6 53.45 -20.6 53.45 37.8" fill="#1b2b1e" fill-rule="evenodd" stroke="none"/>
      <path d="M50.9 -18.5 L-39.45 -18.5 -39.45 34.45 -52.0 47.0 -52.0 -31.05 63.45 -31.05 50.9 -18.5" fill="#b88250" fill-rule="evenodd" stroke="none"/>
      <path d="M63.45 -31.05 L63.45 47.0 -52.0 47.0 -39.45 34.45 50.9 34.45 50.9 -18.5 63.45 -31.05" fill="#936841" fill-rule="evenodd" stroke="none"/>
      <path d="M52.6 36.1 L52.6 -20.15 -41.15 -20.15 -41.15 36.1 52.6 36.1 M61.8 -29.35 L61.8 45.3 -50.35 45.3 -50.35 -29.35 61.8 -29.35" fill="url(#gradient2)" fill-rule="evenodd" stroke="none"/>
      <path d="M-42.8 -22.9 Q-42.55 -22.9 -42.5 -22.7 L-42.95 -24.1 -44.35 -25.45 Q-45.35 -26.2 -47.2 -27.05 -47.05 -26.0 -45.15 -24.35 L-43.1 -22.75 -42.8 -22.9 M-25.1 -23.65 Q-24.8 -23.65 -24.85 -23.35 L-25.15 -23.05 -32.05 -22.75 -39.0 -22.35 -39.2 -22.4 -39.75 -22.35 -40.0 -22.6 -39.8 -22.9 -38.95 -23.2 Q-38.25 -23.45 -38.0 -24.0 -37.8 -24.6 -38.35 -24.95 L-39.4 -25.15 Q-40.35 -25.05 -41.1 -24.55 -42.0 -23.9 -41.85 -23.0 -41.85 -22.85 -42.0 -22.8 L-42.2 -22.9 -42.4 -22.5 -42.45 -22.5 -42.65 -21.95 -42.8 -21.85 -42.85 -21.6 Q-42.85 -21.4 -43.0 -21.55 -43.7 -22.1 -44.7 -21.9 -45.75 -21.7 -45.95 -20.8 -46.05 -20.05 -45.55 -19.65 L-45.0 -19.55 -44.7 -19.85 -44.05 -19.95 Q-43.8 -20.0 -43.7 -19.7 -43.35 -19.55 -43.4 -19.15 -43.45 -18.7 -43.8 -18.45 L-44.1 -18.2 Q-44.55 -14.65 -43.85 -11.35 -43.75 -11.15 -44.0 -11.05 -44.25 -11.0 -44.3 -11.2 -45.4 -13.9 -44.75 -18.2 L-45.05 -18.7 Q-45.7 -18.5 -46.2 -18.95 L-46.8 -19.95 -46.75 -21.1 Q-46.15 -22.65 -44.55 -22.75 L-44.35 -22.75 -46.6 -24.7 Q-48.1 -26.35 -47.85 -27.55 -47.75 -28.0 -47.35 -27.8 -44.75 -26.85 -43.35 -25.4 -42.45 -24.65 -42.2 -23.75 -41.95 -24.7 -40.7 -25.3 L-38.6 -25.65 Q-37.95 -25.55 -37.55 -24.95 -37.2 -24.4 -37.45 -23.8 L-37.75 -23.35 -31.45 -23.8 -25.1 -23.65" fill="#a97140" fill-rule="evenodd" stroke="none"/>
      <path d="M-27.0 38.75 Q-26.7 38.7 -26.7 39.0 L-27.0 39.3 -33.2 40.4 -39.45 40.75 Q-39.5 41.7 -40.3 42.3 -41.15 42.9 -42.15 42.65 -43.4 42.45 -43.6 41.45 L-43.65 40.85 -44.6 41.95 Q-46.0 43.25 -47.25 43.45 L-47.6 43.5 -47.7 43.4 -47.65 43.3 Q-47.9 42.6 -47.35 41.05 -46.8 39.7 -45.6 38.75 L-45.55 38.85 Q-46.65 40.05 -46.95 41.4 L-47.0 42.3 -47.15 43.15 Q-45.95 42.8 -44.65 41.3 L-43.15 39.0 -43.0 39.0 -42.9 39.1 -42.95 39.45 -42.7 39.3 Q-42.4 39.15 -42.5 39.45 L-42.8 40.3 -42.8 41.2 Q-42.55 41.75 -41.9 41.85 L-40.7 41.65 Q-40.15 41.3 -40.1 40.65 L-40.55 40.6 Q-40.65 40.35 -40.4 40.25 L-40.2 40.15 -39.8 40.05 -39.75 40.05 -39.75 40.0 -39.15 39.75 Q-38.9 39.65 -38.8 39.9 -38.7 40.1 -38.9 40.25 -38.3 39.85 -37.05 39.75 L-35.05 39.65 -32.35 39.25 -27.0 38.75" fill="#a97140" fill-rule="evenodd" stroke="none"/>
      <path d="M-44.6 23.95 L-44.05 28.7 Q-43.75 31.75 -44.65 33.35 -44.15 33.65 -44.1 34.0 -43.8 34.75 -44.65 35.1 L-45.1 35.0 -45.15 34.6 Q-44.9 34.25 -45.15 34.1 L-45.25 34.1 -45.25 34.0 -46.35 33.7 -47.35 33.8 Q-48.0 34.15 -48.2 34.85 -48.4 35.55 -47.95 36.15 L-46.7 37.4 Q-45.75 38.1 -45.1 37.75 L-45.05 37.8 -47.3 37.75 Q-49.3 36.3 -48.95 34.85 -48.7 33.75 -47.75 33.25 -46.85 32.75 -45.75 32.95 L-44.95 33.2 Q-44.35 31.45 -44.55 28.65 L-44.9 24.0 -44.75 23.85 Q-44.65 23.8 -44.6 23.95" fill="#a97140" fill-rule="evenodd" stroke="none"/>
      <path d="M56.05 24.25 L55.6 29.3 55.9 33.15 57.05 32.9 Q59.0 33.25 59.6 34.75 59.95 35.6 59.6 36.35 L58.35 37.4 56.2 37.65 Q57.45 38.7 58.3 40.05 59.3 41.6 59.3 42.95 L59.4 43.05 Q59.6 43.25 59.4 43.45 L59.05 43.5 Q58.65 43.25 57.95 43.05 L56.85 42.75 55.35 41.7 54.55 40.6 53.4 41.95 50.65 41.9 Q49.45 40.95 49.35 39.55 L49.45 38.85 45.3 38.55 39.4 38.15 39.45 38.05 45.45 38.0 48.0 37.9 50.5 38.15 Q50.8 38.25 50.75 38.5 L50.4 38.85 50.0 38.85 Q49.75 39.3 50.2 40.1 L51.05 41.15 Q52.05 41.75 52.75 41.45 53.7 41.1 53.95 40.5 54.35 39.65 53.55 38.75 L53.55 38.6 53.7 38.6 53.75 38.6 53.7 38.5 Q53.7 38.35 53.8 38.45 L54.0 38.85 Q54.65 39.4 54.65 40.0 L56.15 41.65 57.3 42.2 58.55 42.55 57.65 40.15 55.8 37.55 55.15 37.0 55.2 36.95 Q56.95 37.4 58.05 36.95 L59.05 36.2 Q59.35 35.65 59.05 35.0 58.5 33.9 57.2 33.55 L56.35 33.6 55.85 34.3 55.7 34.4 55.5 34.3 55.4 34.0 55.05 33.8 Q54.65 33.05 54.75 31.65 L55.0 29.35 Q55.15 27.9 55.45 26.55 L55.45 26.5 55.9 24.25 56.05 24.25" fill="#a97140" fill-rule="evenodd" stroke="none"/>
      <path d="M43.35 -22.15 L36.2 -21.85 Q35.95 -21.85 36.0 -22.15 L36.25 -22.45 44.75 -23.25 46.65 -23.4 49.2 -23.45 Q48.9 -23.95 49.05 -24.65 49.6 -26.25 51.3 -26.6 53.25 -27.0 54.05 -25.25 L54.3 -24.6 Q56.4 -27.2 59.45 -27.7 L59.75 -27.55 59.8 -27.55 59.8 -27.5 59.75 -27.15 59.1 -25.9 57.85 -23.65 58.2 -23.7 Q59.1 -23.85 59.7 -23.25 60.3 -22.7 60.2 -21.75 60.15 -20.9 59.35 -20.05 58.65 -19.35 57.75 -18.9 57.1 -18.5 56.25 -18.6 L55.5 -14.6 Q55.3 -12.4 55.9 -10.6 L55.85 -10.55 Q55.0 -12.4 55.1 -14.8 L55.5 -19.15 55.4 -19.55 55.6 -19.85 56.2 -20.0 Q56.5 -19.95 56.45 -19.55 L56.45 -19.45 Q57.15 -19.3 57.95 -19.85 59.65 -21.0 59.5 -21.95 59.25 -23.75 57.25 -22.8 56.3 -21.55 55.6 -21.55 L55.25 -21.2 54.95 -21.15 Q54.75 -21.25 54.9 -21.45 L55.2 -21.85 55.2 -21.9 55.55 -22.2 Q56.1 -22.75 56.75 -23.15 L57.9 -24.9 58.85 -26.8 Q56.0 -26.05 54.15 -23.35 54.0 -23.05 53.65 -23.15 53.3 -23.25 53.5 -23.6 L53.75 -23.9 Q53.7 -24.7 53.05 -25.5 52.3 -26.35 50.95 -25.75 49.8 -25.15 49.8 -24.35 49.75 -23.55 50.85 -23.15 L50.95 -23.3 51.25 -23.35 51.5 -22.7 51.3 -22.35 50.9 -22.3 50.5 -22.45 43.35 -22.15" fill="#a97140" fill-rule="evenodd" stroke="none"/>
      <path d="M-16.25 -23.9 L-16.15 -23.75 -16.35 -23.6 -17.45 -23.6 -18.6 -23.8 -18.7 -23.95 -18.55 -24.05 -16.25 -23.9" fill="#a97140" fill-rule="evenodd" stroke="none"/>
      <path d="M-9.05 -23.8 L-8.9 -23.6 Q-8.9 -23.45 -9.05 -23.35 L-10.6 -23.05 Q-11.5 -23.05 -11.55 -23.55 L-11.45 -23.7 -10.4 -23.8 -9.05 -23.8" fill="#a97140" fill-rule="evenodd" stroke="none"/>
      <path d="M6.65 -23.45 L6.85 -23.2 6.55 -22.95 2.1 -22.85 -2.3 -23.25 -2.4 -23.4 -2.25 -23.5 Q0.05 -23.2 4.65 -23.4 3.9 -23.8 3.35 -24.5 L3.35 -24.7 3.45 -24.9 Q5.4 -26.25 7.05 -26.0 8.8 -25.75 9.8 -23.75 L15.2 -23.6 15.35 -23.4 15.15 -23.15 Q10.8 -23.05 9.25 -23.2 L7.9 -22.95 Q7.65 -22.9 7.65 -23.15 L7.9 -23.45 Q9.8 -25.0 7.05 -25.6 5.6 -25.65 4.4 -24.85 3.8 -24.4 5.15 -23.85 L6.65 -23.45" fill="#a97140" fill-rule="evenodd" stroke="none"/>
      <path d="M23.4 -24.15 L23.55 -23.9 23.35 -23.7 22.5 -23.55 22.3 -23.5 19.55 -23.35 19.55 -23.4 20.75 -23.7 20.75 -24.05 21.15 -24.25 23.4 -24.15" fill="#a97140" fill-rule="evenodd" stroke="none"/>
      <path d="M30.2 -23.25 L30.4 -23.0 30.15 -22.75 28.0 -22.65 Q27.65 -22.65 27.75 -23.0 27.85 -23.35 28.15 -23.35 L30.2 -23.25" fill="#a97140" fill-rule="evenodd" stroke="none"/>
      <path d="M-14.85 39.7 Q-14.65 39.8 -14.8 40.05 L-15.1 40.2 -18.1 39.95 -18.35 39.7 -19.55 39.6 -19.7 39.35 -19.45 39.15 -18.2 39.3 -17.9 39.2 Q-15.7 39.2 -14.85 39.7" fill="#a97140" fill-rule="evenodd" stroke="none"/>
      <path d="M-7.0 39.25 Q-6.75 39.25 -6.75 39.55 -6.75 39.9 -7.1 39.9 L-7.8 39.9 -7.9 39.85 -9.55 39.8 -9.7 39.7 Q-9.9 39.3 -9.65 39.2 L-9.1 39.35 -8.45 39.25 -7.0 39.25" fill="#a97140" fill-rule="evenodd" stroke="none"/>
      <path d="M21.25 38.0 L21.5 38.25 21.25 38.55 15.1 39.35 8.9 39.85 9.0 40.25 Q8.1 41.95 5.65 42.85 L1.4 43.05 Q0.15 42.6 -0.25 41.5 -0.6 40.45 0.1 39.8 L-3.05 39.7 -3.15 39.55 -3.0 39.45 1.85 39.3 2.1 39.55 1.8 39.85 Q-0.15 39.95 0.55 41.1 1.2 42.25 2.1 42.35 L3.9 42.35 Q6.1 41.95 7.05 41.25 8.2 40.5 7.8 40.2 L6.15 39.85 5.8 39.85 5.65 39.8 4.85 39.55 4.75 39.4 4.95 39.2 7.9 39.4 14.55 38.7 21.25 38.0" fill="#a97140" fill-rule="evenodd" stroke="none"/>
      <path d="M26.8 38.4 L27.7 38.3 28.6 38.4 28.75 38.65 28.55 38.9 27.55 39.05 26.5 39.1 24.55 39.45 24.3 39.3 24.5 38.95 26.8 38.4" fill="#a97140" fill-rule="evenodd" stroke="none"/>
      <path d="M39.05 37.85 Q39.25 37.9 39.25 38.1 L39.0 38.3 33.6 38.5 33.4 38.3 Q33.45 38.05 33.65 38.05 L39.05 37.85" fill="#a97140" fill-rule="evenodd" stroke="none"/>
      <path d="M-45.4 -6.55 L-45.25 -4.0 Q-45.25 -2.45 -45.65 -1.5 L-45.8 -1.4 -45.9 -1.5 -45.8 -2.85 -45.6 -4.2 -45.45 -6.55 -45.4 -6.55" fill="#a97140" fill-rule="evenodd" stroke="none"/>
      <path d="M-48.65 7.8 Q-48.6 7.1 -48.05 6.5 -47.45 5.85 -46.75 5.75 -45.2 5.6 -45.05 7.15 L-45.2 7.35 -45.4 7.25 Q-45.55 6.7 -45.95 6.5 -46.35 6.3 -46.85 6.5 L-47.55 7.0 Q-47.95 7.45 -47.8 7.8 -47.7 8.25 -46.9 8.1 L-45.75 7.35 -45.5 7.3 -45.35 7.5 Q-45.3 8.1 -46.0 8.55 L-47.25 8.95 -48.2 8.7 Q-48.7 8.35 -48.65 7.8" fill="#a97140" fill-rule="evenodd" stroke="none"/>
      <path d="M-46.7 12.45 L-46.45 11.7 -46.45 11.6 -46.25 11.6 -46.25 11.65 -46.2 11.7 -46.0 12.5 -45.9 14.35 Q-45.9 16.95 -46.05 17.55 L-46.35 17.8 Q-46.6 17.85 -46.65 17.65 L-46.8 15.95 -46.75 14.25 -46.7 12.45" fill="#a97140" fill-rule="evenodd" stroke="none"/>
      <path d="M55.3 4.6 L55.1 4.75 54.95 4.6 Q55.05 3.15 56.25 3.0 57.45 2.95 58.15 4.05 L58.1 4.35 Q56.95 5.75 55.55 5.7 55.15 5.7 55.25 5.25 L55.7 4.55 56.5 4.25 56.7 4.3 56.7 4.5 56.4 4.75 57.55 4.15 Q57.2 3.4 56.4 3.4 55.5 3.4 55.3 4.6" fill="#a97140" fill-rule="evenodd" stroke="none"/>
      <path d="M55.5 -3.6 L55.75 -6.9 55.85 -7.0 56.0 -6.9 56.0 -3.6 56.25 -0.45 56.05 -0.25 Q55.9 -0.15 55.85 -0.35 55.4 -1.55 55.5 -3.6" fill="#a97140" fill-rule="evenodd" stroke="none"/>
      <path d="M56.45 10.25 Q57.0 12.6 56.65 15.7 L56.4 15.9 56.2 15.7 Q56.1 14.9 56.15 13.05 L56.0 10.4 56.2 10.1 56.45 10.25" fill="#a97140" fill-rule="evenodd" stroke="none"/>
      <path d="M48.1 12.85 L48.1 30.85 -36.55 30.85 -36.55 12.2 Q8.05 8.05 48.1 12.85" fill="#6da751" fill-rule="evenodd" stroke="none"/>
      <path d="M-4.3 -5.85 L1.75 -6.05 Q4.6 -5.1 6.55 -2.5 7.85 0.0 7.85 2.95 7.85 5.9 6.55 8.4 6.05 9.4 4.75 10.3 -1.25 10.25 -9.65 10.5 -12.15 5.6 -10.65 0.75 -9.15 -4.25 -4.3 -5.85" fill="#c78812" fill-rule="evenodd" stroke="none"/>
      <path d="M-36.55 -0.85 L-36.55 -14.9 -2.8 -14.9 Q-18.75 -6.9 -36.55 -0.85" fill="#bbe7e5" fill-rule="evenodd" stroke="none"/>
      <path d="M6.55 -2.5 Q4.6 -5.1 1.75 -6.05 L-4.3 -5.85 Q-9.15 -4.25 -10.65 0.75 -12.15 5.6 -9.65 10.5 L-36.55 12.2 -36.55 -0.85 Q-18.75 -6.9 -2.8 -14.9 L48.1 -14.9 48.1 12.85 35.2 11.55 33.85 0.75 Q33.05 -5.65 34.15 -9.9 32.75 -4.85 29.0 0.95 L22.4 10.75 Q13.55 10.3 4.75 10.3 6.05 9.4 6.55 8.4 7.85 5.9 7.85 2.95 7.85 0.0 6.55 -2.5" fill="#5dd6d8" fill-rule="evenodd" stroke="none"/>
      <path d="M33.85 0.75 L35.2 11.55 22.4 10.75 29.0 0.95 Q32.75 -4.85 34.15 -9.9 33.05 -5.65 33.85 0.75" fill="#4c8ccc" fill-rule="evenodd" stroke="none"/>
      <path d="M10.5 -51.15 Q11.65 -50.0 11.65 -48.45 11.65 -46.85 10.5 -45.7 9.4 -44.6 7.8 -44.6 6.2 -44.6 5.1 -45.7 4.0 -46.85 4.0 -48.45 4.0 -50.0 5.1 -51.15 6.25 -52.25 7.8 -52.25 9.4 -52.25 10.5 -51.15" fill="#2d3c4a" fill-rule="evenodd" stroke="none"/>
      <path d="M5.6 -50.65 Q6.55 -51.55 7.8 -51.55 9.1 -51.55 10.05 -50.65 10.95 -49.75 10.95 -48.45 10.95 -47.15 10.05 -46.2 9.1 -45.3 7.8 -45.3 6.5 -45.3 5.6 -46.2 4.7 -47.15 4.7 -48.45 4.7 -49.7 5.6 -50.65" fill="#586774" fill-rule="evenodd" stroke="none"/>
      <path d="M7.1 -50.75 Q7.85 -50.75 8.35 -50.25 8.85 -49.75 8.85 -49.05 8.85 -48.35 8.35 -47.8 7.85 -47.3 7.1 -47.3 6.4 -47.3 5.85 -47.8 5.35 -48.35 5.35 -49.05 5.35 -49.75 5.85 -50.25 6.4 -50.75 7.1 -50.75" fill="#8ca5bb" fill-rule="evenodd" stroke="none"/>
    </g>
    <linearGradient gradientTransform="matrix(0.0671, 0.0455, 0.0455, -0.0671, 6.9, 8.8)" gradientUnits="userSpaceOnUse" id="gradient2" spreadMethod="pad" x1="-819.2" x2="819.2">
      <stop offset="0.0" stop-color="#936841"/>
      <stop offset="1.0" stop-color="#603b1c"/>
    </linearGradient>
  </defs>
</svg>
