<?xml version="1.0" encoding="UTF-8" standalone="no"?>
<svg xmlns:ffdec="https://www.free-decompiler.com/flash" xmlns:xlink="http://www.w3.org/1999/xlink" ffdec:objectType="frame" height="37.6px" width="68.6px" xmlns="http://www.w3.org/2000/svg">
  <g transform="matrix(1.0, 0.0, 0.0, 1.0, 1.3, 1.3)">
    <use ffdec:characterId="915" height="37.6" transform="matrix(1.0, 0.0, 0.0, 1.0, -1.3, -1.3)" width="68.6" xlink:href="#shape0"/>
    <use ffdec:characterId="959" height="9.5" transform="matrix(0.2054, 0.0, 0.0, 0.2054, 16.7, 23.8)" width="148.5" xlink:href="#sprite0"/>
    <use ffdec:characterId="960" height="13.85" transform="matrix(1.0, 0.0, 0.0, 1.0, 24.75, 8.25)" width="12.1" xlink:href="#shape2"/>
    <use ffdec:characterId="962" height="31.0" transform="matrix(0.2054, 0.0, 0.0, 0.2054, 26.7397, 10.25)" width="20.25" xlink:href="#sprite1"/>
    <use ffdec:characterId="963" height="18.85" transform="matrix(0.2054, 0.0, 0.0, 0.2054, 27.35, 10.85)" width="13.25" xlink:href="#sprite2"/>
    <use ffdec:characterId="965" height="14.9" style="mix-blend-mode: multiply" transform="matrix(0.2054, 0.0, 0.0, 0.2054, 33.2603, 16.5397)" width="9.65" xlink:href="#sprite3"/>
    <use ffdec:characterId="967" height="7.15" style="mix-blend-mode: multiply" transform="matrix(0.2054, 0.0, 0.0, 0.2054, 33.6, 14.7)" width="4.15" xlink:href="#sprite4"/>
    <use ffdec:characterId="969" height="4.65" style="mix-blend-mode: multiply" transform="matrix(0.2054, 0.0, 0.0, 0.2054, 31.4603, 17.9)" width="3.2" xlink:href="#sprite5"/>
    <use ffdec:characterId="971" height="6.05" style="mix-blend-mode: multiply" transform="matrix(0.2054, 0.0, 0.0, 0.2054, 34.3897, 12.95)" width="3.2" xlink:href="#sprite6"/>
    <use ffdec:characterId="972" height="3.05" style="mix-blend-mode: multiply" transform="matrix(0.2054, 0.0, 0.0, 0.2054, 35.1103, 14.95)" width="1.5" xlink:href="#sprite7"/>
    <use ffdec:characterId="973" height="12.65" transform="matrix(1.0, 0.0, 0.0, 1.0, 30.25, 12.15)" width="11.35" xlink:href="#shape8"/>
    <use ffdec:characterId="975" height="14.95" style="mix-blend-mode: multiply" transform="matrix(0.1679, 0.0, 0.0, 0.1679, 35.7916, 21.4)" width="19.7" xlink:href="#sprite8"/>
    <use ffdec:characterId="977" height="8.65" style="mix-blend-mode: multiply" transform="matrix(0.1679, 0.0, 0.0, 0.1679, 37.3416, 19.85)" width="9.05" xlink:href="#sprite9"/>
    <use ffdec:characterId="978" height="5.05" style="mix-blend-mode: multiply" transform="matrix(0.1679, 0.0, 0.0, 0.1679, 35.75, 20.8084)" width="6.2" xlink:href="#sprite10"/>
    <use ffdec:characterId="979" height="8.2" style="mix-blend-mode: multiply" transform="matrix(0.1679, 0.0, 0.0, 0.1679, 39.05, 17.85)" width="5.1" xlink:href="#sprite11"/>
    <use ffdec:characterId="980" height="5.55" style="mix-blend-mode: multiply" transform="matrix(0.1679, 0.0, 0.0, 0.1679, 39.15, 15.7)" width="2.7" xlink:href="#sprite12"/>
    <use ffdec:characterId="982" height="5.25" style="mix-blend-mode: multiply" transform="matrix(0.1679, 0.0, 0.0, 0.1679, 39.05, 20.0416)" width="3.5" xlink:href="#sprite13"/>
    <use ffdec:characterId="983" height="9.7" style="mix-blend-mode: multiply" transform="matrix(0.1679, 0.0, 0.0, 0.1679, 39.4, 20.45)" width="6.6" xlink:href="#sprite14"/>
    <use ffdec:characterId="984" height="3.2" style="mix-blend-mode: multiply" transform="matrix(0.1679, 0.0, 0.0, 0.1679, 34.1416, 23.5)" width="8.2" xlink:href="#sprite15"/>
    <use ffdec:characterId="985" height="5.3" style="mix-blend-mode: multiply" transform="matrix(0.1679, 0.0, 0.0, 0.1679, 33.9416, 22.25)" width="10.0" xlink:href="#sprite16"/>
    <use ffdec:characterId="986" height="5.55" style="mix-blend-mode: multiply" transform="matrix(0.1679, 0.0, 0.0, 0.1679, 40.2, 19.0)" width="3.05" xlink:href="#sprite17"/>
    <use ffdec:characterId="988" height="5.25" style="mix-blend-mode: multiply" transform="matrix(0.1679, 0.0, 0.0, 0.1679, 37.3584, 18.2)" width="4.15" xlink:href="#sprite18"/>
    <use ffdec:characterId="989" height="3.7" style="mix-blend-mode: multiply" transform="matrix(0.1679, 0.0, 0.0, 0.1679, 36.3, 19.75)" width="3.85" xlink:href="#sprite19"/>
    <use ffdec:characterId="990" height="14.45" transform="matrix(1.0, 0.0, 0.0, 1.0, 20.6, 11.3)" width="19.35" xlink:href="#shape13"/>
    <use ffdec:characterId="991" height="20.3" style="mix-blend-mode: multiply" transform="matrix(0.2054, 0.0, 0.0, 0.2054, 30.4397, 18.25)" width="11.4" xlink:href="#sprite20"/>
    <use ffdec:characterId="992" height="10.35" style="mix-blend-mode: multiply" transform="matrix(0.2054, 0.0, 0.0, 0.2054, 29.55, 17.05)" width="5.5" xlink:href="#sprite21"/>
    <use ffdec:characterId="993" height="6.2" style="mix-blend-mode: multiply" transform="matrix(0.2054, 0.0, 0.0, 0.2054, 29.05, 19.8)" width="4.35" xlink:href="#sprite22"/>
    <use ffdec:characterId="995" height="7.25" style="mix-blend-mode: multiply" transform="matrix(0.2054, 0.0, 0.0, 0.2054, 29.2, 14.75)" width="5.5" xlink:href="#sprite23"/>
    <use ffdec:characterId="997" height="3.9" style="mix-blend-mode: multiply" transform="matrix(0.2054, 0.0, 0.0, 0.2054, 27.25, 13.35)" width="4.3" xlink:href="#sprite24"/>
    <use ffdec:characterId="998" height="5.25" style="mix-blend-mode: multiply" transform="matrix(0.2054, 0.0, 0.0, 0.2054, 30.95, 16.4603)" width="2.7" xlink:href="#sprite25"/>
    <use ffdec:characterId="1000" height="9.8" style="mix-blend-mode: multiply" transform="matrix(0.2054, 0.0, 0.0, 0.2054, 31.8, 16.0)" width="5.05" xlink:href="#sprite26"/>
    <use ffdec:characterId="1001" height="6.15" style="mix-blend-mode: multiply" transform="matrix(0.2054, 0.0, 0.0, 0.2054, 30.25, 22.8)" width="5.6" xlink:href="#sprite27"/>
    <use ffdec:characterId="1002" height="8.05" style="mix-blend-mode: multiply" transform="matrix(0.2054, 0.0, 0.0, 0.2054, 28.95, 21.85)" width="7.0" xlink:href="#sprite28"/>
    <use ffdec:characterId="1003" height="5.0" style="mix-blend-mode: multiply" transform="matrix(0.2054, 0.0, 0.0, 0.2054, 30.9, 14.75)" width="3.15" xlink:href="#sprite29"/>
    <use ffdec:characterId="1004" height="5.35" style="mix-blend-mode: multiply" transform="matrix(0.2054, 0.0, 0.0, 0.2054, 28.0, 16.5)" width="3.4" xlink:href="#sprite30"/>
    <use ffdec:characterId="1005" height="4.35" style="mix-blend-mode: multiply" transform="matrix(0.2054, 0.0, 0.0, 0.2054, 28.3, 18.45)" width="2.55" xlink:href="#sprite31"/>
    <use ffdec:characterId="1006" height="10.6" transform="matrix(1.0, 0.0, 0.0, 1.0, 21.25, 13.85)" width="4.45" xlink:href="#shape17"/>
  </g>
  <defs>
    <g id="shape0" transform="matrix(1.0, 0.0, 0.0, 1.0, 1.3, 1.3)">
      <path d="M57.15 35.0 L8.9 35.0 Q5.25 35.0 2.6 32.4 0.0 29.8 0.0 26.1 L0.0 8.95 Q0.0 5.25 2.6 2.6 5.2 0.0 8.9 0.0 L57.15 0.0 Q60.85 0.0 63.4 2.6 66.0 5.25 66.0 8.95 L66.0 26.1 Q66.0 29.8 63.4 32.4 60.8 35.0 57.15 35.0" fill="#d9f0a5" fill-rule="evenodd" stroke="none"/>
      <path d="M57.15 35.0 L8.9 35.0 Q5.25 35.0 2.6 32.4 0.0 29.8 0.0 26.1 L0.0 8.95 Q0.0 5.25 2.6 2.6 5.2 0.0 8.9 0.0 L57.15 0.0 Q60.85 0.0 63.4 2.6 66.0 5.25 66.0 8.95 L66.0 26.1 Q66.0 29.8 63.4 32.4 60.8 35.0 57.15 35.0" fill="#d9f0a5" fill-rule="evenodd" stroke="none"/>
      <path d="M57.15 35.0 L8.9 35.0 Q5.25 35.0 2.6 32.4 0.0 29.8 0.0 26.1 L0.0 8.95 Q0.0 5.25 2.6 2.6 5.2 0.0 8.9 0.0 L57.15 0.0 Q60.85 0.0 63.4 2.6 66.0 5.25 66.0 8.95 L66.0 26.1 Q66.0 29.8 63.4 32.4 60.8 35.0 57.15 35.0" fill="url(#gradient0)" fill-rule="evenodd" stroke="none"/>
      <path d="M57.15 35.0 L8.9 35.0 Q5.25 35.0 2.6 32.4 0.0 29.8 0.0 26.1 L0.0 8.95 Q0.0 5.25 2.6 2.6 5.2 0.0 8.9 0.0 L57.15 0.0 Q60.85 0.0 63.4 2.6 66.0 5.25 66.0 8.95 L66.0 26.1 Q66.0 29.8 63.4 32.4 60.8 35.0 57.15 35.0 Z" fill="none" stroke="url(#gradient1)" stroke-linecap="square" stroke-linejoin="miter-clip" stroke-miterlimit="3.0" stroke-width="2.0"/>
    </g>
    <linearGradient gradientTransform="matrix(0.0403, 0.0, 0.0, 0.0214, 33.0, 17.5)" gradientUnits="userSpaceOnUse" id="gradient0" spreadMethod="pad" x1="-819.2" x2="819.2">
      <stop offset="0.0" stop-color="#55740f"/>
      <stop offset="1.0" stop-color="#d9f0a5"/>
    </linearGradient>
    <linearGradient gradientTransform="matrix(0.0415, 0.0, 0.0, 0.0226, 33.0, 17.5)" gradientUnits="userSpaceOnUse" id="gradient1" spreadMethod="pad" x1="-819.2" x2="819.2">
      <stop offset="0.0" stop-color="#ffffff"/>
      <stop offset="1.0" stop-color="#ffffff" stop-opacity="0.0"/>
    </linearGradient>
    <g id="sprite0" transform="matrix(1.0, 0.0, 0.0, 1.0, 0.0, 0.0)">
      <use ffdec:characterId="909" height="9.5" transform="matrix(1.0, 0.0, 0.0, 1.0, 0.0, 0.0)" width="148.5" xlink:href="#shape1"/>
    </g>
    <g id="shape1" transform="matrix(1.0, 0.0, 0.0, 1.0, 0.0, 0.0)">
      <path d="M148.5 4.7 Q148.5 6.7 126.75 8.1 105.0 9.5 74.25 9.5 43.5 9.5 21.75 8.1 0.0 6.7 0.0 4.7 0.0 2.8 21.75 1.4 43.6 0.0 74.25 0.0 104.9 0.0 126.75 1.4 148.5 2.8 148.5 4.7" fill="#000000" fill-rule="evenodd" stroke="none"/>
    </g>
    <g id="shape2" transform="matrix(1.0, 0.0, 0.0, 1.0, -24.75, -8.25)">
      <path d="M35.55 12.0 Q36.7 14.1 36.7 16.1 L36.25 18.3 35.05 20.15 33.15 21.5 30.8 22.0 28.55 21.55 Q26.9 20.9 25.9 19.4 24.85 17.9 24.85 16.1 24.85 13.45 26.6 11.0 28.45 8.35 30.8 8.35 L31.1 8.4 Q31.9 8.45 32.7 8.9 34.4 9.85 35.55 12.0" fill="url(#gradient2)" fill-rule="evenodd" stroke="none"/>
      <path d="M36.65 17.5 Q36.35 18.7 35.55 19.75 34.8 20.8 33.65 21.4 32.55 22.0 31.25 22.1 L28.75 21.75 Q27.55 21.35 26.6 20.45 25.65 19.55 25.2 18.35 24.7 17.15 24.75 15.9 24.8 14.7 25.25 13.45 25.65 12.2 26.35 11.2 27.1 10.05 28.05 9.3 29.15 8.45 30.3 8.3 L30.6 8.25 30.95 8.25 31.55 8.35 32.75 8.8 Q33.75 9.35 34.65 10.45 L36.0 12.55 36.75 14.95 Q36.95 16.3 36.65 17.5 M34.45 10.6 Q33.6 9.55 32.65 9.0 32.1 8.7 31.55 8.55 L30.9 8.45 30.35 8.5 Q29.15 8.65 28.15 9.45 27.25 10.15 26.5 11.3 L25.45 13.5 Q25.0 14.75 25.0 15.9 24.95 17.15 25.4 18.25 25.85 19.4 26.75 20.25 L28.85 21.55 31.2 21.85 Q32.45 21.75 33.5 21.15 34.6 20.6 35.35 19.6 36.1 18.6 36.4 17.4 36.65 16.25 36.45 15.0 L35.75 12.7 34.45 10.6" fill="#867e61" fill-rule="evenodd" stroke="none"/>
    </g>
    <radialGradient cx="0" cy="0" gradientTransform="matrix(-0.0122, -0.0012, -0.0015, 0.0149, 34.95, 15.4)" gradientUnits="userSpaceOnUse" id="gradient2" r="819.2" spreadMethod="pad">
      <stop offset="0.0" stop-color="#b7a36a"/>
      <stop offset="1.0" stop-color="#feecb6"/>
    </radialGradient>
    <g id="sprite1" transform="matrix(1.0, 0.0, 0.0, 1.0, 0.05, 0.0)">
      <use ffdec:characterId="961" height="18.85" transform="matrix(1.5283, 0.0, 0.0, 1.6446, -0.05, 0.0)" width="13.25" xlink:href="#shape3"/>
    </g>
    <g id="shape3" transform="matrix(1.0, 0.0, 0.0, 1.0, 0.0, 0.0)">
      <path d="M12.9 10.75 Q12.1 14.6 9.65 16.95 7.2 19.3 4.6 18.75 2.0 18.2 0.75 15.1 -0.5 11.95 0.3 8.1 1.1 4.25 3.55 1.9 5.95 -0.45 8.55 0.1 11.2 0.65 12.45 3.8 13.75 6.9 12.9 10.75" fill="#ffffff" fill-rule="evenodd" stroke="none"/>
    </g>
    <g id="sprite2" transform="matrix(1.0, 0.0, 0.0, 1.0, 0.0, 0.0)">
      <use ffdec:characterId="961" height="18.85" transform="matrix(1.0, 0.0, 0.0, 1.0, 0.0, 0.0)" width="13.25" xlink:href="#shape3"/>
    </g>
    <g id="sprite3" transform="matrix(1.0, 0.0, 0.0, 1.0, -0.05, 0.05)">
      <use ffdec:characterId="964" height="8.2" transform="matrix(1.8922, 0.0, 0.0, 1.8171, 0.05, -0.05)" width="5.1" xlink:href="#shape4"/>
    </g>
    <g id="shape4" transform="matrix(1.0, 0.0, 0.0, 1.0, 0.0, 0.0)">
      <path d="M4.7 4.85 Q4.15 6.5 3.1 7.45 2.05 8.45 1.2 8.1 0.3 7.8 0.05 6.4 -0.15 5.0 0.4 3.3 0.95 1.65 2.0 0.7 3.0 -0.25 3.9 0.05 4.75 0.35 5.0 1.75 5.25 3.15 4.7 4.85" fill="#1a1a1a" fill-rule="evenodd" stroke="none"/>
    </g>
    <g id="sprite4" transform="matrix(1.0, 0.0, 0.0, 1.0, 0.0, 0.0)">
      <use ffdec:characterId="966" height="20.3" transform="matrix(0.364, 0.0, 0.0, 0.3522, -0.0182, 0.0)" width="11.4" xlink:href="#shape5"/>
    </g>
    <g id="shape5" transform="matrix(1.0, 0.0, 0.0, 1.0, 0.05, 0.0)">
      <path d="M11.0 11.15 Q10.25 15.3 8.15 18.0 6.0 20.65 3.8 20.25 1.6 19.9 0.55 16.6 -0.5 13.35 0.3 9.2 1.05 5.0 3.15 2.35 5.25 -0.3 7.5 0.05 9.7 0.45 10.75 3.7 11.8 6.95 11.0 11.15" fill="#1a1a1a" fill-rule="evenodd" stroke="none"/>
    </g>
    <g id="sprite5" transform="matrix(1.0, 0.0, 0.0, 1.0, -0.05, 0.0)">
      <use ffdec:characterId="968" height="9.7" transform="matrix(0.4848, 0.0, 0.0, 0.4794, 0.05, 0.0)" width="6.6" xlink:href="#shape6"/>
    </g>
    <g id="shape6" transform="matrix(1.0, 0.0, 0.0, 1.0, 0.0, 0.0)">
      <path d="M5.15 6.0 Q4.0 7.95 2.65 9.0 1.35 10.0 0.55 9.55 -0.2 9.05 0.05 7.35 0.35 5.65 1.5 3.7 2.6 1.75 3.95 0.75 5.3 -0.3 6.05 0.15 6.8 0.65 6.55 2.35 6.3 4.05 5.15 6.0" fill="#1a1a1a" fill-rule="evenodd" stroke="none"/>
    </g>
    <g id="sprite6" transform="matrix(1.0, 0.0, 0.0, 1.0, 0.05, 0.0)">
      <use ffdec:characterId="970" height="5.35" transform="matrix(0.9412, 0.0, 0.0, 1.1308, -0.05, 0.0)" width="3.4" xlink:href="#shape7"/>
    </g>
    <g id="shape7" transform="matrix(1.0, 0.0, 0.0, 1.0, 0.0, 0.0)">
      <path d="M3.2 2.3 Q3.55 3.4 3.3 4.25 3.1 5.15 2.5 5.3 1.85 5.5 1.2 4.85 0.55 4.2 0.2 3.05 -0.15 1.95 0.05 1.1 0.25 0.2 0.9 0.05 1.55 -0.1 2.2 0.55 2.85 1.2 3.2 2.3" fill="#1a1a1a" fill-rule="evenodd" stroke="none"/>
    </g>
    <g id="sprite7" transform="matrix(1.0, 0.0, 0.0, 1.0, -0.05, 0.0)">
      <use ffdec:characterId="966" height="20.3" transform="matrix(0.1316, 0.0, 0.0, 0.1503, 0.0434, 0.0)" width="11.4" xlink:href="#shape5"/>
    </g>
    <g id="shape8" transform="matrix(1.0, 0.0, 0.0, 1.0, -30.25, -12.15)">
      <path d="M40.1 13.6 Q41.2 15.0 41.45 17.3 41.7 19.5 41.0 21.25 L39.85 23.0 38.15 24.2 36.05 24.65 33.8 24.25 Q32.8 23.85 32.05 23.15 30.85 21.95 30.5 20.35 30.1 18.7 30.75 17.1 31.7 14.8 34.05 13.3 36.6 11.65 38.6 12.45 L38.9 12.6 40.1 13.6" fill="url(#gradient3)" fill-rule="evenodd" stroke="none"/>
      <path d="M39.2 12.9 L38.7 12.6 38.45 12.5 38.15 12.4 35.9 12.5 Q34.9 12.8 33.85 13.5 L32.15 15.05 30.95 16.95 Q30.45 18.0 30.45 19.15 30.45 20.3 30.95 21.4 31.4 22.45 32.3 23.2 33.15 23.95 34.25 24.3 L36.5 24.5 38.65 23.8 40.3 22.3 Q40.95 21.4 41.2 20.2 L41.4 17.95 41.05 15.7 Q40.65 14.5 40.0 13.65 L39.2 12.9 M40.15 13.55 Q40.85 14.4 41.25 15.65 L41.6 17.95 41.4 20.25 Q41.15 21.5 40.5 22.4 39.8 23.4 38.75 24.0 37.7 24.6 36.5 24.75 L34.2 24.5 Q33.0 24.15 32.15 23.35 31.25 22.55 30.75 21.45 30.25 20.35 30.25 19.15 30.25 17.95 30.75 16.9 31.2 15.85 32.05 14.95 L33.8 13.35 Q34.8 12.65 35.9 12.35 L38.2 12.25 38.5 12.35 38.8 12.45 39.3 12.75 40.15 13.55" fill="#5f3817" fill-rule="evenodd" stroke="none"/>
    </g>
    <radialGradient cx="0" cy="0" gradientTransform="matrix(-0.0101, -0.0054, -0.0065, 0.0123, 39.75, 20.0)" gradientUnits="userSpaceOnUse" id="gradient3" r="819.2" spreadMethod="pad">
      <stop offset="0.0" stop-color="#a47632"/>
      <stop offset="1.0" stop-color="#e2c698"/>
    </radialGradient>
    <g id="sprite8" transform="matrix(1.0, 0.0, 0.0, 1.0, 0.05, 0.0)">
      <use ffdec:characterId="974" height="14.95" transform="matrix(1.0, 0.0, 0.0, 1.0, -0.05, 0.0)" width="19.7" xlink:href="#shape9"/>
    </g>
    <g id="shape9" transform="matrix(1.0, 0.0, 0.0, 1.0, 0.05, 0.0)">
      <path d="M12.8 12.45 Q8.95 14.75 5.3 14.95 1.7 15.15 0.45 13.1 -0.8 11.05 1.1 7.95 2.95 4.8 6.85 2.5 10.7 0.2 14.35 0.0 17.95 -0.2 19.2 1.85 20.4 3.9 18.55 7.0 16.65 10.15 12.8 12.45" fill="#1a1a1a" fill-rule="evenodd" stroke="none"/>
    </g>
    <g id="sprite9" transform="matrix(1.0, 0.0, 0.0, 1.0, 0.05, 0.0)">
      <use ffdec:characterId="976" height="8.65" transform="matrix(1.0, 0.0, 0.0, 1.0, -0.05, 0.0)" width="9.05" xlink:href="#shape10"/>
    </g>
    <g id="shape10" transform="matrix(1.0, 0.0, 0.0, 1.0, 0.05, 0.0)">
      <path d="M6.4 6.55 Q4.7 8.1 2.95 8.5 1.2 8.95 0.4 8.0 -0.4 7.1 0.25 5.35 0.9 3.65 2.6 2.05 4.3 0.55 6.05 0.15 7.8 -0.3 8.6 0.65 9.35 1.55 8.7 3.3 8.1 5.0 6.4 6.55" fill="#1a1a1a" fill-rule="evenodd" stroke="none"/>
    </g>
    <g id="sprite10" transform="matrix(1.0, 0.0, 0.0, 1.0, 0.0, -0.05)">
      <use ffdec:characterId="966" height="20.3" transform="matrix(0.5439, 0.0, 0.0, 0.2488, 0.0228, 0.05)" width="11.4" xlink:href="#shape5"/>
    </g>
    <g id="sprite11" transform="matrix(1.0, 0.0, 0.0, 1.0, 0.0, 0.0)">
      <use ffdec:characterId="964" height="8.2" transform="matrix(1.0, 0.0, 0.0, 1.0, 0.0, 0.0)" width="5.1" xlink:href="#shape4"/>
    </g>
    <g id="sprite12" transform="matrix(1.0, 0.0, 0.0, 1.0, 0.0, 0.0)">
      <use ffdec:characterId="966" height="20.3" transform="matrix(0.2368, 0.0, 0.0, 0.2734, -0.0118, 0.0)" width="11.4" xlink:href="#shape5"/>
    </g>
    <g id="sprite13" transform="matrix(1.0, 0.0, 0.0, 1.0, 0.0, 0.05)">
      <use ffdec:characterId="981" height="6.15" transform="matrix(0.6283, 0.0, 0.0, 0.8537, 0.0, -0.05)" width="5.6" xlink:href="#shape11"/>
    </g>
    <g id="shape11" transform="matrix(1.0, 0.0, 0.0, 1.0, 0.0, 0.0)">
      <path d="M3.9 4.15 Q2.85 5.3 1.8 5.85 L0.25 5.95 Q-0.25 5.5 0.2 4.35 0.6 3.2 1.7 2.0 2.75 0.85 3.85 0.3 L5.4 0.2 Q5.85 0.65 5.4 1.8 5.0 2.95 3.9 4.15" fill="#1a1a1a" fill-rule="evenodd" stroke="none"/>
    </g>
    <g id="sprite14" transform="matrix(1.0, 0.0, 0.0, 1.0, 0.0, 0.0)">
      <use ffdec:characterId="968" height="9.7" transform="matrix(1.0, 0.0, 0.0, 1.0, 0.0, 0.0)" width="6.6" xlink:href="#shape6"/>
    </g>
    <g id="sprite15" transform="matrix(1.0, 0.0, 0.0, 1.0, 0.05, 0.0)">
      <use ffdec:characterId="966" height="20.3" transform="matrix(0.7193, 0.0, 0.0, 0.1576, -0.036, 0.0)" width="11.4" xlink:href="#shape5"/>
    </g>
    <g id="sprite16" transform="matrix(1.0, 0.0, 0.0, 1.0, 0.05, 0.0)">
      <use ffdec:characterId="966" height="20.3" transform="matrix(0.8772, 0.0, 0.0, 0.2611, -0.0439, 0.0)" width="11.4" xlink:href="#shape5"/>
    </g>
    <g id="sprite17" transform="matrix(1.0, 0.0, 0.0, 1.0, 0.0, 0.0)">
      <use ffdec:characterId="968" height="9.7" transform="matrix(0.4621, 0.0, 0.0, 0.5722, 0.0, 0.0)" width="6.6" xlink:href="#shape6"/>
    </g>
    <g id="sprite18" transform="matrix(1.0, 0.0, 0.0, 1.0, -0.05, 0.0)">
      <use ffdec:characterId="987" height="8.05" transform="matrix(0.5928, 0.0, 0.0, 0.6543, 0.05, 0.0)" width="7.0" xlink:href="#shape12"/>
    </g>
    <g id="shape12" transform="matrix(1.0, 0.0, 0.0, 1.0, 0.0, 0.0)">
      <path d="M5.4 5.65 Q4.2 7.15 2.8 7.75 1.4 8.4 0.6 7.75 -0.2 7.1 0.05 5.55 0.35 4.0 1.6 2.45 2.8 0.9 4.25 0.3 L6.45 0.35 Q7.2 1.05 6.9 2.55 6.6 4.1 5.4 5.65" fill="#1a1a1a" fill-rule="evenodd" stroke="none"/>
    </g>
    <g id="sprite19" transform="matrix(1.0, 0.0, 0.0, 1.0, 0.0, 0.0)">
      <use ffdec:characterId="987" height="8.05" transform="matrix(0.55, 0.0, 0.0, 0.4568, 0.0, 0.0)" width="7.0" xlink:href="#shape12"/>
    </g>
    <g id="shape13" transform="matrix(1.0, 0.0, 0.0, 1.0, -20.6, -11.3)">
      <path d="M31.65 18.25 L31.5 18.5 31.35 18.55 31.2 18.4 31.2 18.15 31.3 17.9 31.5 17.8 31.6 17.95 31.65 18.25" fill="#ecdbbf" fill-rule="evenodd" stroke="none"/>
      <path d="M32.0 16.4 L31.8 16.7 31.6 16.75 31.5 16.55 31.6 16.2 31.85 15.9 32.05 15.8 32.1 16.05 32.0 16.4" fill="#ecdbbf" fill-rule="evenodd" stroke="none"/>
      <path d="M33.7 16.15 L33.3 16.45 33.0 16.4 32.9 16.05 33.15 15.65 33.55 15.35 33.85 15.35 33.95 15.7 33.7 16.15" fill="#ecdbbf" fill-rule="evenodd" stroke="none"/>
      <path d="M36.25 14.8 L36.05 14.95 35.8 14.9 35.7 14.65 35.85 14.4 36.05 14.2 36.3 14.3 36.4 14.5 36.25 14.8" fill="#ecdbbf" fill-rule="evenodd" stroke="none"/>
      <path d="M36.75 14.2 L36.3 14.4 35.95 14.25 Q35.8 14.1 35.9 13.85 L36.15 13.45 36.6 13.25 37.0 13.35 37.05 13.75 36.75 14.2" fill="#ecdbbf" fill-rule="evenodd" stroke="none"/>
      <path d="M33.6 14.6 L33.35 14.85 33.1 14.9 33.1 14.65 33.25 14.35 33.55 14.1 33.75 14.05 33.75 14.3 33.6 14.6" fill="#ecdbbf" fill-rule="evenodd" stroke="none"/>
      <path d="M34.7 13.95 L34.3 14.15 34.05 14.1 34.1 13.8 34.45 13.5 34.85 13.3 35.1 13.35 35.05 13.6 34.7 13.95" fill="#ecdbbf" fill-rule="evenodd" stroke="none"/>
      <path d="M31.75 20.1 L31.7 20.7 31.5 20.95 31.2 20.75 31.05 20.15 Q31.0 19.8 31.1 19.55 L31.35 19.3 31.6 19.5 31.75 20.1" fill="#ecdbbf" fill-rule="evenodd" stroke="none"/>
      <path d="M32.8 18.4 L32.35 19.05 31.85 19.2 Q31.6 19.15 31.55 18.75 L31.6 17.95 32.05 17.25 Q32.35 17.0 32.6 17.05 L32.9 17.55 32.8 18.4" fill="#ecdbbf" fill-rule="evenodd" stroke="none"/>
      <path d="M38.95 14.0 Q39.25 13.9 39.1 13.4 L38.8 12.85 38.8 12.65 Q38.95 12.5 39.05 12.65 L39.45 13.3 Q39.65 13.8 39.45 14.05 L39.0 14.35 38.45 14.65 Q37.85 15.0 38.45 15.5 L38.95 15.9 38.95 16.45 38.7 17.15 Q38.45 17.65 38.15 17.6 L37.7 17.6 37.35 17.75 37.1 17.85 36.8 17.85 36.25 17.8 Q35.85 17.75 35.85 17.95 L35.95 18.25 36.25 18.45 36.65 18.9 36.7 19.45 36.35 21.55 36.2 21.65 36.1 21.5 36.3 20.3 36.3 19.1 Q36.25 18.9 35.8 18.7 L35.4 18.25 Q35.35 17.4 36.1 17.45 L36.75 17.45 Q37.15 17.45 37.4 17.25 L37.75 17.2 38.35 16.95 38.6 16.35 38.2 15.8 37.65 15.25 Q37.5 14.85 38.2 14.4 L38.95 14.0" fill="#5f3817" fill-rule="evenodd" stroke="none"/>
      <path d="M39.5 13.35 L39.85 13.55 39.95 14.15 39.7 14.5 38.95 14.75 Q38.4 15.0 38.5 15.15 L39.05 15.75 39.35 16.5 39.2 17.1 38.9 17.65 38.5 18.0 37.95 18.05 37.55 18.15 37.2 18.3 36.5 18.2 36.95 18.55 37.05 18.95 Q36.9 19.4 36.9 20.4 L36.75 21.85 36.55 21.95 36.4 21.75 36.6 20.4 36.65 19.05 36.3 18.55 35.8 18.15 35.75 18.0 35.9 17.85 Q36.2 17.7 36.55 17.85 L37.45 17.75 37.6 17.65 37.9 17.65 38.5 17.55 38.8 17.0 Q39.0 16.5 38.75 16.05 L38.1 15.25 38.1 15.05 38.65 14.55 39.3 14.15 39.45 14.05 39.55 13.85 39.5 13.6 39.45 13.3 39.5 13.35" fill="#ecdbbf" fill-rule="evenodd" stroke="none"/>
      <path d="M29.95 13.05 Q32.0 14.5 32.95 16.4 33.55 17.55 33.65 18.75 33.7 19.95 33.35 21.15 33.0 22.35 32.2 23.35 L30.15 24.95 27.8 25.6 Q25.9 25.75 24.25 24.85 22.5 23.9 21.65 22.1 20.35 19.6 20.85 16.4 21.35 12.95 23.55 11.85 L23.9 11.7 25.7 11.45 Q27.75 11.5 29.95 13.05" fill="url(#gradient4)" fill-rule="evenodd" stroke="none"/>
      <path d="M28.2 12.2 Q26.85 11.6 25.7 11.55 L24.4 11.65 23.75 11.85 23.5 12.0 23.2 12.15 Q22.15 12.85 21.55 14.15 21.05 15.35 20.9 16.7 20.75 18.05 20.9 19.35 21.1 20.8 21.65 21.9 22.2 23.15 23.2 23.95 24.2 24.85 25.45 25.2 L28.05 25.45 Q29.35 25.3 30.5 24.6 31.65 23.9 32.4 22.8 33.15 21.75 33.4 20.45 33.65 19.1 33.35 17.85 33.1 16.6 32.25 15.5 L30.45 13.6 28.2 12.2 M33.6 17.8 Q33.95 19.1 33.65 20.5 33.4 21.85 32.65 23.0 31.85 24.1 30.65 24.85 29.45 25.55 28.1 25.7 L25.4 25.45 Q24.05 25.05 23.05 24.15 22.0 23.25 21.4 22.0 20.9 20.8 20.7 19.4 20.55 18.05 20.7 16.7 20.9 15.25 21.4 14.1 22.05 12.75 23.1 12.0 L23.4 11.85 Q23.6 11.7 23.7 11.7 L24.35 11.45 25.7 11.3 Q27.0 11.35 28.3 11.95 L30.6 13.4 32.45 15.3 Q33.3 16.5 33.6 17.8" fill="#867e61" fill-rule="evenodd" stroke="none"/>
    </g>
    <radialGradient cx="0" cy="0" gradientTransform="matrix(-0.0123, 0.0047, 0.0057, 0.015, 30.95, 16.6)" gradientUnits="userSpaceOnUse" id="gradient4" r="819.2" spreadMethod="pad">
      <stop offset="0.0" stop-color="#b7a36a"/>
      <stop offset="1.0" stop-color="#feecb6"/>
    </radialGradient>
    <g id="sprite20" transform="matrix(1.0, 0.0, 0.0, 1.0, 0.05, 0.0)">
      <use ffdec:characterId="966" height="20.3" transform="matrix(1.0, 0.0, 0.0, 1.0, -0.05, 0.0)" width="11.4" xlink:href="#shape5"/>
    </g>
    <g id="sprite21" transform="matrix(1.0, 0.0, 0.0, 1.0, 0.0, 0.0)">
      <use ffdec:characterId="966" height="20.3" transform="matrix(0.4825, 0.0, 0.0, 0.5099, -0.0241, 0.0)" width="11.4" xlink:href="#shape5"/>
    </g>
    <g id="sprite22" transform="matrix(1.0, 0.0, 0.0, 1.0, 0.0, 0.0)">
      <use ffdec:characterId="966" height="20.3" transform="matrix(0.3816, 0.0, 0.0, 0.3054, -0.0191, 0.0)" width="11.4" xlink:href="#shape5"/>
    </g>
    <g id="sprite23" transform="matrix(1.0, 0.0, 0.0, 1.0, 0.0, 0.0)">
      <use ffdec:characterId="994" height="7.25" transform="matrix(1.0, 0.0, 0.0, 1.0, 0.0, 0.0)" width="5.5" xlink:href="#shape14"/>
    </g>
    <g id="shape14" transform="matrix(1.0, 0.0, 0.0, 1.0, 0.0, 0.0)">
      <path d="M4.65 2.6 Q5.45 4.0 5.5 5.35 5.55 6.65 4.8 7.1 4.0 7.5 2.85 6.8 1.7 6.1 0.9 4.65 0.05 3.2 0.0 1.9 -0.05 0.6 0.75 0.15 1.55 -0.25 2.65 0.45 3.8 1.15 4.65 2.6" fill="#1a1a1a" fill-rule="evenodd" stroke="none"/>
    </g>
    <g id="sprite24" transform="matrix(1.0, 0.0, 0.0, 1.0, 0.0, 0.0)">
      <use ffdec:characterId="996" height="3.9" transform="matrix(1.0, 0.0, 0.0, 1.0, 0.0, 0.0)" width="4.3" xlink:href="#shape15"/>
    </g>
    <g id="shape15" transform="matrix(1.0, 0.0, 0.0, 1.0, 0.0, 0.0)">
      <path d="M2.95 0.95 Q3.75 1.65 4.1 2.45 4.45 3.25 4.15 3.65 3.8 4.05 3.0 3.85 2.15 3.65 1.35 2.95 L0.2 1.45 Q-0.15 0.65 0.2 0.25 0.5 -0.15 1.3 0.05 2.15 0.25 2.95 0.95" fill="#1a1a1a" fill-rule="evenodd" stroke="none"/>
    </g>
    <g id="sprite25" transform="matrix(1.0, 0.0, 0.0, 1.0, 0.0, -0.05)">
      <use ffdec:characterId="970" height="5.35" transform="matrix(0.7941, 0.0, 0.0, 0.9813, 0.0, 0.05)" width="3.4" xlink:href="#shape7"/>
    </g>
    <g id="sprite26" transform="matrix(1.0, 0.0, 0.0, 1.0, 0.0, 0.0)">
      <use ffdec:characterId="999" height="9.8" transform="matrix(1.0, 0.0, 0.0, 1.0, 0.0, 0.0)" width="5.05" xlink:href="#shape16"/>
    </g>
    <g id="shape16" transform="matrix(1.0, 0.0, 0.0, 1.0, 0.0, 0.0)">
      <path d="M4.45 4.35 Q5.1 6.35 5.05 7.95 4.95 9.55 4.15 9.75 3.3 10.0 2.3 8.75 1.25 7.5 0.6 5.5 -0.05 3.5 0.0 1.9 0.1 0.3 0.9 0.05 1.7 -0.15 2.75 1.1 3.75 2.3 4.45 4.35" fill="#1a1a1a" fill-rule="evenodd" stroke="none"/>
    </g>
    <g id="sprite27" transform="matrix(1.0, 0.0, 0.0, 1.0, 0.0, 0.0)">
      <use ffdec:characterId="981" height="6.15" transform="matrix(1.0, 0.0, 0.0, 1.0, 0.0, 0.0)" width="5.6" xlink:href="#shape11"/>
    </g>
    <g id="sprite28" transform="matrix(1.0, 0.0, 0.0, 1.0, 0.0, 0.0)">
      <use ffdec:characterId="987" height="8.05" transform="matrix(1.0, 0.0, 0.0, 1.0, 0.0, 0.0)" width="7.0" xlink:href="#shape12"/>
    </g>
    <g id="sprite29" transform="matrix(1.0, 0.0, 0.0, 1.0, 0.0, 0.0)">
      <use ffdec:characterId="999" height="9.8" transform="matrix(0.6238, 0.0, 0.0, 0.5102, 0.0, 0.0)" width="5.05" xlink:href="#shape16"/>
    </g>
    <g id="sprite30" transform="matrix(1.0, 0.0, 0.0, 1.0, 0.0, 0.0)">
      <use ffdec:characterId="970" height="5.35" transform="matrix(1.0, 0.0, 0.0, 1.0, 0.0, 0.0)" width="3.4" xlink:href="#shape7"/>
    </g>
    <g id="sprite31" transform="matrix(1.0, 0.0, 0.0, 1.0, 0.0, 0.0)">
      <use ffdec:characterId="966" height="20.3" transform="matrix(0.2237, 0.0, 0.0, 0.2143, -0.0112, 0.0)" width="11.4" xlink:href="#shape5"/>
    </g>
    <g id="shape17" transform="matrix(1.0, 0.0, 0.0, 1.0, -21.25, -13.85)">
      <path d="M23.4 22.2 L23.55 22.45 23.45 22.7 23.25 22.7 23.0 22.5 22.85 22.2 Q22.8 22.05 22.9 22.0 L23.15 22.0 23.4 22.2" fill="#feedb9" fill-rule="evenodd" stroke="none"/>
      <path d="M22.1 20.45 L22.15 20.9 22.05 21.1 21.8 21.0 21.6 20.65 21.5 20.2 21.65 20.0 21.85 20.1 22.1 20.45" fill="#feedb9" fill-rule="evenodd" stroke="none"/>
      <path d="M23.15 18.8 L23.1 19.35 22.85 19.6 22.5 19.4 22.3 18.9 Q22.25 18.55 22.35 18.3 L22.6 18.05 Q22.8 18.05 22.95 18.25 L23.15 18.8" fill="#feedb9" fill-rule="evenodd" stroke="none"/>
      <path d="M23.95 15.55 L23.9 15.9 23.65 16.05 23.4 15.95 23.25 15.65 Q23.2 15.45 23.3 15.3 L23.5 15.15 23.75 15.25 23.95 15.55" fill="#feedb9" fill-rule="evenodd" stroke="none"/>
      <path d="M23.75 14.7 L23.6 15.25 23.25 15.45 Q23.0 15.45 22.85 15.2 L22.7 14.65 Q22.7 14.3 22.85 14.1 23.0 13.85 23.25 13.85 L23.6 14.1 23.75 14.7" fill="#feedb9" fill-rule="evenodd" stroke="none"/>
      <path d="M21.75 17.75 L21.75 18.15 21.65 18.35 21.4 18.2 21.3 17.8 21.25 17.4 21.4 17.2 21.6 17.35 21.75 17.75" fill="#feedb9" fill-rule="evenodd" stroke="none"/>
      <path d="M22.0 16.25 L21.9 16.75 21.65 16.95 21.45 16.7 21.4 16.15 21.55 15.65 21.8 15.5 22.0 15.7 22.0 16.25" fill="#feedb9" fill-rule="evenodd" stroke="none"/>
      <path d="M25.1 23.5 L25.6 24.0 25.65 24.35 25.25 24.45 24.6 24.15 24.1 23.65 24.05 23.25 24.5 23.2 25.1 23.5" fill="#feedb9" fill-rule="evenodd" stroke="none"/>
      <path d="M24.4 21.3 L24.65 22.2 24.4 22.75 23.75 22.65 23.15 21.95 Q22.85 21.5 22.85 21.05 22.85 20.6 23.1 20.5 L23.75 20.6 24.4 21.3" fill="#feedb9" fill-rule="evenodd" stroke="none"/>
    </g>
  </defs>
</svg>
