<?xml version="1.0" encoding="UTF-8" standalone="no"?>
<svg xmlns:ffdec="https://www.free-decompiler.com/flash" xmlns:xlink="http://www.w3.org/1999/xlink" ffdec:objectType="frame" height="37.6px" width="68.6px" xmlns="http://www.w3.org/2000/svg">
  <g transform="matrix(1.0, 0.0, 0.0, 1.0, 1.3, 1.3)">
    <use ffdec:characterId="915" height="37.6" transform="matrix(1.0, 0.0, 0.0, 1.0, -1.3, -1.3)" width="68.6" xlink:href="#shape0"/>
    <use ffdec:characterId="1010" height="38.35" id="ShopDecorative" transform="matrix(0.5076, 0.0, 0.0, 0.5158, 13.7559, 6.884)" width="56.9" xlink:href="#sprite0"/>
  </g>
  <defs>
    <g id="shape0" transform="matrix(1.0, 0.0, 0.0, 1.0, 1.3, 1.3)">
      <path d="M57.15 35.0 L8.9 35.0 Q5.25 35.0 2.6 32.4 0.0 29.8 0.0 26.1 L0.0 8.95 Q0.0 5.25 2.6 2.6 5.2 0.0 8.9 0.0 L57.15 0.0 Q60.85 0.0 63.4 2.6 66.0 5.25 66.0 8.95 L66.0 26.1 Q66.0 29.8 63.4 32.4 60.8 35.0 57.15 35.0" fill="#d9f0a5" fill-rule="evenodd" stroke="none"/>
      <path d="M57.15 35.0 L8.9 35.0 Q5.25 35.0 2.6 32.4 0.0 29.8 0.0 26.1 L0.0 8.95 Q0.0 5.25 2.6 2.6 5.2 0.0 8.9 0.0 L57.15 0.0 Q60.85 0.0 63.4 2.6 66.0 5.25 66.0 8.95 L66.0 26.1 Q66.0 29.8 63.4 32.4 60.8 35.0 57.15 35.0" fill="#d9f0a5" fill-rule="evenodd" stroke="none"/>
      <path d="M57.15 35.0 L8.9 35.0 Q5.25 35.0 2.6 32.4 0.0 29.8 0.0 26.1 L0.0 8.95 Q0.0 5.25 2.6 2.6 5.2 0.0 8.9 0.0 L57.15 0.0 Q60.85 0.0 63.4 2.6 66.0 5.25 66.0 8.95 L66.0 26.1 Q66.0 29.8 63.4 32.4 60.8 35.0 57.15 35.0" fill="url(#gradient0)" fill-rule="evenodd" stroke="none"/>
      <path d="M57.15 35.0 L8.9 35.0 Q5.25 35.0 2.6 32.4 0.0 29.8 0.0 26.1 L0.0 8.95 Q0.0 5.25 2.6 2.6 5.2 0.0 8.9 0.0 L57.15 0.0 Q60.85 0.0 63.4 2.6 66.0 5.25 66.0 8.95 L66.0 26.1 Q66.0 29.8 63.4 32.4 60.8 35.0 57.15 35.0 Z" fill="none" stroke="url(#gradient1)" stroke-linecap="square" stroke-linejoin="miter-clip" stroke-miterlimit="3.0" stroke-width="2.0"/>
    </g>
    <linearGradient gradientTransform="matrix(0.0403, 0.0, 0.0, 0.0214, 33.0, 17.5)" gradientUnits="userSpaceOnUse" id="gradient0" spreadMethod="pad" x1="-819.2" x2="819.2">
      <stop offset="0.0" stop-color="#55740f"/>
      <stop offset="1.0" stop-color="#d9f0a5"/>
    </linearGradient>
    <linearGradient gradientTransform="matrix(0.0415, 0.0, 0.0, 0.0226, 33.0, 17.5)" gradientUnits="userSpaceOnUse" id="gradient1" spreadMethod="pad" x1="-819.2" x2="819.2">
      <stop offset="0.0" stop-color="#ffffff"/>
      <stop offset="1.0" stop-color="#ffffff" stop-opacity="0.0"/>
    </linearGradient>
    <g id="sprite0" transform="matrix(1.0, 0.0, 0.0, 1.0, 32.0, 21.55)">
      <use ffdec:characterId="1009" height="110.7" transform="matrix(0.3467, 0.0, 0.0, 0.3467, -31.9777, -21.5634)" width="164.0" xlink:href="#sprite1"/>
    </g>
    <g id="sprite1" transform="matrix(1.0, 0.0, 0.0, 1.0, 82.0, 58.45)">
      <use ffdec:characterId="910" height="10.5" transform="matrix(1.0, 0.0, 0.0, 1.0, -82.0, 41.75)" width="164.0" xlink:href="#sprite2"/>
      <use ffdec:characterId="911" height="5.4" transform="matrix(1.0, 0.0, 0.0, 1.0, -64.5, 44.3)" width="128.95" xlink:href="#sprite3"/>
      <use ffdec:characterId="1008" height="110.7" transform="matrix(1.0, 0.0, 0.0, 1.0, -50.9, -58.45)" width="101.15" xlink:href="#shape2"/>
    </g>
    <g id="sprite2" transform="matrix(1.0, 0.0, 0.0, 1.0, 0.0, 0.0)">
      <use ffdec:characterId="909" height="9.5" transform="matrix(1.1044, 0.0, 0.0, 1.1053, 0.0, 0.0)" width="148.5" xlink:href="#shape1"/>
    </g>
    <g id="shape1" transform="matrix(1.0, 0.0, 0.0, 1.0, 0.0, 0.0)">
      <path d="M148.5 4.7 Q148.5 6.7 126.75 8.1 105.0 9.5 74.25 9.5 43.5 9.5 21.75 8.1 0.0 6.7 0.0 4.7 0.0 2.8 21.75 1.4 43.6 0.0 74.25 0.0 104.9 0.0 126.75 1.4 148.5 2.8 148.5 4.7" fill="#000000" fill-rule="evenodd" stroke="none"/>
    </g>
    <g id="sprite3" transform="matrix(1.0, 0.0, 0.0, 1.0, 0.0, 0.0)">
      <use ffdec:characterId="909" height="9.5" transform="matrix(0.8683, 0.0, 0.0, 0.5684, 0.0, 0.0)" width="148.5" xlink:href="#shape1"/>
    </g>
    <g id="shape2" transform="matrix(1.0, 0.0, 0.0, 1.0, 50.9, 58.45)">
      <path d="M19.35 -51.0 Q19.45 -52.35 19.9 -53.55 20.9 -56.35 23.75 -56.35 25.15 -56.35 26.2 -55.5 L26.5 -55.25 26.35 -55.1 Q25.3 -54.25 24.8 -53.1 23.0 -52.9 22.25 -52.25 21.65 -51.65 21.65 -50.35 L21.8 -49.65 20.2 -49.95 19.75 -50.65 19.35 -51.0 M24.5 -55.9 L24.35 -55.8 Q22.65 -56.35 21.35 -55.35 20.2 -54.6 20.2 -53.5 L20.5 -52.85 21.15 -52.0 24.5 -55.35 24.5 -55.9 M24.5 -52.35 L24.2 -50.15 24.4 -48.85 22.7 -49.45 Q22.8 -51.75 24.2 -52.4 L24.5 -52.35 M16.7 -36.25 L23.2 -37.6 24.25 -37.9 Q27.3 -39.25 27.9 -40.75 L26.25 -40.5 27.05 -42.25 27.8 -43.35 27.5 -43.35 28.5 -46.6 27.75 -46.8 Q27.3 -47.55 25.9 -48.3 25.5 -50.15 26.1 -51.75 26.65 -53.35 28.05 -54.2 L28.4 -54.4 30.05 -54.9 31.95 -55.1 Q34.05 -55.1 35.1 -52.85 L34.95 -52.6 Q33.75 -53.3 32.05 -53.35 30.05 -53.55 28.8 -52.6 L28.05 -51.75 Q27.5 -51.1 27.35 -50.15 L27.3 -49.4 Q27.3 -48.35 27.8 -47.55 L28.2 -47.1 28.35 -47.0 29.65 -46.3 32.4 -45.95 33.3 -46.05 33.1 -45.6 Q32.85 -45.05 32.85 -43.25 L33.75 -38.25 33.6 -38.2 31.75 -38.1 31.35 -41.0 Q30.95 -42.15 29.9 -42.75 L29.9 -42.05 29.6 -42.6 29.3 -42.6 29.1 -40.05 28.05 -39.1 27.35 -38.25 Q27.35 -37.75 27.6 -37.65 L28.05 -37.6 28.4 -37.6 28.05 -37.3 29.6 -37.8 Q28.95 -36.9 26.7 -35.85 L26.2 -35.6 Q23.6 -34.55 19.95 -34.0 L19.9 -33.95 7.9 -32.3 12.2 -33.15 Q15.2 -34.0 16.7 -36.25 M-21.6 -33.85 L-22.15 -34.0 -22.75 -34.05 -26.75 -35.35 Q-30.2 -36.8 -30.35 -38.55 L-29.25 -37.65 Q-29.85 -38.55 -29.25 -39.65 L-28.05 -41.5 -27.7 -41.95 -26.9 -40.15 Q-27.9 -40.7 -28.5 -40.5 -27.9 -39.0 -25.1 -37.8 -25.85 -37.2 -25.75 -36.3 -25.75 -35.85 -25.25 -35.55 -24.45 -34.9 -23.55 -34.65 L-21.6 -33.85 M3.3 -23.9 L13.6 -24.8 17.6 -25.5 17.5 -25.25 16.75 -23.8 15.45 -23.05 13.0 -22.3 -1.45 -21.4 -5.2 -21.55 -3.1 -21.55 1.85 -21.65 3.2 -21.8 8.45 -22.35 10.85 -23.1 3.3 -23.9 M-7.0 -21.65 L-13.55 -22.0 -16.15 -22.55 -16.45 -22.65 Q-19.4 -23.55 -19.85 -25.25 L-20.0 -26.0 -20.0 -26.15 -16.9 -25.1 -15.15 -24.7 -17.85 -24.8 -17.9 -24.35 Q-16.75 -23.65 -14.2 -22.85 -11.05 -21.95 -7.0 -21.65" fill="#996600" fill-rule="evenodd" stroke="none"/>
      <path d="M-28.6 -32.7 L-28.5 -32.85 -28.5 -32.9 -30.35 -33.75 Q-33.2 -35.35 -33.1 -37.2 -33.1 -40.05 -32.65 -40.9 -31.95 -43.0 -29.1 -43.5 L-29.85 -46.15 -29.8 -46.5 -29.8 -46.55 -29.55 -46.8 -28.8 -47.1 -27.35 -48.3 -27.25 -48.3 Q-25.7 -49.2 -22.9 -49.9 -16.5 -51.5 -5.55 -52.2 L-2.85 -52.25 -2.8 -52.4 -2.3 -52.6 4.9 -52.55 17.05 -51.25 17.05 -51.5 16.85 -52.6 Q16.85 -54.65 18.85 -56.25 20.4 -57.7 22.85 -58.2 25.2 -58.7 27.05 -58.2 28.1 -57.85 28.7 -57.1 L30.95 -57.6 Q34.05 -57.8 36.25 -56.05 38.55 -54.35 38.55 -50.9 L38.1 -48.55 37.75 -47.7 37.6 -47.5 37.1 -46.35 37.1 -46.3 36.8 -46.05 35.15 -45.3 35.95 -39.15 35.95 -38.9 Q37.15 -38.55 37.8 -37.35 L37.8 -37.4 Q38.7 -35.9 38.7 -33.8 38.7 -32.2 38.1 -30.85 L37.6 -29.8 Q35.5 -27.05 30.5 -27.05 L27.8 -27.5 27.3 -32.4 25.8 -32.2 25.75 -33.05 22.7 -32.25 12.25 -31.05 Q0.9 -30.15 -10.2 -30.7 L-24.9 -32.3 -26.3 -32.75 -26.35 -32.15 -28.6 -32.7 M20.05 -25.7 L20.2 -24.25 Q20.2 -22.15 17.5 -21.05 L16.5 -20.65 13.05 -19.85 -1.45 -18.95 -13.6 -19.85 -16.35 -20.5 Q-21.75 -22.15 -21.75 -25.55 L-21.75 -25.7 Q-21.7 -26.15 -21.25 -26.55 L-21.75 -26.7 -20.65 -27.0 -20.45 -27.1 -20.2 -27.0 -4.45 -25.55 11.95 -26.35 17.45 -27.1 18.85 -26.7 18.9 -26.8 19.0 -26.4 Q19.75 -26.35 20.05 -25.7 M26.25 -46.05 L25.8 -46.3 Q23.9 -47.5 20.55 -48.4 13.6 -50.15 1.65 -50.2 L1.65 -49.95 -0.95 -49.95 Q-13.75 -49.95 -21.25 -48.1 -24.0 -47.4 -25.6 -46.5 L-26.35 -46.1 -27.1 -45.6 -26.35 -44.35 Q-25.1 -41.8 -25.1 -40.6 L-25.1 -39.6 -25.25 -39.45 -25.1 -39.4 Q-6.8 -34.7 13.45 -37.6 L15.3 -37.8 23.5 -39.45 23.5 -39.35 23.6 -39.35 24.55 -39.8 24.5 -39.9 24.5 -40.9 Q24.5 -42.1 25.75 -44.4 L26.5 -45.85 26.25 -46.05 M19.35 -51.0 L19.75 -50.65 20.2 -49.95 21.8 -49.65 21.65 -50.35 Q21.65 -51.65 22.25 -52.25 23.0 -52.9 24.8 -53.1 25.3 -54.25 26.35 -55.1 L26.5 -55.25 26.2 -55.5 Q25.15 -56.35 23.75 -56.35 20.9 -56.35 19.9 -53.55 19.45 -52.35 19.35 -51.0 M24.2 -52.4 Q22.8 -51.75 22.7 -49.45 L24.4 -48.85 24.2 -50.15 24.5 -52.35 24.5 -52.55 24.2 -52.4 M35.1 -52.85 Q34.05 -55.1 31.95 -55.1 L30.05 -54.9 28.4 -54.4 28.05 -54.2 Q26.65 -53.35 26.1 -51.75 25.5 -50.15 25.9 -48.3 27.3 -47.55 27.75 -46.8 L28.5 -46.6 27.5 -43.35 27.8 -43.35 27.05 -42.25 26.25 -40.5 27.9 -40.75 Q27.3 -39.25 24.25 -37.9 L23.2 -37.6 16.7 -36.25 13.35 -35.8 -8.75 -35.15 Q-16.75 -35.75 -24.6 -37.6 L-24.9 -37.65 -25.1 -37.8 Q-27.9 -39.0 -28.5 -40.5 -27.9 -40.7 -26.9 -40.15 L-27.7 -41.95 -28.05 -41.5 -28.05 -41.6 Q-29.05 -41.85 -29.7 -40.75 -30.35 -39.85 -30.35 -39.2 L-30.35 -38.55 Q-30.2 -36.8 -26.75 -35.35 L-22.75 -34.05 -22.15 -34.0 -21.6 -33.85 -9.7 -32.2 Q-1.1 -31.6 7.9 -32.3 L19.9 -33.95 19.95 -34.0 Q23.6 -34.55 26.2 -35.6 L26.7 -35.85 Q28.95 -36.9 29.6 -37.8 L30.05 -38.35 30.25 -40.25 29.9 -42.05 29.9 -42.75 Q30.95 -42.15 31.35 -41.0 L31.75 -38.1 33.6 -38.2 33.75 -38.25 32.85 -43.25 Q32.85 -45.05 33.1 -45.6 L33.3 -46.05 32.4 -45.95 29.65 -46.3 28.35 -47.0 28.2 -47.1 27.8 -47.55 Q27.3 -48.35 27.3 -49.4 L27.35 -50.15 Q27.5 -51.1 28.05 -51.75 L28.8 -52.6 Q30.05 -53.55 32.05 -53.35 33.75 -53.3 34.95 -52.6 L35.3 -52.4 35.1 -52.85 M29.15 -50.35 L29.1 -49.55 Q29.1 -48.6 29.45 -48.3 L30.2 -47.85 Q30.85 -47.1 32.2 -47.1 33.9 -47.1 34.65 -48.3 L35.3 -49.9 Q35.3 -51.25 34.25 -51.9 33.45 -52.6 32.2 -52.6 30.85 -52.6 30.05 -51.9 29.35 -51.35 29.15 -50.35 M28.8 -32.2 L28.55 -33.65 28.55 -34.2 27.6 -33.75 27.2 -33.6 26.8 -33.5 27.3 -32.85 27.45 -32.45 27.5 -31.15 27.75 -30.7 Q28.4 -29.35 30.65 -29.35 33.35 -29.35 34.85 -30.7 L33.6 -30.5 33.45 -30.5 31.95 -30.2 30.55 -30.4 30.8 -30.5 30.2 -30.9 29.45 -31.7 28.8 -32.2 M35.95 -32.5 Q36.55 -33.35 36.55 -34.2 36.55 -35.45 35.5 -36.2 34.55 -36.9 33.3 -36.9 31.9 -36.9 31.0 -36.2 29.95 -35.4 29.95 -34.2 L30.5 -32.7 Q31.3 -31.5 33.3 -31.5 35.0 -31.5 35.95 -32.5 M-5.2 -21.55 L-1.45 -21.4 13.0 -22.3 15.45 -23.05 16.75 -23.8 17.5 -25.25 17.6 -25.5 13.6 -24.8 3.3 -23.9 0.45 -24.1 -3.3 -24.6 Q-6.3 -24.85 -9.0 -24.55 L-15.15 -24.7 -16.9 -25.1 -20.0 -26.15 -20.0 -26.0 -19.85 -25.25 Q-19.4 -23.55 -16.45 -22.65 L-16.15 -22.55 -13.55 -22.0 -7.0 -21.65 -5.2 -21.55 M-12.0 -10.65 L-12.15 -10.8 -12.05 -10.8 -12.0 -10.65" fill="#000000" fill-rule="evenodd" stroke="none"/>
      <path d="M-26.35 -46.1 L-25.6 -46.5 Q-24.0 -47.4 -21.25 -48.1 -13.75 -49.95 -0.95 -49.95 L1.65 -49.95 1.65 -50.2 Q13.6 -50.15 20.55 -48.4 23.9 -47.5 25.8 -46.3 L26.25 -46.05 25.5 -45.6 25.35 -45.75 25.0 -45.95 24.85 -45.75 17.05 -43.65 Q4.0 -41.4 -18.5 -43.05 -24.35 -43.8 -25.7 -45.65 L-26.05 -45.45 -26.15 -45.3 -26.35 -46.1 M15.3 -46.35 Q16.2 -46.75 16.2 -47.25 L16.05 -47.7 Q15.05 -47.9 13.9 -47.7 12.55 -47.45 12.55 -46.8 L12.75 -46.15 13.9 -46.1 15.3 -46.35 M3.75 -44.95 Q2.6 -45.75 1.6 -45.9 0.25 -46.05 -0.5 -44.75 0.1 -44.05 1.35 -44.05 2.25 -44.05 3.75 -44.95 M6.15 -46.15 Q6.15 -45.4 6.4 -45.7 L7.35 -45.6 Q8.45 -45.6 8.7 -46.15 L8.4 -46.8 6.4 -46.95 6.25 -46.65 6.15 -46.15 M-6.85 -48.1 L-6.7 -47.65 Q-6.2 -47.0 -4.5 -47.0 -0.7 -47.0 0.75 -48.0 -1.0 -49.3 -3.9 -49.5 -6.85 -49.75 -6.85 -48.1 M-9.15 -45.7 L-9.0 -46.3 -10.8 -46.85 Q-12.0 -46.95 -12.0 -46.15 -12.0 -45.4 -11.85 -45.9 L-11.45 -45.6 -10.65 -45.45 -9.15 -45.7 M-19.2 -44.75 Q-14.75 -44.75 -14.75 -46.3 -14.75 -47.5 -17.9 -47.4 -21.1 -47.2 -21.1 -45.85 L-20.95 -45.25 Q-20.6 -44.75 -19.2 -44.75" fill="#bfad8a" fill-rule="evenodd" stroke="none"/>
      <path d="M24.5 -55.9 L24.5 -55.35 21.15 -52.0 20.5 -52.85 20.2 -53.5 Q20.2 -54.6 21.35 -55.35 22.65 -56.35 24.35 -55.8 L24.5 -55.9 M22.85 -54.8 L22.8 -55.3 22.55 -55.25 Q21.5 -54.9 21.5 -54.35 21.5 -53.5 21.8 -53.9 L22.2 -53.9 22.7 -54.15 22.85 -54.8 M7.9 -32.3 Q-1.1 -31.6 -9.7 -32.2 L-21.6 -33.85 -23.55 -34.65 Q-24.45 -34.9 -25.25 -35.55 -25.75 -35.85 -25.75 -36.3 -25.85 -37.2 -25.1 -37.8 L-24.9 -37.65 -24.6 -37.6 Q-16.75 -35.75 -8.75 -35.15 L13.35 -35.8 16.7 -36.25 Q15.2 -34.0 12.2 -33.15 L7.9 -32.3 M29.15 -50.35 Q29.35 -51.35 30.05 -51.9 30.85 -52.6 32.2 -52.6 33.45 -52.6 34.25 -51.9 35.3 -51.25 35.3 -49.9 L34.65 -48.3 Q33.9 -47.1 32.2 -47.1 30.85 -47.1 30.2 -47.85 L29.45 -48.3 Q29.1 -48.6 29.1 -49.55 L29.15 -50.35 M31.95 -51.1 Q31.95 -51.95 30.8 -51.7 29.65 -51.5 29.65 -50.6 L30.55 -49.55 Q31.25 -49.65 31.65 -50.3 L31.95 -51.1 M30.55 -30.4 L29.75 -30.3 Q28.95 -30.3 28.5 -30.9 L28.2 -31.7 28.25 -32.2 28.4 -32.3 28.8 -32.2 29.45 -31.7 30.2 -30.9 30.8 -30.5 30.55 -30.4 M35.95 -32.5 Q35.0 -31.5 33.3 -31.5 31.3 -31.5 30.5 -32.7 L29.95 -34.2 Q29.95 -35.4 31.0 -36.2 31.9 -36.9 33.3 -36.9 34.55 -36.9 35.5 -36.2 36.55 -35.45 36.55 -34.2 36.55 -33.35 35.95 -32.5 M32.95 -34.65 L33.3 -35.0 33.65 -35.85 33.5 -36.25 33.35 -36.3 31.95 -36.25 Q31.5 -36.0 31.5 -35.55 L32.35 -34.5 32.95 -34.65 M3.3 -23.9 L10.85 -23.1 8.45 -22.35 3.2 -21.8 3.95 -21.9 5.8 -22.45 Q3.35 -23.55 0.45 -24.1 L3.3 -23.9 M-3.1 -21.55 L-5.2 -21.55 -7.0 -21.65 Q-11.05 -21.95 -14.2 -22.85 -16.75 -23.65 -17.9 -24.35 L-17.85 -24.8 -15.15 -24.7 -9.0 -24.55 -13.7 -23.7 -13.6 -23.3 Q-12.65 -22.6 -9.7 -22.15 L-3.1 -21.55 M-14.05 -34.95 L-14.3 -34.85 -12.05 -33.95 -3.1 -33.3 5.6 -34.2 -14.05 -34.95" fill="#cc9900" fill-rule="evenodd" stroke="none"/>
      <path d="M22.85 -54.8 L22.7 -54.15 22.2 -53.9 21.8 -53.9 Q21.5 -53.5 21.5 -54.35 21.5 -54.9 22.55 -55.25 L22.8 -55.3 22.85 -54.8 M29.9 -42.05 L30.25 -40.25 30.05 -38.35 29.6 -37.8 28.05 -37.3 28.4 -37.6 29.1 -39.85 29.1 -40.05 29.3 -42.6 29.6 -42.6 29.9 -42.05 M-30.35 -38.55 L-30.35 -39.2 Q-30.35 -39.85 -29.7 -40.75 -29.05 -41.85 -28.05 -41.6 L-28.05 -41.5 -29.25 -39.65 Q-29.85 -38.55 -29.25 -37.65 L-30.35 -38.55 M31.95 -51.1 L31.65 -50.3 Q31.25 -49.65 30.55 -49.55 L29.65 -50.6 Q29.65 -51.5 30.8 -51.7 31.95 -51.95 31.95 -51.1 M32.95 -34.65 L32.35 -34.5 31.5 -35.55 Q31.5 -36.0 31.95 -36.25 L33.35 -36.3 33.5 -36.25 33.65 -35.85 33.3 -35.0 32.95 -34.65 M3.2 -21.8 L1.85 -21.65 -3.1 -21.55 -9.7 -22.15 Q-12.65 -22.6 -13.6 -23.3 L-13.7 -23.7 -9.0 -24.55 Q-6.3 -24.85 -3.3 -24.6 L0.45 -24.1 Q3.35 -23.55 5.8 -22.45 L3.95 -21.9 3.2 -21.8 M-14.05 -34.95 L5.6 -34.2 -3.1 -33.3 -12.05 -33.95 -14.3 -34.85 -14.05 -34.95" fill="#ffff00" fill-rule="evenodd" stroke="none"/>
      <path d="M-26.15 -45.3 L-26.05 -45.45 -25.7 -45.65 Q-24.35 -43.8 -18.5 -43.05 4.0 -41.4 17.05 -43.65 L24.85 -45.75 25.0 -45.95 25.35 -45.75 25.5 -45.6 26.25 -46.05 26.5 -45.85 25.75 -44.4 Q24.5 -42.1 24.5 -40.9 L24.5 -39.9 24.55 -39.8 23.6 -39.35 23.5 -39.45 15.3 -37.8 13.45 -37.6 Q13.9 -39.65 15.35 -41.6 L15.95 -42.25 Q2.1 -40.05 -17.55 -41.7 L-23.05 -42.8 -23.4 -42.95 Q-24.75 -43.35 -25.5 -43.85 -26.15 -44.35 -26.15 -44.85 L-26.15 -45.3 M25.75 -32.15 L25.8 -32.2 25.75 -32.0 25.75 -32.15 M0.7 -39.15 L-0.5 -38.35 -1.45 -38.2 -2.2 -38.3 -2.55 -39.0 -1.3 -39.4 0.45 -39.55 0.7 -39.15 M2.85 -39.65 Q2.85 -40.7 5.8 -40.95 8.6 -41.25 8.6 -39.85 8.6 -39.1 7.95 -38.8 L5.65 -38.5 Q3.5 -38.5 3.0 -39.1 L2.85 -39.65 M-17.05 -47.0 L-15.45 -47.1 -15.05 -46.5 -17.25 -45.6 -18.0 -46.05 -17.05 -47.0 M-16.2 -39.4 L-18.35 -39.4 -18.65 -40.35 -17.2 -40.7 Q-16.45 -40.6 -15.55 -40.05 L-16.2 -39.4" fill="#796642" fill-rule="evenodd" stroke="none"/>
      <path d="M28.4 -37.6 L28.05 -37.6 27.6 -37.65 Q27.35 -37.75 27.35 -38.25 L28.05 -39.1 29.1 -40.05 29.1 -39.85 28.4 -37.6" fill="#999999" fill-rule="evenodd" stroke="none"/>
      <path d="M30.55 -30.4 L31.95 -30.2 33.45 -30.5 33.6 -30.5 34.85 -30.7 Q33.35 -29.35 30.65 -29.35 28.4 -29.35 27.75 -30.7 L27.5 -31.15 27.45 -32.45 27.3 -32.85 26.8 -33.5 27.2 -33.6 27.6 -33.75 28.55 -34.2 28.55 -33.65 28.8 -32.2 28.4 -32.3 28.25 -32.2 28.2 -31.7 28.5 -30.9 Q28.95 -30.3 29.75 -30.3 L30.55 -30.4" fill="#666666" fill-rule="evenodd" stroke="none"/>
      <path d="M27.8 -27.5 L26.5 -28.2 Q24.95 -27.15 21.9 -26.2 L21.8 -26.2 20.05 -25.7 Q19.75 -26.35 19.0 -26.4 L18.9 -26.8 18.85 -26.7 17.45 -27.1 11.95 -26.35 -4.45 -25.55 -20.2 -27.0 -20.45 -27.1 -20.65 -27.0 -21.75 -26.7 -21.25 -26.55 Q-21.7 -26.15 -21.75 -25.7 L-22.95 -26.15 Q-28.8 -27.95 -28.8 -30.25 L-28.9 -31.35 -28.75 -32.15 -28.8 -32.05 -28.6 -32.7 -26.35 -32.15 -26.3 -32.75 -24.9 -32.3 -10.2 -30.7 Q0.9 -30.15 12.25 -31.05 L22.7 -32.25 25.75 -33.05 25.8 -32.2 27.3 -32.4 27.8 -27.5 M16.5 -20.65 Q21.8 -19.4 28.5 -17.2 36.5 -14.6 41.0 -10.5 45.75 -6.3 47.4 -0.55 48.2 2.05 48.4 5.0 L48.5 5.25 50.25 42.15 Q50.05 43.5 49.25 44.8 L48.55 44.7 Q47.85 45.8 45.15 46.6 L36.7 48.15 Q25.45 50.5 20.7 50.45 L20.5 50.45 7.6 52.25 7.0 52.25 3.65 52.1 0.55 51.85 0.0 51.8 -2.35 51.8 -2.85 51.85 -3.4 51.8 -12.45 51.8 Q-15.45 50.95 -22.3 50.05 L-29.4 48.7 -32.35 48.15 -38.3 46.9 -40.25 46.6 Q-40.35 46.5 -41.5 46.15 L-47.35 44.2 -48.0 44.15 Q-49.25 44.15 -50.1 42.8 L-50.15 42.6 -50.7 42.55 -50.85 42.15 -50.9 41.95 -49.05 5.4 Q-48.8 2.35 -47.95 -0.25 -46.4 -6.0 -41.95 -9.9 -37.5 -14.05 -29.7 -16.3 L-16.35 -20.5 -13.6 -19.85 -13.75 -17.45 -15.75 -15.2 -16.5 -15.6 -16.65 -16.35 -15.75 -18.3 -32.6 -12.55 Q-39.25 -9.45 -43.55 -3.3 L-44.55 -1.0 Q-46.1 3.1 -46.1 6.35 L-48.15 39.5 -48.0 40.65 Q-47.35 40.8 -45.1 41.8 L-42.1 43.1 -40.8 43.35 -37.05 44.25 -35.8 44.6 Q-29.5 47.15 -18.65 47.95 L-14.8 48.0 -4.2 48.5 0.85 48.7 1.95 48.7 5.8 48.9 7.6 48.7 7.9 48.65 7.95 48.65 19.9 47.95 20.65 47.95 Q27.05 47.95 32.25 46.15 L34.25 45.7 34.35 45.7 36.1 45.55 36.25 45.55 37.1 45.45 37.3 45.45 39.7 44.8 42.8 43.9 Q43.55 43.55 44.25 43.3 46.25 42.6 47.1 41.35 L47.45 39.1 45.45 6.05 Q45.45 2.75 43.95 -1.25 L42.95 -3.55 Q38.65 -9.8 31.95 -12.9 L15.15 -18.7 15.05 -18.75 15.05 -18.55 16.1 -16.7 15.95 -15.95 15.05 -15.4 13.2 -17.75 13.05 -19.85 16.5 -20.65 M25.75 -32.15 L25.75 -32.0 25.8 -32.2 25.75 -32.15 M-24.8 -29.85 L-23.9 -29.3 Q-20.9 -27.8 -14.6 -26.9 L-11.45 -26.65 Q4.1 -25.25 17.75 -28.05 L22.1 -29.1 23.3 -29.55 24.8 -30.65 19.05 -29.6 0.7 -28.35 -6.85 -28.4 -24.5 -30.15 -24.75 -30.2 -24.9 -30.2 -25.4 -30.3 -24.8 -29.85 M-12.05 -10.8 L-8.0 -9.8 -0.5 -8.95 10.05 -9.8 13.6 -11.0 Q12.7 -10.25 9.35 -9.3 4.7 -8.0 -0.4 -8.0 -4.5 -8.0 -8.2 -9.1 L-12.0 -10.65 -12.05 -10.8" fill="#4b6b5f" fill-rule="evenodd" stroke="none"/>
      <path d="M3.65 52.1 L-1.45 52.05 -2.85 51.85 -2.35 51.8 0.0 51.8 0.55 51.85 3.65 52.1 M0.7 -28.35 L19.05 -29.6 24.8 -30.65 23.3 -29.55 22.1 -29.1 17.75 -28.05 Q4.1 -25.25 -11.45 -26.65 L-14.6 -26.9 Q-20.9 -27.8 -23.9 -29.3 L-24.8 -29.85 -24.75 -30.2 -24.5 -30.15 -6.85 -28.4 -11.15 -28.25 -13.6 -27.75 Q-10.6 -26.8 -4.0 -26.8 4.1 -26.8 6.25 -27.95 L6.15 -28.15 0.7 -28.35 M15.15 -18.7 L31.95 -12.9 Q38.65 -9.8 42.95 -3.55 L43.95 -1.25 Q45.45 2.75 45.45 6.05 L47.45 39.1 47.1 41.35 Q46.25 42.6 44.25 43.3 43.55 43.55 42.8 43.9 46.4 41.3 46.4 38.1 L46.05 36.05 45.1 33.9 44.7 33.9 Q45.85 37.7 41.9 41.65 39.95 43.65 37.1 45.45 L36.25 45.55 36.1 45.55 34.35 45.7 34.4 45.6 Q34.35 45.6 34.25 45.7 L32.25 46.15 Q27.05 47.95 20.65 47.95 L19.9 47.95 7.95 48.65 7.9 48.65 1.95 48.7 0.85 48.7 -4.2 48.5 -5.9 48.4 -12.9 48.0 -14.8 48.0 -18.65 47.95 Q-29.5 47.15 -35.8 44.6 L-37.8 43.65 -38.1 43.45 Q-42.0 41.35 -42.8 39.0 L-43.1 37.5 -43.05 37.2 Q-39.55 40.55 -36.35 41.95 -30.5 44.55 -18.65 45.6 L-12.65 45.6 -10.75 45.7 -8.75 45.6 -4.15 45.95 0.85 46.25 Q18.7 46.25 29.6 44.35 L30.65 44.15 34.95 42.55 40.4 38.35 Q41.6 37.3 42.25 37.15 L42.25 36.75 40.65 12.05 40.55 10.8 40.4 8.25 Q40.4 5.9 39.45 3.15 L38.85 1.45 Q36.8 -1.25 27.9 -3.3 16.35 -5.95 -0.05 -5.95 L-4.8 -5.95 Q-18.2 -5.55 -28.45 -3.25 -37.7 -1.25 -39.95 1.4 L-41.2 5.0 -41.25 5.4 -41.7 8.5 -41.7 10.2 Q-42.25 11.5 -42.25 14.35 L-42.0 14.85 -42.1 15.45 -42.4 17.0 -42.5 17.95 -42.4 22.9 Q-42.4 23.85 -42.75 27.0 L-42.9 28.8 -43.05 33.0 -43.55 37.05 -43.2 38.6 -43.8 38.05 -44.0 37.85 Q-45.95 34.55 -45.25 31.55 L-45.55 31.55 -46.25 34.1 -46.75 36.75 Q-46.75 39.7 -45.1 41.8 -47.35 40.8 -48.0 40.65 L-48.15 39.5 -46.1 6.35 Q-46.1 3.1 -44.55 -1.0 L-43.55 -3.3 Q-39.25 -9.45 -32.6 -12.55 L-15.75 -18.3 -16.65 -16.35 -16.5 -15.6 -15.75 -15.2 -13.75 -17.45 -13.6 -19.85 -1.45 -18.95 13.05 -19.85 13.2 -17.75 15.05 -15.4 15.95 -15.95 16.1 -16.7 15.05 -18.55 15.15 -18.7 M-12.0 -10.65 L-8.2 -9.1 Q-4.5 -8.0 -0.4 -8.0 4.7 -8.0 9.35 -9.3 12.7 -10.25 13.6 -11.0 L10.05 -9.8 -0.5 -8.95 -8.0 -9.8 -12.05 -10.8 -12.15 -10.8 -12.0 -10.65 M39.25 42.55 L38.8 42.85 38.85 42.9 38.85 42.85 39.25 42.55 M-1.15 -12.7 L-7.9 -14.55 Q-10.9 -15.8 -11.9 -17.7 -13.45 -17.3 -13.45 -15.2 -13.45 -14.05 -11.55 -13.0 -9.25 -11.9 -5.25 -11.9 L-1.15 -12.7 M-19.6 -13.9 L-19.7 -14.05 Q-33.55 -11.6 -39.25 -6.0 -43.7 -1.75 -43.7 4.9 L-44.25 11.3 -44.1 13.85 -43.8 13.75 -42.6 9.95 -42.1 6.7 Q-41.35 2.0 -40.15 -0.55 -36.3 -8.85 -19.6 -13.9" fill="#a4bfb4" fill-rule="evenodd" stroke="none"/>
      <path d="M-26.35 -46.1 L-26.15 -45.3 -26.15 -44.85 Q-26.15 -44.35 -25.5 -43.85 -24.75 -43.35 -23.4 -42.95 L-23.05 -42.8 -17.55 -41.7 Q2.1 -40.05 15.95 -42.25 L15.35 -41.6 Q13.9 -39.65 13.45 -37.6 -6.8 -34.7 -25.1 -39.4 L-25.1 -39.6 -25.1 -40.6 Q-25.1 -41.8 -26.35 -44.35 L-27.1 -45.6 -26.35 -46.1 M-24.75 -30.2 L-24.8 -29.85 -25.4 -30.3 -24.9 -30.2 -24.75 -30.2 M15.3 -46.35 L13.9 -46.1 12.75 -46.15 12.55 -46.8 Q12.55 -47.45 13.9 -47.7 15.05 -47.9 16.05 -47.7 L16.2 -47.25 Q16.2 -46.75 15.3 -46.35 M6.15 -46.15 L6.25 -46.65 6.4 -46.95 8.4 -46.8 8.7 -46.15 Q8.45 -45.6 7.35 -45.6 L6.4 -45.7 Q6.15 -45.4 6.15 -46.15 M3.75 -44.95 Q2.25 -44.05 1.35 -44.05 0.1 -44.05 -0.5 -44.75 0.25 -46.05 1.6 -45.9 2.6 -45.75 3.75 -44.95 M2.85 -39.65 L3.0 -39.1 Q3.5 -38.5 5.65 -38.5 L7.95 -38.8 Q8.6 -39.1 8.6 -39.85 8.6 -41.25 5.8 -40.95 2.85 -40.7 2.85 -39.65 M0.7 -39.15 L0.45 -39.55 -1.3 -39.4 -2.55 -39.0 -2.2 -38.3 -1.45 -38.2 -0.5 -38.35 0.7 -39.15 M-9.15 -45.7 L-10.65 -45.45 -11.45 -45.6 -11.85 -45.9 Q-12.0 -45.4 -12.0 -46.15 -12.0 -46.95 -10.8 -46.85 L-9.0 -46.3 -9.15 -45.7 M-6.85 -48.1 Q-6.85 -49.75 -3.9 -49.5 -1.0 -49.3 0.75 -48.0 -0.7 -47.0 -4.5 -47.0 -6.2 -47.0 -6.7 -47.65 L-6.85 -48.1 M-16.2 -39.4 L-15.55 -40.05 Q-16.45 -40.6 -17.2 -40.7 L-18.65 -40.35 -18.35 -39.4 -16.2 -39.4 M-17.05 -47.0 L-18.0 -46.05 -17.25 -45.6 -15.05 -46.5 -15.45 -47.1 -17.05 -47.0 M-19.2 -44.75 Q-20.6 -44.75 -20.95 -45.25 L-21.1 -45.85 Q-21.1 -47.2 -17.9 -47.4 -14.75 -47.5 -14.75 -46.3 -14.75 -44.75 -19.2 -44.75" fill="#aa9264" fill-rule="evenodd" stroke="none"/>
      <path d="M0.7 -28.35 L6.15 -28.15 6.25 -27.95 Q4.1 -26.8 -4.0 -26.8 -10.6 -26.8 -13.6 -27.75 L-11.15 -28.25 -6.85 -28.4 0.7 -28.35 M42.8 43.9 L39.7 44.8 37.3 45.45 37.1 45.45 Q39.95 43.65 41.9 41.65 45.85 37.7 44.7 33.9 L45.1 33.9 46.05 36.05 46.4 38.1 Q46.4 41.3 42.8 43.9 M-37.05 44.25 L-40.8 43.35 -42.1 43.1 -45.1 41.8 Q-46.75 39.7 -46.75 36.75 L-46.25 34.1 -45.55 31.55 -45.25 31.55 Q-45.95 34.55 -44.0 37.85 L-43.8 38.05 -43.2 38.6 -42.8 39.0 Q-42.0 41.35 -38.1 43.45 L-37.05 44.25 M-42.0 14.85 L-41.95 15.05 -42.1 15.45 -42.0 14.85 M-1.15 -12.7 L-5.25 -11.9 Q-9.25 -11.9 -11.55 -13.0 -13.45 -14.05 -13.45 -15.2 -13.45 -17.3 -11.9 -17.7 -10.9 -15.8 -7.9 -14.55 L-1.15 -12.7 M-19.6 -13.9 Q-36.3 -8.85 -40.15 -0.55 -41.35 2.0 -42.1 6.7 L-42.6 9.95 -43.8 13.75 -44.1 13.85 -44.25 11.3 -43.7 4.9 Q-43.7 -1.75 -39.25 -6.0 -33.55 -11.6 -19.7 -14.05 L-19.6 -13.9" fill="#ffffff" fill-rule="evenodd" stroke="none"/>
      <path d="M8.45 -1.9 L7.15 -1.9 7.15 -1.15 16.5 -0.05 18.85 -0.45 25.2 1.0 28.85 0.85 29.35 0.5 25.9 -0.45 19.05 -0.65 8.45 -1.9 M30.5 -0.2 L33.1 -0.15 Q33.75 0.3 34.05 1.0 37.1 2.3 38.2 3.7 L38.7 5.05 38.55 5.25 36.35 6.8 36.1 7.0 33.6 7.15 18.1 9.25 -17.85 9.15 -25.6 8.25 -32.15 7.65 -34.5 7.95 -34.8 7.85 Q-35.25 5.8 -36.5 7.2 -40.25 5.5 -40.5 3.65 -39.55 2.45 -37.2 1.35 L-35.05 -0.2 Q-32.95 -1.25 -27.9 -2.45 L-29.5 -1.45 -29.2 -1.05 Q-18.65 -3.4 -4.85 -3.7 L-0.7 -3.75 Q15.6 -3.75 27.15 -1.1 L30.5 -0.2 M14.05 1.8 L15.35 1.65 6.45 0.65 6.7 0.45 3.65 0.05 0.85 0.25 0.15 0.2 0.55 0.25 0.15 0.45 0.1 1.0 9.8 1.45 12.1 2.0 14.05 1.8 M-6.85 -0.7 L-5.85 -0.6 -5.0 -0.65 -1.1 -1.55 -2.2 -2.45 -4.95 -2.35 -6.0 -1.95 -7.55 -1.05 -6.85 -0.7 M-10.75 -0.8 L-13.3 -0.05 -14.8 -0.4 -19.1 0.45 Q-20.8 0.85 -21.35 1.8 L-17.7 2.3 -8.5 2.8 -6.15 2.75 -9.1 2.55 -9.0 2.5 -8.95 2.1 Q-8.85 1.35 -8.35 0.9 L-9.1 1.1 Q-10.95 1.75 -12.05 2.35 L-16.3 1.9 -13.6 0.75 -10.75 -0.8" fill="#ffcc00" fill-rule="evenodd" stroke="none"/>
      <path d="M8.45 -1.9 L19.05 -0.65 25.9 -0.45 29.35 0.5 28.85 0.85 25.2 1.0 18.85 -0.45 16.5 -0.05 7.15 -1.15 7.15 -1.9 8.45 -1.9 M14.05 1.8 L12.1 2.0 9.8 1.45 0.1 1.0 0.15 0.45 0.55 0.25 0.15 0.2 0.85 0.25 3.65 0.05 6.7 0.45 6.45 0.65 15.35 1.65 14.05 1.8 M-10.75 -0.8 L-13.6 0.75 -16.3 1.9 -12.05 2.35 Q-10.95 1.75 -9.1 1.1 L-8.35 0.9 Q-8.85 1.35 -8.95 2.1 L-9.0 2.5 -9.1 2.55 -6.15 2.75 -8.5 2.8 -17.7 2.3 -21.35 1.8 Q-20.8 0.85 -19.1 0.45 L-14.8 -0.4 -13.3 -0.05 -10.75 -0.8 M-6.85 -0.7 L-7.55 -1.05 -6.0 -1.95 -4.95 -2.35 -2.2 -2.45 -1.1 -1.55 -5.0 -0.65 -5.85 -0.6 -6.85 -0.7 M-15.45 0.5 L-14.35 0.25 -15.3 0.4 -15.45 0.5" fill="#ffff66" fill-rule="evenodd" stroke="none"/>
      <path d="M34.35 45.7 L34.25 45.7 Q34.35 45.6 34.4 45.6 L34.35 45.7 M7.9 48.65 L7.6 48.7 5.8 48.9 1.95 48.7 7.9 48.65 M-4.2 48.5 L-14.8 48.0 -12.9 48.0 -5.9 48.4 -4.2 48.5 M-35.8 44.6 L-37.05 44.25 -38.1 43.45 -37.8 43.65 -35.8 44.6 M30.5 -0.2 L27.15 -1.1 Q15.6 -3.75 -0.7 -3.75 L-4.85 -3.7 Q-18.65 -3.4 -29.2 -1.05 L-29.5 -1.45 -27.9 -2.45 Q-32.95 -1.25 -35.05 -0.2 L-37.2 1.35 Q-39.55 2.45 -40.5 3.65 -40.25 5.5 -36.5 7.2 -35.25 5.8 -34.8 7.85 L-34.5 7.95 -32.15 7.65 -25.6 8.25 -17.85 9.15 18.1 9.25 33.6 7.15 36.1 7.0 36.35 6.8 38.55 5.25 38.7 5.05 38.2 3.7 Q37.1 2.3 34.05 1.0 33.75 0.3 33.1 -0.15 L30.5 -0.2 M40.65 12.05 L42.25 36.75 42.25 37.15 Q41.6 37.3 40.4 38.35 L34.95 42.55 30.65 44.15 29.6 44.35 Q18.7 46.25 0.85 46.25 L-4.15 45.95 -8.75 45.6 -10.75 45.7 -12.65 45.6 -18.65 45.6 Q-30.5 44.55 -36.35 41.95 -39.55 40.55 -43.05 37.2 L-43.1 37.5 -42.8 39.0 -43.2 38.6 -43.55 37.05 -43.05 33.0 -42.9 28.8 -42.75 27.0 Q-42.4 23.85 -42.4 22.9 L-42.5 17.95 -42.4 17.0 -42.1 15.45 -41.95 15.05 -42.0 14.85 -42.25 14.35 Q-42.25 11.5 -41.7 10.2 L-41.7 8.5 -41.25 5.4 -41.2 5.0 -39.95 1.4 Q-37.7 -1.25 -28.45 -3.25 -18.2 -5.55 -4.8 -5.95 L-0.05 -5.95 Q16.35 -5.95 27.9 -3.3 36.8 -1.25 38.85 1.45 L39.45 3.15 Q40.4 5.9 40.4 8.25 L40.55 10.8 40.5 10.95 40.5 11.55 40.4 12.1 40.65 12.05 M7.05 19.1 L7.3 18.85 7.3 18.8 7.05 19.1 M39.25 42.55 L38.85 42.85 38.85 42.9 38.8 42.85 39.25 42.55" fill="#ff9900" fill-rule="evenodd" stroke="none"/>
      <path d="M40.55 10.8 L40.65 12.05 40.4 12.1 40.5 11.55 40.5 10.95 40.55 10.8" fill="#c44a87" fill-rule="evenodd" stroke="none"/>
      <path d="M-15.45 0.5 L-15.3 0.4 -14.35 0.25 -15.45 0.5" fill="#e6b5cd" fill-rule="evenodd" stroke="none"/>
    </g>
  </defs>
</svg>
