<?xml version="1.0" encoding="UTF-8" standalone="no"?>
<svg xmlns:ffdec="https://www.free-decompiler.com/flash" xmlns:xlink="http://www.w3.org/1999/xlink" ffdec:objectType="frame" height="393.0px" width="206.0px" xmlns="http://www.w3.org/2000/svg">
  <g transform="matrix(1.0, 0.0, 0.0, 1.0, 103.0, 196.5)">
    <use ffdec:characterId="1012" height="393.0" transform="matrix(1.0, 0.0, 0.0, 1.0, -103.0, -196.5)" width="206.0" xlink:href="#shape0"/>
  </g>
  <defs>
    <g id="shape0" transform="matrix(1.0, 0.0, 0.0, 1.0, 103.0, 196.5)">
      <path d="M103.0 -186.5 L103.0 186.55 Q103.0 190.7 100.1 193.6 97.2 196.5 93.05 196.5 L-93.0 196.5 Q-97.15 196.5 -100.05 193.6 -103.0 190.65 -103.0 186.55 L-103.0 -186.5 Q-103.0 -190.6 -100.05 -193.55 -97.1 -196.5 -93.0 -196.5 L93.05 -196.5 Q97.15 -196.5 100.1 -193.55 103.0 -190.65 103.0 -186.5" fill="#d9f0a5" fill-rule="evenodd" stroke="none"/>
    </g>
  </defs>
</svg>
