<?xml version="1.0" encoding="UTF-8" standalone="no"?>
<svg
   ffdec:objectType="frame"
   height="35"
   width="55"
   version="1.1"
   id="svg62"
   sodipodi:docname="itembagtab.svg"
   inkscape:version="1.3.2 (091e20e, 2023-11-25, custom)"
   xmlns:inkscape="http://www.inkscape.org/namespaces/inkscape"
   xmlns:sodipodi="http://sodipodi.sourceforge.net/DTD/sodipodi-0.dtd"
   xmlns:xlink="http://www.w3.org/1999/xlink"
   xmlns="http://www.w3.org/2000/svg"
   xmlns:svg="http://www.w3.org/2000/svg"
   xmlns:ffdec="https://www.free-decompiler.com/flash">
  <sodipodi:namedview
     id="namedview62"
     pagecolor="#ffffff"
     bordercolor="#000000"
     borderopacity="0.25"
     inkscape:showpageshadow="2"
     inkscape:pageopacity="0.0"
     inkscape:pagecheckerboard="0"
     inkscape:deskcolor="#d1d1d1"
     inkscape:zoom="8.8775512"
     inkscape:cx="23.880459"
     inkscape:cy="19.31839"
     inkscape:window-width="1920"
     inkscape:window-height="1094"
     inkscape:window-x="-11"
     inkscape:window-y="-11"
     inkscape:window-maximized="1"
     inkscape:current-layer="svg62" />
  <defs
     id="defs62">
    <g
       id="shape0">
      <path
         d="M 57.15,35 H 8.9 Q 5.25,35 2.6,32.4 0,29.8 0,26.1 V 8.95 Q 0,5.25 2.6,2.6 5.2,0 8.9,0 H 57.15 Q 60.85,0 63.4,2.6 66,5.25 66,8.95 V 26.1 q 0,3.7 -2.6,6.3 -2.6,2.6 -6.25,2.6"
         fill="#d9f0a5"
         fill-rule="evenodd"
         stroke="none"
         id="path2" />
    </g>
    <g
       id="sprite0"
       transform="translate(74.25,57)">
      <use
         ffdec:characterId="954"
         height="9.5500002"
         transform="translate(-74.25,37.4)"
         width="148.5"
         xlink:href="#sprite1"
         id="use3" />
      <use
         ffdec:characterId="955"
         height="4.9000001"
         transform="translate(-58.4,39.7)"
         width="116.75"
         xlink:href="#sprite2"
         id="use4" />
      <use
         ffdec:characterId="956"
         height="114.05"
         transform="translate(-55.6,-57)"
         width="119.3"
         xlink:href="#shape2"
         id="use5" />
    </g>
    <g
       id="sprite1">
      <use
         ffdec:characterId="909"
         height="9.5"
         transform="scale(1,1.0053)"
         width="148.5"
         xlink:href="#shape1"
         id="use6" />
    </g>
    <g
       id="shape1">
      <path
         d="m 148.5,4.7 q 0,2 -21.75,3.4 Q 105,9.5 74.25,9.5 43.5,9.5 21.75,8.1 0,6.7 0,4.7 0,2.8 21.75,1.4 43.6,0 74.25,0 q 30.65,0 52.5,1.4 21.75,1.4 21.75,3.3"
         fill="#000000"
         fill-rule="evenodd"
         stroke="none"
         id="path6" />
    </g>
    <g
       id="sprite2">
      <use
         ffdec:characterId="909"
         height="9.5"
         transform="scale(0.7862,0.5158)"
         width="148.5"
         xlink:href="#shape1"
         id="use7" />
    </g>
    <g
       id="shape2"
       transform="translate(55.6,57)">
      <path
         d="M 23.85,49.35 Q 15.45,48.9 3.5,49.05 l -17.8,1.2 q 8.25,-9.65 20.85,-16 11.4,-5.75 25.8,-8.5 -1.45,6.9 -5.1,15.95 l -3.4,7.65"
         fill="#d9a56f"
         fill-rule="evenodd"
         stroke="none"
         id="path7" />
      <path
         d="M -9.45,16.9 Q 0.25,9.25 15.1,2.85 q 2.6,1.1 7.1,3.55 l 7.2,3.7 q 5.7,2.7 2.95,15.65 -14.35,2.7 -25.8,8.45 -12.6,6.35 -20.85,16 l -5,0.95 -1.95,-3.45 q -2.3,-4.5 -4,-9.7 3.4,-11.3 15.8,-21.1"
         fill="#ce9e6b"
         fill-rule="evenodd"
         stroke="none"
         id="path8" />
      <path
         d="M 15.1,2.85 Q 0.25,9.25 -9.45,16.9 -21.85,26.7 -25.25,38 -27.2,31.8 -28.1,25.35 -29.45,15 -21.2,9.4 -18.25,7.35 -12.95,5.25 L -3.7,1.7 Q 1.05,-0.2 6,0.25 q 4.1,0.4 9.1,2.6"
         fill="#c49665"
         fill-rule="evenodd"
         stroke="none"
         id="path9" />
      <path
         d="M 22.45,10.4 Q 17.8,6.65 11.2,5.35 L 3.5,4.65 q -7.5,0 -13.95,2.5 -5.25,2.1 -8.4,4.2 -4.3,2.95 -6.1,6.85 l -0.75,1.95 q -0.9,5.45 -0.35,9.45 0.7,5.2 3.1,10.35 l 3.85,6.85 1.9,3.15 0.5,0.65 Q -8.6,48.5 3.55,48.05 8.8,47.8 13.4,47.95 l 3.75,0.05 3.75,0.5 0.2,-0.85 2.25,-5.3 Q 26.45,35 27.4,31.35 29.05,25.1 27.95,20 26.6,13.85 22.45,10.4 m 12.4,3.4 q 2.1,5.35 1.75,11.35 -0.25,4.8 -2,10.35 l -3.7,9.6 -2.3,5.45 q -0.45,1.2 -1.45,1.9 -1,0.7 -2.3,0.7 -2.2,0 -3.4,-1.75 -0.5,-0.75 -0.6,-1.65 L 17,49.55 13.1,49.2 Q 7.4,49.05 2.5,49.25 l -9.45,0.9 -9.4,1.2 0.2,1.15 v 0.2 q -0.05,1.75 -1.4,3.05 -1.35,1.3 -3.15,1.3 -1.95,0 -3.05,-1.6 -4.65,-6.65 -7.45,-13.25 -2.7,-6.4 -2.95,-11.8 l -0.3,-3.05 q -0.35,-8.95 3.75,-15 4.5,-6.6 13.35,-10.8 Q -7.05,-3.4 4.5,-3.4 l 1.8,0.05 q 5.6,0.2 10.55,1.65 7.2,2.05 11.85,6.35 4.1,3.8 6.15,9.15"
         fill="#936841"
         fill-rule="evenodd"
         stroke="none"
         id="path10" />
      <path
         d="m 33.3,13.8 q 1.8,4.85 1.55,10.35 -0.3,5.65 -2.95,12.7 L 26.95,49 q -0.8,2.05 -2.9,1.3 -2.1,-0.7 -1.25,-2.9 4.05,-9.15 5.6,-13.95 2.7,-8.2 1.3,-14.7 Q 28.2,11.85 23.6,8.15 18.6,4.05 11.55,2.7 5.85,1.6 0.1,2.05 q -6,0.5 -11.2,2.55 -5.6,2.2 -8.95,4.5 -4.55,3.15 -6.5,7.45 l -0.9,2.3 q -1,5.6 -0.4,10.1 0.75,5.45 3.25,10.9 1.75,3.6 6,10.35 0.65,0.5 0.65,1.4 v 0.2 q -0.05,1.55 -1.7,2.3 -1.65,0.8 -2.65,-0.6 -4.55,-6.5 -7.25,-12.9 -2.65,-6.35 -2.8,-11.25 l -0.3,-3 q -0.35,-8.3 3.45,-13.9 4.1,-6.05 12.6,-10.2 10.95,-5.15 22.85,-4.7 6.1,0.25 11.3,1.95 6,1.95 9.9,5.55 3.95,3.65 5.85,8.75"
         fill="#b78a5b"
         fill-rule="evenodd"
         stroke="none"
         id="path11" />
      <path
         d="m 13.9,17.5 2.15,0.2 q 2.65,0.55 4.6,2 1.95,1.5 2.75,3.55 1.5,3.95 -1.3,7.6 -1.6,2.2 -4.25,3.55 -2.6,1.3 -5.35,1.3 L 10.15,35.4 Q 7.45,34.7 5.65,32.8 3.9,30.95 3.65,28.55 3.3,25.1 5.45,22.05 7.6,19 11.15,17.9 l 2.75,-0.4"
         fill="#aa8862"
         fill-rule="evenodd"
         stroke="none"
         id="path12" />
      <path
         d="m 10.25,18.25 3.6,-0.15 q 1.9,0.4 3.35,1.5 1.55,1.15 2.15,2.8 Q 20.8,26.45 17,29.85 13.3,33.1 9.3,32 7.4,31.45 6.1,30.1 4.75,28.65 4.55,26.75 q -0.25,-2.8 1.4,-5.2 1.6,-2.45 4.3,-3.3"
         fill="#626f6f"
         fill-rule="evenodd"
         stroke="none"
         id="path13" />
      <path
         d="M 5.35,25.6 Q 5.15,23.4 6.45,21.5 7.7,19.6 9.8,18.9 l 2.85,-0.1 q 1.5,0.3 2.6,1.2 1.25,0.9 1.7,2.2 1.15,3.2 -1.85,5.85 Q 12.2,30.6 9.05,29.7 7.55,29.3 6.55,28.25 5.45,27.1 5.35,25.6"
         fill="#839292"
         fill-rule="evenodd"
         stroke="none"
         id="path14" />
      <path
         d="M 8.8,25.75 H 8.75 L 8.35,25.6 Q 7.2,25.4 6.85,24.3 6.6,23.4 7.05,22.65 L 7.6,21.95 7.9,21.5 8.1,21.3 q 0.75,-0.65 1.65,-0.8 h 0.55 q 0.75,0 1.25,0.45 0.9,0.6 0.8,1.6 l 0.05,0.3 q 0.05,1 -0.75,2 l -0.8,0.6 -0.1,0.1 -0.55,0.2 h -0.1 l -0.25,0.1 H 9.25 L 8.8,25.75"
         fill="#bad1d0"
         fill-rule="evenodd"
         stroke="none"
         id="path15" />
      <path
         d="m -8.4,45.3 q 0.4,2.35 -0.3,3.85 L -9,49.35 -9.2,49.1 q -0.2,-2.15 -1.35,-4.9 l -2,-4.75 q -1.95,-5.65 -1.7,-9.55 0.2,-3.25 0.95,-5.35 l 0.85,-2.05 q 0.5,-1.25 0.45,-2.2 -0.1,-2.1 -1.25,-5.55 -1.4,-4.1 -1.65,-5.6 l 0.2,-0.3 q 0.25,-0.1 0.3,0.1 l 1.9,5.2 q 1.25,3.2 1.5,5.25 0.2,1.9 -0.3,5.1 l -0.65,5.1 q -0.05,2.65 0.8,6 l 1.7,5.8 1.05,3.9"
         fill="#a97c4c"
         fill-rule="evenodd"
         stroke="none"
         id="path16" />
      <path
         d="m -22.2,15.2 h 0.15 q 0.2,1.95 2.35,5.15 2.15,3.2 2.35,5.1 0.15,1.6 -0.9,5.5 -0.9,3.3 -0.15,5.4 0.1,0.25 -0.15,0.4 l -0.4,-0.1 q -1.45,-1.8 -0.5,-5 1.2,-4.05 1.05,-5.2 -0.2,-1.7 -2.25,-5.55 -1.8,-3.4 -1.55,-5.7"
         fill="#a97c4c"
         fill-rule="evenodd"
         stroke="none"
         id="path17" />
      <path
         d="m -3.05,30.25 -1.1,-1.1 q -1,-0.8 -1.35,-0.4 -1.7,2.15 0.25,7.3 1.5,3.9 2.2,6.5 0.9,3.45 1.15,6.8 0.05,0.25 -0.25,0.3 -0.3,0.05 -0.35,-0.25 -0.7,-5.15 -1.65,-7.85 l -1.25,-2.95 -1.35,-3 q -1.9,-5.05 -0.15,-7.55 1.45,-2.05 3.85,-0.4 1.65,1.1 3.05,3.3 4.6,7.25 1.75,9.7 Q -0.6,42.7 -2.3,39.4 -3.8,36.45 -3.35,34.05 L -3,33.7 q 0.3,0 0.45,0.25 l 0.7,2.15 0.85,2.1 q 0.95,1.35 1.45,0.75 0.4,-0.6 0.1,-1.85 -0.95,-4 -3.6,-6.85"
         fill="#a97c4c"
         fill-rule="evenodd"
         stroke="none"
         id="path18" />
      <path
         d="m 3.4,15.95 1.45,2.75 q 0.65,1.55 0.45,3 L 5,21.95 4.7,21.75 2.75,17.35 1.3,14.25 Q 0.35,10.6 0.55,4.75 0.55,4.55 0.75,4.5 1,4.45 1.05,4.65 1.35,5.7 1.85,10.4 2.2,13.9 3.4,15.95"
         fill="#a97c4c"
         fill-rule="evenodd"
         stroke="none"
         id="path19" />
      <path
         d="M 8.5,42.65 8.8,39.5 8,35 Q 7.95,34.7 8.3,34.5 l 0.5,0.05 q 1.85,2.85 1.65,7.45 -0.05,1 0.75,2.7 0.85,1.85 0.95,2.7 0.1,1.05 -1.05,1.25 -1.15,0.2 -1.25,-0.9 L 9.05,45.2 Q 8.4,43.55 8.5,42.65"
         fill="#a97c4c"
         fill-rule="evenodd"
         stroke="none"
         id="path20" />
      <path
         d="m 16.5,9.25 q 0.25,-0.15 0.55,0 2,1.3 1.45,4.1 -0.55,2.9 -3.15,1.95 -2.2,-0.8 -2.65,-3.85 -0.4,-2.6 0.55,-4.95 0.1,-0.25 0.45,-0.25 L 14.05,6.6 14,9.65 q 0,1.95 0.7,2.85 1.65,1.85 1.8,0.85 L 16.35,12 q -0.3,-1.1 -0.15,-2.25 0,-0.35 0.3,-0.5"
         fill="#a97c4c"
         fill-rule="evenodd"
         stroke="none"
         id="path21" />
      <path
         d="m -10.45,18.2 q 0.2,1.9 -0.45,5.1 -0.65,3.45 -0.6,5.05 0.1,2.5 1.15,5.9 l 1.8,5.8 1.3,4.2 q 0.7,2.45 0.5,4.3 -0.05,0.45 -0.55,0.55 -0.55,0.1 -0.55,-0.4 0,-3.1 -2.35,-9.55 -2.25,-6.15 -2.05,-9.65 l 0.85,-5.1 q 0.65,-3.15 0.45,-5.15 -0.2,-2.3 -1.15,-4.85 l -2,-4.55 0.05,-0.1 h 0.1 q 3.05,3.85 3.5,8.45"
         fill="#e4c9a9"
         fill-rule="evenodd"
         stroke="none"
         id="path22" />
      <path
         d="m -21.65,14.45 q 0.25,-0.15 0.25,0 0.2,2.15 2.25,5.3 2.2,3.4 2.65,5.15 0.5,2.1 -0.15,5.8 -0.8,4.15 -0.65,5.85 0.05,0.4 -0.4,0.5 -0.45,0.15 -0.55,-0.25 -0.3,-1.85 0.3,-6.65 0.5,-4.25 -0.35,-6.6 l -2.35,-4.4 q -1.45,-2.65 -1,-4.7"
         fill="#e4c9a9"
         fill-rule="evenodd"
         stroke="none"
         id="path23" />
      <path
         d="m -3.2,43.1 q -0.55,-2.9 -2.05,-6.55 -1.05,-2.8 -1.2,-4.1 -0.3,-2.6 1.4,-3.65 l 0.35,0.05 q 0.15,0.2 -0.05,0.35 -1.7,1.2 -0.7,4.5 l 2.05,4.6 q 0.65,1.45 1.15,5.2 0.45,3.4 1.35,5 0.2,0.35 -0.15,0.6 L -1.7,49.05 q -0.7,-1 -1.05,-2.9 Q -3,44.05 -3.2,43.1"
         fill="#e4c9a9"
         fill-rule="evenodd"
         stroke="none"
         id="path24" />
      <path
         d="m -0.85,36.4 0.55,1.1 q 0.3,0.7 0.15,1.1 -0.1,0.4 -0.45,0.2 l -0.55,-1 -0.45,-1.3 q -0.75,-1.35 -0.8,-2.1 0,-0.15 0.1,-0.05 0.55,0.3 1.45,2.05"
         fill="#e4c9a9"
         fill-rule="evenodd"
         stroke="none"
         id="path25" />
      <path
         d="m 2.45,33.35 q 2.45,4.85 0.1,6.4 -0.3,0.2 -0.3,-0.15 Q 3,36.3 0.9,32.45 q -1.9,-3.55 -5,-5.6 -0.25,-0.15 0,-0.4 0.25,-0.3 0.5,-0.1 3.7,2.15 6.05,7"
         fill="#e4c9a9"
         fill-rule="evenodd"
         stroke="none"
         id="path26" />
      <path
         d="m 3.95,14.25 q 1.6,4.15 1.9,7.25 l -0.25,0.05 -3,-8 Q 0.75,8.6 1.35,5.3 1.4,5.15 1.55,5.15 l 0.2,0.15 q 0.5,4.75 2.2,8.95"
         fill="#e4c9a9"
         fill-rule="evenodd"
         stroke="none"
         id="path27" />
      <path
         d="m 10.6,42.8 -0.1,-2.35 -0.3,-2.3 q -0.45,-1.55 -0.45,-2.4 0,-0.15 0.1,-0.05 1.55,2.2 1.55,5.35 0,1.4 0.6,3.25 l 0.9,3.15 -0.15,0.35 -0.35,-0.05 q -1.7,-2.1 -1.8,-4.95"
         fill="#e4c9a9"
         fill-rule="evenodd"
         stroke="none"
         id="path28" />
      <path
         d="m 16.2,12 0.25,0.05 q 0.35,0.55 0,1.05 -0.2,0.4 -0.55,0.2 -1.75,-0.7 -2.05,-2.7 -0.15,-1.2 0.2,-3.65 0.1,-0.35 0.45,-0.35 0.35,0.05 0.3,0.4 -0.25,2.15 -0.15,3 0.15,1.7 1.25,2.4 L 16,12.2 16.2,12"
         fill="#e4c9a9"
         fill-rule="evenodd"
         stroke="none"
         id="path29" />
      <path
         d="m 17.9,9.6 q 1,1.5 1.35,2.9 0.45,2.05 -1.2,2.35 L 17.8,14.75 V 14.5 l 0.5,-1.1 q 0.15,-0.6 -0.05,-1.25 L 17.3,10 Q 17.1,9.75 17.4,9.55 l 0.5,0.05"
         fill="#e4c9a9"
         fill-rule="evenodd"
         stroke="none"
         id="path30" />
      <path
         d="m 1.55,-1.15 0.1,0.1 -0.1,0.15 q -7.7,1.75 -11.4,2.8 -6.4,1.85 -10.75,4.7 -6,3.95 -7.95,7.5 -1.25,2.3 -1.95,5.35 l -1.05,5.55 -0.1,0.1 -0.1,-0.1 q -0.15,-12.6 9.3,-18.85 5.05,-3.3 11.5,-5.2 6.2,-1.85 12.5,-2.1"
         fill="#e9a968"
         fill-rule="evenodd"
         stroke="none"
         id="path31" />
      <path
         d="m -26.4,43.25 -2.7,-5.9 q -1.4,-3.45 -1.8,-6.25 l 0.2,-0.05 q 3.2,8.15 6.3,12.8 3.6,5.4 4.8,8.35 0.2,0.45 -0.25,0.75 l -0.9,0.05 q -1.9,-1.2 -3.4,-4.4 l -2.25,-5.35"
         fill="#e9a968"
         fill-rule="evenodd"
         stroke="none"
         id="path32" />
      <path
         d="M 9.7,-0.7 Q 9.5,-0.9 9.8,-0.9 l 1.75,-0.05 Q 12.6,-0.9 13,-0.2 v 0.05 h 0.05 l 0.3,0.1 V 0.1 L 13.2,0.15 13,0.05 12.8,0.15 Q 11.2,0.3 9.7,-0.7"
         fill="#e9a968"
         fill-rule="evenodd"
         stroke="none"
         id="path33" />
      <path
         d="m 23.25,4.3 q -0.2,-0.2 0,-0.4 l 0.4,-0.05 2.25,1.85 0.95,0.9 Q 27.4,7.2 27.4,7.7 L 27.2,8.1 26.8,8.2 Q 26.1,8.15 25,6.5 L 23.25,4.3"
         fill="#e9a968"
         fill-rule="evenodd"
         stroke="none"
         id="path34" />
      <path
         d="m -42.65,11.25 q 5.25,3.3 5.95,11.95 0.2,2.8 -0.65,16.25 -5.95,0 -12.7,2.3 1.8,-1.25 2.7,-3.75 0.65,-1.8 1,-5.05 l 0.9,-11.25 q 0.7,-6.3 2.8,-10.45"
         fill="#7cbe31"
         fill-rule="evenodd"
         stroke="none"
         id="path35" />
      <path
         d="m -39.9,7.1 q 2.25,0.3 5.3,1.5 l 5.1,2.25 q -5.1,5.3 -5.25,13.8 -0.05,5.1 2.25,15.25 l -4.85,-0.45 Q -36.5,26 -36.7,23.2 q -0.7,-8.65 -5.95,-11.95 1,-2.05 2.7,-4.1 L -39.9,7.1"
         fill="#5b8a25"
         fill-rule="evenodd"
         stroke="none"
         id="path36" />
      <path
         d="m -33.15,-10.5 2.65,-1.55 q 1.15,-0.7 4.05,-2.9 l 4.2,-2.75 q 2.05,-1.1 6,-1.5 l 6.3,-0.75 v 0.05 q -5.85,1.95 -11.4,5.75 l -3.95,3.45 -3.45,3.85 q -2.8,-0.05 -5.45,-1.6 l -1.9,-1 q 1.25,-0.25 2.95,-1.05"
         fill="#7cbe31"
         fill-rule="evenodd"
         stroke="none"
         id="path37" />
      <path
         d="m -27.3,-6.1 q 5.35,-6.85 13.75,-11.05 3.8,-1.9 8.55,-3.25 5.45,-1.55 10.15,-1.75 3.85,3.2 2.9,9.95 -0.85,6.5 -4.9,10 -14,9.65 -35.2,9.2 -3.1,-1.5 -4.75,-1.85 -4.7,-0.95 -10.35,0.5 l 4,-2.8 q 8.2,-5.7 22.4,-3.45 l 0.1,-0.1 -0.05,-0.1 q -6.3,-1.4 -11,-1.15 1.2,-0.55 2.35,-1.7 l 2.05,-2.45"
         fill="#7cbe31"
         fill-rule="evenodd"
         stroke="none"
         id="path38" />
      <path
         d="m 6.95,-22 0.1,-0.15 q 4.75,0.1 7.9,1.8 l 0.1,4.85 H 15 l -0.2,0.35 q 0,0.25 0.25,0.25 0,6.3 -1.2,10.1 -1.6,5.05 -5.95,8.85 -5,4.45 -11.1,6.4 -6.1,2 -12.7,1.35 L -22.25,10.6 -28.4,8.65 -32.05,7 q 21.2,0.45 35.2,-9.2 4.05,-3.5 4.9,-10 0.95,-6.75 -2.9,-9.95 l 1.15,-0.05 0.25,0.3 0.4,-0.1"
         fill="#8edb37"
         fill-rule="evenodd"
         stroke="none"
         id="path39" />
      <path
         d="m 13.15,-25.7 9.85,0.3 q 6.25,1.65 9.2,10.8 -5.25,-7.1 -19.05,-11.1"
         fill="#96e73a"
         fill-rule="evenodd"
         stroke="none"
         id="path40" />
      <path
         d="m 24.15,-16.85 q -4.5,-0.4 -8.4,1.1 l -0.5,-4.5 0.2,-0.05 v -0.2 q -2.5,-2.4 -7.25,-2.75 2.2,-1.75 4.95,-2.45 13.8,4 19.05,11.1 l 0.15,0.4 q -3.65,-2.2 -8.2,-2.65"
         fill="#7cbe31"
         fill-rule="evenodd"
         stroke="none"
         id="path41" />
      <path
         d="m 52.2,32.25 q -0.3,3 1.7,6.9 2.1,4.2 4.95,5.2 -3.2,0.85 -6.1,0.65 l -3.95,-0.7 -3.9,-1 -5.3,-0.95 -5.35,0.15 q 1.3,-6.45 6.25,-9.9 5.1,-3.55 11.9,-2.15 l -0.2,1.8"
         fill="#7cbe31"
         fill-rule="evenodd"
         stroke="none"
         id="path42" />
      <path
         d="m 44.55,3.15 q -1.8,5.1 1.45,12 1.5,3.25 7.05,11.35 l -0.65,3.95 q -6.8,-1.4 -11.9,2.15 -4.95,3.45 -6.25,9.9 -1.25,0.2 -2.6,0.85 l 3.6,-10.75 q 1.9,-6.35 1.7,-11.05 l 2.95,2.05 q 1.7,1.2 3.1,1.8 4.55,2 6.15,-0.05 l 0.1,-0.35 0.7,-0.55 Q 50.1,23.95 49.6,23.7 43.65,20.95 41.9,14.1 L 40.4,1 44.55,3.15"
         fill="#6ba42b"
         fill-rule="evenodd"
         stroke="none"
         id="path43" />
      <path
         d="M 53.05,26.5 Q 47.5,18.4 46,15.15 q -3.25,-6.9 -1.45,-12 5.65,3.45 8.1,9 1.35,3.1 1.3,7.1 -0.05,2.5 -0.9,7.25"
         fill="#7cbe31"
         fill-rule="evenodd"
         stroke="none"
         id="path44" />
      <path
         d="m 20.35,-7.65 q -0.8,-0.4 0,-3.05 1.15,-3.95 1.3,-5.4 6.05,0.1 11.5,4.4 3.55,2.9 4.8,8.55 0.6,2.75 0.95,10 0.6,15.15 8.2,17.7 l -0.4,0.05 q -1.3,0 -3.6,-0.9 -2.3,-0.9 -6.1,-2.8 l -0.85,-3.35 q -1.25,-6.9 -5.6,-13.6 -4.05,-6.3 -10.2,-11.6"
         fill="#7cbe31"
         fill-rule="evenodd"
         stroke="none"
         id="path45" />
      <path
         d="m 15.8,-15.15 q 2.85,-0.95 5.85,-0.95 -0.15,1.45 -1.3,5.4 -0.8,2.65 0,3.05 6.15,5.3 10.2,11.6 4.35,6.7 5.6,13.6 Q 33.85,9.85 28.4,4.5 22.8,-0.95 15,-2.8 q 1.65,-4.35 0.8,-12.35"
         fill="#629527"
         fill-rule="evenodd"
         stroke="none"
         id="path46" />
      <path
         d="m -29.3,11 q -4.6,5.85 -4.7,14.05 -0.1,5.45 2.2,15.15 l 0.1,0.6 0.15,0.55 q 0.05,0.25 -0.25,0.35 -0.3,0.15 -0.35,-0.15 l -0.05,-0.1 -0.45,0.05 q -9.7,-1.9 -20.05,1.85 -0.3,0.1 -0.4,-0.15 l 0.2,-0.4 -0.15,-0.4 0.2,-0.4 q 4.2,-2.35 4.95,-9.3 0.15,-8.15 0.65,-11.45 0.75,-4.8 2.15,-7.9 1.75,-4 5,-6.25 l 0.15,0.05 q -4.05,4.85 -5.2,12.3 -0.65,4.3 -1.2,13.5 -0.35,3.25 -1,5.05 -0.9,2.5 -2.7,3.75 9.75,-3.3 17.55,-1.85 -2.3,-10.15 -2.25,-15.25 0.15,-8.5 5.25,-13.8 l 0.2,0.15"
         fill="#336800"
         fill-rule="evenodd"
         stroke="none"
         id="path47" />
      <path
         d="m -14.9,-41 q -0.6,-1.55 0.25,-3.15 0.95,-1.9 3.6,-4.55 8.95,-2.7 14.6,-2.75 8.6,-0.05 10.95,5.6 -1.6,-2.2 -5.05,-3.3 -3.05,-0.95 -6.45,-0.7 -15,1.05 -14.6,5.65 0.15,2.3 2.95,3.65 2.3,1.2 5.55,1.4 -8.5,1.15 -11.8,-1.85"
         fill="#619327"
         fill-rule="evenodd"
         stroke="none"
         id="path48" />
      <path
         d="m -11.05,-48.7 q -2.65,2.65 -3.6,4.55 -0.85,1.6 -0.25,3.15 -1.2,-1.1 -1.65,-2.5 -1.2,-3.25 1.55,-6.35 2.1,-2.4 5.65,-3.95 4.1,-1.75 10.25,-2 l 5.6,0.05 q 9.35,2.5 11.45,9.8 1.3,4.2 -0.5,9.05 l -3.2,3.85 Q 8.1,-26.1 4.15,-23.1 l -2.05,0.25 q 4.75,-2.7 8.35,-7.1 3.95,-4.7 5.1,-9.65 0.85,-3.6 -1.05,-6.25 -2.35,-5.65 -10.95,-5.6 -5.65,0.05 -14.6,2.75"
         fill="#7cbe31"
         fill-rule="evenodd"
         stroke="none"
         id="path49" />
      <path
         d="m 20.6,-48.7 q 1.95,4.95 -3.15,11.8 1.8,-4.85 0.5,-9.05 -2.1,-7.3 -11.45,-9.8 11.6,0.7 14.1,7.05"
         fill="#96e73a"
         fill-rule="evenodd"
         stroke="none"
         id="path50" />
      <path
         d="m -12.45,-53.45 q 5.1,-2.9 11.55,-3.35 l 12.95,0.6 q 8.3,1.75 9.6,7.1 1.75,6.7 -4,13.6 -6.8,8.35 -12.25,12.25 l 1.75,-0.05 q 3.1,-3.05 7.55,-3.8 4.2,-0.7 8.4,0.8 9.6,3.45 10.1,12.65 3.35,2.35 4.95,5.6 1.6,3.2 2.2,8.2 11.95,5.1 14.2,14.5 0.65,2.75 0.45,6.15 l -0.75,6.15 q -0.8,5.95 0.8,10.55 2.15,6.15 8,4.75 0.55,-0.15 0.65,0.35 0.05,0.45 -0.3,0.7 -1.4,1.2 -2.75,1.25 -4.8,2.2 -10.15,1.3 L 41.05,44.35 31.5,44.1 h -0.1 l -0.05,0.25 -0.3,0.2 q -0.25,0 -0.2,-0.25 0.5,-3.15 3.2,-11.35 2.35,-7 2.45,-11.55 L 36.35,21.2 36.25,21 q -0.2,-0.05 0,-0.3 Q 34.45,12.1 28.85,6.1 23.3,0.15 14.8,-2.3 l -1.45,2.7 q -3.35,4.65 -8.2,8 -4.75,3.3 -10.3,4.95 -5.1,1.5 -11.45,0.7 -4.95,-0.6 -11.3,-2.65 L -29.25,10.9 -29.3,11 -29.5,10.85 -34.6,8.6 Q -37.65,7.4 -39.9,7.1 L -40,7.2 -40.1,7.1 -42.6,7.05 q -3.9,0.3 -12.55,2.3 L -55.6,9 q -0.05,-0.4 0.3,-0.5 l 1,-0.35 -0.2,-0.45 0.35,-0.4 q 2.85,-1 8.45,-4.25 5.25,-3.1 8.45,-4.05 l 3.2,-0.7 q -0.1,-0.35 0.2,-0.5 1.6,-1.05 3.9,-3.35 -1.7,0.25 -4.1,-1.25 l -3.8,-2.65 q -0.85,-0.15 -1.7,-0.75 -0.25,-0.2 -0.05,-0.45 0.15,-0.3 0.45,-0.3 3.95,0.35 8.05,-2.3 l 7.05,-4.65 q 2.75,-1.3 6.9,-1.7 l 7.15,-0.7 0.2,0.15 -0.15,0.2 -6.3,0.8 q -3.95,0.4 -6,1.45 l -4.2,2.75 q -2.9,2.2 -4.05,2.9 l -2.65,1.55 q -1.7,0.8 -2.95,1.05 l 1.9,1 q 2.65,1.55 5.45,1.6 l 3.45,-3.85 3.95,-3.45 q 5.3,-3.65 11.4,-5.75 l 2.4,-0.7 q 6.1,-1.7 9.45,-2.25 -0.15,0 -0.2,-0.1 L 1.8,-23.2 Q 9.5,-28.35 13,-35 q 3,-5.75 1.55,-9.05 -1.35,-2.9 -4.3,-4.15 -2.6,-1.2 -6,-0.9 l -7.1,0.7 q -4.4,0.7 -6.65,2.35 -3.05,2.25 0.7,4.15 2.55,1.3 5.25,1.6 l 4.15,0.25 0.25,0.35 0.25,0.35 -0.3,0.4 q -4.95,2 -10.8,1.15 -6.85,-1.05 -7.85,-6.05 -1.25,-5.9 5.4,-9.6 m -4.1,9.95 q 2.1,5.9 13.45,4.35 -3.25,-0.2 -5.55,-1.4 -2.8,-1.35 -2.95,-3.65 -0.4,-4.6 14.6,-5.65 5.5,-0.4 9.3,2 4.5,2.85 3.25,8.25 -1.15,4.95 -5.1,9.65 -3.6,4.4 -8.35,7.1 l 2.05,-0.25 q 3.95,-3 10.1,-9.95 3.85,-4.35 5.35,-7.15 2.5,-4.7 1,-8.5 -1.8,-4.6 -8.45,-6.25 Q 7.5,-56.1 0.9,-55.8 q -6.15,0.25 -10.25,2 -3.55,1.55 -5.65,3.95 -2.75,3.1 -1.55,6.35 m -10.75,37.4 -2.05,2.45 q -1.15,1.15 -2.35,1.7 4.8,-0.25 11,1.2 0.05,0.15 -0.05,0.15 -14.2,-2.25 -22.4,3.45 l -4,2.8 q 5.65,-1.45 10.3,-0.5 1.7,0.35 4.3,1.6 l 4.15,1.9 6.15,1.95 6.35,1.2 q 6.6,0.65 12.7,-1.35 6.1,-1.95 11.1,-6.4 4.35,-3.8 5.95,-8.85 1.2,-3.8 1.2,-10.1 -0.25,0 -0.25,-0.25 L 15,-15.5 h 0.05 l -0.1,-4.85 q -3.15,-1.7 -7.9,-1.8 l -0.1,0.15 -0.4,0.1 q -0.25,-0.05 -0.3,-0.25 l -2.6,0.1 -0.15,0.1 L 3.05,-22 q -4.3,0.45 -9.05,1.9 -4.15,1.25 -7.55,2.95 -8.4,4.2 -13.75,11.05 m 42.55,-14.15 0.5,4.5 q 3.9,-1.5 8.4,-1.1 4.55,0.45 8.2,2.65 -2.9,-9.55 -9.35,-11.2 -4.15,-1.05 -7.75,-0.7 -4.15,0.45 -7.05,2.85 4.75,0.35 7.25,2.75 v 0.2 l -0.2,0.05 m 0.55,5.1 q 0.85,8 -0.8,12.35 8.45,2 14.25,8.2 5.65,6 7.55,14.6 l 0.05,0.15 0.15,0.75 q 3.8,1.9 6.1,2.8 2.3,0.9 3.6,0.9 h 0.4 Q 39.6,22 38.85,6.85 q -0.3,-7.15 -0.9,-10 -1.2,-5.65 -4.8,-8.5 -3.85,-3.15 -8.25,-4.05 -4.55,-1 -9.1,0.55 M 41.9,14.1 q 1.75,6.85 7.7,9.6 0.5,0.25 0.35,0.75 -0.2,0.5 -0.7,0.6 l -0.1,0.3 Q 47.55,27.4 43,25.4 41.6,24.8 39.9,23.6 l -2.95,-2.05 q 0.2,4.7 -1.7,11.05 l -3.6,10.75 q 2.7,-1.3 6.55,-1.1 l 6.7,1.05 3.9,1.05 3.95,0.7 q 2.85,0.15 6.1,-0.7 -2.85,-1 -4.95,-5.2 -2,-3.9 -1.7,-6.9 l 1.5,-10.1 q 0.7,-6 -1.05,-10 Q 50.9,8.2 47.65,5.4 44.8,2.95 40.4,1 l 1.5,13.1"
         fill="#336800"
         fill-rule="evenodd"
         stroke="none"
         id="path51" />
      <path
         d="m 15.65,-23.85 q 0.6,1.7 0.3,5.05 -0.3,3.2 -1.1,4.9 -2.65,5.3 -9.45,7.55 -6.3,2.1 -12.6,0.65 7.95,-1.65 12.6,-5.1 5.95,-4.45 5,-11.05 L 10.15,-26 q -0.35,-2.5 -1.45,-3.8 2.35,1.1 4.2,2.55 2.2,1.75 2.75,3.4"
         fill="#40afb7"
         fill-rule="evenodd"
         stroke="none"
         id="path52" />
      <path
         d="m -11.85,-7.45 q -5.7,-3.05 -6,-7.95 l 1.2,1.05 q 2.15,2.15 5.25,2.45 2.8,0.25 5.25,-0.95 6.45,-2.55 8.85,-6.55 2.85,-4.75 -1.35,-10 l -3.4,-1.75 q 4.9,-0.65 9.1,0.7 0.85,0.35 1.65,0.65 1.1,1.3 1.45,3.8 l 0.25,4.15 q 0.95,6.6 -5,11.05 -4.65,3.45 -12.6,5.1 -2.8,-0.65 -4.65,-1.75"
         fill="#55c7d2"
         fill-rule="evenodd"
         stroke="none"
         id="path53" />
      <path
         d="m -11.4,-11.95 q -3.1,-0.3 -5.25,-2.45 l -1.2,-1.05 q -0.15,-2.55 0.95,-5.5 1,-2.85 2.95,-4.65 1.6,-1.5 4.4,-2.7 2.85,-2.35 7.5,-2.9 l 3.4,1.75 q 4.2,5.25 1.35,10 -2.4,4 -8.85,6.55 -2.45,1.2 -5.25,0.95"
         fill="#64ecf8"
         fill-rule="evenodd"
         stroke="none"
         id="path54" />
      <path
         d="m -12.2,-17.15 q -1.8,-2.6 -0.4,-5.75 1.3,-2.95 4.25,-4.15 l 3.85,-0.35 h 0.1 v 0.05 l 1.2,0.25 -1.1,-0.3 1.35,0.3 q 1.55,0.6 2.45,2.1 0.9,1.5 0.65,3.1 l -0.05,0.6 1.45,-0.15 0.1,0.05 q 1.85,0.35 2.3,1.75 0.4,1.25 -0.25,2.3 l -0.05,0.05 q -1.35,2.25 -3.6,2 -1.6,-0.25 -2.2,-1.6 -2.25,2.05 -5.2,2.1 -3.15,0.1 -4.85,-2.35"
         fill="#96f3fe"
         fill-rule="evenodd"
         stroke="none"
         id="path55" />
      <path
         d="m -0.5,-14.75 q 1.3,0 2.1,1.2 0.7,1.15 0.4,2.4 -0.3,1.4 -1.55,2.2 -1.1,0.7 -2.6,0.7 -1.35,0 -2.1,-1.2 -0.75,-1.15 -0.45,-2.4 0.35,-1.4 1.6,-2.2 1.1,-0.7 2.6,-0.7"
         fill="#96f3fe"
         fill-rule="evenodd"
         stroke="none"
         id="path56" />
      <path
         d="m -13.45,-26.2 q -1.85,1.55 -2.75,4.1 -3.2,8.75 2.35,12.5 4.15,2.75 9.2,3.45 5.1,0.7 9.75,-0.95 7.45,-2.6 9.2,-7 1.3,-3.35 1.3,-6.35 -0.05,-3.8 -2.35,-5.75 -4.9,-4 -11,-4.35 -5.75,-0.35 -11.75,2.5 -0.3,0.15 -0.3,-0.1 v -0.05 q -2.35,0.95 -3.65,2 m -4.2,13.85 q -0.95,-2.8 -0.35,-6.05 0.5,-3 2.2,-5.8 1.1,-1.85 2.85,-2.9 1.1,-0.65 3.2,-1.3 l 0.1,-0.1 q 3.9,-2.4 8.25,-3.2 4.95,-0.9 8.75,0.6 8.5,3.4 9,7.8 0.75,6.45 -2.1,11.15 -2.95,4.9 -9.15,6.65 -6.35,1.85 -12.9,0.5 -7.9,-1.6 -9.85,-7.35"
         fill="#2a95a0"
         fill-rule="evenodd"
         stroke="none"
         id="path57" />
      <path
         d="m -11.1,-20 q -0.8,-1.2 -0.5,-2.55 0.4,-1.5 1.7,-2.35 1.15,-0.8 2.75,-0.8 1.15,0 1.95,0.9 0.75,0.8 0.85,1.9 l 0.85,0.75 q 0.25,0.6 0.1,1.2 -0.4,1.6 -2.3,1.6 l -0.4,-0.1 q -1.2,0.75 -2.75,0.75 -1.45,0 -2.25,-1.3"
         fill="#ffffff"
         fill-rule="evenodd"
         stroke="none"
         id="path58" />
      <path
         d="m -1.5,-10.85 q -0.9,0.8 -2.1,0.65 -1.15,-0.1 -1.65,-1.1 -0.5,-1.05 0.1,-2.05 l -0.05,0.05 0.15,-0.25 q 1.1,-1.65 2.65,-1.45 1.6,0.15 1.85,1.9 v 0.25 q -0.05,1.2 -0.95,2"
         fill="#ffffff"
         fill-rule="evenodd"
         stroke="none"
         id="path59" />
      <path
         d="m 12.05,-18.35 q 0.85,1.35 -0.15,2.7 -1,1.3 -2.6,1.15 -1.2,-0.1 -1.65,-1.2 -0.5,-1.05 0.1,-2.1 0.55,-1.55 1.95,-1.55 1.7,-0.1 2.35,1"
         fill="#3e98a0"
         fill-rule="evenodd"
         stroke="none"
         id="path60" />
      <path
         d="m 0.6,-29.5 0.2,0.2 -0.05,0.1 -0.15,0.45 -0.1,0.05 -0.15,0.1 -0.1,0.1 H 0.2 l -0.15,0.05 -0.3,0.05 h -0.1 l -0.25,0.05 q -0.7,0 -1.2,-0.3 -0.25,-0.25 0,-0.6 l 0.15,-0.25 0.3,-0.25 0.2,0.05 0.1,0.05 v 0.25 H -1 l 0.55,0.1 h 0.15 l 0.65,-0.05 0.25,-0.15"
         fill="#3e98a0"
         fill-rule="evenodd"
         stroke="none"
         id="path61" />
      <path
         d="m -2.2,-29.45 q -0.1,-1.7 0.2,-5.1 0.3,-3.4 0.15,-5.05 l 1.7,-0.2 q 1.15,3.55 0.5,10 -0.1,1.1 -1.25,1.35 -1.2,0.25 -1.3,-1"
         fill="#336800"
         fill-rule="evenodd"
         stroke="none"
         id="path62" />
    </g>
  </defs>
  <path
     id="path63"
     d="M 8.9003906,0 C 6.4337264,0 4.332941,0.86627777 2.5996094,2.5996094 0.86627777,4.3662743 0,6.4825546 0,8.9492188 V 26.099609 c 0,2.466665 0.86627777,4.56745 2.5996094,6.300782 C 4.3662743,34.133722 6.4670597,35 8.9003906,35 H 55 V 0 Z"
     style="fill:#171717;fill-opacity:0" />
</svg>
