<?xml version="1.0" encoding="UTF-8" standalone="no"?>
<svg
   ffdec:objectType="frame"
   height="419.65px"
   width="284.15px"
   version="1.1"
   id="svg4"
   sodipodi:docname="itembagbackground.svg"
   inkscape:version="1.3.2 (091e20e, 2023-11-25, custom)"
   xmlns:inkscape="http://www.inkscape.org/namespaces/inkscape"
   xmlns:sodipodi="http://sodipodi.sourceforge.net/DTD/sodipodi-0.dtd"
   xmlns:xlink="http://www.w3.org/1999/xlink"
   xmlns="http://www.w3.org/2000/svg"
   xmlns:svg="http://www.w3.org/2000/svg"
   xmlns:ffdec="https://www.free-decompiler.com/flash">
  <sodipodi:namedview
     id="namedview4"
     pagecolor="#ffffff"
     bordercolor="#000000"
     borderopacity="0.25"
     inkscape:showpageshadow="2"
     inkscape:pageopacity="0.0"
     inkscape:pagecheckerboard="0"
     inkscape:deskcolor="#d1d1d1"
     inkscape:zoom="4"
     inkscape:cx="20.5"
     inkscape:cy="159.375"
     inkscape:window-width="1920"
     inkscape:window-height="1094"
     inkscape:window-x="-11"
     inkscape:window-y="-11"
     inkscape:window-maximized="1"
     inkscape:current-layer="use1" />
  <g
     transform="matrix(1.0, 0.0, 0.0, 1.0, 0.0, 12.65)"
     id="g1">
    <g
       id="use1">
      <path
         id="path10"
         style="display:inline;fill:#000000;fill-opacity:0.49803904"
         d="M 72 0.000390625 C 67.333338 0.000390625 63.33333 1.6670606 60 5.0003906 C 56.66667 8.3337206 55 12.333729 55 17.000391 L 55 34.000391 L 15.900391 34.000391 C 11.533728 34.000391 7.7837208 35.566279 4.6503906 38.699609 C 1.5503937 41.799606 0 45.549614 0 49.949609 L 0 67.1 C 0 70.33333 0.9166685 73.300393 2.75 76.000391 C 0.9166685 78.767055 0 81.749613 0 84.949609 L 0 102.1 C 0 105.33333 0.9166685 108.30039 2.75 111.00039 C 2.6696035 111.12172 2.6159334 111.24933 2.5390625 111.37148 C 2.5372797 111.37417 2.5349841 111.37662 2.5332031 111.3793 C 2.531634 111.38179 2.5308645 111.38461 2.5292969 111.38711 C 2.1750164 111.92124 1.8693993 112.47593 1.5898438 113.04141 C 1.5881685 113.04479 1.5856576 113.04778 1.5839844 113.05117 C 1.5616278 113.09739 1.5394597 113.14351 1.5175781 113.18984 C 1.218247 113.82366 0.97217325 114.47057 0.76171875 115.12539 C 0.96989436 114.47014 1.2182698 113.82363 1.5175781 113.18984 C 1.1979961 113.85454 0.93062047 114.54114 0.71289062 115.24844 C 0.68770869 115.32912 0.6703225 115.41158 0.64648438 115.49258 C 0.470978 116.09897 0.325808 116.71821 0.22460938 117.35586 C 0.32091009 116.76875 0.45616725 116.19128 0.6171875 115.61953 C 0.45424451 116.19092 0.32095334 116.76873 0.22460938 117.35586 C 0.22346042 117.3631 0.22184247 117.3701 0.22070312 117.37734 C 0.19456525 117.53805 0.17349566 117.69984 0.15234375 117.86172 C 0.07266078 118.4913 0.021016271 119.13231 0.01171875 119.79141 C 0.011203481 119.84493 0 119.89596 0 119.94961 L 0 137.1 C 0 138.1527 0.1018517 139.16273 0.27929688 140.14102 C 0.27964889 140.14291 0.27894425 140.14499 0.27929688 140.14687 C 0.66351179 142.26077 1.4569519 144.20279 2.6699219 145.96914 C 3.2405568 146.80011 3.8963374 147.59595 4.6503906 148.35 C 5.4337232 149.125 6.2548186 149.80391 7.1152344 150.38516 C 7.9756502 150.96641 8.8750009 151.45078 9.8125 151.83828 C 10.749999 152.22578 11.725652 152.51563 12.740234 152.70937 C 13.754817 152.90312 14.808725 153.00039 15.900391 153.00039 C 14.808727 153.00039 13.754817 152.90316 12.740234 152.70937 C 11.725652 152.51559 10.75 152.22583 9.8125 151.83828 C 8.875 151.45073 7.9756505 150.96644 7.1152344 150.38516 C 6.2548182 149.80387 5.4337216 149.125 4.6503906 148.35 C 3.8964021 147.59601 3.2404579 146.80007 2.6699219 145.96914 C 2.6975439 146.01235 2.7209722 146.05725 2.75 146.1 C 0.91667033 148.86666 0 151.84922 0 155.04922 L 0 172.19961 C 0 175.43294 0.91667033 178.4 2.75 181.1 C 0.91667033 183.86666 0 186.84922 0 190.04922 L 0 207.19961 C 0 211.59959 1.5503968 215.34961 4.6503906 218.44961 C 7.7837177 221.54961 11.533732 223.1 15.900391 223.1 L 55 223.1 L 55 390.04922 C 55 394.71588 56.66667 398.71589 60 402.04922 C 63.33333 405.34922 67.333338 407.00039 72 407.00039 L 258.05078 407.00039 C 262.71744 407.00039 266.71745 405.34922 270.05078 402.04922 C 273.35078 398.71589 275 394.71588 275 390.04922 L 275 17.000391 C 275 12.333729 273.35078 8.3337206 270.05078 5.0003906 C 266.71745 1.6670606 262.71744 0.000390625 258.05078 0.000390625 L 72 0.000390625 z M 0.27929688 140.14102 C 0.10178521 139.16281 3.693629e-17 138.15267 0 137.1 L 0 137.19961 C 0 138.20704 0.10127331 139.18538 0.27929688 140.14102 z " />
    </g>
    <use
       ffdec:characterId="1014"
       height="393.0"
       id="mcInventoryFrame"
       transform="matrix(1.0, 0.0, 0.0, 1.0, 62.0, 7.0)"
       width="206.0"
       xlink:href="#sprite60" />
    <filter
       id="filter0">
      <feColorMatrix
         in="SourceGraphic"
         result="filterResult0"
         type="matrix"
         values="0 0 0 0 0.39607844,0 0 0 0 0.5372549,0 0 0 0 0.0,0 0 0 1 0"
         id="feColorMatrix1" />
      <feConvolveMatrix
         divisor="64.0"
         in="filterResult0"
         kernelMatrix="1 1 1 1 1 1 1 1 1 1 1 1 1 1 1 1 1 1 1 1 1 1 1 1 1 1 1 1 1 1 1 1 1 1 1 1 1 1 1 1 1 1 1 1 1 1 1 1 1 1 1 1 1 1 1 1 1 1 1 1 1 1 1 1"
         order="8 8"
         result="filterResult1"
         id="feConvolveMatrix1" />
      <feComposite
         in="SourceGraphic"
         in2="filterResult1"
         operator="over"
         result="filterResult2"
         id="feComposite1" />
    </filter>
  </g>
  <defs
     id="defs4">
    <g
       id="shape0"
       transform="matrix(1.0, 0.0, 0.0, 1.0, 0.0, 0.0)">
      <path
         d="M275.0 17.0 L275.0 390.05 Q275.0 397.05 270.05 402.05 265.05 407.0 258.05 407.0 L72.0 407.0 Q65.0 407.0 60.0 402.05 55.0 397.05 55.0 390.05 L55.0 179.05 55.0 163.55 55.0 158.05 55.0 153.0 15.9 153.0 Q9.35 153.0 4.65 148.35 0.0 143.7 0.0 137.1 L0.0 119.95 Q0.0 115.15 2.75 111.0 0.0 106.95 0.0 102.1 L0.0 84.95 Q0.0 80.15 2.75 76.0 0.0 71.95 0.0 67.1 L0.0 49.95 Q0.0 43.35 4.65 38.7 9.35 34.0 15.9 34.0 L55.0 34.0 55.0 17.0 Q55.0 10.0 60.0 5.0 65.0 0.0 72.0 0.0 L258.05 0.0 Q265.05 0.0 270.05 5.0 275.0 10.0 275.0 17.0"
         fill="#000000"
         fill-opacity="0.49803922"
         fill-rule="evenodd"
         stroke="none"
         id="path1" />
      <path
         d="M15.9 69.0 L55.0 69.0 55.0 63.05 55.05 63.05 55.05 198.55 55.0 198.55 55.0 193.05 55.0 188.0 15.9 188.0 Q9.35 188.0 4.65 183.35 0.0 178.7 0.0 172.1 L0.0 154.95 Q0.0 150.15 2.75 146.0 0.0 141.95 0.0 137.1 L0.0 119.95 Q0.0 115.15 2.75 111.0 0.0 106.95 0.0 102.1 L0.0 84.95 Q0.0 78.35 4.65 73.7 9.35 69.0 15.9 69.0"
         fill="#808080"
         fill-rule="evenodd"
         stroke="none"
         id="path2" />
      <path
         d="M55.05 98.15 L55.05 233.65 55.0 233.65 55.0 228.15 55.0 223.1 15.9 223.1 Q9.35 223.1 4.65 218.45 0.0 213.8 0.0 207.2 L0.0 190.05 Q0.0 185.25 2.75 181.1 0.0 177.05 0.0 172.2 L0.0 155.05 Q0.0 150.25 2.75 146.1 0.0 142.05 0.0 137.2 L0.0 120.05 Q0.0 113.45 4.65 108.8 9.35 104.1 15.9 104.1 L55.0 104.1 55.0 98.15 55.05 98.15"
         fill="#808080"
         fill-rule="evenodd"
         stroke="none"
         id="path3" />
    </g>
    <g
       id="sprite60"
       transform="matrix(1.0, 0.0, 0.0, 1.0, -62.0, -7.0)">
      <use
         ffdec:characterId="1013"
         height="393.0"
         id="back"
         transform="matrix(1.0, 0.0, 0.0, 1.0, 62.0, 7.0)"
         width="206.0"
         xlink:href="#sprite61" />
    </g>
    <g
       id="sprite61"
       transform="matrix(1.0, 0.0, 0.0, 1.0, 103.0, 196.5)">
      <use
         ffdec:characterId="1012"
         height="393.0"
         transform="matrix(1.0, 0.0, 0.0, 1.0, -103.0, -196.5)"
         width="206.0"
         xlink:href="#shape42"
         id="use3" />
    </g>
    <g
       id="shape42"
       transform="matrix(1.0, 0.0, 0.0, 1.0, 103.0, 196.5)">
      <path
         d="M103.0 -186.5 L103.0 186.55 Q103.0 190.7 100.1 193.6 97.2 196.5 93.05 196.5 L-93.0 196.5 Q-97.15 196.5 -100.05 193.6 -103.0 190.65 -103.0 186.55 L-103.0 -186.5 Q-103.0 -190.6 -100.05 -193.55 -97.1 -196.5 -93.0 -196.5 L93.05 -196.5 Q97.15 -196.5 100.1 -193.55 103.0 -190.65 103.0 -186.5"
         fill="#d9f0a5"
         fill-rule="evenodd"
         stroke="none"
         id="path4" />
    </g>
  </defs>
</svg>
