<?xml version="1.0" encoding="UTF-8" standalone="no"?>
<svg xmlns:ffdec="https://www.free-decompiler.com/flash" xmlns:xlink="http://www.w3.org/1999/xlink" ffdec:objectType="frame" height="37.6px" width="68.6px" xmlns="http://www.w3.org/2000/svg">
  <g transform="matrix(1.0, 0.0, 0.0, 1.0, 1.3, 1.3)">
    <use ffdec:characterId="908" height="35.0" transform="matrix(1.0, 0.0, 0.0, 1.0, 0.0, 0.0)" width="66.0" xlink:href="#shape0"/>
    <use ffdec:characterId="919" height="41.75" transform="matrix(0.2981, 0.0, 0.0, 0.2981, 13.6, 18.5649)" width="103.35" xlink:href="#sprite0"/>
    <use ffdec:characterId="920" height="23.6" transform="matrix(1.0, 0.0, 0.0, 1.0, 12.35, 5.5)" width="31.1" xlink:href="#shape2"/>
    <use ffdec:characterId="922" height="14.55" transform="matrix(0.2981, 0.0, 0.0, 0.2981, 21.4, 18.6149)" width="16.3" xlink:href="#sprite1"/>
    <use ffdec:characterId="924" height="13.1" transform="matrix(0.2981, 0.0, 0.0, 0.2981, 26.25, 19.4)" width="9.8" xlink:href="#sprite2"/>
    <use ffdec:characterId="926" height="31.5" transform="matrix(0.2981, 0.0, 0.0, 0.2981, 26.3, 19.4)" width="42.7" xlink:href="#sprite3"/>
    <use ffdec:characterId="927" height="11.25" transform="matrix(1.0, 0.0, 0.0, 1.0, 16.4, 7.9)" width="26.35" xlink:href="#shape6"/>
    <use ffdec:characterId="929" height="18.3" transform="matrix(0.2981, 0.0, 0.0, 0.2981, 22.05, 13.2851)" width="24.85" xlink:href="#sprite4"/>
    <use ffdec:characterId="931" height="14.1" transform="matrix(0.2981, 0.0, 0.0, 0.2981, 28.4351, 13.2851)" width="17.0" xlink:href="#sprite5"/>
    <use ffdec:characterId="933" height="34.85" transform="matrix(0.2981, 0.0, 0.0, 0.2981, 16.95, 8.3351)" width="41.25" xlink:href="#sprite6"/>
    <use ffdec:characterId="934" height="19.55" transform="matrix(1.0, 0.0, 0.0, 1.0, 12.8, 8.95)" width="17.25" xlink:href="#shape10"/>
    <use ffdec:characterId="936" height="9.25" transform="matrix(0.2981, 0.0, 0.0, 0.2981, 19.8851, 18.4)" width="16.2" xlink:href="#sprite7"/>
    <use ffdec:characterId="938" height="13.8" transform="matrix(0.2981, 0.0, 0.0, 0.2981, 29.75, 19.0)" width="38.6" xlink:href="#sprite8"/>
    <use ffdec:characterId="940" height="2.65" transform="matrix(0.2981, 0.0, 0.0, 0.2981, 39.05, 12.35)" width="13.4" xlink:href="#sprite9"/>
    <use ffdec:characterId="942" height="14.2" transform="matrix(0.2981, 0.0, 0.0, 0.2981, 16.4351, 8.15)" width="43.7" xlink:href="#sprite10"/>
    <use ffdec:characterId="943" height="3.9" transform="matrix(1.0, 0.0, 0.0, 1.0, 16.95, 7.75)" width="12.2" xlink:href="#shape15"/>
    <use ffdec:characterId="945" height="32.0" transform="matrix(0.2981, 0.0, 0.0, 0.2981, 29.0649, 8.1351)" width="15.5" xlink:href="#sprite11"/>
    <use ffdec:characterId="948" height="65.45" transform="matrix(0.2981, 0.0, 0.0, 0.2981, 13.1, 1.2)" width="89.5" xlink:href="#sprite12"/>
    <use ffdec:characterId="950" height="12.25" transform="matrix(0.2981, 0.0, 0.0, 0.2981, 18.2, 11.95)" width="16.65" xlink:href="#sprite13"/>
    <use ffdec:characterId="952" height="14.05" transform="matrix(0.2981, 0.0, 0.0, 0.2981, 23.15, 14.0)" width="34.25" xlink:href="#sprite14"/>
  </g>
  <defs>
    <g id="shape0" transform="matrix(1.0, 0.0, 0.0, 1.0, 0.0, 0.0)">
      <path d="M57.15 35.0 L8.9 35.0 Q5.25 35.0 2.6 32.4 0.0 29.8 0.0 26.1 L0.0 8.95 Q0.0 5.25 2.6 2.6 5.2 0.0 8.9 0.0 L57.15 0.0 Q60.85 0.0 63.4 2.6 66.0 5.25 66.0 8.95 L66.0 26.1 Q66.0 29.8 63.4 32.4 60.8 35.0 57.15 35.0" fill="#d9f0a5" fill-rule="evenodd" stroke="none"/>
    </g>
    <g id="sprite0" transform="matrix(1.0, 0.0, 0.0, 1.0, 0.0, -0.05)">
      <use ffdec:characterId="918" height="41.75" transform="matrix(1.0, 0.0, 0.0, 1.0, 0.0, 0.05)" width="103.35" xlink:href="#shape1"/>
    </g>
    <g id="shape1" transform="matrix(1.0, 0.0, 0.0, 1.0, 0.0, -0.05)">
      <path d="M61.9 19.15 L62.5 18.5 64.9 17.35 63.3 17.75 Q62.5 17.9 61.9 17.4 L60.4 17.5 Q59.55 17.6 59.05 16.8 58.55 15.95 59.35 15.45 61.85 13.8 67.0 11.65 L59.8 13.85 54.85 14.95 Q52.0 15.25 50.0 14.2 49.05 13.75 49.35 12.85 49.85 11.25 51.45 9.95 L54.45 7.8 Q52.45 8.05 44.8 10.2 38.9 11.85 34.85 11.35 34.3 11.3 34.0 10.85 33.75 10.4 33.85 9.9 L34.1 9.3 31.55 9.15 Q30.75 9.1 30.55 8.3 L24.4 8.75 Q23.7 8.75 23.25 8.15 L19.2 9.25 Q19.75 9.9 19.05 10.55 L18.6 10.85 19.9 10.4 20.9 10.5 21.55 11.2 23.05 10.7 Q23.85 10.45 24.55 11.2 25.2 11.9 24.5 12.5 25.45 13.05 24.95 13.95 25.3 14.35 25.25 14.85 25.2 15.45 24.65 15.75 L24.5 15.8 Q25.25 16.05 25.5 16.7 L25.5 16.65 Q26.4 16.25 27.2 16.9 28.0 17.5 27.6 18.2 28.6 18.3 28.95 19.05 29.5 19.25 29.7 19.6 L30.15 19.4 31.35 19.35 Q31.95 19.5 32.25 19.95 L33.4 20.05 34.15 20.7 Q34.9 20.6 35.5 20.95 36.05 21.3 36.1 21.85 L37.4 21.95 38.3 22.75 Q39.1 22.55 39.7 23.0 40.3 23.45 40.2 24.1 L41.0 23.8 Q41.65 23.6 42.3 24.05 42.95 24.45 42.95 25.05 L43.25 25.0 43.6 25.05 Q47.6 23.35 58.85 19.75 L60.05 19.9 61.9 19.15 M85.15 10.3 L85.55 9.6 85.25 9.15 84.95 8.9 Q84.3 8.8 84.0 8.4 L82.55 5.75 79.85 4.85 Q79.05 4.55 79.2 3.7 79.35 2.85 80.2 2.75 L80.65 2.7 Q67.0 1.7 51.45 3.0 L50.65 3.05 Q51.35 4.05 50.15 4.55 L44.1 7.0 Q40.5 8.35 37.75 8.9 L37.4 9.2 Q40.75 9.25 47.45 7.2 54.0 5.15 57.6 5.3 58.35 5.35 58.8 5.9 59.3 6.45 58.85 7.1 58.1 8.2 55.65 9.85 53.3 11.4 52.6 12.55 54.9 13.1 59.2 11.85 L65.45 9.8 71.05 8.45 Q74.2 8.0 76.8 8.45 77.45 8.55 77.75 9.1 78.05 9.7 77.65 10.2 L76.35 11.55 79.4 11.05 80.3 11.3 84.65 10.65 85.15 10.3 M102.35 13.4 Q103.4 14.45 103.35 15.6 103.25 16.75 102.05 17.7 98.6 20.45 92.9 22.85 L82.95 26.55 72.5 30.25 Q66.55 32.45 62.3 34.6 50.9 40.25 45.65 41.35 36.15 43.25 29.0 37.4 L21.5 31.1 13.85 25.0 6.35 18.95 Q2.6 15.45 0.15 11.75 -0.05 11.45 0.05 11.1 0.15 10.7 0.55 10.55 L6.9 8.25 Q10.55 7.0 13.35 6.4 13.9 6.35 14.2 6.65 16.35 5.0 20.5 4.35 L27.45 3.5 47.8 1.0 Q71.05 -1.05 89.95 1.35 90.65 1.45 90.85 2.0 91.05 2.5 90.7 3.0 L90.9 3.2 91.45 3.2 Q93.25 3.5 96.8 5.2 L97.35 5.7 Q97.6 6.1 97.45 6.5 L97.2 7.2 Q99.9 9.35 99.35 11.25 L100.9 12.25 Q101.8 12.85 102.35 13.4" fill="#000000" fill-rule="evenodd" stroke="none"/>
    </g>
    <g id="shape2" transform="matrix(1.0, 0.0, 0.0, 1.0, -12.35, -5.5)">
      <path d="M39.8 9.9 L40.7 10.2 41.9 11.0 43.05 11.95 43.1 11.95 43.1 12.05 42.8 12.4 39.35 13.3 39.3 14.2 39.35 14.4 Q40.7 16.25 41.3 19.35 L41.1 19.7 39.25 20.45 Q39.35 22.05 38.95 23.2 L39.1 23.45 38.95 23.8 37.65 24.55 35.8 25.55 34.15 26.15 30.3 27.35 26.6 28.7 26.3 28.65 26.05 28.35 25.7 28.25 25.4 28.1 Q24.3 26.8 21.7 25.15 18.9 23.4 17.9 22.35 L17.8 22.05 17.9 21.85 17.75 20.5 Q17.75 19.75 18.1 19.35 L16.1 18.05 14.7 17.25 13.45 16.2 12.85 15.7 12.8 15.5 Q12.55 15.1 12.95 14.6 L13.0 14.55 13.65 13.8 Q13.9 13.6 14.5 13.25 L14.55 13.25 15.15 13.0 15.25 12.95 15.5 12.95 Q16.25 12.55 17.15 12.25 L17.4 12.15 17.45 12.15 17.45 11.95 17.45 11.75 Q16.8 11.5 16.0 10.65 L14.8 9.25 14.8 8.95 Q14.95 8.8 15.1 8.8 L15.65 8.75 15.85 8.75 19.95 7.75 23.85 6.2 25.0 5.75 26.15 5.7 26.3 5.85 Q26.6 5.7 26.8 5.85 L27.7 6.85 28.45 7.5 29.15 8.1 29.25 7.95 29.45 7.95 31.15 7.5 32.8 7.0 33.05 7.1 36.0 8.2 36.85 8.65 Q37.8 8.8 38.45 9.1 L38.8 9.4 38.95 9.45 39.8 9.9" fill="#d7ae80" fill-rule="evenodd" stroke="none"/>
      <path d="M25.95 18.75 L26.2 18.95 26.0 18.7 25.95 18.75 M20.25 21.65 L19.9 21.45 17.85 19.85 17.9 22.35 22.15 25.25 Q24.6 27.0 26.15 28.45 L26.15 24.05 26.15 19.65 26.1 19.2 25.9 19.0 25.6 19.0 25.25 19.05 25.2 19.05 22.7 19.95 Q21.3 20.6 20.6 21.45 L20.25 21.65 M13.35 14.45 L12.85 14.85 Q12.6 15.05 12.75 15.3 13.7 16.65 16.2 18.1 18.85 19.6 19.75 20.7 L19.95 20.8 20.45 20.9 21.35 20.3 22.2 19.75 23.35 19.2 24.55 18.8 24.7 18.65 24.75 18.65 24.75 18.6 24.7 18.3 23.0 17.0 21.15 15.8 18.85 14.2 17.5 13.35 17.15 13.0 17.15 13.05 17.1 13.0 16.85 12.75 16.45 12.65 Q14.7 13.0 13.35 14.45 M28.75 12.85 Q28.55 10.2 29.25 8.5 L24.2 10.3 Q19.85 11.7 18.1 11.9 L17.5 12.0 Q17.25 12.05 17.2 12.2 17.1 12.4 17.3 12.55 L17.45 12.65 17.5 12.75 19.15 14.1 21.05 15.25 Q22.45 16.35 24.3 17.45 L24.4 17.6 26.1 18.55 26.15 18.55 27.75 18.35 Q28.95 18.05 29.15 17.5 L29.2 17.25 28.75 12.85 M27.25 6.55 Q26.1 5.8 25.2 6.1 L23.35 6.8 21.55 7.5 17.45 8.85 15.4 9.05 15.25 9.1 15.0 9.2 15.0 9.45 16.0 10.65 17.2 11.65 17.65 11.7 18.45 11.55 19.15 11.3 22.8 10.25 25.95 9.25 29.05 8.1 28.95 8.0 27.25 6.55 M38.75 23.45 L38.85 20.85 34.3 22.5 Q31.75 23.3 29.6 23.55 29.25 23.6 29.2 23.35 L28.0 21.25 26.45 19.35 Q26.85 24.95 26.75 28.6 L29.85 27.3 33.0 26.05 35.9 24.85 38.75 23.45 M39.85 13.9 L40.15 14.2 40.1 14.25 40.3 14.45 40.65 15.25 41.1 16.0 Q41.55 17.35 41.65 19.6 L41.4 19.9 39.4 20.65 39.45 22.25 39.35 23.5 39.15 23.85 38.75 24.2 35.8 25.5 32.75 26.7 26.7 29.05 26.7 29.1 26.45 29.05 25.6 28.8 21.75 25.65 17.65 22.8 17.45 22.3 17.2 19.45 17.1 19.4 17.0 19.3 15.15 17.95 13.4 16.5 12.45 15.75 12.4 15.0 13.0 14.35 14.15 13.4 15.4 12.85 16.55 12.2 16.65 11.9 16.7 11.9 Q15.5 10.85 14.2 9.05 L14.2 8.8 17.5 8.35 20.75 7.35 24.25 6.05 26.1 5.5 26.7 5.7 29.25 7.75 29.35 7.65 29.5 7.65 29.75 7.65 Q31.55 7.1 33.45 7.0 L35.95 8.05 38.45 9.0 40.05 9.75 Q41.85 10.6 43.45 12.3 L43.3 12.8 39.7 13.3 39.75 13.35 Q39.45 13.45 39.5 13.7 39.55 13.9 39.85 13.9 M39.35 14.45 L39.35 14.4 Q37.75 14.6 35.65 15.4 L32.05 16.85 29.45 18.05 26.7 18.9 28.35 20.85 29.7 23.0 34.05 21.9 38.25 20.45 38.55 20.4 39.35 20.0 40.3 19.7 40.95 19.25 40.7 17.4 39.85 15.1 39.5 14.6 39.35 14.45 M38.95 14.05 L39.25 13.7 38.95 13.4 38.65 13.25 36.45 11.85 34.2 10.5 32.3 9.35 Q31.15 8.75 30.25 8.5 L30.0 8.45 29.7 8.4 29.55 8.95 Q28.95 10.6 29.05 12.9 29.05 14.55 29.5 16.9 L29.9 17.25 Q30.25 17.3 30.4 17.05 L30.5 17.05 34.7 15.45 Q37.25 14.5 38.95 14.05 M38.15 9.4 L36.65 8.7 35.2 8.0 32.45 7.4 Q31.2 7.35 29.8 8.05 30.8 8.15 32.05 8.75 L34.1 9.9 36.7 11.35 39.2 12.95 43.0 12.2 Q42.55 11.3 40.8 10.45 L38.15 9.4" fill="#6f5840" fill-rule="evenodd" stroke="none"/>
    </g>
    <g id="sprite1" transform="matrix(1.0, 0.0, 0.0, 1.0, 0.0, -0.05)">
      <use ffdec:characterId="921" height="14.55" transform="matrix(1.0, 0.0, 0.0, 1.0, 0.0, 0.05)" width="16.3" xlink:href="#shape3"/>
    </g>
    <g id="shape3" transform="matrix(1.0, 0.0, 0.0, 1.0, 0.0, -0.05)">
      <path d="M13.8 0.05 Q14.95 -0.1 15.35 0.8 16.45 3.25 16.25 7.05 L15.6 13.45 15.15 14.3 14.2 14.55 13.35 14.45 12.05 13.9 9.5 12.5 7.0 10.55 0.0 5.3 Q0.7 4.8 2.25 4.05 7.95 0.85 13.8 0.05" fill="#6f5840" fill-rule="evenodd" stroke="none"/>
    </g>
    <g id="sprite2" transform="matrix(1.0, 0.0, 0.0, 1.0, 0.0, 0.0)">
      <use ffdec:characterId="923" height="13.1" transform="matrix(1.0, 0.0, 0.0, 1.0, 0.0, 0.0)" width="9.8" xlink:href="#shape4"/>
    </g>
    <g id="shape4" transform="matrix(1.0, 0.0, 0.0, 1.0, 0.0, 0.0)">
      <path d="M8.85 8.8 Q9.65 8.95 9.8 9.8 9.95 10.6 9.15 10.9 5.45 12.35 2.0 13.05 L1.15 12.95 0.55 12.3 Q0.25 10.5 0.25 8.1 L0.4 3.9 Q0.05 2.4 0.0 1.15 -0.05 0.1 1.15 0.0 2.4 -0.15 2.65 0.85 3.25 2.95 5.35 5.5 L6.85 7.45 Q7.9 8.6 8.85 8.8" fill="#6f5840" fill-rule="evenodd" stroke="none"/>
    </g>
    <g id="sprite3" transform="matrix(1.0, 0.0, 0.0, 1.0, 0.0, 0.0)">
      <use ffdec:characterId="925" height="31.5" transform="matrix(1.0, 0.0, 0.0, 1.0, 0.0, 0.0)" width="42.7" xlink:href="#shape5"/>
    </g>
    <g id="shape5" transform="matrix(1.0, 0.0, 0.0, 1.0, 0.0, 0.0)">
      <path d="M41.0 5.0 L41.25 4.7 42.2 4.65 Q42.75 5.05 42.25 5.55 L42.1 5.8 42.2 6.1 Q42.65 9.55 42.0 11.8 L42.25 12.05 Q42.75 12.75 42.7 13.6 L42.2 14.45 41.25 14.8 Q39.55 16.75 36.35 18.0 L31.85 19.85 Q26.0 21.9 16.95 25.5 L2.2 31.4 Q1.6 31.6 1.1 31.4 0.55 31.2 0.5 30.6 L0.15 20.65 Q0.1 14.9 1.05 10.7 L0.55 10.15 Q-0.2 7.05 0.1 0.85 0.15 0.15 0.9 0.05 1.6 -0.1 2.0 0.45 L3.35 3.0 4.8 5.55 4.85 5.6 Q8.3 9.15 10.0 12.65 L14.05 12.75 18.4 11.5 29.5 8.9 Q35.75 7.25 40.2 5.15 L41.0 5.0" fill="#6f5840" fill-rule="evenodd" stroke="none"/>
    </g>
    <g id="shape6" transform="matrix(1.0, 0.0, 0.0, 1.0, -16.4, -7.9)">
      <path d="M39.45 14.35 L39.65 14.55 39.5 14.75 Q35.5 15.7 32.95 16.85 30.9 17.8 30.2 18.1 L27.3 19.1 Q27.05 19.2 26.95 18.95 26.85 18.7 27.15 18.6 L30.65 17.3 34.1 15.8 36.7 14.8 Q38.25 14.3 39.45 14.35" fill="#f2cca6" fill-rule="evenodd" stroke="none"/>
      <path d="M18.35 14.5 L16.45 12.95 16.45 12.75 16.65 12.7 18.75 14.35 20.9 15.95 22.85 17.05 Q23.95 17.65 24.65 18.3 L24.6 18.55 24.3 18.55 22.25 17.3 20.2 16.05 18.35 14.5" fill="#f2cca6" fill-rule="evenodd" stroke="none"/>
      <path d="M40.9 12.55 L39.25 12.7 Q38.1 12.45 36.75 11.65 34.3 10.1 30.3 8.1 L30.25 7.95 30.45 7.9 Q31.9 8.45 33.55 9.35 L36.55 11.05 38.45 12.05 40.6 12.15 41.6 11.9 42.6 11.95 42.75 12.2 42.5 12.4 40.9 12.55" fill="#f2cca6" fill-rule="evenodd" stroke="none"/>
    </g>
    <g id="sprite4" transform="matrix(1.0, 0.0, 0.0, 1.0, 0.0, 0.05)">
      <use ffdec:characterId="928" height="18.3" transform="matrix(1.0, 0.0, 0.0, 1.0, 0.0, -0.05)" width="24.85" xlink:href="#shape7"/>
    </g>
    <g id="shape7" transform="matrix(1.0, 0.0, 0.0, 1.0, 0.0, 0.05)">
      <path d="M20.65 0.75 L21.45 0.65 22.2 0.2 23.15 0.1 Q23.7 0.4 23.6 0.95 L23.5 2.35 23.6 2.75 23.55 3.5 24.55 9.05 Q25.15 12.35 24.45 14.45 L24.25 14.8 16.1 18.2 15.3 18.25 14.7 18.2 7.35 13.6 0.0 8.8 Q0.0 8.1 0.65 7.75 4.0 6.1 10.6 4.15 17.65 2.1 20.65 0.75" fill="#6f5840" fill-rule="evenodd" stroke="none"/>
    </g>
    <g id="sprite5" transform="matrix(1.0, 0.0, 0.0, 1.0, 0.05, 0.05)">
      <use ffdec:characterId="930" height="14.1" transform="matrix(1.0, 0.0, 0.0, 1.0, -0.05, -0.05)" width="17.0" xlink:href="#shape8"/>
    </g>
    <g id="shape8" transform="matrix(1.0, 0.0, 0.0, 1.0, 0.05, 0.05)">
      <path d="M16.4 7.2 Q16.95 7.45 16.95 8.05 16.95 8.7 16.4 8.9 L9.9 11.35 Q5.75 12.8 3.45 13.95 2.9 14.2 2.3 13.95 1.7 13.7 1.7 13.05 L1.55 7.85 Q1.25 4.8 0.15 2.9 -0.35 2.0 0.65 1.5 L0.4 1.35 Q-0.3 0.95 0.15 0.35 0.6 -0.25 1.25 0.1 5.25 2.2 13.45 5.9 L14.5 6.25 Q14.9 6.3 15.15 6.65 L16.4 7.2" fill="#6f5840" fill-rule="evenodd" stroke="none"/>
    </g>
    <g id="sprite6" transform="matrix(1.0, 0.0, 0.0, 1.0, 0.0, 0.05)">
      <use ffdec:characterId="932" height="34.85" transform="matrix(1.0, 0.0, 0.0, 1.0, 0.0, -0.05)" width="41.25" xlink:href="#shape9"/>
    </g>
    <g id="shape9" transform="matrix(1.0, 0.0, 0.0, 1.0, 0.0, 0.05)">
      <path d="M40.7 0.15 Q41.15 0.45 41.1 0.85 L40.35 4.7 39.4 8.8 Q40.05 9.1 40.05 9.7 L39.7 14.2 Q39.65 17.4 40.1 22.35 40.6 24.7 40.6 26.65 L41.25 31.35 Q41.4 32.1 40.3 32.45 L38.65 32.95 Q36.25 34.6 33.25 34.5 L32.5 34.7 Q31.5 34.95 31.1 34.25 L30.6 34.2 29.85 34.75 28.75 34.7 Q21.7 31.85 14.25 25.0 12.0 22.95 7.3 19.7 L0.35 14.5 Q-0.05 14.15 0.0 13.6 0.05 13.1 0.45 12.8 0.55 12.5 0.9 12.4 9.55 10.35 20.55 6.7 L39.85 0.0 40.7 0.15" fill="#6f5840" fill-rule="evenodd" stroke="none"/>
    </g>
    <g id="shape10" transform="matrix(1.0, 0.0, 0.0, 1.0, -12.8, -8.95)">
      <path d="M27.0 19.15 L27.0 18.9 27.3 18.9 Q28.25 19.6 28.9 20.8 L30.05 23.0 29.9 23.2 29.65 23.15 29.0 22.1 28.5 21.0 Q27.75 19.8 27.0 19.15" fill="#f2cca6" fill-rule="evenodd" stroke="none"/>
      <path d="M16.45 12.7 Q16.6 12.6 16.65 12.8 L16.55 13.0 Q13.85 13.75 13.0 15.1 L12.85 15.15 12.8 15.05 Q13.15 14.1 14.35 13.45 15.1 13.05 16.45 12.7" fill="#f2cca6" fill-rule="evenodd" stroke="none"/>
      <path d="M17.55 11.3 L17.5 11.4 17.4 11.5 16.65 11.15 16.05 10.6 14.85 9.2 Q14.75 9.05 14.9 9.0 L15.15 9.0 15.75 9.65 16.35 10.3 17.05 10.9 17.3 11.05 17.55 11.3" fill="#f2cca6" fill-rule="evenodd" stroke="none"/>
      <path d="M25.95 19.15 L26.1 21.6 26.15 24.0 26.1 26.15 Q26.1 27.35 26.35 28.25 L26.15 28.5 Q25.95 28.55 25.9 28.35 25.6 27.55 25.6 26.4 L25.75 24.4 25.75 21.8 25.65 19.15 Q25.65 19.05 25.8 19.05 25.95 19.05 25.95 19.15" fill="#f2cca6" fill-rule="evenodd" stroke="none"/>
    </g>
    <g id="sprite7" transform="matrix(1.0, 0.0, 0.0, 1.0, 0.05, 0.0)">
      <use ffdec:characterId="935" height="9.25" transform="matrix(1.0, 0.0, 0.0, 1.0, -0.05, 0.0)" width="16.2" xlink:href="#shape11"/>
    </g>
    <g id="shape11" transform="matrix(1.0, 0.0, 0.0, 1.0, 0.05, 0.0)">
      <path d="M16.15 0.75 Q16.3 1.7 15.2 1.8 11.65 2.2 7.75 4.15 3.7 6.2 1.55 8.9 1.15 9.45 0.4 9.1 -0.3 8.8 0.15 8.2 2.4 5.05 6.75 2.75 10.85 0.5 14.9 0.0 16.0 -0.15 16.15 0.75" fill="#6f5840" fill-rule="evenodd" stroke="none"/>
    </g>
    <g id="sprite8" transform="matrix(1.0, 0.0, 0.0, 1.0, 0.0, 0.0)">
      <use ffdec:characterId="937" height="13.8" transform="matrix(1.0, 0.0, 0.0, 1.0, 0.0, 0.0)" width="38.6" xlink:href="#shape12"/>
    </g>
    <g id="shape12" transform="matrix(1.0, 0.0, 0.0, 1.0, 0.0, 0.0)">
      <path d="M38.4 1.1 Q37.3 2.3 34.9 3.1 L30.95 4.35 21.0 7.85 10.9 11.35 Q4.85 13.4 0.55 13.8 0.05 13.9 0.0 13.4 -0.1 12.9 0.4 12.8 8.2 10.9 19.2 6.9 L37.7 0.05 Q38.2 -0.15 38.45 0.3 38.75 0.7 38.4 1.1" fill="#6f5840" fill-rule="evenodd" stroke="none"/>
    </g>
    <g id="sprite9" transform="matrix(1.0, 0.0, 0.0, 1.0, 0.0, 0.0)">
      <use ffdec:characterId="939" height="2.65" transform="matrix(1.0, 0.0, 0.0, 1.0, 0.0, 0.0)" width="13.4" xlink:href="#shape13"/>
    </g>
    <g id="shape13" transform="matrix(1.0, 0.0, 0.0, 1.0, 0.0, 0.0)">
      <path d="M12.45 0.05 Q13.15 -0.15 13.35 0.5 13.6 1.15 12.85 1.35 L6.7 2.25 0.5 2.65 Q0.1 2.7 0.0 2.3 -0.05 1.85 0.35 1.75 L6.4 0.9 12.45 0.05" fill="#6f5840" fill-rule="evenodd" stroke="none"/>
    </g>
    <g id="sprite10" transform="matrix(1.0, 0.0, 0.0, 1.0, 0.05, 0.0)">
      <use ffdec:characterId="941" height="14.2" transform="matrix(1.0, 0.0, 0.0, 1.0, -0.05, 0.0)" width="43.7" xlink:href="#shape14"/>
    </g>
    <g id="shape14" transform="matrix(1.0, 0.0, 0.0, 1.0, 0.05, 0.0)">
      <path d="M43.55 0.4 Q43.85 0.95 43.25 1.25 34.95 5.35 22.35 8.6 L9.85 11.6 5.6 12.45 Q3.2 13.05 1.6 14.0 0.75 14.55 0.15 13.7 -0.4 12.9 0.5 12.35 3.8 10.35 10.05 9.15 L20.05 7.25 Q29.55 4.8 42.7 0.05 43.3 -0.15 43.55 0.4" fill="#6f5840" fill-rule="evenodd" stroke="none"/>
    </g>
    <g id="shape15" transform="matrix(1.0, 0.0, 0.0, 1.0, -16.95, -7.75)">
      <path d="M28.8 7.8 Q28.95 7.7 29.1 7.9 L29.05 8.2 Q26.6 9.45 23.25 10.35 L17.2 11.65 16.95 11.5 17.1 11.3 23.05 10.0 Q26.4 9.05 28.8 7.8" fill="#f2cca6" fill-rule="evenodd" stroke="none"/>
    </g>
    <g id="sprite11" transform="matrix(1.0, 0.0, 0.0, 1.0, -0.05, 0.05)">
      <use ffdec:characterId="944" height="32.0" transform="matrix(1.0, 0.0, 0.0, 1.0, 0.05, -0.05)" width="15.5" xlink:href="#shape16"/>
    </g>
    <g id="shape16" transform="matrix(1.0, 0.0, 0.0, 1.0, -0.05, 0.05)">
      <path d="M3.6 0.5 L12.55 20.15 Q14.0 21.5 14.85 24.3 L15.55 25.55 Q7.1 28.75 1.2 31.95 L0.65 25.55 0.1 19.15 Q-0.35 8.65 1.95 0.05 L2.4 0.05 Q3.3 -0.25 3.6 0.5" fill="#6f5840" fill-rule="evenodd" stroke="none"/>
    </g>
    <g id="sprite12" transform="matrix(1.0, 0.0, 0.0, 1.0, 0.0, 0.0)">
      <clipPath id="clipPath0" transform="matrix(1.0, 0.0, 0.0, 1.0, 0.0, 0.0)">
        <path d="M51.05 2.7 Q61.2 5.25 62.35 5.75 63.45 6.2 71.65 13.3 L79.6 20.25 89.0 41.9 43.35 56.0 14.95 38.45 Q3.85 37.75 3.85 37.0 L1.7 29.6 Q-0.35 22.6 0.1 22.0 L7.1 12.55 14.1 3.25 Q14.65 2.75 26.9 1.25 L40.1 0.0 51.05 2.7" fill="#ff0000" fill-rule="evenodd" stroke="none"/>
      </clipPath>
      <g clip-path="url(#clipPath0)">
        <use ffdec:characterId="947" height="44.95" transform="matrix(1.0, 0.0, 0.0, 1.0, 17.6, 20.5)" width="71.9" xlink:href="#shape18"/>
      </g>
    </g>
    <g id="shape18" transform="matrix(1.0, 0.0, 0.0, 1.0, -17.6, -20.5)">
      <path d="M56.05 27.35 Q58.15 29.25 58.9 31.95 59.6 34.45 59.0 37.2 L57.7 37.85 Q50.75 39.55 44.4 36.3 37.4 32.7 39.45 25.7 L39.7 25.3 43.65 23.6 Q46.15 22.75 47.75 23.2 50.85 24.15 52.15 24.75 54.3 25.7 56.05 27.35" fill="#a1d9f1" fill-rule="evenodd" stroke="none"/>
      <path d="M48.6 41.9 L52.55 42.1 56.7 42.3 Q54.65 45.15 51.45 46.55 48.1 47.95 43.45 45.7 39.95 43.95 36.8 40.75 35.25 39.15 34.7 37.1 40.15 40.9 48.6 41.9" fill="#d1f2f9" fill-rule="evenodd" stroke="none"/>
      <path d="M57.7 37.85 L59.0 37.2 Q58.45 39.9 56.7 42.3 L52.55 42.1 48.6 41.9 Q40.15 40.9 34.7 37.1 33.95 34.15 35.35 30.8 36.7 27.75 39.3 25.4 L39.45 25.4 39.7 25.3 39.45 25.7 Q37.4 32.7 44.4 36.3 50.75 39.55 57.7 37.85" fill="#c0e7f6" fill-rule="evenodd" stroke="none"/>
      <path d="M58.7 38.35 Q60.2 37.05 61.0 35.6 60.65 39.5 58.55 42.8 56.35 46.25 53.05 47.6 48.25 49.6 42.2 46.9 36.15 44.15 34.25 39.15 33.65 37.55 33.55 35.6 L34.7 37.1 Q35.25 39.2 36.8 40.75 39.95 43.95 43.45 45.7 48.1 47.95 51.45 46.55 54.1 45.4 56.05 43.2 57.9 41.05 58.7 38.35" fill="#1a72ba" fill-rule="evenodd" stroke="none"/>
      <path d="M49.55 21.8 Q56.25 23.85 59.3 28.2 61.35 31.25 61.0 35.6 60.2 37.05 58.7 38.35 59.65 35.35 59.05 32.55 58.35 29.5 56.05 27.35 54.3 25.7 52.15 24.75 50.85 24.15 47.75 23.2 46.1 22.75 43.5 23.7 L39.45 25.4 39.3 25.4 Q36.7 27.75 35.35 30.8 33.95 34.15 34.7 37.1 L33.55 35.6 Q33.4 32.55 34.8 29.6 36.25 26.7 38.75 24.9 38.65 24.65 38.9 24.5 44.3 20.3 49.55 21.8" fill="#7dbce6" fill-rule="evenodd" stroke="none"/>
      <path d="M54.65 27.75 Q55.1 29.8 54.85 30.95 54.4 33.1 52.55 33.55 L50.95 33.65 Q48.65 33.9 47.75 32.0 L47.7 32.1 46.8 32.7 Q46.25 32.7 45.8 32.35 L45.75 32.3 Q45.3 31.95 45.4 31.1 L45.9 30.35 Q46.25 29.8 47.0 29.9 46.75 28.65 47.45 27.65 48.15 26.65 49.35 26.35 50.0 25.75 50.8 25.45 L52.45 25.4 Q54.25 26.1 54.65 27.75" fill="#ffffff" fill-rule="evenodd" stroke="none"/>
      <path d="M47.8 42.45 Q48.5 42.7 48.9 43.2 49.45 43.2 49.85 43.55 50.3 43.9 50.25 44.45 50.15 45.9 48.85 46.2 L48.8 46.2 48.7 46.3 47.3 46.55 Q45.9 46.35 45.25 46.0 44.65 45.9 44.4 45.3 42.75 44.15 43.55 42.85 44.05 42.0 45.55 42.0 46.75 42.0 47.8 42.45" fill="#a1d9f1" fill-rule="evenodd" stroke="none"/>
      <path d="M55.25 44.4 Q56.55 44.4 57.25 45.05 58.75 46.35 55.2 47.8 52.75 48.85 49.4 47.8 47.7 47.65 47.95 45.8 48.85 44.9 50.2 44.55 51.85 44.1 54.1 44.6 L54.5 44.35 55.25 44.4" fill="#c0e7f6" fill-rule="evenodd" stroke="none"/>
      <path d="M49.4 47.8 Q52.75 48.85 55.2 47.8 58.75 46.35 57.25 45.05 56.55 44.4 55.25 44.4 L54.5 44.35 54.1 44.6 Q51.85 44.1 50.2 44.55 48.85 44.9 47.95 45.8 47.7 47.65 49.4 47.8 M46.75 46.25 Q46.8 43.8 51.15 43.7 51.15 43.4 51.5 43.35 L55.3 43.0 Q57.8 43.1 58.5 44.5 59.55 46.65 57.8 47.9 56.75 48.7 54.15 49.35 L49.55 49.15 Q46.65 48.3 46.75 46.25" fill="#1a72ba" fill-rule="evenodd" stroke="none"/>
      <path d="M54.75 46.35 L53.35 46.2 Q52.9 46.15 52.55 45.8 L51.85 45.85 Q51.15 45.9 51.1 45.25 51.05 44.6 51.65 44.35 L52.85 44.15 53.05 44.05 Q55.1 43.5 56.75 44.35 L57.25 45.0 Q57.75 45.65 57.2 46.4 L56.55 46.7 55.9 46.55 55.5 46.3 55.5 46.4 54.75 46.35" fill="#ffffff" fill-rule="evenodd" stroke="none"/>
      <path d="M50.3 48.05 L49.65 47.95 49.05 47.7 48.35 46.8 Q48.2 46.6 48.45 46.35 L48.9 46.25 Q49.65 46.8 49.95 46.75 L51.35 46.7 52.6 46.65 Q53.3 46.65 53.7 47.1 L53.9 47.7 53.55 48.25 50.3 48.05" fill="#a1d9f1" fill-rule="evenodd" stroke="none"/>
      <path d="M23.3 44.7 L21.85 39.8 20.3 34.95 18.35 30.25 18.35 30.2 Q20.8 33.2 23.8 32.95 26.0 42.75 30.7 53.05 L26.95 52.55 25.65 51.85 Q25.0 51.0 24.6 49.7 L23.3 44.7" fill="#e9b27a" fill-rule="evenodd" stroke="none"/>
      <path d="M30.7 27.65 L31.5 26.4 31.55 26.45 Q32.9 32.35 34.4 37.55 36.5 44.75 37.7 47.3 L37.75 47.35 37.7 47.65 37.65 47.65 36.5 49.25 Q32.35 39.15 30.7 27.65" fill="#9a6731" fill-rule="evenodd" stroke="none"/>
      <path d="M30.7 27.65 Q32.35 39.15 36.5 49.25 34.55 52.0 32.55 52.75 L32.35 52.8 30.7 53.05 Q26.0 42.75 23.8 32.95 27.35 32.55 30.7 27.65" fill="#cd9252" fill-rule="evenodd" stroke="none"/>
      <path d="M24.8 22.15 Q27.75 21.5 30.15 24.15 30.9 25.0 31.5 26.4 28.85 30.85 25.75 32.35 21.7 34.35 18.35 30.2 L18.1 29.45 Q17.95 26.35 20.6 24.15 22.5 22.6 24.8 22.15" fill="#e9ba89" fill-rule="evenodd" stroke="none"/>
      <path d="M24.8 22.15 Q22.5 22.6 20.6 24.15 17.95 26.35 18.1 29.45 L18.35 30.25 18.5 30.6 17.65 29.6 Q17.2 26.65 19.55 23.9 21.35 21.75 23.2 21.1 27.5 19.5 30.05 22.3 30.95 23.25 31.5 24.4 L31.5 26.35 30.15 24.15 Q27.75 21.5 24.8 22.15" fill="#885528" fill-rule="evenodd" stroke="none"/>
      <path d="M17.65 29.6 L18.5 30.6 20.35 35.15 Q21.4 37.85 21.85 39.8 L23.3 44.7 24.6 49.7 25.3 51.3 23.75 50.2 23.2 48.2 20.7 38.45 20.5 38.0 Q19.3 34.8 18.45 31.9 17.9 30.95 17.65 29.6" fill="#885528" fill-rule="evenodd" stroke="none"/>
      <path d="M38.1 46.6 L38.2 46.9 Q39.55 51.35 35.1 54.0 30.8 56.5 27.05 54.5 25.25 55.05 23.75 50.2 L25.3 51.3 25.65 51.85 26.95 52.55 32.35 52.8 32.55 52.75 Q34.0 52.2 35.35 50.7 L37.65 47.65 37.7 47.65 37.75 47.35 37.7 47.3 37.6 47.05 38.1 46.3 38.1 46.6" fill="#653912" fill-rule="evenodd" stroke="none"/>
      <path d="M37.6 47.05 Q36.6 44.95 34.4 37.55 32.9 32.35 31.55 26.45 L31.5 26.35 31.5 24.4 Q33.4 27.95 34.65 35.6 L36.15 40.3 37.25 43.25 38.1 46.3 37.6 47.05" fill="#885528" fill-rule="evenodd" stroke="none"/>
      <path d="M18.95 30.0 Q19.0 29.65 19.2 29.75 27.95 34.6 31.1 26.4 31.2 26.15 31.35 26.45 L31.45 27.0 Q30.55 29.6 28.5 31.4 29.35 32.5 30.4 36.65 L32.5 44.8 32.5 45.1 32.3 45.05 Q31.35 42.85 30.25 38.4 L28.3 31.6 Q26.3 33.3 24.15 33.35 24.65 35.85 25.55 38.3 L27.1 43.0 27.05 43.1 24.5 36.4 23.5 33.3 Q21.05 33.05 19.05 30.65 18.85 30.4 18.95 30.0" fill="#a47c55" fill-rule="evenodd" stroke="none"/>
      <path d="M34.9 46.95 L34.05 43.15 34.1 43.1 35.1 46.7 36.3 49.6 36.3 50.15 36.0 50.2 Q35.55 49.55 34.9 46.95" fill="#a47c55" fill-rule="evenodd" stroke="none"/>
      <path d="M26.0 47.45 L24.65 41.85 24.7 41.75 26.75 47.65 27.9 51.2 28.25 52.15 28.3 52.6 28.15 53.3 28.15 53.35 Q27.75 53.45 27.55 52.95 26.75 51.0 26.0 47.45" fill="#a47c55" fill-rule="evenodd" stroke="none"/>
      <path d="M25.65 22.75 Q27.0 21.85 28.25 23.6 29.6 25.35 28.75 27.55 27.7 30.25 24.25 30.55 21.15 30.8 21.05 27.5 20.95 25.2 22.85 24.7 L25.95 24.6 Q26.25 24.6 26.35 25.15 26.6 26.8 25.9 27.5 25.2 28.15 24.2 27.7 23.9 27.6 23.9 27.0 23.9 26.45 24.15 26.45 L25.0 26.5 25.7 25.95 23.75 25.95 Q22.65 26.05 22.05 26.7 21.0 27.95 22.35 28.7 23.45 29.3 24.3 29.15 26.3 28.8 27.5 27.7 28.2 27.0 28.3 26.5 28.7 24.45 27.65 23.65 27.25 23.3 25.7 22.9 L25.65 22.75" fill="#a47c55" fill-rule="evenodd" stroke="none"/>
      <path d="M26.95 47.85 L25.25 42.55 25.25 42.3 25.4 42.35 27.9 48.4 Q28.95 51.25 29.0 52.45 L28.8 53.05 Q28.55 53.3 28.4 52.85 L27.7 50.35 26.95 47.85" fill="#fdd09f" fill-rule="evenodd" stroke="none"/>
      <path d="M28.6 32.05 L28.65 32.15 28.65 32.25 Q27.95 34.4 24.9 34.2 L26.25 38.3 Q27.0 40.7 27.05 42.45 L27.0 42.45 25.75 38.3 24.2 34.3 24.2 33.6 24.5 33.35 24.55 33.3 Q26.25 33.1 27.0 32.7 L28.6 32.05" fill="#fdd09f" fill-rule="evenodd" stroke="none"/>
      <path d="M30.8 28.65 Q31.05 28.5 31.05 29.1 30.8 30.55 29.35 31.45 L31.0 37.0 Q32.15 40.75 32.6 43.55 L32.55 43.6 30.3 36.6 Q28.95 32.7 28.85 31.35 28.85 30.8 29.1 30.95 L30.0 29.65 30.8 28.65" fill="#fdd09f" fill-rule="evenodd" stroke="none"/>
      <path d="M36.6 47.6 Q36.9 48.05 36.75 48.65 36.6 49.25 36.25 48.8 35.35 47.6 34.65 44.9 L33.6 40.55 33.6 40.4 33.7 40.4 35.05 44.1 Q35.8 46.35 36.6 47.6" fill="#fdd09f" fill-rule="evenodd" stroke="none"/>
      <path d="M25.45 26.2 L25.5 26.35 25.4 26.4 Q24.5 25.85 23.35 26.75 22.85 27.2 22.3 28.55 L22.1 28.7 21.95 28.25 Q21.9 26.7 23.25 25.8 24.35 25.1 25.45 26.2" fill="#fdd09f" fill-rule="evenodd" stroke="none"/>
      <path d="M28.3 23.0 L29.1 24.6 Q29.65 26.4 29.25 27.7 28.8 29.05 27.55 29.85 26.4 30.6 25.25 30.5 25.05 30.3 25.25 30.3 L27.1 29.6 Q28.0 29.0 28.5 27.85 29.2 26.35 28.8 24.95 L27.75 22.85 27.0 22.3 Q26.85 22.15 27.0 22.15 L27.65 22.15 28.3 23.0" fill="#fdd09f" fill-rule="evenodd" stroke="none"/>
      <path d="M23.5 33.65 L23.5 34.15 Q23.2 34.4 22.05 33.75 21.45 33.5 20.35 32.5 20.2 32.35 20.4 32.35 L22.2 33.0 22.85 33.2 23.5 33.65" fill="#fdd09f" fill-rule="evenodd" stroke="none"/>
      <path d="M87.25 54.15 L87.95 57.75 Q88.05 58.85 86.9 58.95 L84.7 58.8 Q86.0 57.15 87.25 54.15" fill="#8b8981" fill-rule="evenodd" stroke="none"/>
      <path d="M71.05 50.55 Q71.95 55.15 68.05 57.6 L67.5 57.4 64.4 56.05 Q62.65 55.0 62.1 53.7 L62.05 52.95 Q61.9 51.55 64.5 50.4 66.35 49.55 68.55 49.2 69.75 49.6 71.05 50.55" fill="#b4b7af" fill-rule="evenodd" stroke="none"/>
      <path d="M75.3 56.85 L75.25 57.3 75.15 57.2 74.65 57.75 Q72.3 59.1 68.05 57.6 71.95 55.15 71.05 50.55 L72.8 51.95 Q74.8 53.75 75.2 55.8 L75.3 56.75 75.3 56.85" fill="#a3a79d" fill-rule="evenodd" stroke="none"/>
      <path d="M53.35 46.7 Q49.5 40.15 57.45 35.65 L57.45 35.85 57.65 35.9 Q61.75 34.4 63.85 33.9 67.35 33.0 70.35 33.2 72.9 33.4 75.55 36.15 L79.85 40.8 80.15 41.05 Q79.6 43.75 75.85 44.85 72.15 45.9 68.95 44.5 70.8 45.35 75.0 46.65 78.45 48.1 79.15 51.15 79.0 52.85 77.55 54.7 77.25 53.15 76.05 51.65 73.2 48.1 69.0 47.7 64.7 47.25 61.5 50.45 60.4 51.25 60.05 52.45 55.7 50.6 53.35 46.7" fill="#b4b7af" fill-rule="evenodd" stroke="none"/>
      <path d="M83.3 43.85 Q85.0 45.45 86.0 47.05 88.65 51.1 83.4 58.2 81.7 60.55 77.1 58.3 78.0 56.7 77.55 54.7 79.0 52.85 79.15 51.15 78.45 48.1 75.0 46.65 70.8 45.35 68.95 44.5 72.15 45.9 75.85 44.85 79.6 43.75 80.15 41.05 L83.3 43.85" fill="#9ca096" fill-rule="evenodd" stroke="none"/>
      <path d="M86.9 58.95 Q88.05 58.85 87.95 57.75 L87.25 54.15 Q86.0 57.15 84.7 58.8 L86.9 58.95 M87.85 52.65 L87.65 53.1 89.1 55.95 Q89.75 57.7 89.3 58.8 88.8 60.0 87.3 60.25 L85.45 60.4 Q84.3 60.3 83.75 59.8 82.85 60.65 81.9 60.9 79.4 61.7 75.3 59.95 73.9 60.6 72.25 60.55 69.25 60.45 65.65 59.1 61.25 57.4 60.2 54.95 55.95 53.65 53.9 51.25 50.75 47.6 50.7 44.0 50.65 40.8 53.05 38.05 L52.8 39.85 Q51.15 42.9 53.35 46.7 55.7 50.6 60.05 52.45 60.4 51.25 61.5 50.45 L61.75 50.25 Q61.35 52.0 62.0 53.3 L62.1 53.7 Q62.65 55.0 64.4 56.05 L67.5 57.4 Q72.1 59.2 74.65 57.75 L75.15 57.2 75.25 57.3 75.3 56.85 Q76.85 56.7 77.7 55.9 77.7 57.25 77.1 58.3 81.7 60.55 83.4 58.2 L85.5 54.9 87.85 52.65" fill="#333333" fill-rule="evenodd" stroke="none"/>
      <path d="M62.0 53.3 Q61.35 52.0 61.75 50.25 64.95 47.2 69.15 47.7 73.25 48.15 76.05 51.65 77.7 53.75 77.7 55.9 76.85 56.7 75.3 56.85 L75.3 56.75 75.2 55.8 Q74.8 53.75 72.8 51.95 70.35 49.8 68.55 49.2 66.35 49.55 64.5 50.4 61.9 51.55 62.05 52.95 L62.0 53.3" fill="#4f4f4f" fill-rule="evenodd" stroke="none"/>
      <path d="M86.0 47.05 Q84.95 45.45 83.15 43.7 L79.85 40.8 75.55 36.15 Q72.9 33.4 70.35 33.2 67.35 33.0 63.85 33.9 61.75 34.4 57.65 35.9 L57.45 35.85 57.45 35.65 Q54.15 37.5 52.8 39.85 L53.05 38.05 Q56.65 34.05 63.15 33.1 68.75 31.1 72.35 32.4 77.2 34.1 85.05 42.4 89.9 47.5 87.95 52.4 L87.85 52.65 85.5 54.9 Q88.0 50.05 86.0 47.05" fill="#696969" fill-rule="evenodd" stroke="none"/>
      <path d="M71.55 35.7 Q71.9 36.05 71.9 36.6 L71.6 37.45 Q69.6 39.75 66.6 40.25 63.45 40.8 61.15 38.85 60.65 38.4 60.85 37.8 60.95 37.3 61.45 36.85 63.45 34.9 66.75 34.65 L67.6 34.25 Q68.15 34.15 68.5 34.75 68.8 34.1 69.15 34.35 L69.6 34.8 69.85 34.65 70.15 34.75 71.55 35.7" fill="#e3e4e2" fill-rule="evenodd" stroke="none"/>
      <path d="M59.65 42.65 Q60.05 43.9 58.55 45.45 57.05 47.0 55.75 46.6 53.4 45.9 54.8 43.55 56.2 41.2 58.2 41.6 59.4 41.8 59.65 42.65" fill="#e3e4e2" fill-rule="evenodd" stroke="none"/>
      <path d="M68.2 53.15 L67.05 54.3 65.55 54.65 Q63.5 54.3 64.55 52.65 65.55 51.05 67.1 51.1 68.2 51.15 68.45 51.8 68.65 52.35 68.2 53.15" fill="#e3e4e2" fill-rule="evenodd" stroke="none"/>
      <path d="M81.7 47.5 Q81.5 47.0 82.05 46.65 L83.05 46.55 Q84.75 47.7 84.8 49.25 L84.85 49.7 Q84.9 50.0 84.75 49.85 L84.85 50.25 84.9 51.2 Q84.45 55.0 82.25 55.6 L81.25 55.5 Q80.75 55.25 80.8 54.65 L81.35 53.1 81.85 51.5 Q81.8 50.75 81.9 50.25 82.25 48.75 81.7 47.5" fill="#8b8981" fill-rule="evenodd" stroke="none"/>
      <path d="M72.7 55.45 Q73.6 54.45 74.6 54.85 75.3 55.1 75.1 55.9 75.1 56.8 74.5 57.35 73.8 58.0 72.55 57.9 72.2 57.85 71.95 57.6 L71.9 57.55 71.9 57.5 71.75 57.25 71.7 57.1 71.7 56.85 Q71.75 56.35 72.25 55.95 L72.7 55.45" fill="#8b8981" fill-rule="evenodd" stroke="none"/>
      <path d="M32.3 46.75 L32.4 47.0 32.4 47.1 32.3 47.2 32.35 47.3 32.0 46.7 Q32.0 46.45 32.15 46.6 L32.3 46.75" fill="#97dd6a" fill-rule="evenodd" stroke="none"/>
      <path d="M40.55 39.65 L40.5 39.8 40.1 45.9 Q39.85 46.35 39.9 46.5 L40.05 46.95 40.05 47.1 40.0 47.1 43.75 52.75 Q43.55 49.6 44.1 44.2 L44.0 44.25 43.95 44.25 43.85 44.2 Q43.55 43.5 42.65 42.65 L41.2 41.4 41.1 41.2 Q40.75 40.6 40.55 39.65 M46.75 41.85 Q46.25 40.95 45.6 40.6 45.35 40.5 45.35 40.7 L45.35 40.8 45.25 40.5 45.25 40.85 45.2 41.0 44.95 42.6 45.05 48.4 44.95 54.15 44.9 54.45 48.35 58.5 48.95 59.05 50.15 60.15 49.7 55.15 Q49.5 52.05 49.1 50.15 L48.55 47.65 48.5 47.6 48.35 46.55 47.4 43.45 46.75 41.85 M43.35 24.6 L43.35 24.35 43.95 24.85 44.4 25.45 44.45 25.4 Q45.25 26.15 45.85 27.5 L46.8 29.9 48.7 35.6 51.2 43.05 Q54.1 50.45 57.1 55.1 L56.15 56.8 54.35 53.05 52.35 49.15 50.6 45.15 48.85 40.2 48.9 42.85 48.85 43.95 Q52.2 52.8 51.3 60.85 L51.25 61.05 51.6 61.3 49.85 62.3 Q48.05 61.25 46.1 58.8 L43.3 54.7 40.75 50.65 Q39.4 48.35 38.65 46.45 37.75 45.35 37.15 42.8 L36.55 39.15 Q35.9 34.85 35.8 33.0 L35.7 33.65 Q35.55 35.55 35.65 38.25 L35.9 42.7 36.0 43.65 Q35.7 44.25 35.8 45.6 L35.9 46.8 Q35.7 48.35 36.1 49.0 L36.0 49.0 Q38.65 56.7 45.2 63.7 L47.4 63.15 47.7 63.05 48.0 63.0 48.4 62.85 48.6 62.75 49.7 62.35 Q46.6 63.85 42.95 63.95 41.8 62.7 40.55 60.4 L38.95 57.2 Q36.4 52.35 35.45 49.0 L35.05 48.45 34.8 48.45 Q34.0 48.1 33.3 47.55 L32.25 46.65 32.3 46.75 32.15 46.6 Q32.0 46.45 32.0 46.7 L32.35 47.3 33.6 49.8 Q37.45 58.25 36.2 64.25 L35.15 64.8 35.1 64.75 35.1 64.65 35.25 64.7 Q35.6 55.6 31.0 45.4 L30.2 44.4 29.25 43.45 29.2 43.25 30.55 43.65 30.7 43.75 30.75 43.75 Q32.15 44.45 34.45 46.65 L34.85 46.9 34.75 44.8 Q34.2 40.95 34.75 36.65 34.85 33.05 35.8 30.55 L35.9 30.25 36.3 29.7 36.25 29.95 36.4 31.3 Q36.9 39.15 39.4 44.9 39.3 44.65 39.65 42.8 L39.95 40.85 40.05 39.25 Q40.2 38.3 40.55 37.8 L40.8 38.3 40.9 38.95 41.4 40.2 43.15 41.85 43.95 42.8 44.15 41.0 44.3 38.05 44.1 36.85 43.85 36.35 43.8 35.8 44.05 36.0 Q46.05 37.8 46.55 39.15 L47.6 41.15 Q47.2 34.1 45.0 28.4 44.55 25.65 43.35 24.6" fill="#0b6839" fill-rule="evenodd" stroke="none"/>
      <path d="M36.2 64.25 L36.15 64.55 43.1 64.1 42.95 63.95 Q47.7 63.8 51.6 61.3 L51.7 61.35 53.9 59.9 56.15 56.8 57.1 55.1 58.25 56.75 55.7 59.9 52.5 62.55 51.8 62.95 Q47.55 64.45 44.9 64.9 L40.3 65.2 35.7 65.45 35.65 65.45 Q35.2 65.55 35.2 64.95 L35.25 64.85 35.15 64.8 36.2 64.25" fill="#03361e" fill-rule="evenodd" stroke="none"/>
      <path d="M48.9 42.85 L48.85 40.2 50.6 45.15 52.35 49.15 54.35 53.05 56.15 56.8 54.2 59.5 Q52.75 52.0 48.85 43.75 L48.9 42.85" fill="#76ac53" fill-rule="evenodd" stroke="none"/>
      <path d="M48.85 43.75 Q52.75 52.0 54.2 59.5 L53.9 59.9 51.7 61.35 51.25 61.05 51.3 60.85 Q52.2 52.8 48.85 43.95 L48.85 43.75" fill="#97dd6a" fill-rule="evenodd" stroke="none"/>
      <path d="M46.75 41.85 L47.4 43.45 48.35 46.55 48.5 47.6 48.3 46.8 48.15 46.7 47.8 46.35 Q46.3 44.75 45.35 40.8 L45.35 40.7 Q45.35 40.5 45.6 40.6 46.25 40.95 46.75 41.85" fill="#76ac53" fill-rule="evenodd" stroke="none"/>
      <path d="M45.25 40.5 L45.35 40.8 Q46.3 44.75 47.8 46.35 L48.15 46.7 48.3 46.8 48.5 47.6 48.55 47.65 49.1 50.15 Q49.5 52.05 49.7 55.15 L50.15 60.15 48.95 59.05 47.75 57.9 Q46.4 50.9 45.25 40.55 L45.25 40.5" fill="#76ac53" fill-rule="evenodd" stroke="none"/>
      <path d="M45.2 41.0 L45.25 40.85 45.25 40.55 Q46.4 50.9 47.75 57.9 L47.0 57.1 44.9 54.45 44.95 54.15 45.05 48.4 44.95 42.6 45.2 41.0" fill="#97dd6a" fill-rule="evenodd" stroke="none"/>
      <path d="M44.0 44.25 L44.1 44.2 Q43.55 49.6 43.75 52.75 L40.0 47.1 40.05 47.1 40.05 46.95 40.1 46.25 40.5 39.8 40.55 39.65 Q40.75 40.6 41.1 41.2 L41.2 41.4 Q42.25 43.1 43.25 43.45 L43.85 44.2 43.95 44.25 44.0 44.25" fill="#76ac53" fill-rule="evenodd" stroke="none"/>
      <path d="M43.85 44.2 L43.25 43.45 Q42.25 43.1 41.2 41.4 L42.65 42.65 Q43.55 43.5 43.85 44.2" fill="#76ac53" fill-rule="evenodd" stroke="none"/>
      <path d="M38.65 46.45 Q39.4 48.35 40.75 50.65 L43.3 54.7 46.1 58.8 Q48.05 61.25 49.85 62.3 L48.6 62.75 48.4 62.85 48.0 63.0 47.7 63.05 Q39.35 54.05 36.0 43.9 L36.0 43.65 35.9 42.7 35.65 38.25 Q35.55 35.55 35.7 33.65 L35.8 33.0 Q35.9 34.85 36.55 39.15 L37.15 42.8 Q37.75 45.35 38.65 46.45" fill="#76ac53" fill-rule="evenodd" stroke="none"/>
      <path d="M36.0 43.9 Q39.35 54.05 47.7 63.05 L47.4 63.15 45.2 63.7 Q38.65 56.7 36.0 49.0 L36.1 49.0 36.3 48.8 36.25 48.5 Q36.45 47.95 36.2 47.65 36.35 46.6 36.0 43.9" fill="#97dd6a" fill-rule="evenodd" stroke="none"/>
      <path d="M40.1 45.9 L40.1 46.25 40.05 46.95 39.9 46.5 Q39.85 46.35 40.1 45.9" fill="#76ac53" fill-rule="evenodd" stroke="none"/>
      <path d="M36.0 43.65 L36.0 43.9 Q36.35 46.6 36.2 47.65 36.45 47.95 36.25 48.5 L36.3 48.8 36.1 49.0 Q35.7 48.35 35.9 46.8 L35.8 45.6 Q35.7 44.25 36.0 43.65" fill="#97dd6a" fill-rule="evenodd" stroke="none"/>
      <path d="M35.45 49.0 Q36.4 52.35 38.95 57.2 L40.65 60.5 Q41.95 62.9 43.1 64.1 L38.5 64.5 Q37.15 56.6 32.45 46.85 L32.75 47.1 Q34.05 48.25 35.15 48.6 L35.15 48.75 35.45 49.0" fill="#76ac53" fill-rule="evenodd" stroke="none"/>
      <path d="M32.25 46.65 L32.45 46.85 Q37.15 56.6 38.5 64.5 L36.15 64.55 Q37.6 58.55 33.6 49.8 L32.3 47.2 32.4 47.1 32.4 47.0 32.25 46.65" fill="#97dd6a" fill-rule="evenodd" stroke="none"/>
      <path d="M45.4 40.45 Q47.5 41.65 47.5 43.45 L47.5 43.5 48.75 48.4 49.4 51.3 49.85 54.15 49.8 56.45 50.0 57.55 50.15 59.2 50.15 59.65 49.95 60.05 49.55 60.1 49.0 59.5 48.4 58.9 47.25 57.85 Q45.45 55.75 44.75 54.5 44.65 54.4 44.8 54.25 44.9 54.1 45.0 54.25 45.9 55.55 48.65 57.55 L49.4 58.1 49.4 57.65 48.25 51.1 47.7 47.25 Q47.45 44.75 47.0 43.35 L46.4 42.15 Q45.95 41.1 45.35 40.5 L45.4 40.45" fill="#558637" fill-rule="evenodd" stroke="none"/>
      <path d="M51.5 48.65 Q49.1 43.6 48.55 39.6 48.55 39.5 48.7 39.55 49.15 41.35 50.45 44.15 L52.65 48.6 54.35 52.8 56.1 56.95 56.0 57.05 51.5 48.65" fill="#558637" fill-rule="evenodd" stroke="none"/>
      <path d="M41.4 40.6 L42.35 41.8 43.8 43.95 44.0 44.2 44.1 44.5 44.0 45.0 43.9 48.0 43.9 50.15 43.8 52.25 43.65 52.55 43.35 52.5 Q42.65 51.55 42.9 48.55 43.05 47.0 43.6 45.3 L43.25 45.05 42.95 44.4 41.6 42.7 40.85 41.15 Q40.3 40.35 40.3 39.65 L41.4 40.6" fill="#558637" fill-rule="evenodd" stroke="none"/>
      <path d="M34.9 48.6 L34.95 48.55 Q36.0 49.5 36.9 51.8 L38.35 55.45 40.6 59.7 42.7 63.95 42.7 64.0 Q41.3 62.9 40.0 60.2 L37.85 55.95 Q35.35 52.25 34.9 48.6" fill="#558637" fill-rule="evenodd" stroke="none"/>
      <path d="M40.65 40.1 L40.6 43.2 Q40.45 45.2 40.85 46.2 L41.95 48.15 Q42.7 49.3 42.9 50.2 42.9 50.75 42.65 50.5 L40.8 48.5 Q40.0 47.35 39.95 46.05 39.85 44.0 40.55 40.1 L40.65 40.1" fill="#97dd6a" fill-rule="evenodd" stroke="none"/>
    </g>
    <g id="sprite13" transform="matrix(1.0, 0.0, 0.0, 1.0, 0.0, 0.0)">
      <use ffdec:characterId="949" height="12.25" transform="matrix(1.0, 0.0, 0.0, 1.0, 0.0, 0.0)" width="16.65" xlink:href="#shape19"/>
    </g>
    <g id="shape19" transform="matrix(1.0, 0.0, 0.0, 1.0, 0.0, 0.0)">
      <path d="M16.3 2.1 L16.25 4.4 16.65 9.4 Q16.7 10.1 15.95 10.2 15.2 10.35 14.85 9.85 13.75 8.25 11.85 7.75 L12.0 7.95 13.3 10.3 Q13.65 10.8 13.3 11.25 13.3 11.9 12.6 12.15 11.9 12.4 11.4 11.95 L10.45 11.0 9.65 10.95 Q8.65 10.55 7.35 9.6 L5.15 8.1 4.95 7.9 4.4 7.55 3.7 6.55 3.25 6.25 3.15 6.1 3.15 6.05 2.95 5.9 0.05 1.9 0.1 1.5 Q0.3 1.35 0.55 1.5 L1.85 2.45 1.9 2.35 Q1.6 1.85 1.45 1.2 1.2 0.35 2.1 0.05 3.0 -0.2 3.5 0.45 4.75 2.05 5.45 3.65 L6.4 4.4 6.4 4.25 Q6.45 3.5 7.3 3.35 8.1 3.15 8.5 3.75 9.2 4.95 9.5 5.9 L9.6 5.85 Q12.3 5.45 14.5 6.95 L14.45 4.4 14.5 4.3 14.45 2.1 Q14.45 1.3 15.4 1.3 16.3 1.3 16.3 2.1" fill="#41210d" fill-rule="evenodd" stroke="none"/>
    </g>
    <g id="sprite14" transform="matrix(1.0, 0.0, 0.0, 1.0, 0.0, 0.0)">
      <use ffdec:characterId="951" height="14.05" transform="matrix(1.0, 0.0, 0.0, 1.0, 0.0, 0.0)" width="34.25" xlink:href="#shape20"/>
    </g>
    <g id="shape20" transform="matrix(1.0, 0.0, 0.0, 1.0, 0.0, 0.0)">
      <path d="M32.45 4.45 Q33.4 4.05 34.05 4.9 34.65 5.7 33.65 6.25 31.2 7.5 28.6 8.2 L24.75 9.5 24.5 9.65 21.65 10.6 21.05 10.85 19.8 11.3 19.75 11.55 Q19.7 12.05 19.15 12.15 18.6 12.2 18.2 11.9 L13.6 13.6 10.4 14.0 7.25 13.35 Q6.4 13.15 6.4 12.4 L4.15 10.7 3.75 10.55 3.1 9.95 1.3 8.8 0.6 8.55 0.25 8.25 Q-0.15 7.85 0.1 7.4 0.3 7.0 0.85 6.95 1.15 6.7 1.55 6.8 1.85 6.3 2.55 6.4 2.8 6.1 3.25 6.1 3.75 6.1 3.95 6.45 4.75 7.75 5.7 8.65 L7.85 10.3 8.1 10.55 8.7 10.8 Q8.8 10.45 9.15 10.2 L8.7 9.2 Q8.5 8.7 8.95 8.45 L9.9 8.4 9.8 5.7 Q9.8 5.05 10.5 5.1 11.2 5.1 11.25 5.7 L11.95 9.3 12.2 9.65 Q12.6 9.4 13.0 9.65 L13.5 9.75 13.75 8.2 Q13.8 7.9 14.15 7.8 L14.3 7.5 14.7 7.05 14.8 5.7 Q14.8 5.0 15.6 4.9 16.4 4.8 16.6 5.5 17.3 7.55 16.7 9.45 L16.85 9.45 16.95 8.5 Q16.95 7.8 17.75 7.75 18.5 7.7 18.75 8.3 L18.9 8.75 19.55 8.85 19.85 8.75 19.3 7.25 Q19.1 6.65 19.7 6.3 L20.8 6.4 21.15 6.0 20.5 5.3 Q19.95 4.7 19.5 3.3 L18.7 1.1 Q18.3 0.3 19.25 0.05 20.15 -0.2 20.65 0.4 23.2 3.7 24.4 4.65 L25.3 4.8 28.1 5.75 28.55 5.85 28.75 5.95 32.45 4.45" fill="#41210d" fill-rule="evenodd" stroke="none"/>
    </g>
  </defs>
</svg>
