<?xml version="1.0" encoding="UTF-8" standalone="no"?>
<svg xmlns:ffdec="https://www.free-decompiler.com/flash" xmlns:xlink="http://www.w3.org/1999/xlink" ffdec:objectType="frame" height="39.95px" width="37.95px" xmlns="http://www.w3.org/2000/svg">
  <g transform="matrix(1.0, 0.0, 0.0, 1.0, 0.0, 0.0)">
    <filter id="filter0">
      <feOffset dx="2.1608667917818052E-5" dy="1.9999999998832663" in="SourceGraphic" result="filterResult0"/>
      <feColorMatrix in="filterResult0" result="filterResult1" type="matrix" values="0 0 0 0 0.0,0 0 0 0 0.0,0 0 0 0 0.0,0 0 0 1 0"/>
      <feColorMatrix in="filterResult1" result="filterResult2" type="matrix" values="1 0 0 0 0,0 1 0 0 0,0 0 1 0 0,0 0 0 0.34765625 0"/>
      <feComposite in="SourceGraphic" in2="filterResult2" operator="over" result="filterResult3"/>
    </filter>
    <use ffdec:characterId="1363" filter="url(#filter0)" height="37.75" transform="matrix(1.0, 0.0, 0.0, 1.0, 0.0, 0.0)" width="37.95" xlink:href="#shape0"/>
  </g>
  <defs>
    <g id="shape0" transform="matrix(1.0, 0.0, 0.0, 1.0, 0.0, 0.0)">
      <path d="M36.15 20.4 Q36.15 27.4 31.2 32.4 26.2 37.4 19.25 37.4 L19.2 37.4 Q12.25 37.4 7.25 32.4 2.3 27.4 2.3 20.4 2.3 13.4 7.25 8.4 12.25 3.45 19.2 3.45 L19.25 3.45 Q26.2 3.45 31.2 8.4 36.15 13.4 36.15 20.4" fill="#000000" fill-rule="evenodd" stroke="none"/>
      <path d="M34.3 19.95 Q34.3 26.5 29.65 31.2 25.25 35.6 19.2 35.85 13.15 35.6 8.75 31.2 4.1 26.5 4.1 19.95 4.1 13.4 8.75 8.75 13.15 4.35 19.2 4.15 25.25 4.35 29.65 8.75 34.3 13.4 34.3 19.95" fill="#000000" fill-rule="evenodd" stroke="none"/>
      <path d="M32.4 5.55 Q37.95 11.05 37.95 18.85 37.95 26.7 32.4 32.2 26.9 37.75 19.05 37.75 L18.9 37.75 Q11.05 37.75 5.55 32.2 0.0 26.7 0.0 18.85 0.0 11.05 5.55 5.55 11.05 0.0 18.9 0.0 L19.05 0.0 Q26.9 0.0 32.4 5.55" fill="#ffffff" fill-rule="evenodd" stroke="none"/>
      <path d="M36.15 18.4 Q36.15 25.4 31.2 30.4 26.2 35.4 19.25 35.4 L19.2 35.4 Q12.25 35.4 7.25 30.4 2.3 25.4 2.3 18.4 2.3 11.4 7.25 6.4 12.25 1.45 19.2 1.45 L19.25 1.45 Q26.2 1.45 31.2 6.4 36.15 11.4 36.15 18.4" fill="#393a3e" fill-rule="evenodd" stroke="none"/>
      <path d="M34.3 17.95 Q34.3 24.5 29.65 29.2 25.25 33.6 19.2 33.85 13.15 33.6 8.75 29.2 4.1 24.5 4.1 17.95 4.1 11.4 8.75 6.75 13.15 2.35 19.2 2.15 25.25 2.35 29.65 6.75 34.3 11.4 34.3 17.95" fill="#dbf7c1" fill-rule="evenodd" stroke="none"/>
      <path d="M24.25 22.55 Q23.05 23.85 22.85 25.8 L15.25 25.05 Q15.3 22.05 16.6 20.15 17.85 18.35 20.5 17.15 L23.5 15.75 Q24.85 14.95 24.9 14.05 24.95 13.0 23.7 12.35 22.55 11.75 20.7 11.7 15.55 11.55 11.45 16.1 8.75 13.55 6.0 10.2 12.55 3.85 20.4 4.1 26.15 4.3 29.6 7.1 33.1 9.95 32.85 14.3 32.65 17.65 27.5 20.35 25.25 21.5 24.25 22.55" fill="#3a482e" fill-rule="evenodd" stroke="none"/>
      <path d="M20.4 10.05 Q15.7 10.05 11.85 13.95 L8.15 9.75 Q13.45 4.75 19.75 4.75 L20.3 4.8 Q26.35 4.95 29.4 8.4 31.3 10.65 31.1 13.6 30.9 16.35 26.6 18.6 24.5 19.7 23.5 20.75 22.25 22.05 21.85 23.8 L16.5 23.25 Q16.75 21.1 17.75 19.75 18.75 18.4 20.85 17.4 L21.75 17.0 24.4 15.6 Q25.55 14.7 25.6 13.45 25.65 12.0 24.3 11.05 22.95 10.15 20.65 10.05 L20.4 10.05" fill="#d0dc1c" fill-rule="evenodd" stroke="none"/>
      <path d="M18.8 26.9 Q21.4 26.9 22.8 28.4 24.05 29.75 23.85 31.65 23.65 33.6 22.4 34.7 21.05 35.8 18.8 35.7 16.35 35.65 14.85 34.1 13.55 32.7 13.75 31.1 13.9 29.25 15.15 28.1 16.5 26.9 18.8 26.9" fill="#3a482e" fill-rule="evenodd" stroke="none"/>
      <path d="M18.9 34.15 Q16.85 34.05 15.75 32.8 14.95 31.85 15.05 30.8 15.3 27.65 18.8 27.65 20.9 27.65 21.9 28.8 22.75 29.7 22.65 31.1 22.25 34.15 19.15 34.15 L18.9 34.15" fill="#d0dc1c" fill-rule="evenodd" stroke="none"/>
      <path d="M28.55 11.7 Q28.4 10.3 27.5 9.0 L27.5 8.9 27.65 8.9 Q29.45 10.4 29.7 11.85 29.9 13.95 29.0 14.75 L28.25 14.85 Q27.85 14.6 27.95 14.15 L28.4 12.95 28.55 11.7" fill="#ffffff" fill-rule="evenodd" stroke="none"/>
      <path d="M22.65 19.6 L22.95 19.7 22.85 20.0 Q22.25 20.45 21.9 21.25 L21.75 21.85 21.35 22.3 21.0 22.2 Q20.55 21.8 21.25 20.5 21.85 19.75 22.65 19.6" fill="#ffffff" fill-rule="evenodd" stroke="none"/>
      <path d="M21.55 30.25 Q21.65 30.85 21.15 31.2 20.6 31.55 20.15 31.05 19.65 30.55 19.8 29.7 19.85 29.5 20.15 29.4 L20.65 29.35 Q21.45 29.65 21.55 30.25" fill="#ffffff" fill-rule="evenodd" stroke="none"/>
    </g>
  </defs>
</svg>
