<?xml version="1.0" encoding="UTF-8" standalone="no"?>
<svg xmlns:ffdec="https://www.free-decompiler.com/flash" xmlns:xlink="http://www.w3.org/1999/xlink" ffdec:objectType="frame" height="39.95px" width="37.95px" xmlns="http://www.w3.org/2000/svg">
  <g transform="matrix(1.0, 0.0, 0.0, 1.0, 0.0, 0.0)">
    <filter id="filter0">
      <feOffset dx="2.1608667917818052E-5" dy="1.9999999998832663" in="SourceGraphic" result="filterResult0"/>
      <feColorMatrix in="filterResult0" result="filterResult1" type="matrix" values="0 0 0 0 0.0,0 0 0 0 0.0,0 0 0 0 0.0,0 0 0 1 0"/>
      <feColorMatrix in="filterResult1" result="filterResult2" type="matrix" values="1 0 0 0 0,0 1 0 0 0,0 0 1 0 0,0 0 0 0.34765625 0"/>
      <feComposite in="SourceGraphic" in2="filterResult2" operator="over" result="filterResult3"/>
    </filter>
    <use ffdec:characterId="1377" filter="url(#filter0)" height="37.75" transform="matrix(1.0, 0.0, 0.0, 1.0, 0.0, 0.0)" width="37.95" xlink:href="#shape0"/>
  <defs>
    <g id="shape0" transform="matrix(1.0, 0.0, 0.0, 1.0, 0.0, 0.0)">
      <path d="M32.4 5.55 Q37.95 11.05 37.95 18.85 37.95 26.7 32.4 32.2 26.9 37.75 19.05 37.75 L18.9 37.75 Q11.05 37.75 5.55 32.2 0.0 26.7 0.0 18.85 0.0 11.05 5.55 5.55 11.05 0.0 18.9 0.0 L19.05 0.0 Q26.9 0.0 32.4 5.55" fill="#ffffff" fill-rule="evenodd" stroke="none"/>
      <path d="M36.15 18.4 Q36.15 25.4 31.2 30.4 26.2 35.4 19.25 35.4 L19.2 35.4 Q12.25 35.4 7.25 30.4 2.3 25.4 2.3 18.4 2.3 11.4 7.25 6.4 12.25 1.45 19.2 1.45 L19.25 1.45 Q26.2 1.45 31.2 6.4 36.15 11.4 36.15 18.4" fill="#393a3e" fill-rule="evenodd" stroke="none"/>
      <path d="M34.3 17.95 Q34.3 24.5 29.65 29.2 25.25 33.6 19.2 33.85 13.15 33.6 8.75 29.2 4.1 24.5 4.1 17.95 4.1 11.4 8.75 6.75 13.15 2.35 19.2 2.15 25.25 2.35 29.65 6.75 34.3 11.4 34.3 17.95" fill="#dbf7c1" fill-rule="evenodd" stroke="none"/>
      <path d="M30.3 12.4 L29.05 25.4 21.4 24.6 12.0 30.5 14.65 3.65 17.2 6.15 23.05 11.75 30.3 12.4" fill="#3a482e" fill-rule="evenodd" stroke="none"/>
      <path d="M20.35 22.2 L14.4 26.3 16.5 8.15 22.35 12.8 28.45 13.35 27.5 22.85 20.35 22.2" fill="#d0dc1c" fill-rule="evenodd" stroke="none"/>
      <path d="M25.15 15.7 L25.25 15.9 25.2 16.0 20.6 16.2 18.35 15.35 Q17.0 14.5 17.3 13.4 17.55 12.25 19.0 12.8 L20.9 13.85 Q23.75 15.3 25.15 15.7" fill="#ffffff" fill-rule="evenodd" stroke="none"/>
    </g>
  </defs>
</svg>
