<?xml version="1.0" encoding="UTF-8" standalone="no"?>
<svg xmlns:ffdec="https://www.free-decompiler.com/flash" xmlns:xlink="http://www.w3.org/1999/xlink" ffdec:objectType="frame" height="52.9px" width="106.55px" xmlns="http://www.w3.org/2000/svg">
  <g transform="matrix(1.0, 0.0, 0.0, 1.0, 53.2, 52.95)">
    <use ffdec:characterId="228" height="51.3" transform="matrix(1.0, 0.0, 0.0, 1.0, -53.2, -51.35)" width="106.55" xlink:href="#shape0"/>
    <filter id="filter0">
      <feOffset dx="1.0804333958909026E-5" dy="0.9999999999416331" in="SourceGraphic" result="filterResult0"/>
      <feColorMatrix in="filterResult0" result="filterResult1" type="matrix" values="0 0 0 0 0.0,0 0 0 0 0.0,0 0 0 0 0.0,0 0 0 1 0"/>
      <feComposite in="SourceGraphic" in2="filterResult1" operator="over" result="filterResult2"/>
    </filter>
    <use ffdec:characterId="229" filter="url(#filter0)" height="41.5" id="txt" transform="matrix(1.0, 0.0, 0.0, 1.0, -48.4, -52.95)" width="96.75" xlink:href="#text0"/>
  </g>
  <defs>
    <g id="shape0" transform="matrix(1.0, 0.0, 0.0, 1.0, 53.2, 51.35)">
      <path d="M15.0 -15.0 L0.05 -0.05 -14.9 -15.0 -41.55 -15.0 Q-46.35 -15.0 -49.8 -18.45 -53.1 -21.75 -53.2 -26.3 L-53.2 -39.3 -53.2 -39.65 -53.2 -39.7 Q-53.2 -44.5 -49.8 -47.95 -46.35 -51.35 -41.55 -51.35 L41.7 -51.35 Q46.5 -51.35 49.9 -47.95 53.35 -44.5 53.35 -39.7 L53.35 -39.65 53.35 -39.3 53.35 -26.3 Q53.2 -21.75 49.9 -18.45 46.5 -15.0 41.7 -15.0 L15.0 -15.0" fill="#000000" fill-rule="evenodd" stroke="none"/>
    </g>
  </defs>
</svg>
