<?xml version="1.0" encoding="UTF-8" standalone="no"?>
<svg xmlns:ffdec="https://www.free-decompiler.com/flash" xmlns:xlink="http://www.w3.org/1999/xlink" ffdec:objectType="frame" height="39.95px" width="37.95px" xmlns="http://www.w3.org/2000/svg">
  <g transform="matrix(1.0, 0.0, 0.0, 1.0, 0.0, 0.0)">
    <filter id="filter0">
      <feOffset dx="2.1608667917818052E-5" dy="1.9999999998832663" in="SourceGraphic" result="filterResult0"/>
      <feColorMatrix in="filterResult0" result="filterResult1" type="matrix" values="0 0 0 0 0.0,0 0 0 0 0.0,0 0 0 0 0.0,0 0 0 1 0"/>
      <feColorMatrix in="filterResult1" result="filterResult2" type="matrix" values="1 0 0 0 0,0 1 0 0 0,0 0 1 0 0,0 0 0 0.34765625 0"/>
      <feComposite in="SourceGraphic" in2="filterResult2" operator="over" result="filterResult3"/>
    </filter>
    <use ffdec:characterId="1367" filter="url(#filter0)" height="37.75" transform="matrix(1.0, 0.0, 0.0, 1.0, 0.0, 0.0)" width="37.95" xlink:href="#shape0"/>
  </g>
  <defs>
    <g id="shape0" transform="matrix(1.0, 0.0, 0.0, 1.0, 0.0, 0.0)">
      <path d="M32.4 5.55 Q37.95 11.05 37.95 18.85 37.95 26.7 32.4 32.2 26.9 37.75 19.05 37.75 L18.9 37.75 Q11.05 37.75 5.55 32.2 0.0 26.7 0.0 18.85 0.0 11.05 5.55 5.55 11.05 0.0 18.9 0.0 L19.05 0.0 Q26.9 0.0 32.4 5.55" fill="#ffffff" fill-rule="evenodd" stroke="none"/>
      <path d="M36.15 18.4 Q36.15 25.4 31.2 30.4 26.2 35.4 19.25 35.4 L19.2 35.4 Q12.25 35.4 7.25 30.4 2.3 25.4 2.3 18.4 2.3 11.4 7.25 6.4 12.25 1.45 19.2 1.45 L19.25 1.45 Q26.2 1.45 31.2 6.4 36.15 11.4 36.15 18.4" fill="#393a3e" fill-rule="evenodd" stroke="none"/>
      <path d="M34.3 17.95 Q34.3 24.5 29.65 29.2 25.25 33.6 19.2 33.85 13.15 33.6 8.75 29.2 4.1 24.5 4.1 17.95 4.1 11.4 8.75 6.75 13.15 2.35 19.2 2.15 25.25 2.35 29.65 6.75 34.3 11.4 34.3 17.95" fill="#dbf7c1" fill-rule="evenodd" stroke="none"/>
      <path d="M18.15 4.3 L18.55 10.65 23.8 10.7 23.55 8.8 27.9 9.15 28.5 10.85 30.0 10.9 32.6 27.1 7.15 29.2 6.85 10.55 10.25 10.9 9.8 4.6 18.15 4.3" fill="#3a482e" fill-rule="evenodd" stroke="none"/>
      <path d="M9.3 12.4 L11.4 12.35 11.15 6.6 16.9 6.6 17.6 12.15 28.85 11.7 30.35 24.85 9.3 26.45 9.3 12.4" fill="#d0dc1c" fill-rule="evenodd" stroke="none"/>
      <path d="M25.25 18.9 Q25.25 21.15 23.75 22.75 22.25 24.3 20.1 24.3 17.95 24.3 16.45 22.75 14.9 21.15 14.9 18.9 14.9 16.65 16.45 15.1 17.95 13.55 20.1 13.55 22.25 13.55 23.75 15.1 25.25 16.65 25.25 18.9" fill="#3a482e" fill-rule="evenodd" stroke="none"/>
      <path d="M22.15 18.1 Q22.15 19.2 21.4 20.0 20.65 20.8 19.6 20.8 18.55 20.8 17.8 20.0 17.05 19.2 17.05 18.1 17.05 17.0 17.8 16.25 18.55 15.45 19.6 15.45 20.65 15.45 21.4 16.25 22.15 17.0 22.15 18.1" fill="#ffffff" fill-rule="evenodd" stroke="none"/>
      <path d="M12.35 7.6 L15.85 7.35 16.35 10.75 12.85 11.0 12.35 7.6" fill="#ffffff" fill-rule="evenodd" stroke="none"/>
    </g>
  </defs>
</svg>
