<?xml version="1.0" encoding="UTF-8" standalone="no"?>
<svg xmlns:ffdec="https://www.free-decompiler.com/flash" xmlns:xlink="http://www.w3.org/1999/xlink" ffdec:objectType="frame" height="39.95px" width="37.95px" xmlns="http://www.w3.org/2000/svg">
  <g transform="matrix(1.0, 0.0, 0.0, 1.0, 0.0, 0.0)">
    <filter id="filter0">
      <feOffset dx="2.1608667917818052E-5" dy="1.9999999998832663" in="SourceGraphic" result="filterResult0"/>
      <feColorMatrix in="filterResult0" result="filterResult1" type="matrix" values="0 0 0 0 0.0,0 0 0 0 0.0,0 0 0 0 0.0,0 0 0 1 0"/>
      <feColorMatrix in="filterResult1" result="filterResult2" type="matrix" values="1 0 0 0 0,0 1 0 0 0,0 0 1 0 0,0 0 0 0.34765625 0"/>
      <feComposite in="SourceGraphic" in2="filterResult2" operator="over" result="filterResult3"/>
    </filter>
    <use ffdec:characterId="1361" filter="url(#filter0)" height="37.75" transform="matrix(1.0, 0.0, 0.0, 1.0, 0.0, 0.0)" width="37.95" xlink:href="#shape0"/>
  <defs>
    <g id="shape0" transform="matrix(1.0, 0.0, 0.0, 1.0, 0.0, 0.0)">
      <path d="M36.15 20.4 Q36.15 27.4 31.2 32.4 26.2 37.4 19.25 37.4 L19.2 37.4 Q12.25 37.4 7.25 32.4 2.3 27.4 2.3 20.4 2.3 13.4 7.25 8.4 12.25 3.45 19.2 3.45 L19.25 3.45 Q26.2 3.45 31.2 8.4 36.15 13.4 36.15 20.4" fill="#000000" fill-rule="evenodd" stroke="none"/>
      <path d="M34.3 19.95 Q34.3 26.5 29.65 31.2 25.25 35.6 19.2 35.85 13.15 35.6 8.75 31.2 4.1 26.5 4.1 19.95 4.1 13.4 8.75 8.75 13.15 4.35 19.2 4.15 25.25 4.35 29.65 8.75 34.3 13.4 34.3 19.95" fill="#000000" fill-rule="evenodd" stroke="none"/>
      <path d="M32.4 5.55 Q37.95 11.05 37.95 18.85 37.95 26.7 32.4 32.2 26.9 37.75 19.05 37.75 L18.9 37.75 Q11.05 37.75 5.55 32.2 0.0 26.7 0.0 18.85 0.0 11.05 5.55 5.55 11.05 0.0 18.9 0.0 L19.05 0.0 Q26.9 0.0 32.4 5.55" fill="#ffffff" fill-rule="evenodd" stroke="none"/>
      <path d="M36.15 18.4 Q36.15 25.4 31.2 30.4 26.2 35.4 19.25 35.4 L19.2 35.4 Q12.25 35.4 7.25 30.4 2.3 25.4 2.3 18.4 2.3 11.4 7.25 6.4 12.25 1.45 19.2 1.45 L19.25 1.45 Q26.2 1.45 31.2 6.4 36.15 11.4 36.15 18.4" fill="#393a3e" fill-rule="evenodd" stroke="none"/>
      <path d="M34.3 17.95 Q34.3 24.5 29.65 29.2 25.25 33.6 19.2 33.85 13.15 33.6 8.75 29.2 4.1 24.5 4.1 17.95 4.1 11.4 8.75 6.75 13.15 2.35 19.2 2.15 25.25 2.35 29.65 6.75 34.3 11.4 34.3 17.95" fill="#dbf7c1" fill-rule="evenodd" stroke="none"/>
      <path d="M24.05 15.9 L29.95 21.8 Q31.35 23.15 31.35 25.1 31.35 27.05 29.95 28.45 28.55 29.85 26.6 29.85 24.65 29.85 23.25 28.45 L17.35 22.6 17.1 22.3 12.9 22.15 Q10.8 21.55 9.2 19.95 7.1 17.85 6.75 14.95 6.35 12.1 7.7 9.55 L13.75 15.6 17.15 15.6 17.15 12.2 11.1 6.15 Q13.65 4.8 16.5 5.2 19.4 5.55 21.5 7.65 23.1 9.25 23.7 11.4 24.3 13.55 23.8 15.7 L24.05 15.9" fill="#3a482e" fill-rule="evenodd" stroke="none"/>
      <path d="M30.35 24.7 Q30.35 26.2 29.2 27.3 28.15 28.4 26.6 28.4 25.0 28.4 23.95 27.3 L18.05 21.45 17.45 20.75 16.9 20.9 15.35 21.05 Q12.15 21.05 9.9 18.8 8.35 17.25 7.85 15.05 7.35 12.9 8.05 10.85 L13.35 16.15 18.15 16.15 18.15 11.35 12.85 6.05 15.35 5.65 Q18.5 5.65 20.75 7.9 22.15 9.3 22.7 11.2 23.25 13.1 22.85 15.05 L22.7 15.6 23.35 16.15 29.2 22.05 Q30.35 23.15 30.35 24.7" fill="#d0dc1c" fill-rule="evenodd" stroke="none"/>
      <path d="M16.75 7.0 Q18.15 6.7 19.75 7.8 21.4 8.95 21.45 10.4 21.45 10.9 21.0 11.0 20.55 11.1 20.25 10.75 L19.05 8.6 18.05 7.6 Q17.5 7.15 16.75 7.1 L16.75 7.0" fill="#ffffff" fill-rule="evenodd" stroke="none"/>
      <path d="M27.75 21.45 Q29.7 22.9 29.8 24.55 29.8 24.95 29.4 25.25 L29.15 25.4 28.55 25.3 28.15 24.6 28.05 23.8 Q28.0 23.1 27.45 22.45 L26.35 21.4 22.85 17.5 22.9 17.5 25.2 19.6 27.75 21.45" fill="#ffffff" fill-rule="evenodd" stroke="none"/>
      <path d="M14.35 16.85 L14.6 17.1 14.5 17.4 Q13.4 18.4 11.45 16.3 L9.15 12.8 9.15 12.75 11.4 15.25 13.0 16.55 14.35 16.85" fill="#ffffff" fill-rule="evenodd" stroke="none"/>
    </g>
  </defs>
</svg>
