<?xml version="1.0" encoding="UTF-8" standalone="no"?>
<svg xmlns:ffdec="https://www.free-decompiler.com/flash" xmlns:xlink="http://www.w3.org/1999/xlink" ffdec:objectType="frame" height="39.95px" width="37.95px" xmlns="http://www.w3.org/2000/svg">
  <g transform="matrix(1.0, 0.0, 0.0, 1.0, 0.0, 0.0)">
    <filter id="filter0">
      <feOffset dx="2.1608667917818052E-5" dy="1.9999999998832663" in="SourceGraphic" result="filterResult0"/>
      <feColorMatrix in="filterResult0" result="filterResult1" type="matrix" values="0 0 0 0 0.0,0 0 0 0 0.0,0 0 0 0 0.0,0 0 0 1 0"/>
      <feColorMatrix in="filterResult1" result="filterResult2" type="matrix" values="1 0 0 0 0,0 1 0 0 0,0 0 1 0 0,0 0 0 0.34765625 0"/>
      <feComposite in="SourceGraphic" in2="filterResult2" operator="over" result="filterResult3"/>
    </filter>
    <use ffdec:characterId="1380" filter="url(#filter0)" height="37.75" transform="matrix(1.0, 0.0, 0.0, 1.0, 0.0, 0.0)" width="37.95" xlink:href="#shape0"/>
  </g>
  <defs>
    <g id="shape0" transform="matrix(1.0, 0.0, 0.0, 1.0, 0.0, 0.0)">
      <path d="M32.4 5.55 Q37.95 11.05 37.95 18.85 37.95 26.7 32.4 32.2 26.9 37.75 19.05 37.75 L18.9 37.75 Q11.05 37.75 5.55 32.2 0.0 26.7 0.0 18.85 0.0 11.05 5.55 5.55 11.05 0.0 18.9 0.0 L19.05 0.0 Q26.9 0.0 32.4 5.55" fill="#ffffff" fill-rule="evenodd" stroke="none"/>
      <path d="M36.15 18.4 Q36.15 25.4 31.2 30.4 26.2 35.4 19.25 35.4 L19.2 35.4 Q12.25 35.4 7.25 30.4 2.3 25.4 2.3 18.4 2.3 11.4 7.25 6.4 12.25 1.45 19.2 1.45 L19.25 1.45 Q26.2 1.45 31.2 6.4 36.15 11.4 36.15 18.4" fill="#393a3e" fill-rule="evenodd" stroke="none"/>
      <path d="M34.3 17.95 Q34.3 24.5 29.65 29.2 25.25 33.6 19.2 33.85 13.15 33.6 8.75 29.2 4.1 24.5 4.1 17.95 4.1 11.4 8.75 6.75 13.15 2.35 19.2 2.15 25.25 2.35 29.65 6.75 34.3 11.4 34.3 17.95" fill="#dbf7c1" fill-rule="evenodd" stroke="none"/>
      <path d="M18.5 20.15 Q22.3 20.15 24.3 22.3 26.1 24.2 25.8 26.9 25.5 29.75 23.7 31.3 21.8 32.9 18.55 32.75 15.0 32.65 12.9 30.45 11.0 28.5 11.3 26.1 11.5 23.5 13.3 21.9 15.25 20.15 18.5 20.15" fill="#3a482e" fill-rule="evenodd" stroke="none"/>
      <path d="M18.65 30.5 Q15.8 30.4 14.15 28.55 13.0 27.15 13.2 25.7 13.35 23.55 14.75 22.35 16.15 21.2 18.55 21.2 21.5 21.2 23.0 22.85 24.2 24.2 24.05 26.15 23.6 30.5 19.05 30.5 L18.65 30.5" fill="#d0dc1c" fill-rule="evenodd" stroke="none"/>
      <path d="M22.5 24.9 Q22.65 25.8 21.9 26.25 21.1 26.75 20.45 26.1 19.7 25.3 19.95 24.15 20.0 23.85 20.45 23.7 L21.15 23.65 Q22.35 24.1 22.5 24.9" fill="#ffffff" fill-rule="evenodd" stroke="none"/>
      <path d="M20.6 8.1 Q25.25 8.6 29.95 8.25 27.5 14.9 26.3 21.2 25.7 24.3 25.8 26.9 L22.95 21.2 22.6 21.65 Q22.35 21.55 23.0 18.65 L23.95 14.45 15.2 13.9 11.25 13.1 11.25 3.85 14.2 5.8 Q17.7 7.8 20.6 8.1" fill="#3a482e" fill-rule="evenodd" stroke="none"/>
      <path d="M12.6 6.45 Q13.25 7.05 14.5 7.7 17.0 9.0 20.1 9.45 24.75 10.1 28.5 9.45 27.05 13.35 25.2 21.95 24.9 17.95 25.25 13.55 L18.25 13.1 12.6 12.15 12.6 6.45" fill="#d0dc1c" fill-rule="evenodd" stroke="none"/>
      <path d="M19.65 10.45 L19.65 10.65 Q16.4 11.65 14.3 10.3 13.7 9.95 14.25 9.35 14.85 8.7 15.4 9.1 16.7 10.0 19.65 10.45" fill="#ffffff" fill-rule="evenodd" stroke="none"/>
    </g>
  </defs>
</svg>
