<?xml version="1.0" encoding="UTF-8" standalone="no"?>
<svg xmlns:ffdec="https://www.free-decompiler.com/flash" xmlns:xlink="http://www.w3.org/1999/xlink" ffdec:objectType="frame" height="39.95px" width="37.95px" xmlns="http://www.w3.org/2000/svg">
  <g transform="matrix(1.0, 0.0, 0.0, 1.0, 0.0, 0.0)">
    <filter id="filter0">
      <feOffset dx="2.1608667917818052E-5" dy="1.9999999998832663" in="SourceGraphic" result="filterResult0"/>
      <feColorMatrix in="filterResult0" result="filterResult1" type="matrix" values="0 0 0 0 0.0,0 0 0 0 0.0,0 0 0 0 0.0,0 0 0 1 0"/>
      <feColorMatrix in="filterResult1" result="filterResult2" type="matrix" values="1 0 0 0 0,0 1 0 0 0,0 0 1 0 0,0 0 0 0.34765625 0"/>
      <feComposite in="SourceGraphic" in2="filterResult2" operator="over" result="filterResult3"/>
    </filter>
    <use ffdec:characterId="1357" filter="url(#filter0)" height="37.75" transform="matrix(1.0, 0.0, 0.0, 1.0, 0.0, 0.0)" width="37.95" xlink:href="#shape0"/>
  </g>
  <defs>
    <g id="shape0" transform="matrix(1.0, 0.0, 0.0, 1.0, 0.0, 0.0)">
      <path d="M32.4 5.55 Q37.95 11.05 37.95 18.85 37.95 26.7 32.4 32.2 26.9 37.75 19.05 37.75 L18.9 37.75 Q11.05 37.75 5.55 32.2 0.0 26.7 0.0 18.85 0.0 11.05 5.55 5.55 11.05 0.0 18.9 0.0 L19.05 0.0 Q26.9 0.0 32.4 5.55" fill="#ffffff" fill-rule="evenodd" stroke="none"/>
      <path d="M36.15 18.4 Q36.15 25.4 31.2 30.4 26.2 35.4 19.25 35.4 L19.2 35.4 Q12.25 35.4 7.25 30.4 2.3 25.4 2.3 18.4 2.3 11.4 7.25 6.4 12.25 1.45 19.2 1.45 L19.25 1.45 Q26.2 1.45 31.2 6.4 36.15 11.4 36.15 18.4" fill="#393a3e" fill-rule="evenodd" stroke="none"/>
      <path d="M34.3 17.95 Q34.3 24.5 29.65 29.2 25.25 33.6 19.2 33.85 13.15 33.6 8.75 29.2 4.1 24.5 4.1 17.95 4.1 11.4 8.75 6.75 13.15 2.35 19.2 2.15 25.25 2.35 29.65 6.75 34.3 11.4 34.3 17.95" fill="#dbf7c1" fill-rule="evenodd" stroke="none"/>
      <path d="M22.9 4.95 L24.95 4.85 24.8 12.95 32.55 13.4 31.75 22.8 24.9 23.3 24.4 23.3 23.9 31.45 22.0 31.35 16.15 30.9 14.6 30.75 14.1 23.8 6.75 24.1 6.55 22.3 Q6.2 18.65 6.0 14.45 L5.9 12.45 7.9 12.45 13.55 12.55 13.15 5.8 15.0 5.6 22.9 4.95" fill="#3a482e" fill-rule="evenodd" stroke="none"/>
      <path d="M22.55 20.55 L22.15 28.5 16.35 28.05 15.9 20.85 8.5 21.15 7.9 13.35 15.55 13.55 15.2 6.55 23.0 5.9 22.85 13.8 30.5 14.2 30.0 20.05 22.55 20.55" fill="#d0dc1c" fill-rule="evenodd" stroke="none"/>
      <path d="M21.8 6.7 Q22.45 7.15 22.45 8.95 22.45 9.3 22.05 9.45 L21.65 9.4 Q21.35 9.25 21.45 8.85 L21.45 7.75 Q21.45 7.25 20.9 7.25 L19.05 7.15 19.05 7.1 20.55 6.55 21.8 6.7" fill="#ffffff" fill-rule="evenodd" stroke="none"/>
      <path d="M28.15 15.2 Q28.5 15.5 28.3 15.9 28.1 16.3 27.7 16.05 L24.5 15.65 Q22.4 15.7 21.85 14.35 L21.95 14.05 Q22.15 13.95 22.25 14.15 22.8 15.15 25.0 14.9 L28.15 15.2" fill="#ffffff" fill-rule="evenodd" stroke="none"/>
    </g>
  </defs>
</svg>